<svg xmlns="http://www.w3.org/2000/svg" version="1.1" xmlns:xlink="http://www.w3.org/1999/xlink" xmlns:svgjs="http://svgjs.com/svgjs" width="1000" height="1000"><rect width="1000" height="1000" rx="200" ry="200" fill="#555555"></rect><g transform="matrix(29.62962962962963,0,0,29.62962962962963,99.50460815429688,190.491704305013)"><svg xmlns="http://www.w3.org/2000/svg" version="1.1" xmlns:xlink="http://www.w3.org/1999/xlink" xmlns:svgjs="http://svgjs.com/svgjs" width="27" height="21"><svg version="1.1" id="Layer_1" xmlns="http://www.w3.org/2000/svg" xmlns:xlink="http://www.w3.org/1999/xlink" x="0px" y="0px" viewBox="0 0 27 21" style="enable-background:new 0 0 27 21;" xml:space="preserve">
<style type="text/css">
	.st0{fill:#C7A27A;}
	.st1{opacity:0.5;}
</style>
<g>
	<path class="st0" d="M20.4,3.1c0.4,0.1,0.7,0.5,0.7,0.9c0,0,0,0,0,0s0,3.5-4.2,6.8c-1.6,1.2-2.9,3.1-3.4,5
		c-0.1,0.4-0.4,0.6-0.8,0.7c-0.4,0-0.7-0.1-0.9-0.4c-1.1-1.9-2-4.9,0.1-8.4C13.8,4.1,17.5,2.3,20.4,3.1z"></path>
	<path class="st0" d="M15,18.7c-0.4-0.1-0.7-0.5-0.7-0.9c0,0,0,0,0,0s0-3.5,4.2-6.8c1.6-1.2,2.9-3.1,3.5-5c0.1-0.3,0.4-0.6,0.7-0.7
		c0.4,0,0.7,0.1,0.9,0.4c1.1,1.9,2,4.9,0,8.5C21.5,17.7,17.9,19.5,15,18.7z"></path>
	<g class="st1">
		<path class="st0" d="M9.7,18.7c0.4,0,0.8-0.3,0.9-0.7c0,0,0,0,0,0s0.9-3.4-2.3-7.6c-1.2-1.6-2-3.7-2-5.7c0-0.4-0.2-0.7-0.6-0.9
			C5.4,3.7,5,3.7,4.7,4c-1.5,1.5-3.2,4.2-2.1,8.1C3.6,16,6.7,18.6,9.7,18.7z M11.9,16.6c0.4,0.2,0.7,0.3,1.1,0.2
			c-0.2,0.4-0.4,0.8-0.7,1c-0.1,0.1-0.3,0.1-0.4,0c-0.1-0.1-0.2-0.2-0.2-0.4C11.7,17.2,11.7,17,11.9,16.6z M13.5,4.6
			c-3.4,2.5-3.4,6.1-3.5,5.9C6.7,6.3,7.6,2.8,7.6,2.8s0,0,0-0.1c0.1-0.4,0.5-0.7,0.9-0.7C10.3,2.1,12.1,3.1,13.5,4.6z"></path>
	</g>
</g>
</svg></svg></g></svg>