<svg width="471" height="364" viewBox="0 0 471 364" fill="none" xmlns="http://www.w3.org/2000/svg">
<path fill-rule="evenodd" clip-rule="evenodd" d="M118.764 218.514C121.178 216.869 126.057 211.006 128.625 209.669C134.327 206.635 159.802 200.722 160.624 200.413C161.908 199.899 170.075 197.996 174.851 196.865C186.048 194.088 226.213 176.296 236.794 171.719C238.129 175.267 249.275 191.003 247.374 192.597C241.057 197.842 229.757 204.424 222.464 208.23C216.527 211.277 210.362 213.856 204.025 215.943C196.885 218.308 191.955 220.828 184.815 223.245C177.779 225.61 186.202 233.015 189.798 234.558C193.855 236.255 200.121 237.129 204.23 238.62C196.937 249.933 190.825 263.715 189.592 277.239C189.284 280.479 186.819 283.513 182.761 282.535C180.655 282.021 161.446 279.45 158.261 278.73C137.306 273.948 99.6573 248.905 109.365 223.194C111.625 224.222 116.709 219.902 118.764 218.514Z" fill="#C7A27A"/>
<path fill-rule="evenodd" clip-rule="evenodd" d="M130.474 82.1922C132.015 82.0379 136.073 78.9525 133.967 77.3584C131.81 75.7129 130.269 81.0609 130.474 82.1922ZM48.9115 94.1737C49.3224 94.1223 49.1169 91.8597 48.5006 91.5511C46.4461 90.6255 46.292 94.0194 46.2407 94.945C46.1893 96.0763 46.0352 99.316 48.5006 98.4418C49.9387 97.979 49.0656 95.0479 48.9115 94.1737ZM168.996 104.664C168.944 106.669 173.002 110.526 174.492 108.212C175.724 106.258 169.098 100.653 168.996 104.664ZM26.2095 59.5147C27.3908 62.4972 33.1434 58.4348 33.4002 56.2237C33.8111 51.7499 26.1581 56.5322 26.2095 59.5147ZM74.4897 72.4218C77.1606 72.2161 80.7559 68.7708 83.324 67.4852C85.0703 66.6111 89.847 65.5826 90.4119 63.6285C90.8742 61.9316 82.759 65.5826 82.0399 65.8911C78.8555 67.3824 75.9792 69.0794 74.4897 72.4218ZM276.805 48.7673C278.934 47.0589 281.575 46.1171 284.303 46.0934C285.69 46.1448 288.566 46.9675 288.669 44.6021C288.823 40.7454 276.702 45.4763 274.801 46.1962C275.469 47.0704 276.137 47.8932 276.805 48.7673ZM142.801 199.642C141.209 197.019 138.384 195.528 136.278 193.265C137.049 196.916 135.302 200.208 134.07 203.55C136.946 202.213 139.874 200.927 142.801 199.642ZM416.458 255.487C417.331 252.556 418.204 249.676 419.231 246.797C420.361 243.608 420.926 243.3 418.204 241.089L411.424 253.893C413.029 254.631 414.72 255.167 416.458 255.487ZM182.863 44.8078C179.884 41.4139 165.863 41.2082 167.609 48.6645C168.225 51.2871 171.667 48.5102 173.824 47.8932C175.93 47.3275 181.99 47.2247 182.863 44.8078ZM182.35 92.5796C181.99 91.7054 181.271 88.62 180.193 88.3629C179.165 88.1058 175.005 91.3969 174.235 91.8597C170.383 94.328 166.582 97.0019 162.832 99.6245C164.27 99.6245 165.606 99.1103 167.044 99.1103C168.739 99.1103 169.972 99.7788 171.615 99.4188C175.159 98.5446 179.32 94.5851 182.35 92.5796ZM186.202 15.5996C186.562 14.0569 204.025 18.685 206.13 19.5592C207.26 20.022 213.167 23.1074 211.934 18.4793C211.215 15.8567 204.384 13.7998 202.176 13.0799C196.628 11.2287 190.722 9.94312 184.815 10.2517C183.685 10.3031 174.954 10.8173 178.6 14.3141C179.833 15.4968 184.353 15.1368 186.202 15.5996ZM190.054 227.564C193.341 229.159 196.628 230.393 200.07 231.678C201.559 232.244 203.922 233.684 205.617 233.324C207.004 233.015 207.415 230.958 208.134 229.519C210.694 224.605 213.946 220.085 217.79 216.097C215.992 214.76 206.798 220.622 204.538 221.445C202.278 222.319 200.121 223.194 197.913 224.222C195.807 225.148 191.646 226.022 190.054 227.564ZM247.785 184.009C252.562 181.85 257.03 178.044 260.934 174.599C265.402 170.691 269.408 166.577 272.696 161.486C270.744 161.589 266.378 167.914 266.327 161.023C266.327 157.475 271.155 154.03 272.644 150.739C268.895 148.63 265.505 161.229 261.242 158.195C257.133 155.264 263.605 145.134 264.889 141.945C262.475 140.351 248.71 158.349 246.706 160.663C245.474 162.103 242.495 164.006 241.827 165.703C241.416 166.68 241.365 169.868 241.57 170.794C241.981 172.696 244.138 175.01 245.063 176.81C246.3 179.071 247.217 181.495 247.785 184.009ZM444.347 248.956C440.238 243.146 444.501 240.626 447.84 235.792C450.571 231.929 452.862 227.772 454.671 223.399C458.934 212.6 462.735 202.624 464.841 191.209C461.964 192.546 460.167 197.534 458.729 200.156C456.777 203.704 455.082 207.407 452.925 210.852C448.918 217.28 444.912 224.171 439.827 229.724C437.516 232.244 435.513 235.072 432.842 237.386C431.609 238.415 429.298 239.289 428.374 240.574C427.501 241.809 428.476 242.58 428.168 244.071C427.86 245.562 426.319 247.157 425.652 248.648C424.778 250.55 424.008 252.453 423.032 254.304C422.156 255.873 421.614 257.606 421.44 259.395C421.132 261.555 422.056 261.812 420.207 263.766C423.648 265.257 427.09 266.8 430.48 268.291C431.661 268.806 432.791 269.32 433.972 269.834C434.229 269.371 434.486 268.908 434.691 268.446C435.616 267.52 436.489 265.257 437.054 264.075C439.262 259.035 441.779 253.996 444.347 248.956ZM113.165 224.582C103.407 250.242 137.665 271.84 158.723 276.622C161.651 277.29 164.476 278.165 167.404 278.884C170.588 279.656 173.362 279.501 176.546 279.81C179.063 280.067 180.244 282.021 182.607 282.535C186.562 283.41 186.305 280.427 186.613 277.239C187.794 263.715 194.728 250.653 202.022 239.34C198.683 238.158 195.396 236.821 192.109 235.535C189.284 234.404 184.969 231.267 181.939 231.113C179.679 231.01 176.289 232.912 174.132 233.735C170.521 235.126 166.834 236.311 163.089 237.283C156.463 238.929 149.119 241.243 142.288 241.397C140.336 241.449 134.891 242.374 133.505 241.14C130.782 238.826 134.532 236.872 136.792 236.049C150.3 231.113 164.63 229.004 178.138 223.913C185.123 221.291 192.006 218.411 198.991 215.84C205.052 213.629 211.369 211.675 217.173 208.949C224.878 205.35 232.633 200.876 239.31 195.579C240.646 194.5 243.419 192.957 244.344 191.414C245.166 190.077 245.063 191.414 244.857 189.769C244.755 188.586 243.317 186.992 242.7 185.912C240.469 181.796 238.513 177.535 236.845 173.159C226.213 177.736 216.095 183.958 205.565 188.843C194.985 193.78 183.12 197.225 171.821 200.002C166.993 201.185 161.497 201.545 157.08 203.859C155.231 204.836 153.33 205.967 151.327 206.584C150.711 207.715 150.146 207.921 149.581 207.252C149.411 207.057 149.196 206.908 148.953 206.818C148.711 206.728 148.45 206.701 148.194 206.738C146.94 207.025 145.718 207.439 144.547 207.972C138.744 210.235 133.196 213.063 127.649 215.943C125.03 217.331 122.359 218.668 119.842 220.211C118.518 221.004 117.294 221.954 116.196 223.039C114.963 224.428 115.271 225.559 113.165 224.582ZM332.327 72.1647C334.792 72.2161 337.052 70.8792 339.62 70.9306C343.678 71.0334 346.862 74.1702 349.174 77.2042C353.796 83.1692 352.615 90.3684 350.303 97.1048C349.197 100.315 347.659 103.36 345.732 106.155C344.037 108.624 341.007 110.989 339.826 113.714C337.874 118.24 341.829 116.337 344.191 115.36C347.217 114.185 350.055 112.574 352.615 110.578C364.069 101.476 372.749 88.7743 375.676 74.2216C377.114 67.1253 377.012 58.7948 372.03 52.984C367.51 47.6875 359.703 45.9391 353.026 46.9161C345.835 47.996 339.261 51.0299 333.405 54.9895C331.71 56.1208 330.118 57.4064 328.526 58.6405C326.42 60.3375 325.188 60.3375 325.701 63.0115C326.112 64.9655 327.139 66.971 327.858 68.8737C329.194 72.4218 328.731 73.296 332.327 72.1647ZM340.134 132.741L339.62 133.615C343.061 133.769 346.246 130.735 349.174 129.244C352.974 127.341 356.364 124.719 359.651 122.045C365.507 117.365 371.465 112.12 375.83 105.95C385.641 92.2196 394.526 74.7359 391.855 57.3035C388.979 38.5342 372.543 31.2836 355.08 33.7519C347.17 34.8832 340.134 38.3799 333.097 41.9795C329.553 43.7793 326.523 46.1448 323.287 48.4074C321.592 49.5901 320.051 49.7444 319.949 51.8013C319.846 53.344 322.517 56.8407 323.287 58.2806C332.121 49.2302 341.675 41.7224 355.08 41.2596C371.002 40.694 380.402 55.8123 380.35 70.3135C380.299 84.5062 374.187 98.1332 364.428 108.366C360.011 112.994 355.799 116.697 350.355 120.091C347.633 121.788 345.63 123.279 342.599 124.41C340.442 125.182 340.699 124.77 340.134 126.776C339.672 128.421 340.134 130.992 340.134 132.741ZM253.64 325.525C253.396 328.073 252.967 330.599 252.356 333.084C252.151 333.958 250.969 336.787 251.175 337.815C251.534 339.461 251.072 338.432 252.51 339.255C254.051 340.18 255.797 340.129 257.441 340.386C258.468 340.54 262.218 342.34 262.885 342.032C264.015 341.517 263.964 339.82 265.145 339.152C266.789 338.226 269.254 338.998 270.795 339.769C274.956 341.723 277.832 345.734 281.889 347.945C289.08 351.853 297.555 354.013 305.567 354.939C309.882 355.402 314.35 356.276 318.613 355.247C322.003 354.425 326.369 354.527 328.218 350.876C311.936 346.403 287.077 340.9 280.657 322.182C277.164 325.371 271.309 323.674 267.097 323.211C262.423 322.748 258.263 322.851 254.051 320.743C253.711 322.313 253.573 323.92 253.64 325.525ZM109.519 209.669C117.172 210.132 124.465 206.481 129.19 200.362C130.372 198.871 131.553 197.328 132.221 195.528C132.375 195.065 132.529 194.602 132.683 194.191C133.402 192.957 133.094 192.34 131.707 192.443C130.937 191.363 128.985 191.003 129.55 189.1C129.961 187.66 131.502 187.609 132.888 187.146C132.341 186.157 131.649 185.255 130.834 184.472C128.317 186.735 123.797 191.106 122.051 185.963C121.229 183.495 122.667 181.13 122.308 178.713C122.154 177.736 120.921 175.216 120.202 174.599C116.35 171.462 110.751 172.748 106.694 174.599C103.869 175.885 103.252 176.502 102.79 179.381C102.328 182.364 101.866 185.346 101.352 188.329C103.047 187.455 103.355 185.552 104.485 184.164C104.896 184.935 105.307 185.655 105.718 186.426C105.966 186.27 106.255 186.192 106.547 186.201C106.84 186.21 107.124 186.306 107.361 186.478C108.183 187.712 107.67 189.614 107.413 190.9C110.135 190.643 111.316 193.677 108.543 194.911C105.718 196.197 104.434 192.7 104.331 190.437C103.252 191.723 102.174 191.003 101.455 191.671C100.736 192.34 100.428 193.677 100.171 195.168C99.7598 197.636 98.6299 201.133 99.6571 203.601C101.095 207.304 105.923 209.207 109.519 209.669ZM331.608 92.4253C329.091 95.9735 324.725 100.602 323.852 104.87C326.626 103.224 332.532 95.3564 334.073 101.63C334.946 105.23 330.478 109.549 329.348 113.046C333.765 111.606 336.898 107.029 339.62 103.533C343.113 99.0589 346.708 93.1452 347.581 87.4887C347.761 86.3964 347.714 85.2789 347.444 84.2054C347.174 83.1319 346.688 82.1253 346.013 81.2479C345.339 80.3705 344.492 79.641 343.525 79.1047C342.558 78.5683 341.491 78.2365 340.391 78.1298C337.937 77.9838 335.475 78.2267 333.097 78.8497C332.019 79.1068 330.426 79.4153 329.502 79.981C328.321 80.7009 328.167 82.3979 327.037 80.958L322.568 89.4428C324.058 88.8771 327.088 86.6145 328.731 86.8202C331.094 87.1802 331.556 90.6769 331.608 92.4253ZM94.1614 23.3645C87.3929 23.6404 80.699 24.8873 74.2843 27.0669C72.7434 27.5811 66.1177 29.4324 67.5045 32.1578C68.429 33.9576 73.3598 31.4379 74.8493 30.9751C81.2695 29.1753 87.8438 27.9925 94.4182 26.9127C96.0104 26.6555 101.403 26.6555 101.66 24.5986C102.02 22.0789 96.0104 23.3645 94.1614 23.3645ZM275.11 313.801C271.556 314.186 267.968 314.134 264.426 313.646C261.396 313.286 258.314 312.052 255.284 312.052C255.284 315.292 255.078 315.292 258.468 316.012C260.831 316.475 263.245 316.783 265.659 317.092C269.871 317.709 274.596 319.354 278.91 318.48C278.808 317.914 278.499 314.109 278.037 313.749C277.78 313.543 275.469 313.801 275.11 313.801ZM216.865 74.2731C217.892 74.8901 220.204 77.4613 221.385 77.5127C220.974 74.5302 217.636 69.3879 213.835 71.1877C212.91 71.6505 210.958 73.8617 211.832 74.8387C212.294 75.4558 215.632 74.2731 216.865 74.2731ZM181.734 100.704C181.785 100.19 181.785 99.6759 181.836 99.1617C180.449 99.9845 178.703 100.396 177.727 101.681C178.909 102.196 180.09 102.761 181.271 103.276C181.425 102.401 181.579 101.527 181.734 100.704ZM291.443 179.484C298.017 181.798 304.078 184.884 308.906 190.129C313.117 194.654 315.069 202.624 316.096 208.538C318.613 223.194 313.734 236.821 310.549 250.859C308.906 258.007 306.492 264.846 304.18 271.788C302.177 277.856 300.482 284.181 297.709 289.94C295.398 294.826 292.419 299.659 290.364 304.699C289.234 307.424 287.488 316.783 283.276 313.852C282.146 316.834 281.838 316.577 283.071 318.686C283.944 320.177 286.974 322.285 288.361 323.519C292.162 326.81 296.938 329.484 301.356 331.747C309.471 335.964 318.151 339.049 326.523 342.906C330.221 344.603 334.227 346.608 333.405 351.442C333.107 353.366 332.342 355.187 331.178 356.747C330.014 358.307 328.486 359.557 326.728 360.39C323.287 362.087 318.408 363.372 314.607 363.938C312.347 364.246 311.833 363.321 310.036 363.012C307.981 362.652 305.619 363.372 303.513 363.321C294.114 363.218 285.844 360.852 278.243 355.402C275.52 353.448 271.514 348.151 267.97 348.151C266.173 348.151 266.532 349.282 264.94 349.899C262.988 350.722 259.547 349.179 257.647 348.819C253.538 348.048 249.326 347.277 246.552 343.729C243.573 339.872 244.652 335.09 245.936 330.821C247.374 325.988 249.788 321.103 250.815 316.217C251.141 314.697 251.21 313.133 251.021 311.589C250.61 309.687 248.71 308.607 248.658 306.55C248.658 305.933 249.531 305.11 249.685 304.493C250.045 303.105 249.994 301.613 250.096 300.225C250.353 297.654 250.918 295.237 251.329 292.717C252.254 287.009 254.051 281.867 255.797 276.365C257.492 271.017 259.085 267.006 262.372 262.378C264.067 259.961 269.717 251.425 266.943 248.956C263.194 256.361 258.776 262.172 252.973 268.086C248.555 272.611 244.241 278.679 238.694 281.918C232.633 285.467 225.186 287.523 218.457 289.426C215.273 290.3 212.602 292.306 209.161 292.666C205.403 293 201.616 292.687 197.964 291.74C196.937 291.483 193.958 289.94 193.033 290.043C191.646 290.197 189.695 292.614 188.205 293.077C184.558 294.157 182.042 292.1 179.268 290.146C176.238 288.038 175.365 287.523 171.872 287.266C167.609 286.958 163.449 285.467 159.288 284.541C151.944 282.947 145.677 279.656 138.949 276.21C131.296 272.302 124.722 266.852 118.918 260.424C110.392 251.013 98.5785 224.891 112.446 215.737C104.28 214.606 96.7808 211.058 95.805 201.802C95.2913 196.968 96.2672 191.569 97.4999 186.889C98.0649 184.729 98.7326 182.621 99.3489 180.513C99.8097 179.806 100.076 178.99 100.119 178.147C100.428 177.067 99.9653 176.502 98.8353 176.502C96.6781 173.982 95.0859 171.771 94.6236 168.171C94.4695 167.04 94.3668 165.291 95.1886 164.314C95.5353 163.915 96.0054 163.644 96.524 163.543C97.8081 163.595 98.1676 162.977 97.6026 161.692C98.219 159.841 97.2944 158.349 99.6057 157.578C100.325 157.732 101.095 157.887 101.814 158.092C102.739 158.504 103.355 158.195 103.663 157.167C105.821 156.292 104.845 155.058 107.772 156.138C109.588 156.819 111.223 157.91 112.549 159.326C114.193 158.298 110.443 151.767 110.34 149.71C110.032 144.825 112.087 140.814 114.706 136.803C119.791 128.987 126.93 122.302 133.916 116.285C147.372 104.715 161.497 93.7623 176.649 84.5576C170.383 80.1867 163.089 79.004 155.642 81.0609C148.759 82.9121 143.212 86.306 136.895 89.2885C131.039 92.0139 124.824 93.1452 122.975 85.6889C120.87 77.307 127.547 74.1702 133.556 70.4164C132.066 69.285 127.136 70.1078 125.287 70.2107C121.126 70.5192 117.172 71.4448 113.165 72.2676C111.214 72.679 109.467 72.5761 107.567 72.9875C104.742 73.5531 101.763 74.2216 98.8867 75.0444C91.936 76.9827 85.3326 80.002 79.3178 83.992C74.1816 87.4373 70.6376 92.3739 66.5286 96.8477C61.8033 101.99 57.3348 107.029 50.3496 108.932C47.0625 109.806 43.2617 110.629 40.9504 107.698C38.7932 104.972 38.6905 101.733 38.7418 98.3904C38.8959 91.0369 42.4399 83.1178 46.5488 77.1527C51.0173 70.6735 56.9753 66.9196 62.6251 61.6745C54.4586 62.2401 46.5488 66.5596 39.05 69.5422C37.4578 70.1592 35.8655 70.8792 34.2733 71.4448C32.5784 72.0619 31.4484 71.7019 29.8562 71.959C26.1581 72.6275 22.9737 74.1702 19.3783 71.7019C12.5472 66.971 19.3784 57.4064 24.1037 54.4239C30.5773 50.3303 37.401 46.8198 44.4944 43.9336C40.5908 39.7169 43.9294 33.649 47.5247 30.6665C52.0959 26.8612 57.8485 24.7015 63.3442 22.6446C67.6586 21.0504 71.9216 19.5078 76.4415 18.5307C81.1668 17.5023 86.7139 15.9596 91.4905 16.1139C96.0104 16.2681 99.9653 15.4454 104.536 15.3425C108.337 15.2397 112.138 15.3425 115.939 15.2397C126.16 14.9826 136.381 15.6511 146.396 16.4224C138.487 -6.71787 190.568 0.4299 201.713 3.46385C211.832 6.18926 223.388 9.37747 231.863 15.9082C235.448 18.7352 238.861 21.7746 242.084 25.01C246.809 29.7409 249.377 36.0145 251.894 42.1338C258.211 39.0484 264.221 35.6545 271.155 34.1118C277.729 32.672 284.457 30.6665 291.083 29.5866C296.117 28.7639 303.41 28.1982 307.622 31.7464C312.193 35.6031 314.607 41.6196 317.329 46.7619C330.478 34.2661 345.167 25.1129 363.966 25.7299C382.353 26.347 394.423 42.1852 396.632 59.4119C399.097 78.3869 390.623 98.1847 379.22 112.892C374.084 119.474 368.794 125.85 361.86 130.735C358.419 133.152 354.823 135.826 351.074 137.729C349.156 138.683 347.183 139.524 345.167 140.249C344.278 140.594 343.369 140.886 342.445 141.123C339.826 141.74 340.339 140.917 339.363 143.231C338.593 145.082 338.644 148.322 338.336 150.379C337.925 152.744 337.72 155.11 337.155 157.424C336.179 161.435 335.152 165.343 333.919 169.302C331.569 176.835 328.454 184.106 324.623 191.003C327.858 192.443 332.43 192.546 335.922 193.008C339.796 193.569 343.624 194.411 347.376 195.528C355.234 197.739 362.219 199.59 369.718 202.882C377.474 206.275 384.357 211.418 391.855 215.48C398.738 219.234 405.672 223.913 412.041 228.387C413.397 229.337 414.623 230.461 415.687 231.73C416.614 232.777 417.646 233.725 418.769 234.558C419.437 235.072 421.388 237.798 422.108 237.9C423.443 238.106 423.238 237.078 424.316 235.638C426.525 232.655 429.658 230.393 431.866 227.359C433.66 224.83 435.58 222.393 437.619 220.057C442.352 214.761 446.423 208.907 449.74 202.624C451.487 199.333 453.387 196.197 455.287 193.111C457.188 190.026 460.578 185.963 464.378 186.118C464.07 184.524 463.094 184.266 464.789 183.341C465.868 182.724 467.974 183.701 468.796 184.369C471.004 186.015 471.107 189.254 470.953 191.723C470.545 197.962 469.372 204.128 467.46 210.081C465.252 217.177 462.529 223.502 459.499 230.29C457.085 235.689 454.157 242.837 448.199 245.357C452.206 251.065 450.254 255.693 447.583 261.761C445.631 266.183 443.063 270.76 439.16 273.691C434.743 276.982 429.966 274.205 425.343 271.994C422.57 270.657 413.992 267.571 415.739 263.509C413.581 263.2 412.246 261.658 410.346 261.195C408.291 260.681 408.651 261.504 406.442 261.863C404.799 262.121 402.282 260.629 400.69 260.064C398.07 259.19 395.451 258.264 392.831 257.338C385.435 254.819 378.193 252.299 370.746 250.242C356.878 246.437 342.856 244.277 329.04 240.934C326.266 240.266 323.544 239.597 320.616 239.083C320 238.98 316.918 238.775 316.559 238.158C315.891 237.026 317.945 230.804 318.1 229.519C319.189 220.924 318.911 212.212 317.278 203.704C316.61 200.259 313.631 195.837 313.682 192.443C313.682 190.18 315.686 187.712 316.867 185.706C319.743 180.667 322.773 175.216 324.931 169.971C328.218 161.949 330.221 152.899 331.659 144.311C332.43 139.837 333.303 134.952 333.508 130.427C333.662 126.981 333.405 123.33 333.868 119.782C331.967 119.988 329.245 120.965 327.55 119.885C325.393 118.548 324.777 114.743 325.085 112.429C317.637 113.714 317.894 106.669 318.356 101.116C304.9 101.116 322.106 81.1123 324.263 76.7928C325.239 74.8387 325.239 77.0499 324.777 73.9645C324.571 72.6275 323.647 71.1363 323.133 69.9021C322.003 67.2281 320.77 64.5542 319.486 61.9316C316.718 56.4149 313.613 51.074 310.19 45.9391C307.143 48.1011 304.336 50.5836 301.818 53.344C303.461 49.0245 308.495 43.7279 306.338 38.8427C304.335 34.3175 297.709 34.6261 293.754 35.4488C283.071 37.7114 272.85 41.0025 262.68 44.7564C265.813 46.5562 270.641 45.1678 273.774 43.7793C277.626 42.0824 281.838 40.2826 285.998 39.357C289.645 38.5856 294.422 38.8427 293.394 43.7279C292.521 47.6875 288.669 51.5442 286.101 54.5267C280.451 61.0574 273.363 66.1483 266.378 71.2391C258.879 76.6899 251.689 82.6036 244.087 87.9001C230.373 97.4648 215.684 105.795 201.508 114.691C194.163 119.319 185.842 123.073 177.83 126.519C169.047 130.324 160.624 134.335 151.533 137.317C146.499 138.963 141.466 140.351 136.484 142.254C133.351 143.437 127.958 145.802 125.903 142.305C121.743 135.158 136.843 125.799 141.003 121.428C143.88 124.205 129.755 134.541 130.885 138.603C131.758 141.791 135.097 137.677 136.74 136.803C139.36 135.415 142.442 134.695 145.061 133.101C150.454 129.81 156.823 126.056 158.056 119.268C157.183 118.342 157.234 117.52 158.107 116.748C158.511 116.298 158.824 115.774 159.032 115.206C159.35 114.04 159.59 112.855 159.751 111.657C160.367 108.315 158.826 105.178 160.264 101.939C151.944 108.264 143.982 115.36 136.073 122.199C128.985 128.318 121.589 136.34 119.021 145.494C118.712 146.676 118.147 148.013 118.199 149.248C118.301 151.664 118.558 151.15 120.51 151.922C122.462 152.693 125.287 152.641 127.393 152.693C128.574 152.744 133.916 151.459 132.888 154.081C132.272 155.573 128.574 155.521 127.238 155.675C123.9 156.035 122.102 155.675 123.694 159.275C124.414 160.869 125.852 162 126.982 163.235C130.115 166.731 131.81 172.079 134.275 176.142C137.1 180.821 140.182 185.243 143.417 189.614C144.753 191.414 146.551 194.757 148.451 196.042C150.197 197.225 148.143 197.122 151.07 196.659C152.354 196.454 153.484 195.631 154.717 195.322C161.959 193.574 169.407 191.569 176.906 189.409C186.459 186.632 196.526 184.266 205.668 180.255C213.835 176.656 221.95 172.388 230.219 168.737C232.633 167.657 235.047 166.988 236.948 165.034C239.208 162.669 241.108 159.584 243.162 157.064C246.706 152.744 249.994 148.373 253.794 144.26C256.619 141.226 261.704 135.569 265.71 134.335C273.363 132.021 269.254 143.642 268.278 146.625C270.076 147.036 271.001 144.722 273.106 145.391C275.623 146.162 275.88 149.556 276.188 151.664C276.291 152.23 275.52 153.259 275.726 153.773C275.829 153.927 277.472 154.904 277.78 155.367C278.91 157.012 278.705 159.018 278.294 160.766C276.034 169.919 268.022 176.604 262.115 183.392C264.734 182.878 266.738 181.387 269.203 180.615C271.566 179.896 273.877 179.947 276.24 179.741C278.705 179.536 281.068 178.61 283.584 178.559C286.307 178.404 288.823 179.176 291.443 179.484Z" fill="black"/>
<path fill-rule="evenodd" clip-rule="evenodd" d="M12.1878 97.1048C10.7497 98.0818 10.3388 99.0074 10.2874 101.167C10.2874 102.093 10.3388 105.435 11.5715 105.281C12.7528 105.178 12.1878 98.2361 12.1878 97.1048ZM4.68896 102.556C5.35667 95.5107 7.92477 88.3629 13.9855 83.9405C15.475 82.8607 17.1699 82.9121 18.8135 82.1922C19.7894 81.7808 21.3816 79.8781 22.4602 80.0838C26.5692 80.9066 21.8439 86.4088 21.1248 87.8487C18.9676 92.3225 19.1217 96.2306 19.173 101.064C19.2244 104.715 19.9948 110.886 18.1458 114.229C16.194 117.777 11.931 115.463 9.51699 113.354C6.53799 110.783 4.27807 106.567 4.68896 102.556Z" fill="black"/>
<path fill-rule="evenodd" clip-rule="evenodd" d="M77.0578 123.382C77.0578 127.29 80.2422 124.667 80.1395 121.839C79.9854 117.725 76.9037 120.296 77.0578 123.382ZM94.0072 101.63C90.5146 104.767 87.8438 106.515 87.1761 111.349C86.6625 115 87.1761 118.651 87.1761 122.302C87.2274 128.473 82.2453 134.952 76.8523 127.907C72.9488 122.765 74.3356 114.64 77.52 109.446C79.2315 106.594 81.5672 104.167 84.3512 102.35C86.457 101.064 92.2609 98.5446 94.0072 101.63Z" fill="black"/>
<path fill-rule="evenodd" clip-rule="evenodd" d="M45.2649 196.865C44.854 197.842 43.9295 201.75 45.8299 200.825C47.5762 200.053 46.4463 197.482 45.2649 196.865ZM35.0439 184.781C34.7357 183.289 34.8898 174.085 37.4066 174.805C39.4097 175.37 39.7179 180.05 40.5396 181.695C43.57 187.815 50.5039 191.62 52.8665 197.945C55.5373 204.99 47.4735 205.196 43.1591 202.367C38.1256 198.973 35.198 190.694 35.0439 184.781Z" fill="black"/>
<path fill-rule="evenodd" clip-rule="evenodd" d="M28.8289 146.985C29.9075 145.494 30.0616 144.722 29.3939 143.385C28.6235 144.26 28.7776 145.494 28.8289 146.985ZM29.5993 153.618C23.8468 154.287 23.59 143.694 24.5659 140.043C25.4664 137.023 26.8921 134.185 28.7776 131.661C29.1371 131.198 32.4243 126.93 33.092 126.879C35.6087 126.827 34.8896 129.655 34.6328 130.735C33.7553 133.913 33.4253 137.217 33.6569 140.506C33.9137 144.414 35.7628 153.773 29.5993 153.618Z" fill="black"/>
<path fill-rule="evenodd" clip-rule="evenodd" d="M290.21 61.9316C281.992 68.8222 274.236 76.2786 265.299 82.295C260.933 85.2261 256.362 87.8487 251.996 90.8312C249.811 92.3754 247.49 93.7178 245.063 94.8422C242.905 95.8192 241.467 95.9735 243.265 93.608C244.446 92.0139 247.168 90.9341 248.812 89.8028C251.329 88.1058 253.743 86.1517 256.362 84.6605C261.036 81.9865 265.71 79.7753 270.025 76.4842C273.877 73.5531 277.832 70.6735 281.478 67.5881C283.07 66.3025 288.258 60.1318 290.21 61.9316Z" fill="black"/>
<path fill-rule="evenodd" clip-rule="evenodd" d="M290.364 86.8202C294.062 89.957 284.817 98.6475 282.711 100.602C280.502 102.658 278.037 104.51 275.623 106.361C274.75 107.029 270.127 111.349 268.946 110.989C266.635 110.32 269.665 107.492 270.487 106.772C273.055 104.407 275.674 102.093 278.191 99.6759C280.451 97.4648 282.916 95.4593 285.074 93.1967C286.871 91.294 288.361 88.2086 290.364 86.8202Z" fill="black"/>
<path fill-rule="evenodd" clip-rule="evenodd" d="M16.9643 214.195C15.9884 211.983 14.2934 214.452 15.1666 215.532C15.9884 216.611 16.8102 214.657 16.9643 214.195ZM11.3145 209.772C11.8281 206.481 13.0094 204.681 16.0911 207.458C18.197 209.361 22.46 214.863 22.0491 217.846C21.5355 221.754 17.2211 220.674 14.9612 218.617C12.7012 216.56 11.674 212.703 11.3145 209.772Z" fill="black"/>
<path fill-rule="evenodd" clip-rule="evenodd" d="M18.0428 274.462C14.2934 274.154 11.0576 271.274 9.4654 267.88C8.12999 265 6.84594 260.424 11.5712 261.915C14.653 262.892 26.5689 274.925 18.0428 274.462Z" fill="black"/>
<path fill-rule="evenodd" clip-rule="evenodd" d="M63.7548 255.847C60.8272 256.516 57.9509 254.613 56.1532 252.402C55.0233 251.065 52.4552 246.334 53.7392 244.38C55.5883 241.654 58.3104 247.105 59.2863 248.185C60.7758 249.933 65.6552 253.173 63.7548 255.847Z" fill="black"/>
<path fill-rule="evenodd" clip-rule="evenodd" d="M66.4257 181.952C64.1658 180.873 62.0086 179.587 61.0841 177.067C60.5191 175.473 60.0055 170.588 62.6249 170.639C65.6039 170.639 72.4864 181.438 66.4257 181.952Z" fill="black"/>
<path fill-rule="evenodd" clip-rule="evenodd" d="M50.4008 131.558C53.4825 131.507 54.2016 133.204 54.6125 135.62C54.9206 137.266 56.3074 142.871 54.8693 144.002C52.8148 145.648 49.4763 141.894 48.8085 140.403C47.3704 137.369 49.2708 134.386 50.4008 131.558Z" fill="black"/>
<path fill-rule="evenodd" clip-rule="evenodd" d="M102.944 299.248C104.434 299.916 107.823 301.408 106.539 303.773C105.204 306.241 101.3 303.824 99.8624 302.796C99.246 302.333 95.3939 299.402 95.548 298.425C95.9075 296.317 101.198 299.042 102.944 299.248Z" fill="black"/>
<path fill-rule="evenodd" clip-rule="evenodd" d="M4.79153 146.728C5.81877 149.299 6.94874 158.041 1.60709 153.31C-0.0364917 151.87 -0.293302 150.07 0.27168 148.065C1.09347 145.185 2.2748 145.751 4.79153 146.728Z" fill="black"/>
<path fill-rule="evenodd" clip-rule="evenodd" d="M288.926 114.074C287.745 111.657 290.672 110.063 292.213 108.521C293.24 107.492 297.555 101.939 298.941 102.247C301.869 102.864 290.364 112.994 288.926 114.074Z" fill="black"/>
<path fill-rule="evenodd" clip-rule="evenodd" d="M50.3497 289.94C53.1233 289.478 53.791 292.614 55.5886 293.951C56.3591 294.517 59.0299 295.031 58.4649 296.265C57.0781 299.556 50.1956 292.152 50.3497 289.94Z" fill="black"/>
<path fill-rule="evenodd" clip-rule="evenodd" d="M73.9761 216.509C75.8765 215.686 81.4749 220.057 79.8313 221.908C77.4687 224.685 74.0788 218 73.9761 216.509Z" fill="black"/>
<path fill-rule="evenodd" clip-rule="evenodd" d="M114.501 279.09C113.114 279.244 107.207 277.393 109.364 274.873C110.905 273.125 115.014 277.547 114.501 279.09Z" fill="black"/>
<path fill-rule="evenodd" clip-rule="evenodd" d="M43.6725 267.16C42.2857 267.726 37.2523 266.594 38.8445 264.383C40.334 262.326 43.6725 265.412 43.6725 267.16Z" fill="black"/>
<path fill-rule="evenodd" clip-rule="evenodd" d="M84.7622 276.57C85.1282 276.519 85.5008 276.543 85.8572 276.64C86.2136 276.738 86.5463 276.908 86.8349 277.139C87.1235 277.37 87.3618 277.658 87.5354 277.985C87.7089 278.311 87.8139 278.67 87.8439 279.039C85.7894 279.347 85.1731 278.833 84.7622 276.57Z" fill="black"/>
<path fill-rule="evenodd" clip-rule="evenodd" d="M463.711 185.552C464.019 186.683 463.557 186.889 462.272 186.118C462.735 185.912 463.248 185.706 463.711 185.552Z" fill="black"/>
<path fill-rule="evenodd" clip-rule="evenodd" d="M336.949 192.494C336.076 193.163 335.255 193.265 334.381 192.443C335.203 192.443 336.076 192.494 336.949 192.494Z" fill="black"/>
<path fill-rule="evenodd" clip-rule="evenodd" d="M317.689 104.818C317.689 105.692 317.637 106.515 317.637 107.389C317.689 106.515 317.689 105.641 317.689 104.818Z" fill="black"/>
<path fill-rule="evenodd" clip-rule="evenodd" d="M362.117 25.4728H359.549C360.377 25.1642 361.289 25.1642 362.117 25.4728Z" fill="black"/>
<path fill-rule="evenodd" clip-rule="evenodd" d="M110.957 14.9826C110.084 15.034 109.262 15.0854 108.389 15.1368C109.21 15.0854 110.084 15.034 110.957 14.9826Z" fill="black"/>
<path fill-rule="evenodd" clip-rule="evenodd" d="M132.015 15.1368C131.347 15.0854 130.628 15.034 129.96 14.9826C130.628 15.034 131.296 15.0854 132.015 15.1368Z" fill="black"/>
<path fill-rule="evenodd" clip-rule="evenodd" d="M143.315 15.9596C142.997 16.1243 142.645 16.2103 142.287 16.2103C141.93 16.2103 141.578 16.1243 141.26 15.9596H143.315Z" fill="black"/>
<path fill-rule="evenodd" clip-rule="evenodd" d="M82.1941 17.3994C81.3209 17.5537 80.4991 17.7594 79.626 17.9137C80.4478 17.708 81.3209 17.5537 82.1941 17.3994Z" fill="black"/>
<path fill-rule="evenodd" clip-rule="evenodd" d="M318.202 226.69C318.202 227.205 318.151 227.719 318.151 228.233C318.202 227.719 318.202 227.205 318.202 226.69Z" fill="black"/>
<path fill-rule="evenodd" clip-rule="evenodd" d="M35.1979 185.038C35.1894 185.381 35.2066 185.725 35.2493 186.066C35.2078 185.725 35.1906 185.381 35.1979 185.038Z" fill="black"/>
<path fill-rule="evenodd" clip-rule="evenodd" d="M466.895 183.187H464.327C464.694 182.899 465.146 182.743 465.611 182.743C466.077 182.743 466.529 182.899 466.895 183.187Z" fill="black"/>
<path fill-rule="evenodd" clip-rule="evenodd" d="M291.237 179.536C290.569 179.433 289.85 179.33 289.183 179.176C289.85 179.33 290.518 179.433 291.237 179.536Z" fill="black"/>
<path fill-rule="evenodd" clip-rule="evenodd" d="M103.252 299.196C102.379 299.042 101.557 298.837 100.684 298.682L103.252 299.196Z" fill="black"/>
<path fill-rule="evenodd" clip-rule="evenodd" d="M276.086 151.613C276.086 151.099 276.034 150.585 276.034 150.07C276.086 150.585 276.086 151.099 276.086 151.613Z" fill="black"/>
<path fill-rule="evenodd" clip-rule="evenodd" d="M258.879 349.282C259.238 349.282 259.547 349.334 259.906 349.334C259.547 349.334 259.187 349.282 258.879 349.282Z" fill="black"/>
<path fill-rule="evenodd" clip-rule="evenodd" d="M367.766 25.9356C366.893 25.8842 366.071 25.8328 365.198 25.7299C366.02 25.8328 366.893 25.8842 367.766 25.9356Z" fill="black"/>
<path fill-rule="evenodd" clip-rule="evenodd" d="M339.723 129.501C339.723 130.375 339.774 131.198 339.774 132.072C339.774 131.198 339.774 130.324 339.723 129.501Z" fill="black"/>
<path fill-rule="evenodd" clip-rule="evenodd" d="M276.856 313.595C276.188 313.595 275.469 313.595 274.801 313.543C275.469 313.543 276.188 313.595 276.856 313.595Z" fill="black"/>
<path fill-rule="evenodd" clip-rule="evenodd" d="M349.79 41.1568C350.817 41.0539 351.845 40.9511 352.872 40.7968C351.896 41.671 350.817 41.1054 349.79 41.1568Z" fill="black"/>
<path fill-rule="evenodd" clip-rule="evenodd" d="M253.435 322.851C253.435 323.725 253.486 324.548 253.537 325.422C253.486 324.548 253.486 323.674 253.435 322.851Z" fill="black"/>
<path fill-rule="evenodd" clip-rule="evenodd" d="M331.813 72.7304C332.481 72.679 333.2 72.6275 333.867 72.5247C333.251 72.9875 332.481 72.7304 331.813 72.7304Z" fill="black"/>
<path fill-rule="evenodd" clip-rule="evenodd" d="M107.361 209.515C108.029 209.618 108.748 209.772 109.416 209.875C108.697 209.772 108.029 209.618 107.361 209.515Z" fill="black"/>
<path fill-rule="evenodd" clip-rule="evenodd" d="M214.194 74.2216C215.067 73.5017 215.889 73.5531 216.762 74.2216H214.194Z" fill="black"/>
<path fill-rule="evenodd" clip-rule="evenodd" d="M182.042 100.19C182.042 99.8302 182.093 99.5217 182.093 99.1617C182.1 99.5053 182.083 99.849 182.042 100.19Z" fill="black"/>
<path fill-rule="evenodd" clip-rule="evenodd" d="M104.947 197.894C106.077 198.253 108.337 199.436 109.672 199.282C110.7 199.179 111.573 197.894 112.6 197.894C115.322 197.894 114.809 201.082 113.525 202.727C109.929 207.304 101.917 202.367 104.947 197.894Z" fill="black"/>
<path fill-rule="evenodd" clip-rule="evenodd" d="M116.093 181.438C119.791 182.415 117.942 190.591 114.809 191.157C111.111 191.826 110.495 185.141 111.214 182.724C113.114 183.855 111.933 187.866 114.347 186.786C115.836 186.066 115.631 182.775 116.093 181.438Z" fill="black"/>
</svg>
