<svg width="77" height="21" viewBox="0 0 77 21" fill="none" xmlns="http://www.w3.org/2000/svg">
<g clip-path="url(#clip0_2_37)">
<path fill-rule="evenodd" clip-rule="evenodd" d="M18.9232 2.62109C19.3205 2.73239 19.5954 3.09376 19.5971 3.50606C19.6074 3.53238 19.6076 3.54803 19.6076 3.54803C19.6076 3.54803 19.6032 7.07977 15.4214 10.3309C13.8667 11.5394 12.5006 13.4391 11.9827 15.2912C11.8813 15.6492 11.5764 15.912 11.2077 15.9604C10.8389 16.0084 10.4767 15.8328 10.2866 15.5132C9.21804 13.6548 8.31186 10.6202 10.3478 7.08968C12.3322 3.64908 15.9558 1.84983 18.9232 2.62109Z" fill="#C7A27A"/>
<path fill-rule="evenodd" clip-rule="evenodd" d="M13.4613 18.2967C13.052 18.1841 12.7676 17.8124 12.7658 17.3877C12.7552 17.3728 12.755 17.3643 12.755 17.3643C12.755 17.3643 12.7594 13.8326 16.9411 10.5814C18.5104 9.36146 19.8874 7.43727 20.3942 5.56872C20.4902 5.22001 20.7843 4.96214 21.1428 4.91261C21.5008 4.86321 21.854 5.03162 22.0407 5.34125C23.125 7.19323 24.0723 10.2547 22.0147 13.8226C20.0351 17.2549 16.4246 19.0537 13.4613 18.2967Z" fill="#C7A27A"/>
<g opacity="0.5">
<path fill-rule="evenodd" clip-rule="evenodd" d="M8.23618 18.2291C8.64399 18.2239 8.99885 17.9488 9.10619 17.5555C9.124 17.5283 9.12868 17.511 9.12868 17.511C9.12868 17.511 10.0385 14.098 6.84071 9.87595C5.65571 8.31126 4.82977 6.13203 4.80352 4.21343C4.79649 3.83797 4.56728 3.50282 4.21947 3.36032C3.87213 3.21782 3.4732 3.29563 3.20461 3.55813C1.69664 5.08016 0.0522609 7.77125 1.10132 11.6933C2.12836 15.5338 5.16727 18.2108 8.23618 18.2291ZM10.3638 16.1774C10.7271 16.3855 11.0257 16.4727 11.4556 16.3995C11.2742 16.8331 11.0056 17.1538 10.7487 17.3816C10.6315 17.4739 10.4698 17.4866 10.3399 17.4135C10.2096 17.3408 10.136 17.1964 10.1538 17.0483C10.1656 16.812 10.2223 16.5313 10.3638 16.1774ZM11.981 4.18484C8.59572 6.66734 8.56948 10.3114 8.43213 10.13C5.23431 5.9075 6.08649 2.39188 6.08649 2.39188C6.08649 2.39188 6.09164 2.37266 6.10008 2.34125C6.20742 1.94797 6.55947 1.67047 6.96729 1.65875C8.78557 1.68031 10.5945 2.62109 11.981 4.18484Z" fill="#C7A27A"/>
</g>
<path d="M30.92 15.12C30.3067 15.12 29.82 15.01 29.46 14.79C29.1067 14.5633 28.8567 14.25 28.71 13.85C28.5633 13.4433 28.49 12.9667 28.49 12.42V9.5C28.49 8.94 28.5633 8.46 28.71 8.06C28.8567 7.65333 29.1067 7.34 29.46 7.12C29.82 6.9 30.3067 6.79 30.92 6.79C31.52 6.79 31.9867 6.89 32.32 7.09C32.66 7.28333 32.9 7.55667 33.04 7.91C33.18 8.26333 33.25 8.67 33.25 9.13V9.83H31.5V9.02C31.5 8.86 31.49 8.70667 31.47 8.56C31.4567 8.41333 31.41 8.29333 31.33 8.2C31.25 8.1 31.1133 8.05 30.92 8.05C30.7333 8.05 30.5933 8.1 30.5 8.2C30.4133 8.3 30.3567 8.42667 30.33 8.58C30.31 8.72667 30.3 8.88333 30.3 9.05V12.86C30.3 13.04 30.3133 13.2067 30.34 13.36C30.3733 13.5067 30.4333 13.6267 30.52 13.72C30.6133 13.8067 30.7467 13.85 30.92 13.85C31.1067 13.85 31.24 13.8033 31.32 13.71C31.4 13.61 31.45 13.4833 31.47 13.33C31.49 13.1767 31.5 13.02 31.5 12.86V12.01H33.25V12.71C33.25 13.17 33.18 13.5833 33.04 13.95C32.9067 14.31 32.67 14.5967 32.33 14.81C31.9967 15.0167 31.5267 15.12 30.92 15.12ZM36.0448 15.1C35.6314 15.1 35.2714 15.03 34.9648 14.89C34.6648 14.75 34.4314 14.54 34.2648 14.26C34.1048 13.98 34.0248 13.63 34.0248 13.21V11.01C34.0248 10.59 34.1048 10.24 34.2648 9.96C34.4314 9.68 34.6648 9.47 34.9648 9.33C35.2714 9.19 35.6314 9.12 36.0448 9.12C36.4581 9.12 36.8148 9.19 37.1148 9.33C37.4214 9.47 37.6581 9.68 37.8248 9.96C37.9914 10.24 38.0748 10.59 38.0748 11.01V13.21C38.0748 13.63 37.9914 13.98 37.8248 14.26C37.6581 14.54 37.4214 14.75 37.1148 14.89C36.8148 15.03 36.4581 15.1 36.0448 15.1ZM36.0548 14.02C36.1614 14.02 36.2448 13.9933 36.3048 13.94C36.3648 13.88 36.4048 13.8 36.4248 13.7C36.4514 13.5933 36.4648 13.4667 36.4648 13.32V10.9C36.4648 10.7533 36.4514 10.63 36.4248 10.53C36.4048 10.4233 36.3648 10.3433 36.3048 10.29C36.2448 10.23 36.1614 10.2 36.0548 10.2C35.9481 10.2 35.8648 10.23 35.8048 10.29C35.7448 10.3433 35.7014 10.4233 35.6748 10.53C35.6481 10.63 35.6348 10.7533 35.6348 10.9V13.32C35.6348 13.4667 35.6481 13.5933 35.6748 13.7C35.7014 13.8 35.7448 13.88 35.8048 13.94C35.8648 13.9933 35.9481 14.02 36.0548 14.02ZM39.1888 15V10.32H38.6388V9.22H39.1888V8.79C39.1888 8.45 39.2221 8.15333 39.2888 7.9C39.3621 7.64667 39.5088 7.45 39.7288 7.31C39.9554 7.17 40.3021 7.1 40.7688 7.1C40.8954 7.1 41.0188 7.10333 41.1388 7.11C41.2654 7.11667 41.4021 7.13 41.5488 7.15V8.36C41.5021 8.34667 41.4454 8.33667 41.3788 8.33C41.3188 8.31667 41.2588 8.31 41.1988 8.31C41.0788 8.31 40.9854 8.34667 40.9188 8.42C40.8521 8.48667 40.8188 8.6 40.8188 8.76V9.22H41.5488V10.32H40.8188V15H39.1888ZM42.0788 15V10.32H41.5288V9.22H42.0788V8.79C42.0788 8.45 42.1121 8.15333 42.1788 7.9C42.2521 7.64667 42.3988 7.45 42.6188 7.31C42.8454 7.17 43.1921 7.1 43.6588 7.1C43.7854 7.1 43.9088 7.10333 44.0288 7.11C44.1554 7.11667 44.2921 7.13 44.4388 7.15V8.36C44.3921 8.34667 44.3354 8.33667 44.2688 8.33C44.2088 8.31667 44.1488 8.31 44.0888 8.31C43.9688 8.31 43.8754 8.34667 43.8088 8.42C43.7421 8.48667 43.7088 8.6 43.7088 8.76V9.22H44.4388V10.32H43.7088V15H42.0788ZM46.9723 15.1C46.5523 15.1 46.1923 15.0267 45.8923 14.88C45.5923 14.7267 45.3623 14.5067 45.2023 14.22C45.0423 13.9267 44.9623 13.5767 44.9623 13.17V11.05C44.9623 10.6367 45.0423 10.2867 45.2023 10C45.3623 9.71333 45.5923 9.49667 45.8923 9.35C46.1989 9.19667 46.5589 9.12 46.9723 9.12C47.3989 9.12 47.7523 9.19333 48.0323 9.34C48.3189 9.48667 48.5323 9.70333 48.6723 9.99C48.8189 10.2767 48.8923 10.63 48.8923 11.05V12.21H46.5723V13.32C46.5723 13.4667 46.5889 13.5867 46.6223 13.68C46.6556 13.7733 46.7023 13.84 46.7623 13.88C46.8223 13.92 46.8923 13.94 46.9723 13.94C47.0523 13.94 47.1223 13.9233 47.1823 13.89C47.2489 13.85 47.2989 13.79 47.3323 13.71C47.3723 13.63 47.3923 13.52 47.3923 13.38V12.77H48.8923V13.33C48.8923 13.9167 48.7223 14.36 48.3823 14.66C48.0423 14.9533 47.5723 15.1 46.9723 15.1ZM46.5723 11.45H47.3923V10.87C47.3923 10.7167 47.3723 10.5967 47.3323 10.51C47.2989 10.4233 47.2489 10.3633 47.1823 10.33C47.1223 10.2967 47.0489 10.28 46.9623 10.28C46.8823 10.28 46.8123 10.3 46.7523 10.34C46.6989 10.38 46.6556 10.45 46.6223 10.55C46.5889 10.6433 46.5723 10.78 46.5723 10.96V11.45ZM51.6695 15.1C51.2495 15.1 50.8895 15.0267 50.5895 14.88C50.2895 14.7267 50.0595 14.5067 49.8995 14.22C49.7395 13.9267 49.6595 13.5767 49.6595 13.17V11.05C49.6595 10.6367 49.7395 10.2867 49.8995 10C50.0595 9.71333 50.2895 9.49667 50.5895 9.35C50.8962 9.19667 51.2562 9.12 51.6695 9.12C52.0962 9.12 52.4495 9.19333 52.7295 9.34C53.0162 9.48667 53.2295 9.70333 53.3695 9.99C53.5162 10.2767 53.5895 10.63 53.5895 11.05V12.21H51.2695V13.32C51.2695 13.4667 51.2862 13.5867 51.3195 13.68C51.3529 13.7733 51.3995 13.84 51.4595 13.88C51.5195 13.92 51.5895 13.94 51.6695 13.94C51.7495 13.94 51.8195 13.9233 51.8795 13.89C51.9462 13.85 51.9962 13.79 52.0295 13.71C52.0695 13.63 52.0895 13.52 52.0895 13.38V12.77H53.5895V13.33C53.5895 13.9167 53.4195 14.36 53.0795 14.66C52.7395 14.9533 52.2695 15.1 51.6695 15.1ZM51.2695 11.45H52.0895V10.87C52.0895 10.7167 52.0695 10.5967 52.0295 10.51C51.9962 10.4233 51.9462 10.3633 51.8795 10.33C51.8195 10.2967 51.7462 10.28 51.6595 10.28C51.5795 10.28 51.5095 10.3 51.4495 10.34C51.3962 10.38 51.3529 10.45 51.3195 10.55C51.2862 10.6433 51.2695 10.78 51.2695 10.96V11.45Z" fill="#C7A27A"/>
<path d="M59.2754 15.12C58.7687 15.12 58.3454 15.03 58.0054 14.85C57.6654 14.67 57.4087 14.3933 57.2354 14.02C57.0621 13.64 56.9654 13.15 56.9454 12.55L58.4754 12.32C58.4821 12.6667 58.5121 12.9467 58.5654 13.16C58.6254 13.3733 58.7054 13.5267 58.8054 13.62C58.9121 13.7133 59.0387 13.76 59.1854 13.76C59.3721 13.76 59.4921 13.6967 59.5454 13.57C59.6054 13.4433 59.6354 13.31 59.6354 13.17C59.6354 12.8367 59.5554 12.5567 59.3954 12.33C59.2354 12.0967 59.0187 11.8633 58.7454 11.63L58.0454 11.02C57.7387 10.76 57.4787 10.4667 57.2654 10.14C57.0587 9.80667 56.9554 9.39667 56.9554 8.91C56.9554 8.22333 57.1587 7.7 57.5654 7.34C57.9721 6.97333 58.5254 6.79 59.2254 6.79C59.6587 6.79 60.0054 6.86333 60.2654 7.01C60.5321 7.15667 60.7321 7.35 60.8654 7.59C61.0054 7.82333 61.0987 8.07333 61.1454 8.34C61.1987 8.6 61.2287 8.85 61.2354 9.09L59.6954 9.28C59.6887 9.04 59.6721 8.83333 59.6454 8.66C59.6254 8.48 59.5787 8.34333 59.5054 8.25C59.4321 8.15 59.3187 8.1 59.1654 8.1C58.9987 8.1 58.8754 8.17 58.7954 8.31C58.7221 8.45 58.6854 8.59 58.6854 8.73C58.6854 9.03 58.7554 9.27667 58.8954 9.47C59.0421 9.65667 59.2321 9.85333 59.4654 10.06L60.1354 10.65C60.4887 10.95 60.7854 11.29 61.0254 11.67C61.2721 12.05 61.3954 12.52 61.3954 13.08C61.3954 13.46 61.3087 13.8067 61.1354 14.12C60.9621 14.4267 60.7154 14.67 60.3954 14.85C60.0821 15.03 59.7087 15.12 59.2754 15.12ZM62.1821 15V6.9H63.8021V9.73C64.0154 9.51667 64.2388 9.36333 64.4721 9.27C64.7054 9.17 64.9554 9.12 65.2221 9.12C65.4554 9.12 65.6488 9.18 65.8021 9.3C65.9621 9.41333 66.0821 9.57333 66.1621 9.78C66.2421 9.98 66.2821 10.21 66.2821 10.47V15H64.6621V10.7C64.6621 10.56 64.6388 10.4533 64.5921 10.38C64.5454 10.3067 64.4588 10.27 64.3321 10.27C64.2654 10.27 64.1854 10.29 64.0921 10.33C63.9988 10.3633 63.9021 10.4133 63.8021 10.48V15H62.1821ZM69.16 15.1C68.7467 15.1 68.3867 15.03 68.08 14.89C67.78 14.75 67.5467 14.54 67.38 14.26C67.22 13.98 67.14 13.63 67.14 13.21V11.01C67.14 10.59 67.22 10.24 67.38 9.96C67.5467 9.68 67.78 9.47 68.08 9.33C68.3867 9.19 68.7467 9.12 69.16 9.12C69.5733 9.12 69.93 9.19 70.23 9.33C70.5367 9.47 70.7733 9.68 70.94 9.96C71.1067 10.24 71.19 10.59 71.19 11.01V13.21C71.19 13.63 71.1067 13.98 70.94 14.26C70.7733 14.54 70.5367 14.75 70.23 14.89C69.93 15.03 69.5733 15.1 69.16 15.1ZM69.17 14.02C69.2767 14.02 69.36 13.9933 69.42 13.94C69.48 13.88 69.52 13.8 69.54 13.7C69.5667 13.5933 69.58 13.4667 69.58 13.32V10.9C69.58 10.7533 69.5667 10.63 69.54 10.53C69.52 10.4233 69.48 10.3433 69.42 10.29C69.36 10.23 69.2767 10.2 69.17 10.2C69.0633 10.2 68.98 10.23 68.92 10.29C68.86 10.3433 68.8167 10.4233 68.79 10.53C68.7633 10.63 68.75 10.7533 68.75 10.9V13.32C68.75 13.4667 68.7633 13.5933 68.79 13.7C68.8167 13.8 68.86 13.88 68.92 13.94C68.98 13.9933 69.0633 14.02 69.17 14.02ZM72.094 16.9V9.22H73.724V9.64C73.9173 9.46667 74.124 9.33667 74.344 9.25C74.564 9.16333 74.774 9.12 74.974 9.12C75.194 9.12 75.3807 9.16333 75.534 9.25C75.694 9.33667 75.824 9.46 75.924 9.62C76.024 9.77333 76.0973 9.95333 76.144 10.16C76.1907 10.3667 76.214 10.5867 76.214 10.82V13.31C76.214 13.67 76.164 13.9833 76.064 14.25C75.9707 14.5167 75.8307 14.7267 75.644 14.88C75.4573 15.0267 75.2273 15.1 74.954 15.1C74.7473 15.1 74.5373 15.0533 74.324 14.96C74.1173 14.86 73.9173 14.7267 73.724 14.56V16.9H72.094ZM74.154 14.05C74.2607 14.05 74.344 14.02 74.404 13.96C74.464 13.9 74.5073 13.8233 74.534 13.73C74.5673 13.63 74.584 13.52 74.584 13.4V10.7C74.584 10.5867 74.5707 10.4867 74.544 10.4C74.5173 10.3067 74.474 10.2333 74.414 10.18C74.354 10.1267 74.2773 10.1 74.184 10.1C74.0973 10.1 74.014 10.12 73.934 10.16C73.8607 10.1933 73.7907 10.24 73.724 10.3V13.9C73.7973 13.9467 73.8673 13.9833 73.934 14.01C74.0073 14.0367 74.0807 14.05 74.154 14.05Z" fill="white"/>
</g>
<defs>
<clipPath id="clip0_2_37">
<rect width="77" height="20.9085" fill="white"/>
</clipPath>
</defs>
</svg>
