<svg width="302" height="129" fill="none" xmlns="http://www.w3.org/2000/svg"><path fill-rule="evenodd" clip-rule="evenodd" d="M9.488 96.568C12.133 98.189 15.078 99 18.32 99h14.976V82.232H19.088c-.427 0-.81-.128-1.152-.384a1.872 1.872 0 01-.384-1.152V.312H.656v81.024c0 3.243.81 6.187 2.432 8.832a19.128 19.128 0 006.4 6.4zM77.02 99L36.188 24.76h19.328l29.312 53.888 29.184-53.888h19.328L92.38 99H77.02zm70.84-2.432c2.645 1.621 5.589 2.432 8.832 2.432h40.064c3.328 0 6.315-.81 8.96-2.432 2.645-1.621 4.736-3.755 6.272-6.4 1.621-2.645 2.432-5.59 2.432-8.832V42.424c0-3.243-.811-6.187-2.432-8.832-1.536-2.645-3.669-4.779-6.4-6.4-2.645-1.621-5.589-2.432-8.832-2.432h-40.064c-3.243 0-6.187.81-8.832 2.432a19.128 19.128 0 00-6.4 6.4c-1.621 2.645-2.432 5.59-2.432 8.832v38.912c0 3.243.811 6.187 2.432 8.832a19.128 19.128 0 006.4 6.4zm48.256-14.336h-38.784a1.87 1.87 0 01-1.152-.384 1.872 1.872 0 01-.384-1.152V43.064c0-.427.128-.768.384-1.024.341-.341.725-.512 1.152-.512h38.784c.427 0 .768.17 1.024.512.341.256.512.597.512 1.024v37.632c0 .427-.171.81-.512 1.152-.256.256-.597.384-1.024.384zm42.673 29.184v16.896h45.44c3.243 0 6.187-.811 8.832-2.432 2.731-1.536 4.864-3.627 6.4-6.272 1.536-2.645 2.304-5.632 2.304-8.96V42.424c0-3.243-.811-6.187-2.432-8.832-1.536-2.645-3.627-4.779-6.272-6.4-2.645-1.621-5.589-2.432-8.832-2.432h-40.192c-3.157 0-6.101.81-8.832 2.432a19.128 19.128 0 00-6.4 6.4c-1.621 2.645-2.432 5.59-2.432 8.832v38.912c0 3.243.811 6.187 2.432 8.832a19.128 19.128 0 006.4 6.4c2.731 1.621 5.675 2.432 8.832 2.432h40.96v10.88c0 .427-.171.768-.512 1.024a1.217 1.217 0 01-1.024.512h-44.672zm44.672-29.184h-38.784a1.87 1.87 0 01-1.152-.384 1.872 1.872 0 01-.384-1.152V43.064c0-.427.128-.768.384-1.024.341-.341.725-.512 1.152-.512h38.784c.427 0 .768.17 1.024.512.341.256.512.597.512 1.024v37.632c0 .427-.171.81-.512 1.152-.256.256-.597.384-1.024.384z" fill="#000"/></svg>