<svg version="1.1" id="OBJECTS" xmlns="http://www.w3.org/2000/svg" x="0" y="0" viewBox="0 0 434.7 397.3" xml:space="preserve"><style>.st0{opacity:.58}.st1{fill:#96fffa}.st2{fill:#fcddfc}.st4{fill:#ccc2fe}.st5{fill:#eef4f2}.st6{fill:#8b77e8}.st7{fill:#b3a4f5}.st8{fill:#745cd4}.st9{fill:#eae9c5}.st10{fill:#d3d1a5}.st11{fill:#4a3e93}.st12{fill:#ffd359}.st13{fill:#ff75fe}.st14{opacity:.56}.st15{fill:#70e5ff}</style><g class="st0"><path class="st1" d="M75.8 228.8H40.5c-5.5 0-10-4.5-10-10v-35.2c0-5.5 4.5-10 10-10h35.2c5.5 0 10 4.5 10 10v35.2c0 5.5-4.4 10-9.9 10z"/></g><path class="st2" d="M108.4 156.9H75.8c-5.2 0-9.4-4.2-9.4-9.4v-34.1c0-5.2 4.2-9.4 9.4-9.4h32.6c5.2 0 9.4 4.2 9.4 9.4v34.1c0 5.2-4.2 9.4-9.4 9.4zM65 66.2H48.7c-2.6 0-4.7-2.1-4.7-4.7v-17c0-2.6 2.1-4.7 4.7-4.7H65c2.6 0 4.7 2.1 4.7 4.7v17c0 2.6-2.1 4.7-4.7 4.7zm163 136.5h-16.3c-2.6 0-4.7-2.1-4.7-4.7v-17c0-2.6 2.1-4.7 4.7-4.7H228c2.6 0 4.7 2.1 4.7 4.7v17c0 2.5-2.1 4.7-4.7 4.7zm23.5-123.2h-16.3c-2.6 0-4.7-2.1-4.7-4.7v-17c0-2.6 2.1-4.7 4.7-4.7h16.3c2.6 0 4.7 2.1 4.7 4.7v17c0 2.5-2.1 4.7-4.7 4.7zm146-3.3h-16.3c-2.6 0-4.7-2.1-4.7-4.7v-17c0-2.6 2.1-4.7 4.7-4.7h16.3c2.6 0 4.7 2.1 4.7 4.7v17c0 2.6-2.1 4.7-4.7 4.7zM27.1 28.9H16.6c-1.7 0-3-1.4-3-3v-11c0-1.7 1.4-3 3-3h10.5c1.7 0 3 1.4 3 3v11c0 1.6-1.4 3-3 3zm148.4 8.5H165c-1.7 0-3-1.4-3-3v-11c0-1.7 1.4-3 3-3h10.5c1.7 0 3 1.4 3 3v11c.1 1.7-1.3 3-3 3zm-119.2 248H45.8c-1.7 0-3-1.4-3-3v-11c0-1.7 1.4-3 3-3h10.5c1.7 0 3 1.4 3 3v11c0 1.6-1.3 3-3 3zm333.3 75.1h-10.5c-1.7 0-3-1.4-3-3v-11c0-1.7 1.4-3 3-3h10.5c1.7 0 3 1.4 3 3v11c0 1.6-1.4 3-3 3zm-134.8-40.6h-10.5c-1.7 0-3-1.4-3-3v-11c0-1.7 1.4-3 3-3h10.5c1.7 0 3 1.4 3 3v11c0 1.6-1.3 3-3 3zm132.3-205h-8.6c-1.4 0-2.5-1.1-2.5-2.5v-9c0-1.4 1.1-2.5 2.5-2.5h8.6c1.4 0 2.5 1.1 2.5 2.5v9c0 1.4-1.1 2.5-2.5 2.5z"/><g class="st0"><path class="st1" d="M325.4 55.9h-8.6c-1.4 0-2.5-1.1-2.5-2.5v-9c0-1.4 1.1-2.5 2.5-2.5h8.6c1.4 0 2.5 1.1 2.5 2.5v9c0 1.4-1.1 2.5-2.5 2.5z"/></g><g class="st0"><path class="st1" d="M70.7 32.1h-8.6c-1.4 0-2.5-1.1-2.5-2.5v-9c0-1.4 1.1-2.5 2.5-2.5h8.6c1.4 0 2.5 1.1 2.5 2.5v9c0 1.3-1.1 2.5-2.5 2.5z"/></g><g class="st0"><path class="st1" d="M17.8 66.9H9.2c-1.4 0-2.5-1.1-2.5-2.5v-9c0-1.4 1.1-2.5 2.5-2.5h8.6c1.4 0 2.5 1.1 2.5 2.5v9c0 1.4-1.1 2.5-2.5 2.5z"/></g><g class="st0"><path class="st1" d="M190.2 157.4h-8.6c-1.4 0-2.5-1.1-2.5-2.5v-9c0-1.4 1.1-2.5 2.5-2.5h8.6c1.4 0 2.5 1.1 2.5 2.5v9c0 1.4-1.2 2.5-2.5 2.5z"/></g><g class="st0"><path class="st1" d="M403.6 123.1H395c-1.4 0-2.5-1.1-2.5-2.5v-9c0-1.4 1.1-2.5 2.5-2.5h8.6c1.4 0 2.5 1.1 2.5 2.5v9c0 1.4-1.1 2.5-2.5 2.5z"/></g><path class="st2" d="M341.5 74.8H331c-1.7 0-3-1.4-3-3v-11c0-1.7 1.4-3 3-3h10.5c1.7 0 3 1.4 3 3v11c0 1.6-1.4 3-3 3zM175.1 90.1h-10.5c-1.7 0-3-1.4-3-3V76c0-1.7 1.4-3 3-3h10.5c1.7 0 3 1.4 3 3v11c0 1.7-1.4 3.1-3 3.1zm27.1 44.6h-10.5c-1.7 0-3-1.4-3-3v-11c0-1.7 1.4-3 3-3h10.5c1.7 0 3 1.4 3 3v11c.1 1.6-1.3 3-3 3zm215.9 17.1h-10.5c-1.7 0-3-1.4-3-3v-11c0-1.7 1.4-3 3-3h10.5c1.7 0 3 1.4 3 3v11c.1 1.6-1.3 3-3 3z"/><g class="st0"><circle class="st1" cx="323" cy="240.5" r="89.9"/></g><path fill="none" d="M285.8 58.4v-.1"/><path class="st4" d="M90 276.8c-10.6-11-31.3-28.7-21.6-46 11.8-21.2 52.4-14.9 71.2-9.5 17 4.9 33.5 15 29.7 35.2-1.6 8.5-8.6 14.2-10.8 22.2-3.8-1.4-9.1-.3-13.3-.5 1.5-5.6.5-11.9-3.9-15.9-6.6-6-24.8-14.6-34-11.4-12.5 4.3 3.7 24.4 7.8 29.8-5.5-1-10.8.4-16.4.1"/><path class="st4" d="M76 285.4h105.6c2.4 0 4.3-1.9 4.3-4.3s-1.9-4.3-4.3-4.3H76c-2.4 0-4.3 1.9-4.3 4.3s2 4.3 4.3 4.3z"/><path class="st4" d="M165.5 376.2c.7 0 1.3-.6 1.3-1.3v-92.4c0-.7-.6-1.3-1.3-1.3-.7 0-1.3.6-1.3 1.3v92.4c0 .7.6 1.3 1.3 1.3zm-56.6 0c.7 0 1.3-.6 1.3-1.3v-92.4c0-.7-.6-1.3-1.3-1.3-.7 0-1.3.6-1.3 1.3v92.4c0 .7.6 1.3 1.3 1.3zm25.6 2.3c.7 0 1.3-.6 1.3-1.3v-92.4c0-.7-.6-1.3-1.3-1.3-.7 0-1.3.6-1.3 1.3v92.4c0 .7.6 1.3 1.3 1.3zm-52.4-2.3c.7 0 1.3-.6 1.3-1.3v-92.4c0-.7-.6-1.3-1.3-1.3-.7 0-1.3.6-1.3 1.3v92.4c-.1.7.5 1.3 1.3 1.3z"/><path class="st5" d="M288.5 249.4l1 2 2 1-2 1.1-1 2-1.1-2-2-1.1 2-1z"/><path class="st4" d="M204.2 268.5l-9 110 16-105.5h110l22.5 105.5-15.5-104 7-.5 28 104.5-26.8-110z"/><path class="st4" d="M363.2 379.5c-.4 0-.8-.3-1-.7l-27.8-103.7-5.1.4 15.3 102.9c.1.5-.3 1-.8 1.1-.5.1-1-.2-1.2-.8L320.4 274H212.1l-15.9 104.6c-.1.5-.6.9-1.1.8-.5-.1-.9-.5-.9-1.1l9-110c0-.5.5-.9 1-.9h132.2c.5 0 .9.3 1 .8l26.8 110c.1.5-.2 1.1-.7 1.2-.1.1-.2.1-.3.1zm-158-110l-6.6 80.2 11.6-76.8c.1-.5.5-.8 1-.8h110c.5 0 .9.3 1 .8l15.8 74-10.8-72.2c0-.3 0-.6.2-.8.2-.2.4-.4.7-.4l7-.5c.5 0 .9.3 1 .7l5.3 19.8-5.9-24.1H205.2z"/><path class="st4" d="M214.5 274.5l16 104-10-104z"/><path class="st4" d="M230.5 379.5c-.5 0-.9-.4-1-.8l-16-104c0-.3 0-.6.2-.8.2-.2.5-.3.8-.3h6c.5 0 .9.4 1 .9l10 104c.1.5-.3 1-.9 1.1 0-.1-.1-.1-.1-.1zm-14.9-104l10.5 68-6.5-68h-4z"/><path class="st6" d="M336.4 268.5h-138c-1.8 0-3.2-.9-3.2-1.9 0-1.1 1.4-1.9 3.2-1.9h138c1.8 0 3.2.9 3.2 1.9 0 1-1.4 1.9-3.2 1.9z"/><path class="st7" d="M269.9 265.6h-27.8c-1.6 0-3-1.3-3-3 0-1.6 1.3-3 3-3h27.8c1.6 0 3 1.3 3 3s-1.4 3-3 3z"/><path class="st4" d="M329.8 265.2h-61.4c-1.5 0-2.8-1.2-2.8-2.8v-44.8c0-1.5 1.2-2.8 2.8-2.8h61.4c1.5 0 2.8 1.2 2.8 2.8v44.8c0 1.6-1.3 2.8-2.8 2.8z"/><circle class="st5" cx="303.7" cy="240.7" r="6.7"/><path class="st8" d="M155.2 280.8h-7.5c-6.6 0-12-5.4-12-12v-36c0-6.6 5.4-12 12-12h7.5c6.6 0 12 5.4 12 12v36c0 6.6-5.4 12-12 12z"/><path class="st9" d="M120.7 196.8c-1.4-1.9-2.7-3.8-4.1-5.7-4.6-6.7-11.8-16.1-10.1-24.8.7-.4 1.4-.7 2.1-.9.2-.1.5-.2.8-.2 1.2-.4 2.6-.8 4.1-1.1 2.9-.7 6-1.3 8.4-1.3.5 0 1.7-.4 3.1-.8 2.4-.8 5.2-1.9 6-2.3 2.8-1.5 5.2-3.3 7-5.2 4.8-4.8 6.7-10.2 6.8-12.7 0-1.5.2-3.7.7-6l14.4.3c0 1.4-.1 2.7-.1 3.7 0 5.7 3.1 10.8 7.2 14.9 5 4.9 11.4 8.4 15.4 9.9 1.1.1 2.6.2 4.2.4 1.7.2 3.5.4 5.2.7.7.1 1.4.2 2 .4.3.1.6.1 1 .2.2 0 .3.1.5.1.3.1.5.1.8.2h.1c.3.1.5.1.8.2.1 0 .2.1.4.1.2.1.5.2.7.2 1.8.7 3.5 1.7 4.6 3.1l.1.1c.7.9 1.2 1.9 1.4 3.2.6 3.3.2 7.2.4 11 .2 2.4-10.7 7.5-15.7 10.2-1 .5-1.7 1-2.1 1.3-1.9 1.5-3.8 3-5.6 4.7-.4.4-.9.8-1.3 1.2-4.8 4.7-8.8 10.1-10.8 16.4-.1.3-.2.7-.3 1.2 0 .1-.1.3-.1.4 0 .1-.1.3-.1.4-.1.3-.1.6-.2.9-.5 2.4-.9 5.4-1.2 8.5-.1.6-.1 1.2-.2 1.8l-30.6-.5v-1.7c0-1.4-.1-2.7-.2-4 0-.8-.1-1.6-.2-2.4 0-.3-.1-.6-.1-.8-.1-.4-.1-.9-.2-1.3 0-.3-.1-.6-.1-.8 0-.3-.1-.5-.2-.8 0-.3-.1-.5-.2-.8-.1-.2-.1-.5-.2-.7-1.4-5.2-4.2-9.9-7.6-14-2-2.5-4.3-4.8-6.7-6.9z"/><path class="st9" d="M103.5 168.1c.8-1.7 2.5-3.3 5.6-3.8 4.4-.7 8.9-1.2 13.2-2.1.7-.2 1.5-.3 2.2-.5 1-.3 2-.6 2.9-.9 4.9-1.8 10.4-5.3 13.9-9.9l.1-.1 23.8.4.1.1c.9 1.2 2 2.3 3.1 3.4.6.5 1.2 1.1 1.8 1.6 1.2 1 2.5 1.9 3.7 2.8.1.1.2.1.3.2.5.3 1 .7 1.5 1 .1.1.3.2.4.3l1.5.9c.1 0 .2.1.3.2.6.3 1.2.6 1.7.9.1 0 .2.1.3.1.5.2.9.4 1.4.6h.1c.1.1.3.1.4.2.4.2.7.3 1.1.5.2.1.3.1.4.2.4.2.8.3 1.1.4.2.1.3.1.5.1 1.2.1 2.6.2 4.2.4 1.8.2 3.7.4 5.5.7.7.1 1.5.2 2.2.4.3.1.7.1 1 .2.2 0 .3.1.5.1.3.1.6.1.8.2h.1c.3.1.6.2.8.2.1 0 .3.1.4.1.3.1.5.2.7.2 1.9.7 3.7 1.7 4.9 3.1l.1.1c.2.2.3.4.4.6 0 .1.1.2.1.2.1.2.2.3.3.5 0 .1.1.2.1.2.1.2.2.4.2.6.1.4.2.7.3 1.1.7 3.3.2 7.2.5 11v.4c0 .1-.1.2-.1.3v.1c-.1.1-.2.2-.3.4-2.1 2.4-9.8 6-14.7 8.4-.1.1-.3.1-.4.2-.1.1-.2.1-.3.1-.3.1-.5.3-.7.4-1 .5-1.8 1-2.3 1.3-2 1.5-4 3-6 4.6-.5.4-.9.8-1.4 1.2-5.1 4.7-9.3 10.1-11.4 16.4-.1.3-.2.7-.3 1.2 0 .1-.1.3-.1.4 0 .1-.1.3-.1.4-.1.3-.1.6-.2.9-.5 2.4-.9 5.4-1.3 8.5-.1.6-.1 1.2-.2 1.8-.2 2-.4 3.9-.5 5.8-.3 3.2-.4 6.1-.5 8.3v1.4c-.1 6.7-6 12-13.2 11.9l-7.4-.1c-6.1-.1-11.1-4.9-10.9-10.6v-4.9c0-1.8 0-3.8.1-5.9v-8.2c-.1-1.4-.1-2.7-.2-4-.1-.8-.1-1.6-.2-2.4 0-.3-.1-.6-.1-.8-.1-.4-.1-.9-.2-1.3 0-.3-.1-.6-.1-.8 0-.3-.1-.5-.2-.8 0-.3-.1-.5-.2-.8-.1-.2-.1-.5-.2-.7-1.9-6.6-6.7-11.5-11.8-16.2-4.8-4.4-9.3-9.5-12.8-15-2.7-4.5-8.7-13.4-6.3-18.4z"/><path class="st8" d="M134.5 220c0 .3.1.6.1 1 .1.6.1 1.2.2 1.8 0 .4.1.7.1 1.1.1 1 .2 2.1.2 3.2.1 1.7.2 3.6.2 5.4v11c0 2.8 0 5.5-.1 7.9v6.6c-.1 7.7 4.9 14.2 11.1 14.3l7.5.2c7.2.2 13.3-7 13.4-16v-1.9c.1-2.8.3-6.8.5-11.1.1-2.5.3-5.2.5-7.8.1-.8.1-1.6.2-2.4.4-4.2.8-8.3 1.3-11.5.1-.4.1-.9.2-1.3 0-.1 0-.2.1-.3h-35.5z"/><path class="st7" d="M137.9 154.8c3.4 3.5 8.5 5.8 14.3 5.9 6 .1 11.4-2.2 15-5.9-4.1-4.1-7.3-9.2-7.3-15 0-1 .1-2.3.1-3.7l-14.6-.3c-.4 2.4-.6 4.6-.7 6.1 0 2.6-2 8-6.8 12.9z"/><path class="st9" d="M183.1 185.7l18.5 41.6c2.9 6.5 10.6 9.5 17.2 6.6 6.6-2.9 9.6-10.5 6.7-17L207 175.3c-1.7-3.9-5.3-6.6-9.2-7.4h-.1c-2.2-.4-4.4-.4-6.6.3-.4.1-.8.3-1.2.5-3.3 1.4-5.7 4.1-6.9 7.2-.3.7-.5 1.4-.6 2.1-.7 2.5-.5 5.2.7 7.7z"/><path class="st9" d="M207.7 212.7c6.9-3.3 15.2-.4 18.5 6.5 3.3 6.9.4 15.1-6.5 18.3-2 .9-4 1.3-6 1.3v.1l-43.3 6.3-3.3-6.8 38-23.9c.7-.8 1.6-1.4 2.6-1.8z"/><path class="st9" d="M178.8 232.7c2 2 2.8 4.7 2.1 8.1-.2 1-.5 1.9-.8 2.9l-9.8 1.4-3.3-6.8 10.3-6.5 1.5.9z"/><path class="st4" d="M168.8 238.6l1.5 5.9-16.9 6.2-10.9-1.8-.8-4.2 11-1.2 8.1-4.1-4.9-.8-7 1.7-1-2.1 10.2-3z"/><path class="st9" d="M104.9 167.1l-40 22.1c-6.3 3.5-8.5 11.4-5.1 17.6 3.5 6.2 11.5 8.5 17.7 5l40-22.1c3.8-2.1 6.1-5.8 6.6-9.8v-.1c.2-2.2 0-4.4-.9-6.5l-.6-1.2c-1.7-3.1-4.6-5.2-7.8-6.1-.7-.2-1.5-.3-2.2-.4-2.6-.3-5.3.2-7.7 1.5z"/><path class="st9" d="M80.1 193.9c3.9 6.5 1.8 15-4.8 18.8-6.6 3.9-15.1 1.7-19-4.8-1.1-1.8-1.7-3.8-1.9-5.8L44 159.9l6.5-3.9L78 191.3c.8.8 1.5 1.7 2.1 2.6z"/><path class="st9" d="M57.3 167.2c-1.8 2.2-4.5 3.2-8 2.8-1-.1-2-.3-3-.5L44 160l6.5-3.9 7.4 9.6c-.1.5-.3 1-.6 1.5z"/><path class="st4" d="M50.4 157.9l-5.7 2-7.8-16.2.8-10.8 4.2-1.2 2.1 10.7 4.9 7.7.3-5-2.3-6.7 2-1.2 4 9.8z"/><path class="st10" d="M124.6 161.6l53.4.9v-.1c-.1 0-.2-.1-.3-.1-.5-.3-1.1-.6-1.7-1-.1-.1-.2-.1-.3-.2l-1.5-.9c-.1-.1-.3-.2-.4-.3-.5-.3-1-.7-1.5-1-.1-.1-.2-.1-.3-.2-1.2-.9-2.4-1.8-3.6-2.9-.6-.5-1.2-1.1-1.7-1.6-1.1-1.1-2.1-2.3-3-3.5l-23-.4c-3.4 4.7-8.7 8.4-13.4 10.3-.8.4-1.8.7-2.7 1z"/><path class="st10" d="M122.6 162.1c.7-.2 1.4-.3 2.1-.5 1-.3 1.9-.6 2.8-.9 2.3-.9 4.7-2.2 7-3.8l35.7.6c.6.5 1.3 1 1.9 1.4.1.1.2.1.3.2.5.3 1 .7 1.5 1 .1.1.3.2.4.3l1.5.9c.1 0 .2.1.3.2.6.3 1.1.6 1.7.9.1 0 .2.1.3.1.4.2.9.4 1.3.6h.1c-.6-.1-1.2-.1-1.8-.1-14.4-.7-26.6 9.6-28.3 23.3h-.4c-1.4-12.8-12.1-23.1-25.7-23.7h-.6c-.1-.2-.1-.4-.1-.5z"/><path class="st11" d="M151.3 206.4c.9 0 1.6-1.4 1.7-3.2l.8-44.6c0-1.8-.7-3.2-1.5-3.3-.9 0-1.6 1.4-1.7 3.2l-.8 44.6c0 1.8.7 3.2 1.5 3.3z"/><path class="st11" d="M152.3 158.2h.3c1.8 0 3.3-1.4 3.4-3.2 0-1.8-1.4-3.3-3.2-3.4h-.3a3.4 3.4 0 00-3.4 3.2c-.1 1.9 1.4 3.4 3.2 3.4z"/><path class="st7" d="M161.9 137.6h.6c1.3 0 2.3-.9 2.4-2l.2-4c0-1.2-.9-2.1-2.2-2.2h-.6c-1.3 0-2.3.9-2.4 2l-.2 4c-.1 1.2.9 2.1 2.2 2.2zm-19.5-1h.6c1.3 0 2.3-.9 2.4-2l.2-4c0-1.2-.9-2.1-2.2-2.2h-.6c-1.3 0-2.3.9-2.4 2l-.2 4c0 1.2.9 2.2 2.2 2.2z"/><path class="st4" d="M151 146.6c4.9.2 9.1-3.4 9.3-7.9l.7-16.9c.2-4.5-3.7-8.4-8.6-8.5-4.9-.2-9.1 3.4-9.3 7.9l-.7 16.9c-.2 4.5 3.7 8.3 8.6 8.5z"/><path class="st9" d="M139.1 150.7c0 4.4 2.9 8 6.5 8s6.5-3.6 6.5-8h-13z"/><path class="st9" d="M152 150.7c0 4.4 2.9 8 6.5 8s6.5-3.6 6.5-8h-13z"/><circle class="st11" cx="153.1" cy="139.1" r="2.4"/><path class="st8" d="M157.4 377.1h.3c2.6 0 4.7-2.1 4.7-4.6l.4-76.9c0-2.6-2.1-4.7-4.7-4.7h-.3c-2.6 0-4.7 2.1-4.7 4.6l-.4 76.9c0 2.6 2.1 4.7 4.7 4.7zm23.6-3.6h.3c2.6 0 4.7-2.1 4.7-4.6l.4-76.9c0-2.6-2.1-4.7-4.7-4.7h-.3c-2.6 0-4.7 2.1-4.7 4.6l-.4 76.9c.1 2.6 2.2 4.7 4.7 4.7z"/><path class="st8" d="M160.5 297.3l-.9.6c-1.5 1.1-3.7.7-4.7-.9l-14.1-20.3c-1.1-1.5-.7-3.7.9-4.7l.9-.6c1.5-1.1 3.7-.7 4.7.9l14.1 20.3c1 1.5.6 3.6-.9 4.7zm25-3l-.4.5c-1.3 1.5-3.7 1.6-5.1.2l-21-19.1c-1.5-1.3-1.6-3.7-.2-5.1l.4-.5c1.3-1.5 3.7-1.6 5.1-.2l21 19.1c1.5 1.3 1.6 3.6.2 5.1z"/><path class="st11" d="M164.9 382.2h-10.2c-2 0-3.7-1.7-3.7-3.7s1.7-3.7 3.7-3.7h10.2c2 0 3.7 1.7 3.7 3.7s-1.7 3.7-3.7 3.7zm24-5h-10.2c-2 0-3.7-1.7-3.7-3.7s1.7-3.7 3.7-3.7h10.2c2 0 3.7 1.7 3.7 3.7s-1.7 3.7-3.7 3.7z"/><circle class="st12" cx="363.2" cy="155.3" r="18.8"/><path class="st9" d="M166.1 152.5h-27.7c-.7 0-1.3-.6-1.3-1.3 0-.7.6-1.3 1.3-1.3h27.7c.7 0 1.3.6 1.3 1.3 0 .8-.6 1.3-1.3 1.3z"/><path class="st11" d="M160.7 130.4c-3.3-2.1-5.7-6.4-4.7-10.7-1.5.6-3.4.6-5 .7-4.2.2-8.5.3-12-2.3-4.1-3-12.3-11.4-6.3-16.3 3.5-2.8 7-2.1 10.2.8 2.9 2.6 3.5 6.5 7.2 8.4 3 1.5 5.3.7 8.4 1.2 4.9.8 4.5 7 3.9 10.7-.4 2.3-.5 5.4-1.7 7.5z"/><path class="st13" d="M74.1 150H31.6c-6.6 0-12-5.4-12-12V95.5c0-6.6 5.4-12 12-12h42.5c6.6 0 12 5.4 12 12V138c0 6.6-5.4 12-12 12z"/><g class="st14"><path class="st13" d="M77 83.9c-11.2 20.9-20.6 43.2-40 58.1-3.4 2.6-7 4.9-10.6 6.9 1.6.8 3.3 1.2 5.2 1.2h42.5c6.6 0 12-5.4 12-12V95.5c0-5.6-3.9-10.3-9.1-11.6z"/></g><path class="st15" d="M135.5 76.5h-35.2c-5.5 0-10-4.5-10-10V31.3c0-5.5 4.5-10 10-10h35.2c5.5 0 10 4.5 10 10v35.2c-.1 5.5-4.6 10-10 10z"/><g class="st14"><path class="st13" d="M137.9 21.7c-9.3 17.3-17.1 35.8-33.1 48.1C102 72 99 73.9 96 75.5c1.3.6 2.8 1 4.3 1h35.2c5.5 0 10-4.5 10-10V31.3c-.1-4.6-3.3-8.6-7.6-9.6z"/></g><path class="st15" d="M377.5 175.8h-31.7c-4.9 0-9-4-9-9v-31.7c0-4.9 4-9 9-9h31.7c4.9 0 9 4 9 9v31.7c-.1 5-4.1 9-9 9z"/><g class="st14"><path class="st13" d="M379.6 126.4c-8.3 15.6-15.4 32.3-29.8 43.4-2.6 2-5.2 3.7-7.9 5.1 1.2.6 2.5.9 3.9.9h31.7c4.9 0 9-4 9-9v-31.7c-.1-4.2-3-7.7-6.9-8.7z"/></g><path class="st12" d="M211.6 104.3h-29.3c-4.5 0-8.3-3.7-8.3-8.3V66.8c0-4.5 3.7-8.3 8.3-8.3h29.3c4.5 0 8.3 3.7 8.3 8.3v29.3c0 4.5-3.7 8.2-8.3 8.2z"/><g class="st14"><path class="st13" d="M213.6 58.7c-7.7 14.4-14.2 29.8-27.5 40-2.4 1.8-4.8 3.4-7.3 4.7 1.1.5 2.3.8 3.6.8h29.3c4.5 0 8.3-3.7 8.3-8.3V66.8c-.1-3.9-2.8-7.2-6.4-8.1z"/></g><path class="st4" d="M267.9 156.9h-57.7c-3.1 0-5.6-2.5-5.6-5.6 0-3.1 2.5-5.6 5.6-5.6h57.7c3.1 0 5.6 2.5 5.6 5.6-.1 3.1-2.6 5.6-5.6 5.6zm150.3 88.7h-57.7c-3.1 0-5.6-2.5-5.6-5.6 0-3.1 2.5-5.6 5.6-5.6h57.7c3.1 0 5.6 2.5 5.6 5.6 0 3.1-2.5 5.6-5.6 5.6zm-145-108H226c-3.3 0-6-2.7-6-6s2.7-6 6-6h47.2c3.3 0 6 2.7 6 6s-2.7 6-6 6zm150.6 87.9h-47.2c-3.3 0-6-2.7-6-6s2.7-6 6-6h47.2c3.3 0 6 2.7 6 6 .1 3.3-2.7 6-6 6z"/><path class="st6" d="M360.3 201.2h-18.2c-3.2 0-5.9-2.7-5.9-5.9s2.7-5.9 5.9-5.9h18.2c3.2 0 5.9 2.7 5.9 5.9 0 3.3-2.6 5.9-5.9 5.9zm38.7 0h-18.2c-3.2 0-5.9-2.7-5.9-5.9s2.7-5.9 5.9-5.9H399c3.2 0 5.9 2.7 5.9 5.9 0 3.3-2.7 5.9-5.9 5.9z"/><path class="st4" d="M422 175.2h-18.2c-3.2 0-5.9-2.7-5.9-5.9s2.7-5.9 5.9-5.9H422c3.2 0 5.9 2.7 5.9 5.9s-2.7 5.9-5.9 5.9zm-102.5-62.5h-18.2c-3.2 0-5.9-2.7-5.9-5.9s2.7-5.9 5.9-5.9h18.2c3.2 0 5.9 2.7 5.9 5.9s-2.7 5.9-5.9 5.9zm-39.5-.2h-18.2c-3.2 0-5.9-2.7-5.9-5.9s2.7-5.9 5.9-5.9H280c3.2 0 5.9 2.7 5.9 5.9s-2.6 5.9-5.9 5.9zm113.4 198.8h-18.2c-3.2 0-5.9-2.7-5.9-5.9s2.7-5.9 5.9-5.9h18.2c3.2 0 5.9 2.7 5.9 5.9 0 3.3-2.6 5.9-5.9 5.9z"/><path class="st6" d="M318.1 137.6H300c-3.2 0-5.9-2.7-5.9-5.9s2.7-5.9 5.9-5.9h18.2c3.2 0 5.9 2.7 5.9 5.9s-2.7 5.9-6 5.9zM337 93.7h-18.2c-3.2 0-5.9-2.7-5.9-5.9s2.7-5.9 5.9-5.9H337c3.2 0 5.9 2.7 5.9 5.9 0 3.3-2.7 5.9-5.9 5.9zm77 172.7h-18.2c-3.2 0-5.9-2.7-5.9-5.9s2.7-5.9 5.9-5.9H414c3.2 0 5.9 2.7 5.9 5.9s-2.7 5.9-5.9 5.9z"/><path class="st2" d="M308.4 344.1h-26.5c-4.2 0-7.7-3.4-7.7-7.7v-27.7c0-4.2 3.4-7.7 7.7-7.7h26.5c4.2 0 7.7 3.4 7.7 7.7v27.7c0 4.3-3.4 7.7-7.7 7.7z"/><path class="st13" d="M283.9 64.4h-29.7c-4.6 0-8.4-3.8-8.4-8.4V26.2c0-4.6 3.8-8.4 8.4-8.4h29.7c4.6 0 8.4 3.8 8.4 8.4V56c0 4.6-3.7 8.4-8.4 8.4z"/><g class="st14"><path class="st13" d="M286 18.1c-7.8 14.6-14.4 30.2-28 40.6-2.4 1.8-4.9 3.4-7.4 4.8 1.1.5 2.3.8 3.6.8h29.7c4.6 0 8.4-3.8 8.4-8.4V26.2c0-3.9-2.7-7.2-6.3-8.1z"/></g><path class="st12" d="M293.9 197h-29.3c-4.5 0-8.3-3.7-8.3-8.3v-29.3c0-4.5 3.7-8.3 8.3-8.3h29.3c4.5 0 8.3 3.7 8.3 8.3v29.3c-.1 4.6-3.8 8.3-8.3 8.3z"/><g class="st14"><path class="st13" d="M295.9 151.5c-7.7 14.4-14.2 29.8-27.5 40-2.4 1.8-4.8 3.4-7.3 4.7 1.1.5 2.3.8 3.6.8H294c4.5 0 8.3-3.7 8.3-8.3v-29.3c-.2-3.8-2.8-7-6.4-7.9z"/></g><path class="st6" d="M379.7 379.2h-206c-.4 0-.8.3-.8.8 0 .4.3.8.8.8h206c.4 0 .8-.3.8-.8-.1-.5-.4-.8-.8-.8z"/><path class="st4" d="M332.5 385.3h-62.4c-.2 0-.4.2-.4.4v.7c0 .2.2.4.4.4h62.4c.2 0 .4-.2.4-.4v-.7c0-.2-.2-.4-.4-.4zm68 0h-62.4c-.2 0-.4.2-.4.4v.7c0 .2.2.4.4.4h62.4c.2 0 .4-.2.4-.4v-.7c0-.2-.2-.4-.4-.4zm-137.8 0h-62.4c-.2 0-.4.2-.4.4v.7c0 .2.2.4.4.4h62.4c.2 0 .4-.2.4-.4v-.7c0-.2-.2-.4-.4-.4zm115.9 4.2H243.5c-.3 0-.6.3-.6.6v.3c0 .3.3.6.6.6h135.1c.3 0 .6-.3.6-.6v-.3c0-.3-.3-.6-.6-.6zm-37.6 6.3H205.9c-.3 0-.6.3-.6.6v.3c0 .3.3.6.6.6H341c.3 0 .6-.3.6-.6v-.3c0-.3-.3-.6-.6-.6z"/><path class="st1" d="M90.3 359.5H65.4v-68.6h2v66.6h22.9z"/><circle class="st1" cx="65.9" cy="289.9" r="2.6"/><circle class="st1" cx="90.3" cy="358.5" r="2.6"/><path class="st1" d="M432.1 361.8h-24.9v-68.6h2v66.6h22.9z"/><circle class="st1" cx="407.7" cy="292.2" r="2.6"/><circle class="st1" cx="432.1" cy="360.8" r="2.6"/><circle class="st1" cx="32.9" cy="243" r="2.6"/><circle class="st1" cx="7.6" cy="289.3" r="2.6"/><path class="st1" d="M33.9 290.9H8.7v-2h23.2v-44.6h2z"/><circle class="st1" cx="27.9" cy="128.6" r="2.6"/><circle class="st1" cx="2.6" cy="174.9" r="2.6"/><path class="st1" d="M28.9 176.5H3.7v-2h23.2v-44.6h2z"/><circle class="st1" cx="256.4" cy="27.9" r="2.6"/><circle class="st1" cx="210" cy="2.6" r="2.6"/><path class="st1" d="M255 28.9h-46.6V3.7h2v23.2H255z"/><circle class="st1" cx="389.8" cy="10.6" r="2.6"/><circle class="st1" cx="364.6" cy="57" r="2.6"/><path class="st1" d="M390.8 58.6h-25.1v-2h23.1V12h2z"/></svg>