<svg xmlns="http://www.w3.org/2000/svg" viewBox="0 0 202.47 424.51"><defs><clipPath id="a" transform="translate(-1560.09 -51.89)"><rect x="1560.09" y="66.91" width="202.47" height="409.49" rx="33.11" ry="33.11" fill="none"/></clipPath><clipPath id="b" transform="translate(-1560.09 -51.89)"><path d="M1591.54 74.47H1730a20.36 20.36 0 0120.34 20.39v228H1571.2v-228a20.36 20.36 0 0120.34-20.39z" fill="none"/></clipPath><clipPath id="c" transform="translate(-1560.09 -51.89)"><rect x="1646.38" y="195.68" width="14.8" height="26.55" rx="1.56" ry="1.56" fill="none"/></clipPath><clipPath id="d" transform="translate(-1560.09 -51.89)"><rect x="1665.07" y="208.96" width="14.8" height="13.28" rx="1.56" ry="1.56" fill="none"/></clipPath><clipPath id="e" transform="translate(-1560.09 -51.89)"><rect x="1683.77" y="199.59" width="14.8" height="22.65" rx="1.56" ry="1.56" fill="none"/></clipPath><clipPath id="f" transform="translate(-1560.09 -51.89)"><rect x="1702.46" y="212.08" width="14.8" height="10.15" rx="1.56" ry="1.56" fill="none"/></clipPath><clipPath id="g" transform="translate(-1560.09 -51.89)"><rect x="1721.16" y="199.59" width="14.8" height="22.65" rx="1.56" ry="1.56" fill="none"/></clipPath><clipPath id="h" transform="translate(-1560.09 -51.89)"><path d="M1684.85 168.63s-17.37 20.8-26.88 29.57-28.79 20.16-28.79 20.16c-4.51.89-7.51 1.77-9.56 2.32-6.34 1.71-7.74 1.92-12.12 3.63a37.35 37.35 0 00-19 16.4c-6 10.7-13.69 27.56-12.45 42.47 1.34 16.08 14.9 11.26 24.77 5.47l.06.65h42.26v-48.72s0-.48-.06-1.3l.06.09s15.37-18.63 22.6-25.87c12.31-12.32 26.22-35.76 26.22-35.76zM1595 272.26l4.84-19.77c.32 3.4-1.36 14.88-1.06 18.07z" fill="none"/></clipPath><clipPath id="i" transform="translate(-1560.09 -51.89)"><path d="M1607.22 72.82v5.63a11.36 11.36 0 0011.35 11.38h79.57a11.36 11.36 0 0011.35-11.38v-8.06z" fill="none"/></clipPath><clipPath id="j" transform="translate(-1560.09 -51.89)"><rect x="1602.67" y="411.19" width="119.74" height="27.75" rx="11.61" ry="11.61" fill="none"/></clipPath></defs><g style="isolation:isolate"><g clip-path="url(#a)"><path fill="#fff" d="M98.48 15.03L0 54.7V15.03h98.48z"/><path fill="#fff" d="M136.43 15.03L0 69.99V54.7l98.48-39.67h37.95z"/><path fill="#fefefe" d="M174.37 15.03L0 85.28V69.99l136.43-54.96h37.94z"/><path fill="#fdfdfd" d="M198.65 15.03l1.91 4.73L0 100.56V85.28l174.37-70.25h24.28z"/><path fill="#fcfcfc" d="M200.56 19.76l1.91 4.74v9.78L0 115.85v-15.29l200.56-80.8z"/><path fill="#fbfcfc" d="M202.47 49.57L0 131.14v-15.29l202.47-81.57v15.29z"/><path fill="#fafbfb" d="M202.47 64.86L0 146.43v-15.29l202.47-81.57v15.29z"/><path fill="#f9fafa" d="M202.47 80.14L0 161.71v-15.28l202.47-81.57v15.28z"/><path fill="#f8f9f9" d="M202.47 95.43L0 177v-15.29l202.47-81.57v15.29z"/><path fill="#f7f8f8" d="M202.47 110.72L0 192.29V177l202.47-81.57v15.29z"/><path fill="#f6f7f7" d="M202.47 126.01L0 207.58v-15.29l202.47-81.57v15.29z"/><path fill="#f5f6f7" d="M202.47 141.29L0 222.86v-15.28l202.47-81.57v15.28z"/><path fill="#f4f6f6" d="M202.47 156.58L0 238.15v-15.29l202.47-81.57v15.29z"/><path fill="#f3f5f5" d="M202.47 171.87L0 253.44v-15.29l202.47-81.57v15.29z"/><path fill="#f2f4f4" d="M202.47 187.16L0 268.73v-15.29l202.47-81.57v15.29z"/><path fill="#f1f3f3" d="M202.47 202.44L0 284.01v-15.28l202.47-81.57v15.28z"/><path fill="#eff2f2" d="M202.47 217.73L0 299.3v-15.29l202.47-81.57v15.29z"/><path fill="#eef1f2" d="M202.47 233.02L0 314.59V299.3l202.47-81.57v15.29z"/><path fill="#edf0f1" d="M202.47 248.31L0 329.88v-15.29l202.47-81.57v15.29z"/><path fill="#eceff0" d="M202.47 263.59L0 345.16v-15.28l202.47-81.57v15.28z"/><path fill="#ebefef" d="M202.47 278.88L0 360.45v-15.29l202.47-81.57v15.29z"/><path fill="#eaeeee" d="M202.47 294.17L0 375.74v-15.29l202.47-81.57v15.29z"/><path fill="#e9edee" d="M202.47 309.46L0 391.02v-15.28l202.47-81.57v15.29z"/><path fill="#e8eced" d="M202.47 324.74L0 406.31v-15.29l202.47-81.56v15.28z"/><path fill="#e7ebec" d="M202.47 340.03L2.27 420.68 0 415.04v-8.73l202.47-81.57v15.29z"/><path fill="#e6eaeb" d="M202.47 355.32L30.72 424.51H3.82l-1.55-3.83 200.2-80.65v15.29z"/><path fill="#e5e9ea" d="M202.47 370.61l-133.81 53.9H30.72l171.75-69.19v15.29z"/><path fill="#e4e9e9" d="M202.47 385.89l-95.86 38.62H68.66l133.81-53.9v15.28z"/><path fill="#e3e8e9" d="M202.47 401.18l-57.92 23.33h-37.94l95.86-38.62v15.29z"/><path fill="#e2e7e8" d="M202.47 416.47l-19.97 8.04h-37.95l57.92-23.33v15.29z"/><path fill="#e1e6e7" d="M182.5 424.51l19.97-8.04v8.04H182.5z"/></g><rect x="11.37" y="24.92" width="179.26" height="389.53" rx="26.11" ry="26.11" fill="#fff"/><path d="M11.33 42.84a20.36 20.36 0 0120.34-20.39h138.59a20.36 20.36 0 0120.34 20.39v227.6H11.33z" fill="#f5f7fc"/><path d="M115.91 102.03c-.61-1.77-.78-3.65 1-4.52 1.31-.65 2.38.13 3.71.37a4.49 4.49 0 004.15-1.37c2.12-2.28 1.89-7.23-1.26-8.18a1.1 1.1 0 00-1.12 1.64c.61 1 1.6 2.05 1.33 3.4-.41 2-2.4 1.92-3.77 1.57-1.55-.4-3-.68-4.42.25-2.47 1.56-3.24 5.6-.88 7.68a.79.79 0 001.28-.84z" fill="#3d3d3d" opacity=".25"/><path d="M113.91 100.03c-.61-1.77-.78-3.65 1-4.52 1.31-.65 2.38.13 3.71.37a4.49 4.49 0 004.15-1.37c2.12-2.28 1.89-7.23-1.26-8.18a1.1 1.1 0 00-1.12 1.64c.61 1 1.6 2.05 1.33 3.4-.41 2-2.4 1.92-3.77 1.57-1.55-.4-3-.68-4.42.25-2.47 1.56-3.24 5.6-.88 7.68a.79.79 0 001.28-.84z" fill="#e3707f"/><path d="M137.91 98.04c1.36-.44 2.39-1.63 3.44-2.56l3.68-3.27c1-.91-.48-2.42-1.5-1.5l-3.46 3.12c-1 .93-2.39 1.85-3 3.13-.24.54.17 1.29.82 1.08z" fill="#3d3d3d" opacity=".25"/><path d="M135.91 96.04c1.36-.44 2.39-1.63 3.44-2.56l3.68-3.27c1-.91-.48-2.42-1.5-1.5l-3.46 3.12c-1 .93-2.39 1.85-3 3.13-.24.54.17 1.29.82 1.08z" fill="#e8947e"/><path d="M160.33 83.11c-3.08.44-5.2 3.26-4 6.39a5.38 5.38 0 007.58 2.61 5.46 5.46 0 001.55-7.57c-1.65-2.3-5.81-3.13-7.68-.68-.59.77.39 1.91 1.25 1.63 1.51-.5 2.92-1.16 4.32.09a3 3 0 01-.34 4.44 3.16 3.16 0 01-4.5-1c-.93-1.66.25-4.48 2-5.18a.37.37 0 00-.19-.71z" fill="#3d3d3d" opacity=".25"/><path d="M158.33 81.11c-3.08.44-5.2 3.26-4 6.39a5.38 5.38 0 007.58 2.61 5.46 5.46 0 001.55-7.57c-1.65-2.3-5.81-3.13-7.68-.68-.59.77.39 1.91 1.25 1.63 1.51-.5 2.92-1.16 4.32.09a3 3 0 01-.34 4.44 3.16 3.16 0 01-4.5-1c-.93-1.66.25-4.48 2-5.18a.37.37 0 00-.19-.71z" fill="#8aa9fc"/><path d="M125.04 74.35a28.12 28.12 0 002.78-7.69c.17-1.2-1.5-2.23-2.16-.91a28.18 28.18 0 00-2.15 8c-.13.85 1.08 1.57 1.52.64z" fill="#3d3d3d" opacity=".25"/><path d="M123.04 72.35a28.12 28.12 0 002.78-7.69c.17-1.2-1.5-2.23-2.16-.91a28.18 28.18 0 00-2.15 8c-.13.85 1.08 1.57 1.52.64z" fill="#6e3281"/><path d="M150.45 78.23a.69.69 0 000-1.38.69.69 0 000 1.38z" fill="#3d3d3d" opacity=".25"/><path d="M148.45 76.23a.69.69 0 000-1.38.69.69 0 000 1.38z" fill="#e2adfc"/><path d="M109.63 67.62c-1.17 2.3-3 5.09-3.29 7.73-.3 3.2 3.08 2.23 5 1.81s6.11-.58 5.59-3.43c-.23-1.27-1.53-2.25-2.37-3.11l-3.62-3.75c-1.22-1.26-3.18.7-1.92 1.93l2.8 2.73c.52.51 2.74 2.13 2.63 3l.36-.87c-.63.79-2.86.95-3.79 1.18-.62.16-1.29.26-1.9.47-1 .34-.5.15-.29-.68a56.63 56.63 0 001.53-6.64c.06-.41-.5-.75-.73-.31z" fill="#3d3d3d" opacity=".25"/><path d="M107.63 65.62c-1.17 2.3-3 5.09-3.29 7.73-.3 3.2 3.08 2.23 5 1.81s6.11-.58 5.59-3.43c-.23-1.27-1.53-2.25-2.37-3.11l-3.62-3.75c-1.22-1.26-3.18.7-1.92 1.93l2.8 2.73c.52.51 2.74 2.13 2.63 3l.36-.87c-.63.79-2.86.95-3.79 1.18-.62.16-1.29.26-1.9.47-1 .34-.5.15-.29-.68a56.63 56.63 0 001.53-6.64c.06-.41-.5-.75-.73-.31z" fill="#edc483"/><g style="mix-blend-mode:multiply" opacity=".1" fill="#7f7f7f"><path d="M25.91 106.84l2.93 17.15a1.36 1.36 0 001.43 1.13l25.74-1.28 2.63 4.07.05-4.24 5.12-.33a1.36 1.36 0 001.41-1.31l.56-15.37a1.36 1.36 0 00-1.35-1.41H27.25a1.36 1.36 0 00-1.34 1.59z"/><rect x="32.05" y="111.99" width="29.72" height="1.38" rx=".58" ry=".58"/><rect x="32.37" y="115.2" width="18.41" height="1.38" rx=".58" ry=".58"/></g><path d="M21.91 102.84l2.93 17.15a1.36 1.36 0 001.43 1.13l25.74-1.28 2.63 4.07.05-4.24 5.12-.33a1.36 1.36 0 001.41-1.31l.56-15.37a1.36 1.36 0 00-1.35-1.41H23.25a1.36 1.36 0 00-1.34 1.59z" fill="#edc483"/><rect x="28.05" y="107.99" width="29.72" height="1.38" rx=".58" ry=".58" fill="#fff"/><rect x="28.37" y="111.2" width="18.41" height="1.38" rx=".58" ry=".58" fill="#fff"/><rect x="67.6" y="398.42" width="62.88" height="2.46" rx="1.03" ry="1.03" fill="#e0e6e9"/><path d="M26.49 315.39v-4.92h.36v4.64h2.83v.32zm5.71.03a1.82 1.82 0 01-.94-.24 1.78 1.78 0 01-.65-.66 2.05 2.05 0 010-1.93 1.78 1.78 0 01.65-.66 1.82 1.82 0 01.94-.24 1.84 1.84 0 01.94.24 1.73 1.73 0 01.65.66 2.07 2.07 0 010 1.93 1.74 1.74 0 01-.65.66 1.84 1.84 0 01-.94.24zm0-.32a1.5 1.5 0 00.76-.19 1.36 1.36 0 00.53-.54 1.83 1.83 0 000-1.62 1.37 1.37 0 00-.53-.54 1.5 1.5 0 00-.76-.19 1.47 1.47 0 00-.75.19 1.4 1.4 0 00-.53.54 1.8 1.8 0 000 1.62 1.39 1.39 0 00.53.54 1.47 1.47 0 00.75.2zm3.27.29v-3.67h.34v1-.11a1.3 1.3 0 01.52-.68 1.63 1.63 0 01.91-.24v.34h-.08a1.22 1.22 0 00-1 .38 1.54 1.54 0 00-.34 1.06v1.91zm4.5.03a2 2 0 01-1-.24 1.75 1.75 0 01-.67-.66 1.9 1.9 0 01-.24-1 2 2 0 01.23-1 1.69 1.69 0 01.63-.66 1.71 1.71 0 01.9-.24 1.73 1.73 0 01.89.23 1.65 1.65 0 01.62.65 2 2 0 01.23 1 .45.45 0 000 .05h-3.23v-.27h3l-.14.13a1.52 1.52 0 00-.18-.77 1.4 1.4 0 00-.5-.53 1.39 1.39 0 00-2 .53 1.63 1.63 0 00-.18.78v.06a1.58 1.58 0 00.2.8 1.4 1.4 0 00.55.54 1.63 1.63 0 00.8.19 1.68 1.68 0 00.66-.13 1.29 1.29 0 00.52-.39l.2.23a1.5 1.5 0 01-.6.45 2 2 0 01-.69.25zm7.6-3.72a1.62 1.62 0 01.77.17 1.19 1.19 0 01.51.52 1.84 1.84 0 01.18.86v2.14h-.35v-2.12a1.34 1.34 0 00-.3-.94 1.1 1.1 0 00-.84-.32 1.4 1.4 0 00-.71.18 1.17 1.17 0 00-.46.49 1.65 1.65 0 00-.16.76v2h-.35v-2.12a1.33 1.33 0 00-.3-.94 1.09 1.09 0 00-.84-.32 1.39 1.39 0 00-.71.18 1.17 1.17 0 00-.46.49 1.65 1.65 0 00-.16.76v2h-.35v-3.67h.34v1-.11a1.37 1.37 0 01.54-.68 1.62 1.62 0 01.91-.25 1.5 1.5 0 01.92.28 1.25 1.25 0 01.47.83h-.12a1.44 1.44 0 01.55-.76 1.65 1.65 0 01.92-.43zm5.58-.87a.28.28 0 01-.2-.08.27.27 0 01-.08-.2.29.29 0 01.49-.21.27.27 0 01.08.2.29.29 0 01-.08.2.27.27 0 01-.21.09zm-.17 4.56v-3.67h.35v3.67zm2.18 1.37v-5h.34v1.2l-.06.64.07.64v2.55zm1.84-1.33a1.71 1.71 0 01-.87-.23 1.62 1.62 0 01-.62-.64 2.29 2.29 0 010-2 1.62 1.62 0 01.62-.64 1.71 1.71 0 01.87-.23 1.84 1.84 0 01.93.24 1.69 1.69 0 01.64.66 2.12 2.12 0 010 1.94 1.69 1.69 0 01-.64.66 1.84 1.84 0 01-.94.23zm0-.32a1.49 1.49 0 00.76-.19 1.37 1.37 0 00.53-.54 1.79 1.79 0 000-1.62 1.38 1.38 0 00-.53-.54 1.57 1.57 0 00-1.51 0 1.4 1.4 0 00-.53.54 1.8 1.8 0 000 1.62 1.39 1.39 0 00.53.54 1.48 1.48 0 00.72.19zm4.16.31a2.66 2.66 0 01-.85-.13 1.66 1.66 0 01-.61-.34l.16-.28a1.81 1.81 0 00.56.31 2.15 2.15 0 00.76.13 1.4 1.4 0 00.83-.19.6.6 0 00.25-.5.48.48 0 00-.13-.36.87.87 0 00-.35-.2 3.66 3.66 0 00-.48-.12l-.52-.1a2.09 2.09 0 01-.48-.16.89.89 0 01-.35-.29.86.86 0 01-.13-.5.88.88 0 01.15-.51 1.07 1.07 0 01.46-.36 1.9 1.9 0 01.77-.14 2.53 2.53 0 01.69.1 1.74 1.74 0 01.56.26l-.16.28a1.49 1.49 0 00-.52-.25 2.23 2.23 0 00-.58-.08 1.26 1.26 0 00-.78.2.61.61 0 00-.25.49.52.52 0 00.13.37.83.83 0 00.35.21 3.24 3.24 0 00.48.12l.52.1a2.18 2.18 0 01.48.16.87.87 0 01.35.28.8.8 0 01.13.48.87.87 0 01-.16.53 1.06 1.06 0 01-.49.35 2.17 2.17 0 01-.79.14zm4.27 0a1.79 1.79 0 01-.81-.17 1.2 1.2 0 01-.53-.52 1.81 1.81 0 01-.19-.86v-2.14h.35v2.12a1.29 1.29 0 00.32.94 1.18 1.18 0 00.89.32 1.4 1.4 0 00.72-.18 1.17 1.17 0 00.46-.5 1.65 1.65 0 00.16-.76v-2h.35v3.67h-.34v-1 .12a1.37 1.37 0 01-.54.68 1.57 1.57 0 01-.84.28zm8.11-3.72a1.62 1.62 0 01.77.17 1.19 1.19 0 01.51.52 1.84 1.84 0 01.18.86v2.14h-.35v-2.12a1.34 1.34 0 00-.3-.94 1.1 1.1 0 00-.84-.32 1.4 1.4 0 00-.71.18 1.17 1.17 0 00-.46.49 1.65 1.65 0 00-.16.76v2h-.35v-2.12a1.33 1.33 0 00-.3-.94 1.09 1.09 0 00-.84-.32 1.39 1.39 0 00-.71.18 1.17 1.17 0 00-.46.49 1.65 1.65 0 00-.16.76v2h-.35v-3.67h.34v1-.11a1.37 1.37 0 01.54-.68 1.62 1.62 0 01.91-.25 1.5 1.5 0 01.92.28 1.25 1.25 0 01.47.83h-.12a1.44 1.44 0 01.55-.76 1.65 1.65 0 01.92-.43zm6.81 3.72a1.82 1.82 0 01-.92-.24 1.71 1.71 0 01-.65-.66 2.1 2.1 0 010-1.94 1.72 1.72 0 01.65-.65 1.82 1.82 0 01.92-.24 1.71 1.71 0 01.87.23 1.61 1.61 0 01.62.64 2 2 0 01.23 1 2.08 2.08 0 01-.22 1 1.59 1.59 0 01-.61.65 1.72 1.72 0 01-.89.21zm0-.32a1.47 1.47 0 00.75-.19 1.38 1.38 0 00.53-.54 1.79 1.79 0 000-1.62 1.39 1.39 0 00-.53-.54 1.56 1.56 0 00-1.51 0 1.4 1.4 0 00-.53.54 1.8 1.8 0 000 1.62 1.39 1.39 0 00.53.54 1.47 1.47 0 00.78.2zm1.48.29v-1.2l.06-.64-.07-.64v-2.73h.35v5.21zm3.62.03a1.82 1.82 0 01-.94-.24 1.78 1.78 0 01-.65-.66 2.05 2.05 0 010-1.93 1.78 1.78 0 01.65-.66 1.82 1.82 0 01.94-.24 1.84 1.84 0 01.94.24 1.73 1.73 0 01.65.66 2.07 2.07 0 010 1.93 1.74 1.74 0 01-.65.66 1.84 1.84 0 01-.94.24zm0-.32a1.5 1.5 0 00.76-.19 1.36 1.36 0 00.53-.54 1.83 1.83 0 000-1.62 1.37 1.37 0 00-.53-.54 1.5 1.5 0 00-.76-.19 1.47 1.47 0 00-.75.19 1.4 1.4 0 00-.53.54 1.8 1.8 0 000 1.62 1.39 1.39 0 00.53.54 1.47 1.47 0 00.75.2zm3.27.29v-5.21h.35v5.21zm3.61.03a1.82 1.82 0 01-.94-.24 1.78 1.78 0 01-.65-.66 2.05 2.05 0 010-1.93 1.78 1.78 0 01.65-.66 1.82 1.82 0 01.94-.24 1.84 1.84 0 01.94.24 1.73 1.73 0 01.65.66 2.07 2.07 0 010 1.93 1.74 1.74 0 01-.65.66 1.84 1.84 0 01-.94.24zm0-.32a1.5 1.5 0 00.76-.19 1.36 1.36 0 00.53-.54 1.83 1.83 0 000-1.62 1.37 1.37 0 00-.53-.54 1.5 1.5 0 00-.76-.19 1.47 1.47 0 00-.75.19 1.4 1.4 0 00-.53.54 1.8 1.8 0 000 1.62 1.39 1.39 0 00.53.54 1.47 1.47 0 00.75.2zm3.27.29v-3.67h.34v1-.11a1.3 1.3 0 01.52-.68 1.63 1.63 0 01.91-.24v.34h-.08a1.22 1.22 0 00-1 .38 1.54 1.54 0 00-.34 1.06v1.91zm6.19.03a2.66 2.66 0 01-.85-.13 1.66 1.66 0 01-.61-.34l.16-.28a1.81 1.81 0 00.56.31 2.15 2.15 0 00.76.13 1.4 1.4 0 00.83-.19.6.6 0 00.25-.5.48.48 0 00-.13-.36.87.87 0 00-.35-.2 3.66 3.66 0 00-.48-.12l-.52-.1a2.09 2.09 0 01-.48-.16.89.89 0 01-.35-.29.86.86 0 01-.13-.5.88.88 0 01.15-.51 1.07 1.07 0 01.46-.36 1.9 1.9 0 01.77-.14 2.53 2.53 0 01.69.1 1.74 1.74 0 01.56.26l-.16.28a1.49 1.49 0 00-.52-.25 2.23 2.23 0 00-.58-.08 1.26 1.26 0 00-.78.2.61.61 0 00-.25.49.52.52 0 00.13.37.83.83 0 00.35.21 3.24 3.24 0 00.48.12l.52.1a2.18 2.18 0 01.48.16.87.87 0 01.35.28.8.8 0 01.13.48.87.87 0 01-.16.53 1.06 1.06 0 01-.49.35 2.17 2.17 0 01-.79.14zm2.95-4.59a.28.28 0 01-.2-.08.27.27 0 01-.08-.2.29.29 0 01.49-.21.27.27 0 01.08.2.29.29 0 01-.08.2.27.27 0 01-.21.09zm-.17 4.56v-3.67h.35v3.67zm1.57-3.36v-.3h2.19v.3zm1.67 3.39a1 1 0 01-.74-.27 1 1 0 01-.26-.73v-3.5h.35v3.46a.77.77 0 00.17.54.65.65 0 00.5.19.81.81 0 00.57-.2l.15.25a.85.85 0 01-.34.2 1.35 1.35 0 01-.4.06zm5.21 0a1.76 1.76 0 01-.7-.13 1 1 0 01-.46-.37 1 1 0 01-.16-.55 1 1 0 01.13-.51 1 1 0 01.43-.37 1.9 1.9 0 01.81-.14h1.35v.27h-1.34a1.17 1.17 0 00-.8.21.69.69 0 00-.23.53.68.68 0 00.27.56 1.18 1.18 0 00.75.21 1.39 1.39 0 00.78-.21 1.25 1.25 0 00.47-.61l.1.24a1.28 1.28 0 01-.5.64 1.6 1.6 0 01-.9.23zm1.32 0v-2.34a1 1 0 00-.28-.78 1.12 1.12 0 00-.81-.27 1.88 1.88 0 00-.71.13 1.91 1.91 0 00-.56.33l-.17-.25a1.94 1.94 0 01.66-.38 2.38 2.38 0 01.81-.14 1.47 1.47 0 011 .34 1.35 1.35 0 01.36 1v2.33zm6.69-3.72a1.62 1.62 0 01.77.17 1.19 1.19 0 01.51.52 1.84 1.84 0 01.18.86v2.14h-.35v-2.12a1.34 1.34 0 00-.3-.94 1.1 1.1 0 00-.84-.32 1.4 1.4 0 00-.71.18 1.17 1.17 0 00-.46.49 1.65 1.65 0 00-.16.76v2h-.35v-2.12a1.33 1.33 0 00-.3-.94 1.09 1.09 0 00-.84-.32 1.39 1.39 0 00-.71.18 1.17 1.17 0 00-.46.49 1.65 1.65 0 00-.16.76v2h-.35v-3.67h.34v1-.11a1.37 1.37 0 01.54-.68 1.62 1.62 0 01.91-.25 1.5 1.5 0 01.92.28 1.25 1.25 0 01.47.83h-.12a1.44 1.44 0 01.55-.76 1.65 1.65 0 01.92-.43zm4.74 3.72a2 2 0 01-1-.24 1.75 1.75 0 01-.67-.66 1.9 1.9 0 01-.24-1 2 2 0 01.23-1 1.69 1.69 0 01.63-.66 1.71 1.71 0 01.9-.24 1.73 1.73 0 01.89.23 1.65 1.65 0 01.62.65 2 2 0 01.23 1 .45.45 0 000 .05h-3.23v-.27h3l-.14.13a1.52 1.52 0 00-.18-.77 1.4 1.4 0 00-.5-.53 1.39 1.39 0 00-2 .53 1.63 1.63 0 00-.18.78v.06a1.58 1.58 0 00.2.8 1.4 1.4 0 00.55.54 1.63 1.63 0 00.8.19 1.68 1.68 0 00.66-.13 1.29 1.29 0 00.52-.39l.2.23a1.5 1.5 0 01-.6.45 2 2 0 01-.69.25zm2.45-3.39v-.3h2.19v.3zm1.67 3.39a1 1 0 01-.74-.27 1 1 0 01-.26-.73v-3.5h.35v3.46a.77.77 0 00.17.54.65.65 0 00.5.19.81.81 0 00.57-.2l.15.25a.85.85 0 01-.34.2 1.35 1.35 0 01-.38.06zm1.8.98l.27-1.19v.2a.3.3 0 01-.22-.08.28.28 0 01-.09-.21.28.28 0 01.09-.21.29.29 0 01.21-.08.28.28 0 01.21.09.3.3 0 01.08.21.66.66 0 010 .1v.23l-.27 1zm5.7-.98a1.88 1.88 0 01-1-.24 1.76 1.76 0 01-.66-.66 2.06 2.06 0 010-1.93 1.73 1.73 0 01.66-.66 1.91 1.91 0 011-.24 1.88 1.88 0 01.8.17 1.41 1.41 0 01.58.51l-.26.19a1.19 1.19 0 00-.49-.42 1.6 1.6 0 00-1.41.06 1.39 1.39 0 00-.53.54 1.81 1.81 0 000 1.62 1.39 1.39 0 00.53.54 1.6 1.6 0 001.41.06 1.2 1.2 0 00.49-.41l.26.19a1.41 1.41 0 01-.58.51 1.88 1.88 0 01-.8.17zm4.15 0a1.82 1.82 0 01-.94-.24 1.78 1.78 0 01-.65-.66 2.05 2.05 0 010-1.93 1.78 1.78 0 01.65-.66 1.82 1.82 0 01.94-.24 1.84 1.84 0 01.94.24 1.73 1.73 0 01.65.66 2.07 2.07 0 010 1.93 1.74 1.74 0 01-.65.66 1.84 1.84 0 01-.94.24zm0-.32a1.5 1.5 0 00.76-.19 1.36 1.36 0 00.53-.54 1.83 1.83 0 000-1.62 1.37 1.37 0 00-.53-.54 1.5 1.5 0 00-.76-.19 1.47 1.47 0 00-.75.19 1.4 1.4 0 00-.53.54 1.8 1.8 0 000 1.62 1.39 1.39 0 00.53.54 1.47 1.47 0 00.75.2zm5.06-3.4a1.67 1.67 0 01.78.17 1.21 1.21 0 01.52.52 1.81 1.81 0 01.19.86v2.14h-.35v-2.12a1.3 1.3 0 00-.31-.94 1.16 1.16 0 00-.87-.32 1.5 1.5 0 00-.74.18 1.17 1.17 0 00-.48.49 1.62 1.62 0 00-.17.76v2h-.35v-3.67h.34v1-.11a1.39 1.39 0 01.55-.68 1.71 1.71 0 01.89-.28zm4.2 3.72a2.66 2.66 0 01-.85-.13 1.66 1.66 0 01-.61-.34l.16-.28a1.81 1.81 0 00.56.31 2.15 2.15 0 00.76.13 1.4 1.4 0 00.83-.19.6.6 0 00.25-.5.48.48 0 00-.13-.36.87.87 0 00-.35-.2 3.66 3.66 0 00-.48-.12l-.52-.1a2.09 2.09 0 01-.48-.16.89.89 0 01-.35-.29.86.86 0 01-.13-.5.88.88 0 01.15-.51 1.07 1.07 0 01.46-.36 1.9 1.9 0 01.77-.14 2.53 2.53 0 01.69.1 1.74 1.74 0 01.56.26l-.16.28a1.49 1.49 0 00-.52-.25 2.23 2.23 0 00-.58-.08 1.26 1.26 0 00-.78.2.61.61 0 00-.25.49.52.52 0 00.13.37.83.83 0 00.35.21 3.24 3.24 0 00.48.12l.52.1a2.18 2.18 0 01.48.16.87.87 0 01.35.28.8.8 0 01.13.48.87.87 0 01-.16.53 1.06 1.06 0 01-.49.35 2.17 2.17 0 01-.79.14zm4.26 0a2 2 0 01-1-.24 1.75 1.75 0 01-.67-.66 1.9 1.9 0 01-.24-1 2 2 0 01.23-1 1.69 1.69 0 01.63-.66 1.71 1.71 0 01.9-.24 1.73 1.73 0 01.89.23 1.65 1.65 0 01.62.65 2 2 0 01.23 1 .45.45 0 000 .05h-3.23v-.27h3l-.14.13a1.52 1.52 0 00-.18-.77 1.4 1.4 0 00-.5-.53 1.39 1.39 0 00-2 .53 1.63 1.63 0 00-.18.78v.06a1.58 1.58 0 00.2.8 1.4 1.4 0 00.55.54 1.63 1.63 0 00.8.19 1.68 1.68 0 00.66-.13 1.29 1.29 0 00.52-.39l.2.23a1.5 1.5 0 01-.6.45 2 2 0 01-.69.25zm4.5 0a1.88 1.88 0 01-1-.24 1.76 1.76 0 01-.66-.66 2.06 2.06 0 010-1.93 1.73 1.73 0 01.66-.66 1.91 1.91 0 011-.24 1.88 1.88 0 01.8.17 1.41 1.41 0 01.58.51l-.26.19a1.19 1.19 0 00-.49-.42 1.6 1.6 0 00-1.41.06 1.39 1.39 0 00-.53.54 1.81 1.81 0 000 1.62 1.39 1.39 0 00.53.54 1.6 1.6 0 001.41.06 1.2 1.2 0 00.49-.41l.26.19a1.41 1.41 0 01-.58.51 1.88 1.88 0 01-.8.17zm2.23-3.39v-.3h2.19v.3zm1.67 3.39a1 1 0 01-.74-.27 1 1 0 01-.26-.73v-3.5h.35v3.46a.77.77 0 00.17.54.65.65 0 00.5.19.81.81 0 00.57-.2l.15.25a.85.85 0 01-.34.2 1.35 1.35 0 01-.4.06zm3.45 0a2 2 0 01-1-.24 1.75 1.75 0 01-.67-.66 1.9 1.9 0 01-.24-1 2 2 0 01.23-1 1.69 1.69 0 01.63-.66 1.71 1.71 0 01.9-.24 1.73 1.73 0 01.89.23 1.65 1.65 0 01.62.65 2 2 0 01.23 1 .45.45 0 000 .05h-3.23v-.27h3l-.14.13a1.52 1.52 0 00-.18-.77 1.4 1.4 0 00-.5-.53 1.39 1.39 0 00-2 .53 1.63 1.63 0 00-.18.78v.06a1.58 1.58 0 00.2.8 1.4 1.4 0 00.55.54 1.63 1.63 0 00.8.19 1.68 1.68 0 00.66-.13 1.29 1.29 0 00.52-.39l.2.23a1.5 1.5 0 01-.6.45 2 2 0 01-.69.25zm2.72-1.75v-.32h1.8v.32zM27.47 326.11v-.3h2.19v.3zm1.67 3.39a1 1 0 01-.74-.27 1 1 0 01-.26-.73V325h.35v3.46a.77.77 0 00.17.54.65.65 0 00.5.19.81.81 0 00.57-.2l.15.25a.85.85 0 01-.34.2 1.35 1.35 0 01-.4.04zm3.56-.02a1.79 1.79 0 01-.81-.17 1.2 1.2 0 01-.53-.52 1.81 1.81 0 01-.19-.86v-2.14h.35v2.12a1.29 1.29 0 00.32.94 1.18 1.18 0 00.89.32 1.4 1.4 0 00.72-.18 1.17 1.17 0 00.46-.5 1.65 1.65 0 00.16-.76v-2h.35v3.67h-.34v-1 .12a1.37 1.37 0 01-.54.68 1.57 1.57 0 01-.84.28zm5.04 0a2 2 0 01-1-.24 1.75 1.75 0 01-.67-.66 1.9 1.9 0 01-.24-1 2 2 0 01.23-1 1.69 1.69 0 01.63-.66 1.71 1.71 0 01.9-.24 1.73 1.73 0 01.89.23 1.65 1.65 0 01.62.65 2 2 0 01.23 1 .45.45 0 000 .05H36.1v-.27h3l-.14.13a1.52 1.52 0 00-.18-.77 1.4 1.4 0 00-.5-.53 1.39 1.39 0 00-2 .53 1.63 1.63 0 00-.18.78v.06a1.58 1.58 0 00.2.8 1.4 1.4 0 00.55.54 1.63 1.63 0 00.8.19 1.68 1.68 0 00.66-.13 1.29 1.29 0 00.52-.39l.2.23a1.5 1.5 0 01-.6.45 2 2 0 01-.69.25zm3.05-.03v-3.67h.34v1-.11a1.3 1.3 0 01.52-.68 1.63 1.63 0 01.91-.24v.36h-.08a1.22 1.22 0 00-1 .38 1.54 1.54 0 00-.34 1.06v1.91zm6.25.03a1.76 1.76 0 01-.7-.13 1 1 0 01-.46-.37 1 1 0 01-.16-.55 1 1 0 01.13-.51 1 1 0 01.43-.37 1.9 1.9 0 01.81-.14h1.35v.27H47.1a1.17 1.17 0 00-.8.21.69.69 0 00-.23.53.68.68 0 00.27.56 1.18 1.18 0 00.75.21 1.39 1.39 0 00.78-.21 1.25 1.25 0 00.47-.61l.1.24a1.28 1.28 0 01-.5.64 1.6 1.6 0 01-.9.23zm1.32 0v-2.37a1 1 0 00-.28-.78 1.12 1.12 0 00-.81-.27 1.88 1.88 0 00-.71.13 1.91 1.91 0 00-.56.33l-.17-.25a1.94 1.94 0 01.66-.38 2.38 2.38 0 01.81-.14 1.47 1.47 0 011 .34 1.35 1.35 0 01.36 1v2.33zm3.55 0a1.82 1.82 0 01-.92-.24 1.71 1.71 0 01-.65-.66 2.1 2.1 0 010-1.94 1.72 1.72 0 01.65-.65 1.82 1.82 0 01.92-.24 1.71 1.71 0 01.87.23 1.61 1.61 0 01.62.64 2 2 0 01.23 1 2.08 2.08 0 01-.22 1 1.59 1.59 0 01-.61.65 1.72 1.72 0 01-.89.21zm0-.32a1.47 1.47 0 00.75-.19 1.38 1.38 0 00.53-.54 1.79 1.79 0 000-1.62 1.39 1.39 0 00-.53-.54 1.56 1.56 0 00-1.51 0 1.4 1.4 0 00-.53.54 1.8 1.8 0 000 1.62 1.39 1.39 0 00.53.54 1.47 1.47 0 00.76.19zm1.48.29v-1.2l.06-.64-.07-.64v-2.73h.35v5.21zm2.36-4.56a.28.28 0 01-.2-.08.27.27 0 01-.08-.2.29.29 0 01.49-.21.27.27 0 01.08.2.29.29 0 01-.08.2.27.27 0 01-.21.09zm-.17 4.56v-3.67h.35v3.67zm2.17 1.37v-5h.34v1.2l-.06.64.07.64v2.55zm1.84-1.33a1.71 1.71 0 01-.87-.23 1.62 1.62 0 01-.62-.64 2.29 2.29 0 010-2 1.62 1.62 0 01.62-.64 1.71 1.71 0 01.87-.23 1.84 1.84 0 01.93.24 1.69 1.69 0 01.64.66 2.12 2.12 0 010 1.94 1.69 1.69 0 01-.64.66 1.84 1.84 0 01-.93.23zm0-.32a1.49 1.49 0 00.76-.19 1.37 1.37 0 00.53-.54 1.79 1.79 0 000-1.62 1.38 1.38 0 00-.53-.54 1.57 1.57 0 00-1.51 0 1.4 1.4 0 00-.53.54 1.8 1.8 0 000 1.62 1.39 1.39 0 00.53.54 1.48 1.48 0 00.73.18zm3.42-4.28a.28.28 0 01-.2-.08.27.27 0 01-.08-.2.29.29 0 01.49-.21.27.27 0 01.08.2.29.29 0 01-.08.2.27.27 0 01-.21.09zm-.17 4.56v-3.67h.35v3.67zm3.07.03a2.66 2.66 0 01-.85-.13 1.66 1.66 0 01-.61-.34l.16-.28a1.81 1.81 0 00.56.31 2.15 2.15 0 00.76.13 1.4 1.4 0 00.83-.19.6.6 0 00.25-.5.48.48 0 00-.13-.36.87.87 0 00-.35-.2 3.66 3.66 0 00-.48-.12l-.52-.1a2.09 2.09 0 01-.48-.16.89.89 0 01-.35-.29.86.86 0 01-.13-.5.88.88 0 01.15-.51 1.07 1.07 0 01.46-.36 1.9 1.9 0 01.77-.14 2.53 2.53 0 01.69.1 1.74 1.74 0 01.56.26l-.16.28a1.49 1.49 0 00-.52-.25 2.23 2.23 0 00-.58-.08 1.26 1.26 0 00-.78.2.61.61 0 00-.25.49.52.52 0 00.13.37.83.83 0 00.35.21 3.24 3.24 0 00.48.12l.52.1a2.18 2.18 0 01.48.16.87.87 0 01.35.28.8.8 0 01.13.48.87.87 0 01-.16.53 1.06 1.06 0 01-.49.35 2.17 2.17 0 01-.79.14zm4.25 0a1.88 1.88 0 01-1-.24 1.76 1.76 0 01-.66-.66 2.06 2.06 0 010-1.93 1.73 1.73 0 01.66-.66 1.91 1.91 0 011-.24 1.88 1.88 0 01.8.17 1.41 1.41 0 01.58.51l-.26.19a1.19 1.19 0 00-.49-.42 1.6 1.6 0 00-1.41.06 1.39 1.39 0 00-.53.54 1.81 1.81 0 000 1.62 1.39 1.39 0 00.53.54 1.6 1.6 0 001.41.06 1.2 1.2 0 00.49-.41l.26.19a1.41 1.41 0 01-.58.51 1.88 1.88 0 01-.8.17zm2.91-4.59a.28.28 0 01-.2-.08.27.27 0 01-.08-.2.29.29 0 01.49-.21.27.27 0 01.08.2.29.29 0 01-.08.2.27.27 0 01-.21.09zm-.17 4.56v-3.67h.35v3.67zm3.96-3.7a1.67 1.67 0 01.78.17 1.21 1.21 0 01.52.52 1.81 1.81 0 01.19.86v2.14H78v-2.12a1.3 1.3 0 00-.31-.94 1.16 1.16 0 00-.87-.32 1.5 1.5 0 00-.74.18 1.17 1.17 0 00-.48.49 1.62 1.62 0 00-.17.76v2h-.35v-3.67h.34v1-.11a1.39 1.39 0 01.55-.68 1.71 1.71 0 01.89-.28zm4.7 3.57a1.88 1.88 0 01-.93-.23 1.73 1.73 0 01-.65-.63 1.9 1.9 0 010-1.85 1.71 1.71 0 01.65-.62 1.89 1.89 0 01.93-.23 1.84 1.84 0 01.89.21 1.59 1.59 0 01.63.61 2.07 2.07 0 010 1.9 1.61 1.61 0 01-.63.62 1.82 1.82 0 01-.89.22zm.1 1.53a2.9 2.9 0 01-.95-.15 1.92 1.92 0 01-.73-.43l.19-.27a1.92 1.92 0 00.66.39 2.37 2.37 0 00.82.14 1.24 1.24 0 001.43-1.43v-1l.07-.55-.06-.55v-1.2h.34v3.28a1.81 1.81 0 01-.45 1.35 1.83 1.83 0 01-1.32.41zm-.07-1.84a1.58 1.58 0 00.78-.19 1.37 1.37 0 00.53-.52 1.61 1.61 0 000-1.53 1.35 1.35 0 00-.53-.51 1.73 1.73 0 00-1.55 0 1.34 1.34 0 00-.53.51 1.61 1.61 0 000 1.53 1.36 1.36 0 00.53.52 1.57 1.57 0 00.77.18zm7.32.47a2 2 0 01-1-.24 1.75 1.75 0 01-.67-.66 1.9 1.9 0 01-.24-1 2 2 0 01.23-1 1.69 1.69 0 01.63-.66 1.71 1.71 0 01.9-.24 1.73 1.73 0 01.89.23 1.65 1.65 0 01.62.65 2 2 0 01.23 1 .45.45 0 000 .05h-3.23v-.27h3l-.14.13a1.52 1.52 0 00-.18-.77 1.4 1.4 0 00-.5-.53 1.39 1.39 0 00-2 .53 1.63 1.63 0 00-.18.78v.06a1.58 1.58 0 00.2.8 1.4 1.4 0 00.55.54 1.63 1.63 0 00.8.19 1.68 1.68 0 00.66-.13 1.29 1.29 0 00.52-.39l.2.23a1.5 1.5 0 01-.6.45 2 2 0 01-.69.25zm3-.03v-5.21h.35v5.21zm2.4-4.56a.28.28 0 01-.2-.08.27.27 0 01-.08-.2.29.29 0 01.49-.21.27.27 0 01.08.2.29.29 0 01-.08.2.27.27 0 01-.21.09zm-.17 4.56v-3.67h.35v3.67zm1.58-3.34v-.3h2.19v.3zm1.67 3.39a1 1 0 01-.74-.27 1 1 0 01-.26-.73V325h.35v3.46a.77.77 0 00.17.54.65.65 0 00.5.19.81.81 0 00.57-.2l.15.25a.85.85 0 01-.34.2 1.35 1.35 0 01-.41.04zm1.8.96l.27-1.19v.2a.3.3 0 01-.22-.08.28.28 0 01-.09-.21.28.28 0 01.09-.21.29.29 0 01.21-.08.28.28 0 01.21.09.3.3 0 01.08.21.66.66 0 010 .1v.23l-.27 1zm5.17-.98a2.66 2.66 0 01-.85-.13 1.66 1.66 0 01-.61-.34l.16-.28a1.81 1.81 0 00.56.31 2.15 2.15 0 00.76.13 1.4 1.4 0 00.83-.19.6.6 0 00.25-.5.48.48 0 00-.13-.36.87.87 0 00-.35-.2 3.66 3.66 0 00-.48-.12l-.52-.1a2.09 2.09 0 01-.48-.16.89.89 0 01-.35-.29.86.86 0 01-.13-.5.88.88 0 01.15-.51 1.07 1.07 0 01.46-.36 1.9 1.9 0 01.77-.14 2.53 2.53 0 01.69.1 1.74 1.74 0 01.56.26l-.16.28a1.49 1.49 0 00-.52-.25 2.23 2.23 0 00-.58-.08 1.26 1.26 0 00-.78.2.61.61 0 00-.25.49.52.52 0 00.13.37.83.83 0 00.35.21 3.24 3.24 0 00.48.12l.52.1a2.18 2.18 0 01.48.16.87.87 0 01.35.28.8.8 0 01.13.48.87.87 0 01-.16.53 1.06 1.06 0 01-.49.35 2.17 2.17 0 01-.79.14zm4.26 0a2 2 0 01-1-.24 1.75 1.75 0 01-.67-.66 1.9 1.9 0 01-.24-1 2 2 0 01.23-1 1.69 1.69 0 01.63-.66 1.71 1.71 0 01.9-.24 1.73 1.73 0 01.89.23 1.65 1.65 0 01.62.65 2 2 0 01.23 1 .45.45 0 000 .05h-3.23v-.27h3l-.14.13a1.52 1.52 0 00-.18-.77 1.4 1.4 0 00-.5-.53 1.39 1.39 0 00-2 .53 1.63 1.63 0 00-.18.78v.06a1.58 1.58 0 00.2.8 1.4 1.4 0 00.55.54 1.63 1.63 0 00.8.19 1.68 1.68 0 00.66-.13 1.29 1.29 0 00.52-.39l.2.23a1.5 1.5 0 01-.6.45 2 2 0 01-.69.25zm4.46 0a1.82 1.82 0 01-.92-.24 1.71 1.71 0 01-.65-.66 2.1 2.1 0 010-1.94 1.72 1.72 0 01.65-.65 1.82 1.82 0 01.92-.24 1.71 1.71 0 01.87.23 1.61 1.61 0 01.62.64 2 2 0 01.23 1 2.08 2.08 0 01-.22 1 1.59 1.59 0 01-.61.65 1.72 1.72 0 01-.89.21zm0-.32a1.47 1.47 0 00.75-.19 1.38 1.38 0 00.53-.54 1.79 1.79 0 000-1.62 1.39 1.39 0 00-.53-.54 1.56 1.56 0 00-1.51 0 1.4 1.4 0 00-.53.54 1.8 1.8 0 000 1.62 1.39 1.39 0 00.53.54 1.47 1.47 0 00.78.19zm1.48.29v-1.2l.06-.64-.07-.64v-2.73h.35v5.21zm5.75.03a1.82 1.82 0 01-.92-.24 1.71 1.71 0 01-.65-.66 2.1 2.1 0 010-1.94 1.72 1.72 0 01.65-.65 1.82 1.82 0 01.92-.24 1.71 1.71 0 01.87.23 1.61 1.61 0 01.62.64 2 2 0 01.23 1 2.08 2.08 0 01-.22 1 1.59 1.59 0 01-.61.65 1.72 1.72 0 01-.89.21zm0-.32a1.47 1.47 0 00.75-.19 1.38 1.38 0 00.53-.54 1.79 1.79 0 000-1.62 1.39 1.39 0 00-.53-.54 1.56 1.56 0 00-1.51 0 1.4 1.4 0 00-.53.54 1.8 1.8 0 000 1.62 1.39 1.39 0 00.53.54 1.47 1.47 0 00.78.19zm1.48.29v-1.2l.06-.64-.07-.64v-2.73h.35v5.21zm2.37-4.56a.28.28 0 01-.2-.08.27.27 0 01-.08-.2.29.29 0 01.49-.21.27.27 0 01.08.2.29.29 0 01-.08.2.27.27 0 01-.21.09zm-.17 4.56v-3.67h.35v3.67zm3.16.03a1.76 1.76 0 01-.7-.13 1 1 0 01-.46-.37 1 1 0 01-.16-.55 1 1 0 01.13-.51 1 1 0 01.43-.37 1.9 1.9 0 01.81-.14h1.35v.27h-1.34a1.17 1.17 0 00-.8.21.69.69 0 00-.23.53.68.68 0 00.27.56 1.18 1.18 0 00.75.21 1.39 1.39 0 00.78-.21 1.25 1.25 0 00.47-.61l.1.24a1.28 1.28 0 01-.5.64 1.6 1.6 0 01-.9.23zm1.32 0v-2.37a1 1 0 00-.28-.78 1.12 1.12 0 00-.81-.27 1.88 1.88 0 00-.71.13 1.91 1.91 0 00-.56.33l-.17-.25a1.94 1.94 0 01.66-.38 2.38 2.38 0 01.81-.14 1.47 1.47 0 011 .34 1.35 1.35 0 01.36 1v2.33zm6.69-3.73a1.62 1.62 0 01.77.17 1.19 1.19 0 01.51.52 1.84 1.84 0 01.18.86v2.14h-.35v-2.12a1.34 1.34 0 00-.3-.94 1.1 1.1 0 00-.84-.32 1.4 1.4 0 00-.71.18 1.17 1.17 0 00-.46.49 1.65 1.65 0 00-.16.76v2h-.35v-2.12a1.33 1.33 0 00-.3-.94 1.09 1.09 0 00-.84-.32 1.39 1.39 0 00-.71.18 1.17 1.17 0 00-.46.49 1.65 1.65 0 00-.16.76v2h-.35v-3.67h.34v1-.11a1.37 1.37 0 01.54-.68 1.62 1.62 0 01.91-.25 1.5 1.5 0 01.92.28 1.25 1.25 0 01.47.83h-.12a1.44 1.44 0 01.55-.76 1.65 1.65 0 01.92-.43zm7.19 0a1.67 1.67 0 01.78.17 1.21 1.21 0 01.52.52 1.81 1.81 0 01.19.86v2.14h-.35v-2.12a1.3 1.3 0 00-.31-.94 1.16 1.16 0 00-.87-.32 1.5 1.5 0 00-.74.18 1.17 1.17 0 00-.48.49 1.62 1.62 0 00-.17.76v2h-.35v-3.67h.34v1-.11a1.39 1.39 0 01.55-.68 1.71 1.71 0 01.89-.28zm4.71 3.73a1.82 1.82 0 01-.94-.24 1.78 1.78 0 01-.65-.66 2.05 2.05 0 010-1.93 1.78 1.78 0 01.65-.66 1.82 1.82 0 01.94-.24 1.84 1.84 0 01.94.24 1.73 1.73 0 01.65.66 2.07 2.07 0 010 1.93 1.74 1.74 0 01-.65.66 1.84 1.84 0 01-.94.24zm0-.32a1.5 1.5 0 00.76-.19 1.36 1.36 0 00.53-.54 1.83 1.83 0 000-1.62 1.37 1.37 0 00-.53-.54 1.5 1.5 0 00-.76-.19 1.47 1.47 0 00-.75.19 1.4 1.4 0 00-.53.54 1.8 1.8 0 000 1.62 1.39 1.39 0 00.53.54 1.47 1.47 0 00.75.19zm5.06-3.41a1.67 1.67 0 01.78.17 1.21 1.21 0 01.52.52 1.81 1.81 0 01.19.86v2.14h-.35v-2.12a1.3 1.3 0 00-.31-.94 1.16 1.16 0 00-.87-.32 1.5 1.5 0 00-.74.18 1.17 1.17 0 00-.48.49 1.62 1.62 0 00-.17.76v2h-.35v-3.67h.34v1-.11a1.39 1.39 0 01.55-.68 1.71 1.71 0 01.89-.28zm4.79 3.73a1.79 1.79 0 01-.81-.17 1.2 1.2 0 01-.53-.52 1.81 1.81 0 01-.19-.86v-2.14h.35v2.12a1.29 1.29 0 00.32.94 1.18 1.18 0 00.89.32 1.4 1.4 0 00.72-.18 1.17 1.17 0 00.46-.5 1.65 1.65 0 00.16-.76v-2h.35v3.67h-.34v-1 .12a1.37 1.37 0 01-.54.68 1.57 1.57 0 01-.84.28zm8.09-3.73a1.62 1.62 0 01.77.17 1.19 1.19 0 01.51.52 1.84 1.84 0 01.18.86v2.14h-.35v-2.12a1.34 1.34 0 00-.3-.94 1.1 1.1 0 00-.84-.32 1.4 1.4 0 00-.71.18 1.17 1.17 0 00-.46.49 1.65 1.65 0 00-.16.76v2h-.35v-2.12a1.33 1.33 0 00-.3-.94 1.09 1.09 0 00-.84-.32 1.39 1.39 0 00-.71.18 1.17 1.17 0 00-.46.49 1.65 1.65 0 00-.16.76v2h-.35v-3.67h.34v1-.11a1.37 1.37 0 01.54-.68 1.62 1.62 0 01.91-.25 1.5 1.5 0 01.92.28 1.25 1.25 0 01.47.83h-.12a1.44 1.44 0 01.55-.76 1.65 1.65 0 01.92-.43zm2.91 1.97v-.32h1.8v.32zM52.34 339.81a1.62 1.62 0 01.77.17 1.19 1.19 0 01.51.52 1.84 1.84 0 01.18.86v2.14h-.35v-2.12a1.34 1.34 0 00-.3-.94 1.1 1.1 0 00-.84-.32 1.4 1.4 0 00-.71.18 1.17 1.17 0 00-.46.49 1.65 1.65 0 00-.16.76v2h-.35v-2.12a1.33 1.33 0 00-.3-.94 1.09 1.09 0 00-.84-.32 1.39 1.39 0 00-.71.18 1.17 1.17 0 00-.46.49 1.65 1.65 0 00-.16.76v2h-.35v-3.67h.34v1-.11a1.37 1.37 0 01.54-.68 1.62 1.62 0 01.91-.25 1.5 1.5 0 01.92.28 1.25 1.25 0 01.47.83h-.12a1.44 1.44 0 01.55-.76 1.65 1.65 0 01.92-.43zm3.1 5.09a1.33 1.33 0 01-.47-.08 1 1 0 01-.37-.25l.18-.27a.9.9 0 00.3.22.94.94 0 00.38.07.74.74 0 00.45-.14 1.27 1.27 0 00.36-.51l.25-.56v-.06l1.55-3.47h.36l-1.88 4.17a2 2 0 01-.32.53 1 1 0 01-.37.28 1.17 1.17 0 01-.42.07zm1.06-1.3l-1.7-3.76h.37l1.54 3.45zm7.02-3.79a1.67 1.67 0 01.78.17 1.21 1.21 0 01.52.52 1.81 1.81 0 01.19.86v2.14h-.35v-2.12a1.3 1.3 0 00-.31-.94 1.16 1.16 0 00-.87-.32 1.5 1.5 0 00-.74.18 1.17 1.17 0 00-.48.49 1.62 1.62 0 00-.17.76v2h-.35v-3.67h.34v1-.11a1.39 1.39 0 01.55-.68 1.71 1.71 0 01.89-.28zm3.45-.86a.28.28 0 01-.2-.08.27.27 0 01-.08-.2.29.29 0 01.49-.21.27.27 0 01.08.2.29.29 0 01-.08.2.27.27 0 01-.21.09zm-.17 4.56v-3.67h.35v3.67zm2.18 0v-5.21h.35v2.73l-.07.64.06.64v1.2zm1.84 0a1.71 1.71 0 01-.87-.23 1.61 1.61 0 01-.62-.65 2.29 2.29 0 010-2 1.62 1.62 0 01.62-.64 1.71 1.71 0 01.87-.23 1.84 1.84 0 01.93.24 1.69 1.69 0 01.64.65 2.12 2.12 0 010 1.94 1.69 1.69 0 01-.64.66 1.84 1.84 0 01-.93.29zm0-.32a1.49 1.49 0 00.76-.19 1.37 1.37 0 00.53-.54 1.79 1.79 0 000-1.62 1.38 1.38 0 00-.53-.54 1.57 1.57 0 00-1.51 0 1.4 1.4 0 00-.53.54 1.8 1.8 0 000 1.62 1.39 1.39 0 00.53.54 1.48 1.48 0 00.72.22zm5.03-3.38a1.67 1.67 0 01.78.17 1.21 1.21 0 01.52.52 1.81 1.81 0 01.19.86v2.14h-.35v-2.12a1.3 1.3 0 00-.31-.94 1.16 1.16 0 00-.87-.32 1.5 1.5 0 00-.74.18 1.17 1.17 0 00-.48.49 1.62 1.62 0 00-.17.76v2h-.35v-5.21h.35v2.57l-.06-.11a1.39 1.39 0 01.55-.68 1.71 1.71 0 01.94-.31zm6.92 3.73a2 2 0 01-1-.24 1.75 1.75 0 01-.67-.66 1.9 1.9 0 01-.24-1 2 2 0 01.23-1 1.69 1.69 0 01.63-.66 1.71 1.71 0 01.9-.24 1.73 1.73 0 01.89.23 1.65 1.65 0 01.62.65 2 2 0 01.23 1 .45.45 0 000 .05h-3.23v-.27h3l-.14.13a1.52 1.52 0 00-.18-.77 1.4 1.4 0 00-.5-.53 1.39 1.39 0 00-2 .53 1.63 1.63 0 00-.18.78v.06a1.58 1.58 0 00.2.8 1.4 1.4 0 00.55.54 1.63 1.63 0 00.8.19 1.68 1.68 0 00.66-.13 1.29 1.29 0 00.52-.39l.2.23a1.5 1.5 0 01-.6.45 2 2 0 01-.69.25zm4.53 0a1.79 1.79 0 01-.81-.17 1.2 1.2 0 01-.53-.52 1.81 1.81 0 01-.19-.86v-2.14h.35v2.12a1.29 1.29 0 00.32.94 1.18 1.18 0 00.89.32 1.4 1.4 0 00.72-.18 1.17 1.17 0 00.46-.5 1.65 1.65 0 00.16-.76v-2h.35v3.67h-.34v-1 .12a1.37 1.37 0 01-.54.68 1.57 1.57 0 01-.84.28zm3.73-4.59a.28.28 0 01-.2-.08.27.27 0 01-.08-.2.29.29 0 01.49-.21.27.27 0 01.08.2.29.29 0 01-.08.2.27.27 0 01-.21.09zm-.17 4.56v-3.67h.35v3.67zm3.1.03a2.66 2.66 0 01-.85-.13 1.66 1.66 0 01-.61-.34l.16-.28a1.81 1.81 0 00.56.31 2.15 2.15 0 00.76.13 1.4 1.4 0 00.83-.19.6.6 0 00.25-.5.48.48 0 00-.13-.36.87.87 0 00-.35-.2 3.66 3.66 0 00-.48-.12l-.52-.1a2.09 2.09 0 01-.48-.16.89.89 0 01-.35-.29.86.86 0 01-.13-.5.88.88 0 01.15-.51 1.07 1.07 0 01.46-.36 1.9 1.9 0 01.77-.14 2.53 2.53 0 01.69.1 1.74 1.74 0 01.56.26l-.16.28a1.49 1.49 0 00-.52-.25 2.23 2.23 0 00-.58-.08 1.26 1.26 0 00-.78.2.61.61 0 00-.25.49.52.52 0 00.13.37.83.83 0 00.35.21 3.24 3.24 0 00.48.12l.52.1a2.18 2.18 0 01.48.16.87.87 0 01.35.28.8.8 0 01.13.48.87.87 0 01-.16.53 1.06 1.06 0 01-.49.35 2.17 2.17 0 01-.79.14zm7.33-3.73a1.62 1.62 0 01.77.17 1.19 1.19 0 01.51.52 1.84 1.84 0 01.18.86v2.14h-.35v-2.12a1.34 1.34 0 00-.3-.94 1.1 1.1 0 00-.84-.32 1.4 1.4 0 00-.71.18 1.17 1.17 0 00-.46.49 1.65 1.65 0 00-.16.76v2h-.35v-2.12a1.33 1.33 0 00-.3-.94 1.09 1.09 0 00-.84-.32 1.39 1.39 0 00-.71.18 1.17 1.17 0 00-.46.49 1.65 1.65 0 00-.16.76v2h-.35v-3.67h.34v1-.11a1.37 1.37 0 01.54-.68 1.62 1.62 0 01.91-.25 1.5 1.5 0 01.92.28 1.25 1.25 0 01.47.83h-.12a1.44 1.44 0 01.55-.76 1.65 1.65 0 01.92-.43zm4.69 3.73a1.82 1.82 0 01-.94-.24 1.78 1.78 0 01-.65-.66 2.05 2.05 0 010-1.93 1.78 1.78 0 01.65-.66 1.82 1.82 0 01.94-.24 1.84 1.84 0 01.94.24 1.73 1.73 0 01.65.66 2.07 2.07 0 010 1.93 1.74 1.74 0 01-.65.66 1.84 1.84 0 01-.94.24zm0-.32a1.5 1.5 0 00.76-.19 1.36 1.36 0 00.53-.54 1.83 1.83 0 000-1.62 1.37 1.37 0 00-.53-.54 1.5 1.5 0 00-.76-.19 1.47 1.47 0 00-.75.19 1.4 1.4 0 00-.53.54 1.8 1.8 0 000 1.62 1.39 1.39 0 00.53.54 1.47 1.47 0 00.75.19zm4.67.32a1.82 1.82 0 01-.92-.24 1.71 1.71 0 01-.65-.66 2.1 2.1 0 010-1.94 1.72 1.72 0 01.65-.65 1.82 1.82 0 01.92-.24 1.71 1.71 0 01.87.23 1.61 1.61 0 01.62.64 2 2 0 01.23 1 2.08 2.08 0 01-.22 1 1.59 1.59 0 01-.61.65 1.72 1.72 0 01-.89.21zm0-.32a1.47 1.47 0 00.75-.19 1.38 1.38 0 00.53-.54 1.79 1.79 0 000-1.62 1.39 1.39 0 00-.53-.54 1.56 1.56 0 00-1.51 0 1.4 1.4 0 00-.53.54 1.8 1.8 0 000 1.62 1.39 1.39 0 00.53.54 1.47 1.47 0 00.78.19zm1.48.29v-1.2l.06-.64-.07-.64v-2.73h.35v5.21zm3.78-3.4v-.3h2.19v.3zm1.67 3.39a1 1 0 01-.74-.27 1 1 0 01-.26-.73V339h.35v3.46a.77.77 0 00.17.54.65.65 0 00.5.19.81.81 0 00.57-.2l.15.25a.85.85 0 01-.34.2 1.35 1.35 0 01-.44.1zm2.21-4.55a.28.28 0 01-.2-.08.27.27 0 01-.08-.2.29.29 0 01.49-.21.27.27 0 01.08.2.29.29 0 01-.08.2.27.27 0 01-.21.09zm-.17 4.56v-3.67h.35v3.67zm3.97-3.7a1.67 1.67 0 01.78.17 1.21 1.21 0 01.52.52 1.81 1.81 0 01.19.86v2.14h-.35v-2.12a1.3 1.3 0 00-.31-.94 1.16 1.16 0 00-.87-.32 1.5 1.5 0 00-.74.18 1.17 1.17 0 00-.48.49 1.62 1.62 0 00-.17.76v2h-.35v-3.67h.34v1-.11a1.39 1.39 0 01.55-.68 1.71 1.71 0 01.89-.28zm4.73 3.73a1.88 1.88 0 01-1-.24 1.76 1.76 0 01-.66-.66 2.06 2.06 0 010-1.93 1.73 1.73 0 01.66-.66 1.91 1.91 0 011-.24 1.88 1.88 0 01.8.17 1.41 1.41 0 01.58.51l-.26.19a1.19 1.19 0 00-.49-.42 1.6 1.6 0 00-1.41.06 1.39 1.39 0 00-.53.54 1.81 1.81 0 000 1.62 1.39 1.39 0 00.53.54 1.6 1.6 0 001.41.06 1.2 1.2 0 00.49-.41l.26.19a1.41 1.41 0 01-.58.51 1.88 1.88 0 01-.8.17zm2.9-4.59a.28.28 0 01-.2-.08.27.27 0 01-.08-.2.29.29 0 01.49-.21.27.27 0 01.08.2.29.29 0 01-.08.2.27.27 0 01-.21.09zm-.17 4.56v-3.67h.35v3.67zm3.58.03a1.82 1.82 0 01-.92-.24 1.71 1.71 0 01-.65-.66 2.1 2.1 0 010-1.94 1.72 1.72 0 01.65-.65 1.82 1.82 0 01.92-.24 1.71 1.71 0 01.87.23 1.61 1.61 0 01.62.64 2 2 0 01.23 1 2.08 2.08 0 01-.22 1 1.59 1.59 0 01-.61.65 1.72 1.72 0 01-.89.21zm0-.32a1.47 1.47 0 00.75-.19 1.38 1.38 0 00.53-.54 1.79 1.79 0 000-1.62 1.39 1.39 0 00-.53-.54 1.56 1.56 0 00-1.51 0 1.4 1.4 0 00-.53.54 1.8 1.8 0 000 1.62 1.39 1.39 0 00.53.54 1.47 1.47 0 00.78.19zm1.48.29v-1.2l.06-.64-.07-.64v-2.73h.35v5.21zm3.68.03a1.79 1.79 0 01-.81-.17 1.2 1.2 0 01-.53-.52 1.81 1.81 0 01-.19-.86v-2.14h.35v2.12a1.29 1.29 0 00.32.94 1.18 1.18 0 00.89.32 1.4 1.4 0 00.72-.18 1.17 1.17 0 00.46-.5 1.65 1.65 0 00.16-.76v-2h.35v3.67h-.34v-1 .12a1.37 1.37 0 01-.54.68 1.57 1.57 0 01-.84.28zm5.34-3.73a1.67 1.67 0 01.78.17 1.21 1.21 0 01.52.52 1.81 1.81 0 01.19.86v2.14h-.35v-2.12a1.3 1.3 0 00-.31-.94 1.16 1.16 0 00-.87-.32 1.5 1.5 0 00-.74.18 1.17 1.17 0 00-.48.49 1.62 1.62 0 00-.17.76v2h-.35v-3.67h.34v1-.11a1.39 1.39 0 01.55-.68 1.71 1.71 0 01.89-.28zm2.68.3v-.3H150v.3zm1.67 3.39a1 1 0 01-.74-.27 1 1 0 01-.26-.73V339h.35v3.46a.77.77 0 00.17.54.65.65 0 00.5.19.81.81 0 00.57-.2l.15.25a.85.85 0 01-.34.2 1.35 1.35 0 01-.4.1z" fill="#939393"/><g clip-path="url(#b)"><g opacity=".29"><path d="M99.58 272.49c-4.5-11.71-5.77-24.17 7.25-30 9.69-4.31 17.7.86 27.56 2.42 11.17 1.78 22.5-1.13 30.8-9.07 15.76-15.09 14-47.89-9.34-54.22-5.83-1.58-12.1 5.37-8.31 10.84 4.56 6.6 11.91 13.59 9.86 22.53-3.07 13.43-17.8 12.75-28 10.44-11.5-2.62-22-4.48-32.84 1.63-18.32 10.34-24.06 37.09-6.51 50.93 3.88 3.06 11.78.42 9.49-5.54z" fill="#3d3d3d" opacity=".25"/><path d="M98.03 270.94c-4.5-11.71-5.77-24.17 7.25-30 9.69-4.31 17.7.86 27.56 2.42 11.17 1.78 22.5-1.13 30.8-9.07 15.76-15.09 14-47.89-9.34-54.22-5.83-1.58-12.1 5.37-8.31 10.84 4.56 6.6 11.91 13.59 9.86 22.53-3.07 13.43-17.8 12.75-28 10.44-11.5-2.62-22-4.48-32.84 1.63-18.32 10.34-24.06 37.09-6.51 50.93 3.88 3.06 11.78.42 9.49-5.54z" fill="#e3707f"/></g><g style="mix-blend-mode:multiply" opacity=".25" fill="#3d3d3d"><rect x="75.39" y="106.3" width="121.51" height="90.59" rx="3.89" ry="3.89"/><rect x="108.1" y="128.95" width="14.8" height="44.51" rx="1.56" ry="1.56"/><rect x="89.41" y="128.95" width="14.8" height="44.51" rx="1.56" ry="1.56"/><rect x="89.41" y="146.91" width="14.8" height="26.55" rx="1.56" ry="1.56" opacity=".72"/><rect x="108.1" y="160.19" width="14.8" height="13.28" rx="1.56" ry="1.56" opacity=".72"/><rect x="126.8" y="128.95" width="14.8" height="44.51" rx="1.56" ry="1.56"/><rect x="145.49" y="128.95" width="14.8" height="44.51" rx="1.56" ry="1.56"/><rect x="164.18" y="128.95" width="14.8" height="44.51" rx="1.56" ry="1.56"/><rect x="126.8" y="150.81" width="14.8" height="22.65" rx="1.56" ry="1.56" opacity=".72"/><rect x="145.49" y="163.31" width="14.8" height="10.15" rx="1.56" ry="1.56" opacity=".72"/><rect x="164.18" y="150.81" width="14.8" height="22.65" rx="1.56" ry="1.56" opacity=".72"/><path d="M89.41 179.71h89.58v2.34H89.41zm0 4.69h48.29v2.34H89.41zm0-66.39h18.69v2.34H89.41z"/></g><rect x="72.27" y="103.18" width="121.51" height="90.59" rx="3.89" ry="3.89" fill="#fff"/><rect x="104.99" y="125.83" width="14.8" height="44.51" rx="1.56" ry="1.56" fill="#f3f9ff"/><rect x="86.29" y="125.83" width="14.8" height="44.51" rx="1.56" ry="1.56" fill="#f3f9ff"/><g clip-path="url(#c)" opacity=".72"><path fill="#83aef9" d="M101.09 145.19l-1.28-1.4h1.28v1.4z"/><path fill="#83affa" d="M101.09 146.65l-2.64-2.86h1.36l1.28 1.4v1.46z"/><path fill="#83b0fa" d="M101.09 148.12l-3.99-4.33h1.35l2.64 2.86v1.47z"/><path fill="#83b1fa" d="M101.09 149.59l-5.34-5.8h1.35l3.99 4.33v1.47z"/><path fill="#82b2fa" d="M101.09 151.06l-6.7-7.27h1.36l5.34 5.8v1.47z"/><path fill="#82b3fa" d="M101.09 152.53l-8.06-8.74h1.36l6.7 7.27v1.47z"/><path fill="#82b4fa" d="M101.09 154l-9.41-10.21h1.35l8.06 8.74V154z"/><path fill="#81b5fa" d="M101.09 155.46l-10.76-11.67h1.35l9.41 10.21v1.46z"/><path fill="#81b6fa" d="M101.09 156.93l-12.12-13.14h1.36l10.76 11.67v1.47z"/><path fill="#81b7fa" d="M101.09 158.4l-13.47-14.61h1.35l12.12 13.14v1.47z"/><path fill="#81b8fa" d="M101.09 159.87l-14.8-16.04v-.04h1.33l13.47 14.61v1.47z"/><path fill="#80b9fa" d="M101.09 161.34l-14.8-16.04v-1.47l14.8 16.04v1.47z"/><path fill="#80bafa" d="M101.09 162.81l-14.8-16.05v-1.46l14.8 16.04v1.47z"/><path fill="#80bbfa" d="M101.09 164.28l-14.8-16.05v-1.47l14.8 16.05v1.47z"/><path fill="#80bcfa" d="M101.09 165.74l-14.8-16.04v-1.47l14.8 16.05v1.46z"/><path fill="#7fbdfa" d="M101.09 167.21l-14.8-16.04v-1.47l14.8 16.04v1.47z"/><path fill="#7fbefa" d="M101.09 168.68l-14.8-16.04v-1.47l14.8 16.04v1.47z"/><path fill="#7fbffa" d="M101.09 170.15l-14.8-16.04v-1.47l14.8 16.04v1.47z"/><path fill="#7ec0fa" d="M99.92 170.35l-13.63-14.77v-1.47l14.8 16.04v.2h-1.17z"/><path fill="#7ec1fa" d="M98.56 170.35l-12.27-13.31v-1.46l13.63 14.77h-1.36z"/><path fill="#7ec2fa" d="M97.21 170.35l-10.92-11.84v-1.47l12.27 13.31h-1.35z"/><path fill="#7ec3fa" d="M95.86 170.35l-9.57-10.37v-1.47l10.92 11.84h-1.35z"/><path fill="#7dc4fa" d="M94.5 170.35l-8.21-8.9v-1.47l9.57 10.37H94.5z"/><path fill="#7dc5fa" d="M93.14 170.35l-6.85-7.43v-1.47l8.21 8.9h-1.36z"/><path fill="#7dc6fa" d="M91.79 170.35l-5.5-5.96v-1.47l6.85 7.43h-1.35z"/><path fill="#7dc7fa" d="M90.44 170.35l-4.15-4.5v-1.46l5.5 5.96h-1.35z"/><path fill="#7cc8fa" d="M89.08 170.35l-2.79-3.03v-1.47l4.15 4.5h-1.36z"/><path fill="#7cc9fa" d="M87.73 170.35l-1.44-1.56v-1.47l2.79 3.03h-1.35z"/><path fill="#7ccafa" d="M86.37 170.35l-.08-.09v-1.47l1.44 1.56h-1.36z"/><path fill="#7ccbfb" d="M86.29 170.26l.08.09h-.08v-.09z"/></g><g clip-path="url(#d)" opacity=".72"><path fill="#85a9f9" d="M119.79 158.27l-1.11-1.2h1.11v1.2z"/><path fill="#84aaf9" d="M119.79 159.74l-2.46-2.67h1.35l1.11 1.2v1.47z"/><path fill="#84abf9" d="M119.79 161.21l-3.82-4.14h1.36l2.46 2.67v1.47z"/><path fill="#84acf9" d="M119.79 162.68l-5.18-5.61h1.36l3.82 4.14v1.47z"/><path fill="#84adf9" d="M119.79 164.15l-6.54-7.08h1.36l5.18 5.61v1.47z"/><path fill="#83aef9" d="M119.79 165.63l-7.9-8.56h1.36l6.54 7.08v1.48z"/><path fill="#83affa" d="M119.79 167.1l-9.25-10.03h1.35l7.9 8.56v1.47z"/><path fill="#83b0fa" d="M119.79 168.57l-10.61-11.5h1.36l9.25 10.03v1.47z"/><path fill="#83b1fa" d="M119.79 170.04l-11.97-12.97h1.36l10.61 11.5v1.47z"/><path fill="#82b2fa" d="M118.71 170.35l-12.25-13.28h1.36l11.97 12.97v.31h-1.08z"/><path fill="#82b3fa" d="M117.35 170.35l-12.25-13.28h1.36l12.25 13.28h-1.36z"/><path fill="#82b4fa" d="M116 170.35l-11.01-11.94v-1.34h.11l12.25 13.28H116z"/><path fill="#81b5fa" d="M114.64 170.35l-9.65-10.46v-1.48L116 170.35h-1.36z"/><path fill="#81b6fa" d="M113.28 170.35l-8.29-8.99v-1.47l9.65 10.46h-1.36z"/><path fill="#81b7fa" d="M111.92 170.35l-6.93-7.52v-1.47l8.29 8.99h-1.36z"/><path fill="#81b8fa" d="M110.56 170.35l-5.57-6.05v-1.47l6.93 7.52h-1.36z"/><path fill="#80b9fa" d="M109.2 170.35l-4.21-4.58v-1.47l5.57 6.05h-1.36z"/><path fill="#80bafa" d="M107.85 170.35l-2.86-3.1v-1.48l4.21 4.58h-1.35z"/><path fill="#80bbfa" d="M106.49 170.35l-1.5-1.63v-1.47l2.86 3.1h-1.36z"/><path fill="#80bcfa" d="M105.13 170.35l-.14-.16v-1.47l1.5 1.63h-1.36z"/><path fill="#7fbdfa" d="M104.99 170.19l.14.16h-.14v-.16z"/></g><rect x="123.68" y="125.83" width="14.8" height="44.51" rx="1.56" ry="1.56" fill="#f3f9ff"/><rect x="142.38" y="125.83" width="14.8" height="44.51" rx="1.56" ry="1.56" fill="#f3f9ff"/><rect x="161.07" y="125.83" width="14.8" height="44.51" rx="1.56" ry="1.56" fill="#f3f9ff"/><g clip-path="url(#e)" opacity=".72"><path fill="#8a94f9" d="M138.48 148.57l-.81-.87h.81v.87z"/><path fill="#8a95f9" d="M138.48 150.06l-2.18-2.36h1.37l.81.87v1.49z"/><path fill="#8a96f9" d="M138.48 151.55l-3.55-3.85h1.37l2.18 2.36v1.49z"/><path fill="#8997f9" d="M138.48 153.03l-4.92-5.33h1.37l3.55 3.85v1.48z"/><path fill="#8998f9" d="M138.48 154.52l-6.29-6.82h1.37l4.92 5.33v1.49z"/><path fill="#8999f9" d="M138.48 156.01l-7.67-8.31h1.38l6.29 6.82v1.49z"/><path fill="#889af9" d="M138.48 157.49l-9.04-9.79h1.37l7.67 8.31v1.48z"/><path fill="#889bf9" d="M138.48 158.98l-10.41-11.28h1.37l9.04 9.79v1.49z"/><path fill="#889cf9" d="M138.48 160.47L126.7 147.7h1.37l10.41 11.28v1.49z"/><path fill="#889df9" d="M138.48 161.95l-13.15-14.25h1.37l11.78 12.77v1.48z"/><path fill="#879ef9" d="M138.48 163.44l-14.52-15.74h1.37l13.15 14.25v1.49z"/><path fill="#879ff9" d="M138.48 164.93l-14.8-16.04v-1.19h.28l14.52 15.74v1.49z"/><path fill="#87a1f9" d="M138.48 166.41l-14.8-16.04v-1.48l14.8 16.04v1.48z"/><path fill="#87a2f9" d="M138.48 167.9l-14.8-16.04v-1.49l14.8 16.04v1.49z"/><path fill="#86a3f9" d="M138.48 169.39l-14.8-16.04v-1.49l14.8 16.04v1.49z"/><path fill="#86a4f9" d="M137.99 170.35l-14.31-15.52v-1.48l14.8 16.04v.96h-.49z"/><path fill="#86a5f9" d="M136.62 170.35l-12.94-14.03v-1.49l14.31 15.52h-1.37z"/><path fill="#86a6f9" d="M135.25 170.35l-11.57-12.54v-1.49l12.94 14.03h-1.37z"/><path fill="#85a7f9" d="M133.88 170.35l-10.2-11.06v-1.48l11.57 12.54h-1.37z"/><path fill="#85a8f9" d="M132.51 170.35l-8.83-9.57v-1.49l10.2 11.06h-1.37z"/><path fill="#85a9f9" d="M131.13 170.35l-7.45-8.08v-1.49l8.83 9.57h-1.38z"/><path fill="#84aaf9" d="M129.76 170.35l-6.08-6.6v-1.48l7.45 8.08h-1.37z"/><path fill="#84abf9" d="M128.39 170.35l-4.71-5.11v-1.49l6.08 6.6h-1.37z"/><path fill="#84acf9" d="M127.02 170.35l-3.34-3.62v-1.49l4.71 5.11h-1.37z"/><path fill="#84adf9" d="M125.65 170.35l-1.97-2.14v-1.48l3.34 3.62h-1.37z"/><path fill="#83aef9" d="M124.28 170.35l-.6-.65v-1.49l1.97 2.14h-1.37z"/><path fill="#83affa" d="M123.68 169.7l.6.65h-.6v-.65z"/></g><g clip-path="url(#f)" opacity=".72"><path fill="#8c8ef8" d="M157.18 160.49l-.28-.3h.28v.3z"/><path fill="#8b8ff8" d="M157.18 161.96l-1.63-1.77h1.35l.28.3v1.47z"/><path fill="#8b90f8" d="M157.18 163.43l-2.99-3.24h1.36l1.63 1.77v1.47z"/><path fill="#8b91f8" d="M157.18 164.9l-4.34-4.71h1.35l2.99 3.24v1.47z"/><path fill="#8b92f9" d="M157.18 166.37l-5.7-6.18h1.36l4.34 4.71v1.47z"/><path fill="#8a93f9" d="M157.18 167.83l-7.05-7.64h1.35l5.7 6.18v1.46z"/><path fill="#8a94f9" d="M157.18 169.3l-8.41-9.11h1.36l7.05 7.64v1.47z"/><path fill="#8a95f9" d="M156.78 170.35l-9.36-10.16h1.35l8.41 9.11v1.05h-.4z"/><path fill="#8a96f9" d="M155.43 170.35l-9.37-10.16h1.36l9.36 10.16h-1.35z"/><path fill="#8997f9" d="M154.07 170.35l-9.36-10.16h1.35l9.37 10.16h-1.36z"/><path fill="#8998f9" d="M152.72 170.35l-9.37-10.16h1.36l9.36 10.16h-1.35z"/><path fill="#8999f9" d="M151.36 170.35l-8.98-9.75v-.41h.97l9.37 10.16h-1.36z"/><path fill="#889af9" d="M150.01 170.35l-7.63-8.28v-1.47l8.98 9.75h-1.35z"/><path fill="#889bf9" d="M148.65 170.35l-6.27-6.81v-1.47l7.63 8.28h-1.36z"/><path fill="#889cf9" d="M147.3 170.35l-4.92-5.34v-1.47l6.27 6.81h-1.35z"/><path fill="#889df9" d="M145.94 170.35l-3.56-3.87v-1.47l4.92 5.34h-1.36z"/><path fill="#879ef9" d="M144.59 170.35l-2.21-2.41v-1.46l3.56 3.87h-1.35z"/><path fill="#879ff9" d="M143.24 170.35l-.86-.94v-1.47l2.21 2.41h-1.35z"/><path fill="#87a1f9" d="M142.38 169.41l.86.94h-.86v-.94z"/></g><g clip-path="url(#g)" opacity=".72"><path fill="#9278f8" d="M175.87 148l-.28-.3h.28v.3z"/><path fill="#9179f8" d="M175.87 149.49l-1.65-1.79h1.37l.28.3v1.49z"/><path fill="#917af8" d="M175.87 150.98l-3.03-3.28h1.38l1.65 1.79v1.49z"/><path fill="#917bf8" d="M175.87 152.46l-4.4-4.76h1.37l3.03 3.28v1.48z"/><path fill="#917cf8" d="M175.87 153.95l-5.77-6.25h1.37l4.4 4.76v1.49z"/><path fill="#907df8" d="M175.87 155.44l-7.14-7.74h1.37l5.77 6.25v1.49z"/><path fill="#907ef8" d="M175.87 156.92l-8.51-9.22h1.37l7.14 7.74v1.48z"/><path fill="#907ff8" d="M175.87 158.41l-9.88-10.71h1.37l8.51 9.22v1.49z"/><path fill="#9080f8" d="M175.87 159.9l-11.25-12.2h1.37l9.88 10.71v1.49z"/><path fill="#8f81f8" d="M175.87 161.38l-12.63-13.68h1.38l11.25 12.2v1.48z"/><path fill="#8f82f8" d="M175.87 162.87l-14-15.17h1.37l12.63 13.68v1.49z"/><path fill="#8f83f8" d="M175.87 164.36l-14.8-16.05v-.61h.8l14 15.17v1.49z"/><path fill="#8e84f8" d="M175.87 165.84l-14.8-16.04v-1.49l14.8 16.05v1.48z"/><path fill="#8e85f8" d="M175.87 167.33l-14.8-16.04v-1.49l14.8 16.04v1.49z"/><path fill="#8e86f8" d="M175.87 168.82l-14.8-16.04v-1.49l14.8 16.04v1.49z"/><path fill="#8e87f8" d="M175.87 170.3l-14.8-16.04v-1.48l14.8 16.04v1.48z"/><path fill="#8d88f8" d="M174.54 170.35l-13.47-14.6v-1.49l14.8 16.04v.05h-1.33z"/><path fill="#8d89f8" d="M173.16 170.35l-12.09-13.11v-1.49l13.47 14.6h-1.38z"/><path fill="#8d8af8" d="M171.79 170.35l-10.72-11.63v-1.48l12.09 13.11h-1.37z"/><path fill="#8d8bf8" d="M170.42 170.35l-9.35-10.14v-1.49l10.72 11.63h-1.37z"/><path fill="#8c8cf8" d="M169.05 170.35l-7.98-8.66v-1.48l9.35 10.14h-1.37z"/><path fill="#8c8df8" d="M167.68 170.35l-6.61-7.17v-1.49l7.98 8.66h-1.37z"/><path fill="#8c8ef8" d="M166.31 170.35l-5.24-5.68v-1.49l6.61 7.17h-1.37z"/><path fill="#8b8ff8" d="M164.94 170.35l-3.87-4.19v-1.49l5.24 5.68h-1.37z"/><path fill="#8b90f8" d="M163.56 170.35l-2.49-2.71v-1.48l3.87 4.19h-1.38z"/><path fill="#8b91f8" d="M162.19 170.35l-1.12-1.22v-1.49l2.49 2.71h-1.37z"/><path fill="#8b92f9" d="M161.07 169.13l1.12 1.22h-1.12v-1.22z"/></g><path fill="#f3f9ff" d="M86.29 176.59h89.58v2.34H86.29zm0 4.69h48.29v2.34H86.29z"/><path fill="#e9998f" d="M86.29 114.9h18.69v2.34H86.29z"/><g opacity=".36"><path d="M39.18 7.3c-25.19 3.63-42.5 26.64-32.7 52.2 9.15 23.85 40.33 35.21 62.19 21.64 20.26-12.58 26.61-42.41 12.64-61.87C67.8.45 33.89-6.33 18.63 13.71c-4.81 6.31 3.16 15.63 10.18 13.28 12.32-4.12 23.86-9.43 35.31.74 10.69 9.5 8 27.74-2.74 36.25-11.4 9-29.85 3.73-36.73-8.57-7.6-13.59 2.06-36.59 16.13-42.35a3 3 0 00-1.59-5.77z" fill="#3d3d3d" opacity=".25"/><path d="M37.62 5.74c-25.19 3.63-42.5 26.64-32.7 52.2 9.15 23.85 40.33 35.21 62.19 21.64C87.37 67 93.72 37.17 79.75 17.71 66.24-1.11 32.33-7.89 17.07 12.15c-4.81 6.31 3.16 15.63 10.18 13.28 12.32-4.12 23.86-9.43 35.31.74 10.69 9.5 8 27.74-2.74 36.25-11.4 9-29.85 3.73-36.73-8.57-7.6-13.59 2.06-36.59 16.13-42.35a3 3 0 00-1.59-5.77z" fill="#8aa9fc"/></g><g style="mix-blend-mode:multiply" opacity=".25" fill="#3d3d3d"><path d="M126.97 122.39s3.86-9.72 4.44-8.81-.46 2.26-.24 4.62c0 0 7.12-8.58 7.49-7.59s-4 6.78-3.93 6.91 5.27-5.94 5.82-5.27-4.29 6.31-4.29 6.31 4.9-4.88 5.52-4.19-3.88 5.19-3.88 5.19 3.81-3.74 4.37-3.11c.34.38-9.31 12.46-9 12.72s-6.26-6.8-6.26-6.8M45.46 239.69c.4 2.52 4.82 86.23 10 140.63h20.63S65.89 254.8 68.3 254.59c2.79-.24 26.3 125.73 26.3 125.73h19.69l-30-144.27z"/><path d="M127.91 119.85s-17.37 20.8-26.88 29.57-28.79 20.16-28.79 20.16c-4.51.89-7.51 1.77-9.56 2.32-6.34 1.71-7.74 1.92-12.12 3.63a37.35 37.35 0 00-19 16.4c-6 10.7-13.69 27.56-12.45 42.47 1.33 16.08 14.9 11.26 24.77 5.47l.06.65H86.2v-48.71s0-.48-.06-1.3l.06.09s15.37-18.63 22.6-25.87c12.31-12.32 26.22-35.76 26.22-35.76zM38.03 223.49l4.84-19.77c.32 3.4-1.36 14.88-1.06 18.07z"/><path d="M56.84 173.38s-2.76 12.82 1.11 11 6.74-3.56 6.74-3.56 3.85 4.74 5.71 1.85-1.77-12.33-1.77-12.33zm-3.24-28.55l.89 11.7s-4.39.59-3.14 4.61 4.26 2.26 4.26 2.26.75 10.29 11.26 7 7-19.58 6-29.36z"/><path d="M54.49 160.83l2.83 15.15a6.06 6.06 0 007.36 4.79 6.08 6.08 0 004.56-7l-1.53-8.66zm1.53 68.2a2.76 2.76 0 01-.43.6c-.29.37-.74.89-1.31 1.51a50.5 50.5 0 01-10.11 8.43c-.71.45-1.3.8-1.72 1a2.74 2.74 0 01-.66.32 27.17 27.17 0 012.24-1.56c1.39-.95 3.27-2.31 5.23-4s3.64-3.25 4.83-4.44a27.19 27.19 0 011.93-1.86z"/><ellipse cx="1596.41" cy="277.84" rx="2.98" ry=".19" transform="rotate(-60.24 771.597 1596.477)"/><path d="M37.71 223.74a7.56 7.56 0 011.09-.57l3-1.43c2.55-1.21 6.05-2.9 9.89-4.84l1.86-.95.23-.12v.26c.55 3.78 1 7.13 1.34 9.53l.36 2.83a5.94 5.94 0 01.08 1 5.87 5.87 0 01-.22-1l-.47-2.82c-.39-2.39-.9-5.73-1.46-9.51l.27.14-1.86 1c-3.84 1.95-7.37 3.6-9.95 4.75-1.29.57-2.34 1-3.07 1.32a7.58 7.58 0 01-1.09.41z"/><ellipse cx="1595.75" cy="277.1" rx="3.07" ry=".19" transform="rotate(-40.61 745.552 2359.325)"/><ellipse cx="1625.45" cy="263.67" rx=".19" ry="28.97" transform="rotate(-1.69 -915.108 53125.025)"/><path d="M54.22 218.74s8.49-6.09 8.48-5-1.6 1.65-2.69 3.76c0 0 10.61-3.37 10.39-2.33s-7 3.53-7 3.69 7.64-2.15 7.73-1.28-7 3-7 3 6.75-1.45 6.9-.54-6.07 2.27-6.07 2.27 5.22-1.08 5.35-.25c.08.51-14.54 5.44-14.46 5.81 0 .19-1.61-9.11-1.61-9.11"/><ellipse cx="1689.12" cy="179.03" rx=".19" ry="5.94" transform="rotate(-45.22 846.779 2026.1)"/><path d="M66.17 161.01s.11.12.35.18a.93.93 0 00.9-.37 2.33 2.33 0 00.18-1.56l-.2-2.09c-.13-1.48-.23-2.83-.28-3.8a.79.79 0 11.27 0c.12 1 .26 2.31.39 3.79l.17 2.09a2.48 2.48 0 01-.32 1.75 1.06 1.06 0 01-1.16.35c-.28-.15-.32-.34-.3-.34zm3.8 8.03a3.74 3.74 0 01-1.27.95 8.13 8.13 0 01-7.43.16 3.75 3.75 0 01-1.31-.89c0-.05.54.28 1.42.65a8.89 8.89 0 007.2-.15c.87-.41 1.33-.77 1.39-.72zm-2.49-5.93s-.12.34-.58.64a2.43 2.43 0 01-3.6-1.16c-.2-.51-.14-.86-.1-.86s.1.31.34.75a2.39 2.39 0 003.22 1c.45-.15.67-.37.72-.37z"/><path d="M63.72 161.55c0 .11-.4.2-.78.5s-.57.66-.68.63 0-.55.45-.93 1.02-.3 1.01-.2zm-9.56.1s-.26.13-.68 0a1 1 0 01-.57-.56.82.82 0 010-.52.66.66 0 01.4-.43.63.63 0 01.78.23l-.32.17a4.12 4.12 0 01-.47-1.51c.08 0 .41.54.8 1.36l-.32.17a.28.28 0 00-.33-.06.37.37 0 00-.18.48.73.73 0 00.35.43c.29.16.55.18.54.24z"/><ellipse cx="1631.01" cy="205.45" rx=".19" ry=".85" transform="rotate(-12.7 618.38 7188.975)"/><ellipse cx="1622.66" cy="206.27" rx=".19" ry=".86" transform="rotate(-15.49 651.49 5915.726)"/><path d="M53.53 156.8a29.77 29.77 0 01-2.1-9.44 10.77 10.77 0 01.2-4.08 4.67 4.67 0 012.51-3.07c1.8-.75 4 .05 5.78-.63a6.4 6.4 0 002.38-1.79 16.58 16.58 0 012.11-2.13 3.64 3.64 0 012.8-.81 2.1 2.1 0 011.74 2.11 5.18 5.18 0 118.55 5.77c-1.12 1.39-3.2 1.46-4.59 2.58-2.94 2.35-7.56 2.83-12.2 1.77-2-.46-4.43.32-4.83 2.35a35.2 35.2 0 000 4.48 3.72 3.72 0 01-.41 2.22 1.58 1.58 0 01-2 .67"/><path d="M62.26 151.44c-.1.3-.54.44-1 .57s-.89.2-1.13 0-.11-.32 0-.54a1.46 1.46 0 011.79-.47c.28.11.38.29.34.44zm9.09-1.44c-.13.29-.64.35-1.17.41s-1 .07-1.23-.2.28-.87 1.13-.94 1.4.45 1.27.73z"/><ellipse cx="1611.11" cy="277.15" rx=".19" ry="7.28" transform="rotate(-11.9 582.685 7735.694)"/><ellipse cx="1611.34" cy="271.85" rx=".88" ry=".19" transform="rotate(-22.33 699.527 4198.096)"/><ellipse cx="1635.52" cy="246.83" rx="4.15" ry=".19" transform="rotate(-10.24 566.354 8926.787)"/><path d="M39.99 182.46s.09 0 .25.05a5.13 5.13 0 01.69.25 7.8 7.8 0 012.22 1.51 9.77 9.77 0 012.23 3.31 12.23 12.23 0 01.85 4.82 22.42 22.42 0 01-2.17 8.55c-.46 1-.86 1.85-1.15 2.41a4.77 4.77 0 01-.48.86 4.92 4.92 0 01.35-.92l1-2.46a23.82 23.82 0 002-8.45 12.25 12.25 0 00-.79-4.68 9.25 9.25 0 00-5.06-5.25zm25.14 192.53s0-.12-.05-.34l-.12-1-.44-3.9c-.37-3.39-.88-8.29-1.46-14.36-1.17-12.13-2.6-28.91-3.83-47.46s-2-35.38-2.47-47.56c-.22-6.09-.37-11-.45-14.43l-.08-3.92v-1.35 1.35l.15 3.92.57 14.42c.51 12.18 1.35 29 2.58 47.55s2.62 35.33 3.72 47.46l1.34 14.37.36 3.91.09 1c.09.23.09.34.09.34z"/><ellipse cx="1625.38" cy="426.87" rx="10.24" ry=".19" transform="rotate(-4.3 153.579 21178.571)"/><path d="M102.46 375.75s0-.12-.09-.35l-.22-1-.8-3.94c-.68-3.42-1.64-8.39-2.78-14.52-2.29-12.27-5.26-29.26-8.66-48s-6.71-35.67-9.32-47.88c-.63-3.06-1.26-5.81-1.79-8.23s-1-4.5-1.39-6.2l-.89-3.92-.22-1c0-.23-.06-.35-.06-.35s0 .11.1.34l.26 1 1 3.9c.42 1.7.91 3.77 1.46 6.19s1.2 5.17 1.84 8.22c2.68 12.19 6 29.12 9.43 47.87l8.55 48 2.66 14.54.73 4 .18 1c0 .21.01.33.01.33z"/><ellipse cx="1664.18" cy="427.83" rx=".19" ry="9.97" transform="rotate(-89.92 858.16 1183.023)"/><path d="M52.02 241.02a4.21 4.21 0 01.43 1.8 7.6 7.6 0 01-4.24 7.41 4.18 4.18 0 01-1.77.54c0-.06.67-.23 1.65-.78a7.92 7.92 0 004.09-7.16c-.02-1.11-.27-1.79-.16-1.81zm18.7 11.75s0 .25-.33.56a1.88 1.88 0 01-1.71.41 1.59 1.59 0 01-1-.77 4 4 0 01-.41-1.37l-.49-3.11c-.33-2.21-.62-4.21-.8-5.67a14.72 14.72 0 01-.22-2.36 14.63 14.63 0 01.49 2.32c.25 1.44.58 3.44.91 5.65l.46 3.12a3.79 3.79 0 00.33 1.26 1.32 1.32 0 00.81.67 1.78 1.78 0 001.55-.27c.29-.24.38-.46.41-.44zm16.39-4.02h-.46a5.55 5.55 0 01-1.25-.21 7.68 7.68 0 01-1.75-.71 8.48 8.48 0 01-3.25-3.23 7.72 7.72 0 01-.72-1.74 5.57 5.57 0 01-.21-1.25v-.47c0-.01.12.65.45 1.64a8.73 8.73 0 00.77 1.65 9 9 0 003.12 3.1 8.7 8.7 0 001.65.76c1 .35 1.66.39 1.65.46zm-27.9 131.56s19.58 3.34 18.65 2.27a14.24 14.24 0 00-3.22-2.27zm38.25 0s19.58 3.34 18.65 2.27a14.24 14.24 0 00-3.22-2.27z"/></g><path d="M123.85 119.28s3.86-9.72 4.44-8.81-.46 2.26-.24 4.62c0 0 7.12-8.58 7.49-7.59s-4 6.78-3.93 6.91 5.27-5.94 5.82-5.27-4.29 6.31-4.29 6.31 4.9-4.88 5.52-4.19-3.88 5.19-3.88 5.19 3.81-3.74 4.37-3.11c.34.38-9.31 12.46-9 12.72s-6.26-6.8-6.26-6.8" fill="#f9b9b4"/><path d="M42.35 236.57c.4 2.52 4.82 86.23 10 140.63h20.63s-10.2-125.52-7.79-125.73c2.79-.24 26.3 125.73 26.3 125.73h19.69l-30-144.27z" fill="#251a51"/><g clip-path="url(#h)"><path fill="#e3807e" d="M37.27 200.6l-2.39.91v-.91h2.39z"/><path fill="#e37f7e" d="M40.04 200.68l-5.16 1.95v-1.12l2.39-.91h2.77v.08z"/><path fill="#e37e7e" d="M40.04 201.81l-5.16 1.95v-1.13l5.16-1.95v1.13z"/><path fill="#e37d7e" d="M40.04 202.94l-5.16 1.94v-1.12l5.16-1.95v1.13z"/><path fill="#e37c7e" d="M40.04 204.06l-5.16 1.95v-1.13l5.16-1.94v1.12z"/><path fill="#e27a7e" d="M40.04 205.19l-5.16 1.95v-1.13l5.16-1.95v1.13z"/><path fill="#e2797e" d="M40.04 206.31l-5.16 1.95v-1.12l5.16-1.95v1.12z"/><path fill="#e2787e" d="M40.04 207.44l-5.16 1.95v-1.13l5.16-1.95v1.13z"/><path fill="#e2777e" d="M40.04 208.57l-5.16 1.94v-1.12l5.16-1.95v1.13z"/><path fill="#e2767e" d="M40.04 209.69l-5.16 1.95v-1.13l5.16-1.94v1.12z"/><path fill="#e2757e" d="M40.04 210.82l-5.16 1.95v-1.13l5.16-1.95v1.13z"/><path fill="#e2747e" d="M40.04 211.94l-5.16 1.95v-1.12l5.16-1.95v1.12z"/><path fill="#e2737e" d="M40.04 213.07l-5.16 1.95v-1.13l5.16-1.95v1.13z"/><path fill="#e1717f" d="M40.04 214.2l-5.16 1.94v-1.12l5.16-1.95v1.13z"/><path fill="#e1707f" d="M40.04 215.32l-5.16 1.95v-1.13l5.16-1.94v1.12z"/><path fill="#e16f7f" d="M40.04 216.45l-5.16 1.95v-1.13l5.16-1.95v1.13z"/><path fill="#e16e7f" d="M40.04 217.57l-5.16 1.95v-1.12l5.16-1.95v1.12z"/><path fill="#e16d7f" d="M40.04 218.7l-4.43 1.67h-.73v-.85l5.16-1.95v1.13z"/><path fill="#e16c7f" d="M40.04 219.83l-1.45.54h-2.98l4.43-1.67v1.13z"/><path fill="#e16b7f" d="M38.59 220.37l1.45-.54v.54h-1.45z"/><path fill="#e58f7e" d="M130.62 116.74l1.3 3.45v30.02L14.78 194.46v-77.72h115.84z"/><path fill="#e58f7e" d="M131.92 151.33L14.78 195.59v-1.13l117.14-44.25v1.12z"/><path fill="#e58e7e" d="M131.92 152.46L14.78 196.71v-1.12l117.14-44.26v1.13z"/><path fill="#e58d7e" d="M131.92 153.59L14.78 197.84v-1.13l117.14-44.25v1.13z"/><path fill="#e58b7e" d="M131.92 154.71L14.78 198.97v-1.13l117.14-44.25v1.12z"/><path fill="#e48a7e" d="M131.92 155.84L14.78 200.09v-1.12l117.14-44.26v1.13z"/><path fill="#e4897e" d="M131.92 156.96L14.78 201.22v-1.13l117.14-44.25v1.12z"/><path fill="#e4887e" d="M131.92 158.09L14.78 202.34v-1.12l117.14-44.26v1.13z"/><path fill="#e4867e" d="M131.92 159.22L14.78 203.47v-1.13l117.14-44.25v1.13z"/><path fill="#e4857e" d="M131.92 160.34L14.78 204.6v-1.13l117.14-44.25v1.12z"/><path fill="#e4847e" d="M131.92 161.47L14.78 205.72v-1.12l117.14-44.26v1.13z"/><path fill="#e3837e" d="M131.92 162.59L14.78 206.85v-1.13l117.14-44.25v1.12z"/><path fill="#e3827e" d="M131.92 163.72L14.78 207.97v-1.12l117.14-44.26v1.13z"/><path fill="#e3807e" d="M131.92 164.85L14.78 209.1v-1.13l117.14-44.25v1.13z"/><path fill="#e37f7e" d="M131.92 165.97L14.78 210.23v-1.13l117.14-44.25v1.12z"/><path fill="#e37e7e" d="M131.92 167.1L14.78 211.35v-1.12l117.14-44.26v1.13z"/><path fill="#e37d7e" d="M131.92 168.22L14.78 212.48v-1.13l117.14-44.25v1.12z"/><path fill="#e37c7e" d="M131.92 169.35L14.78 213.6v-1.12l117.14-44.26v1.13z"/><path fill="#e27a7e" d="M131.92 170.48L14.78 214.73v-1.13l117.14-44.25v1.13z"/><path fill="#e2797e" d="M131.92 171.6L14.78 215.86v-1.13l117.14-44.25v1.12z"/><path fill="#e2787e" d="M131.92 172.73L14.78 216.98v-1.12l117.14-44.26v1.13z"/><path fill="#e2777e" d="M131.92 173.85L14.78 218.11v-1.13l117.14-44.25v1.12z"/><path fill="#e2767e" d="M131.92 174.98L14.78 219.23v-1.12l117.14-44.26v1.13z"/><path fill="#e2757e" d="M131.92 176.11L14.78 220.36v-1.13l117.14-44.25v1.13z"/><path fill="#e2747e" d="M131.92 177.23L14.78 221.49v-1.13l117.14-44.25v1.12z"/><path fill="#e2737e" d="M131.92 178.36L14.78 222.61v-1.12l117.14-44.26v1.13z"/><path fill="#e1717f" d="M131.92 179.49L14.78 223.74v-1.13l117.14-44.25v1.13z"/><path fill="#e1707f" d="M131.92 180.61L14.78 224.87v-1.13l117.14-44.25v1.12z"/><path fill="#e16f7f" d="M131.92 181.74L14.78 225.99v-1.12l117.14-44.26v1.13z"/><path fill="#e16e7f" d="M131.92 182.86L14.78 227.12v-1.13l117.14-44.25v1.12z"/><path fill="#e16d7f" d="M131.92 183.99L14.78 228.24v-1.12l117.14-44.26v1.13z"/><path fill="#e16c7f" d="M131.92 185.12L14.78 229.37v-1.13l117.14-44.25v1.13z"/><path fill="#e16b7f" d="M131.92 186.24L14.78 230.5v-1.13l117.14-44.25v1.12z"/><path fill="#e06a7f" d="M131.92 187.37L14.78 231.62v-1.12l117.14-44.26v1.13z"/><path fill="#e0697f" d="M131.92 188.49L14.78 232.75v-1.13l117.14-44.25v1.12z"/><path fill="#e0687f" d="M131.92 189.62L14.78 233.87v-1.12l117.14-44.26v1.13z"/><path fill="#e0677f" d="M131.92 190.75L14.78 235v-1.13l117.14-44.25v1.13z"/><path fill="#e0667f" d="M131.92 191.87L14.78 236.13V235l117.14-44.25v1.12z"/><path fill="#e0657f" d="M131.92 193L14.78 237.25v-1.12l117.14-44.26V193z"/><path fill="#e0647f" d="M131.92 194.13L14.78 238.38v-1.13L131.92 193v1.13z"/><path fill="#e0637f" d="M131.92 195.25L14.78 239.5v-1.12l117.14-44.25v1.12z"/><path fill="#df627f" d="M131.92 196.38L14.78 240.63v-1.13l117.14-44.25v1.13z"/><path fill="#df617f" d="M131.92 197.5L14.78 241.76v-1.13l117.14-44.25v1.12z"/><path fill="#df607f" d="M131.92 198.63L14.78 242.88v-1.12l117.14-44.26v1.13z"/><path fill="#df5f7f" d="M131.92 199.75L14.78 244.01v-1.13l117.14-44.25v1.12z"/><path fill="#df5f7f" d="M131.92 200.88L14.78 245.13v-1.12l117.14-44.26v1.13z"/><path fill="#df5e7f" d="M131.92 202.01L14.79 246.26l-.01-.01v-1.12l117.14-44.25v1.13z"/><path fill="#df5d7f" d="M131.92 203.13L15.16 247.24l-.37-.98 117.13-44.25v1.12z"/><path fill="#df5c7f" d="M131.92 204.26L17.73 247.4h-2.52l-.05-.16 116.76-44.11v1.13z"/><path fill="#df5b7f" d="M131.92 205.38L20.71 247.4h-2.98l114.19-43.14v1.12z"/><path fill="#df5a7f" d="M131.92 206.51L23.69 247.4h-2.98l111.21-42.02v1.13z"/><path fill="#de5a7f" d="M131.92 207.64L26.67 247.4h-2.98l108.23-40.89v1.13z"/><path fill="#de597f" d="M131.92 208.76L29.66 247.4h-2.99l105.25-39.76v1.12z"/><path fill="#de587f" d="M131.92 209.89L32.64 247.4h-2.98l102.26-38.64v1.13zm0 1.13l-96.3 36.38h-2.98l99.28-37.51v1.13z"/><path fill="#de577f" d="M131.92 212.14L38.6 247.4h-2.98l96.3-36.38v1.12z"/><path fill="#de567f" d="M131.92 213.27L41.58 247.4H38.6l93.32-35.26v1.13zm0 1.12L44.56 247.4h-2.98l90.34-34.13v1.12z"/><path fill="#de567f" d="M44.56 247.4l87.36-33.01v33.01H44.56z"/></g><path d="M53.72 170.26s-2.76 12.82 1.11 11 6.74-3.56 6.74-3.56 3.85 4.74 5.71 1.85-1.77-12.33-1.77-12.33z" fill="#f4d3b9"/><path d="M50.49 141.72l.89 11.7s-4.39.59-3.14 4.61 4.26 2.26 4.26 2.26.75 10.29 11.26 7 7-19.58 6-29.36z" fill="#f9b9b4"/><path d="M51.38 157.72l2.83 15.15a6.06 6.06 0 007.36 4.79 6.08 6.08 0 004.56-7l-1.54-8.68z" fill="#f9b9b4"/><path d="M52.91 225.92a2.76 2.76 0 01-.43.6c-.29.37-.74.89-1.31 1.51a50.5 50.5 0 01-10.11 8.43c-.71.45-1.3.8-1.72 1a2.73 2.73 0 01-.66.32 27.22 27.22 0 012.24-1.56c1.39-.95 3.26-2.31 5.23-4s3.64-3.25 4.83-4.44a27.19 27.19 0 011.93-1.86z" fill="#251a51" opacity=".36"/><ellipse cx="1593.3" cy="274.72" rx="2.98" ry=".19" transform="rotate(-60.24 768.487 1593.36)" fill="#251a51" opacity=".36"/><path d="M34.59 220.63a7.56 7.56 0 011.09-.57l3-1.43c2.55-1.21 6.05-2.9 9.89-4.84l1.86-.95.23-.12v.26c.55 3.78 1 7.13 1.34 9.53l.36 2.83a6 6 0 01.08 1 5.87 5.87 0 01-.22-1l-.47-2.82c-.39-2.39-.9-5.73-1.46-9.51l.27.14-1.86 1c-3.84 1.95-7.37 3.6-9.95 4.75-1.29.57-2.34 1-3.07 1.32a7.58 7.58 0 01-1.09.41z" fill="#251a51" opacity=".36"/><ellipse cx="1592.64" cy="273.98" rx="3.07" ry=".19" transform="rotate(-40.61 742.417 2356.214)" fill="#251a51" opacity=".36"/><ellipse cx="1622.33" cy="260.56" rx=".19" ry="28.97" transform="rotate(-1.69 -918.114 53121.929)" fill="#251a51" opacity=".36"/><path d="M51.11 215.62s8.49-6.09 8.48-5-1.6 1.65-2.69 3.76c0 0 10.61-3.37 10.39-2.33s-7 3.53-7 3.69 7.64-2.15 7.73-1.28-7 3-7 3 6.75-1.45 6.9-.54-6.07 2.27-6.07 2.27 5.22-1.08 5.35-.25c.08.51-14.54 5.44-14.46 5.81 0 .19-1.61-9.11-1.61-9.11" fill="#f9b9b4"/><ellipse cx="1686.01" cy="175.92" rx=".19" ry="5.94" transform="rotate(-45.22 843.666 2022.986)" fill="#251a51" opacity=".36"/><path d="M63.06 157.89s.11.12.35.18a.93.93 0 00.9-.37 2.33 2.33 0 00.18-1.56l-.2-2.09c-.13-1.48-.23-2.83-.28-3.8a.79.79 0 11.27 0c.12 1 .26 2.31.39 3.79l.17 2.09a2.48 2.48 0 01-.32 1.75 1.06 1.06 0 01-1.16.35c-.29-.12-.32-.34-.3-.34zm3.8 8.04a3.74 3.74 0 01-1.27.95 8.13 8.13 0 01-7.43.16 3.75 3.75 0 01-1.31-.89c0-.05.54.28 1.42.65a8.89 8.89 0 007.2-.15c.86-.42 1.35-.77 1.39-.72zm-2.5-5.92s-.12.34-.58.64a2.43 2.43 0 01-3.6-1.16c-.2-.51-.14-.86-.1-.86s.1.31.34.75a2.39 2.39 0 003.22 1c.45-.17.68-.41.72-.37z" fill="#251a51"/><path d="M60.6 158.44c0 .11-.4.2-.78.5s-.57.66-.68.63 0-.55.45-.93 1.03-.31 1.01-.2zm-9.56.09s-.26.13-.68 0a1 1 0 01-.57-.56.82.82 0 010-.52.66.66 0 01.4-.43.63.63 0 01.78.23l-.32.17a4.12 4.12 0 01-.47-1.51c.08 0 .41.54.8 1.36l-.32.17a.28.28 0 00-.33-.06.37.37 0 00-.18.48.73.73 0 00.35.43c.29.16.55.18.54.24z" fill="#251a51"/><ellipse cx="1627.9" cy="202.33" rx=".19" ry=".85" transform="rotate(-12.7 615.18 7185.845)" fill="#251a51"/><ellipse cx="1619.54" cy="203.16" rx=".19" ry=".86" transform="rotate(-15.49 648.394 5912.609)" fill="#251a51"/><path d="M50.42 153.68a29.77 29.77 0 01-2.1-9.44 10.77 10.77 0 01.2-4.08 4.67 4.67 0 012.51-3.07c1.8-.75 4 .05 5.78-.63a6.4 6.4 0 002.38-1.79 16.58 16.58 0 012.11-2.13 3.64 3.64 0 012.8-.81 2.1 2.1 0 011.74 2.11 5.18 5.18 0 118.55 5.77c-1.12 1.39-3.2 1.46-4.59 2.58-2.94 2.35-7.56 2.83-12.2 1.77-2-.46-4.43.32-4.83 2.35a35.2 35.2 0 000 4.48 3.72 3.72 0 01-.41 2.22 1.58 1.58 0 01-2 .67" fill="#251a51"/><path d="M59.14 148.33c-.1.3-.54.44-1 .57s-.89.2-1.13 0-.11-.32 0-.54a1.46 1.46 0 011.79-.47c.28.11.38.29.34.44zm9.09-1.45c-.13.29-.64.35-1.17.41s-1 .07-1.23-.2.28-.87 1.13-.94 1.41.45 1.27.73z" fill="#251a51"/><ellipse cx="1607.99" cy="274.04" rx=".19" ry="7.28" transform="rotate(-11.5 637.175 7594.16)" fill="#251a51" opacity=".36"/><ellipse cx="1608.23" cy="268.74" rx=".88" ry=".19" transform="rotate(-22.33 696.43 4194.984)" fill="#251a51" opacity=".36"/><ellipse cx="1632.4" cy="243.72" rx="4.15" ry=".19" transform="rotate(-10.24 563.2 8923.692)" fill="#251a51" opacity=".36"/><path d="M36.91 179.34s.09 0 .25.05a5.13 5.13 0 01.69.25 7.8 7.8 0 012.22 1.51 9.77 9.77 0 012.23 3.31 12.23 12.23 0 01.85 4.82 22.42 22.42 0 01-2.17 8.55c-.46 1-.86 1.85-1.15 2.41a4.77 4.77 0 01-.48.86 4.92 4.92 0 01.35-.92l1-2.46a23.82 23.82 0 002-8.45 12.25 12.25 0 00-.79-4.68 9.25 9.25 0 00-5.06-5.25z" fill="#251a51" opacity=".36"/><path d="M62.02 371.88s0-.12-.05-.34l-.12-1-.44-3.9c-.37-3.39-.88-8.29-1.46-14.36-1.17-12.13-2.6-28.91-3.83-47.46s-2-35.38-2.47-47.56c-.22-6.09-.37-11-.45-14.43l-.08-3.92v-1.35 1.35l.15 3.92.57 14.42c.51 12.18 1.35 29 2.58 47.55s2.62 35.33 3.72 47.46l1.34 14.37.36 3.91.09 1c.09.22.09.34.09.34z" fill="#4a4182"/><ellipse cx="1622.26" cy="423.76" rx="10.24" ry=".19" transform="rotate(-4.3 150.497 21175.388)" fill="#4a4182"/><path d="M99.34 372.63s0-.12-.09-.35l-.22-1-.8-3.94c-.68-3.42-1.64-8.39-2.78-14.52-2.29-12.27-5.26-29.26-8.66-48s-6.71-35.67-9.32-47.88c-.63-3.06-1.26-5.81-1.79-8.23s-1-4.5-1.39-6.2l-.89-3.92-.22-1c0-.23-.06-.35-.06-.35s0 .11.1.34l.26 1 1 3.9c.42 1.7.91 3.77 1.46 6.19s1.2 5.17 1.84 8.22c2.68 12.19 6 29.12 9.43 47.87l8.55 48 2.66 14.54.73 4 .18 1c0 .21.01.33.01.33z" fill="#4a4182"/><ellipse cx="1661.07" cy="424.72" rx=".19" ry="9.97" transform="rotate(-89.92 855.04 1179.908)" fill="#4a4182"/><path d="M48.91 237.91a4.21 4.21 0 01.43 1.8 7.6 7.6 0 01-4.24 7.41 4.18 4.18 0 01-1.77.54c0-.06.67-.23 1.65-.78a7.92 7.92 0 004.09-7.16c-.02-1.12-.23-1.79-.16-1.81zm18.7 11.74s0 .25-.33.56a1.88 1.88 0 01-1.71.41 1.59 1.59 0 01-1-.77 4 4 0 01-.41-1.37l-.49-3.11c-.33-2.21-.62-4.21-.8-5.67a14.72 14.72 0 01-.22-2.36 14.64 14.64 0 01.49 2.32c.25 1.44.58 3.44.91 5.65l.46 3.12a3.79 3.79 0 00.33 1.26 1.32 1.32 0 00.81.67 1.78 1.78 0 001.55-.27c.29-.23.37-.46.41-.44zM84 245.64h-.46a5.55 5.55 0 01-1.25-.21 7.68 7.68 0 01-1.75-.71 8.48 8.48 0 01-3.25-3.23 7.71 7.71 0 01-.72-1.74 5.57 5.57 0 01-.21-1.25v-.47c0-.01.12.65.45 1.64a8.74 8.74 0 00.77 1.65 9 9 0 003.12 3.1 8.71 8.71 0 001.65.76c1 .34 1.65.39 1.65.46z" fill="#4a4182"/><path d="M56.09 377.2s19.58 3.34 18.65 2.27a14.24 14.24 0 00-3.22-2.27zm38.25 0s19.58 3.34 18.65 2.27a14.24 14.24 0 00-3.22-2.27z" fill="#171330"/></g><g clip-path="url(#i)"><path fill="#fff" d="M78.78 18.5L47.14 31.25V18.5h31.64z"/><path fill="#fff" d="M117.06 18.5L68.81 37.94H47.14v-6.69L78.78 18.5h38.28z"/><path fill="#fefefe" d="M149.4 20.89l-42.32 17.05H68.81l48.25-19.44h32.34v2.39z"/><path fill="#fdfdfd" d="M149.4 36.31l-4.04 1.63h-38.28l42.32-17.05v15.42z"/><path fill="#fcfcfc" d="M145.36 37.94l4.04-1.63v1.63h-4.04z"/></g><path d="M65.66 296.11v-5.47h.83l2.38 4h-.44l2.34-4h.83v5.47h-1v-4h.2l-2 3.33h-.45l-2-3.33h.23v4zm8.99.09a2 2 0 01-.82-.16 1.26 1.26 0 01-.54-.45 1.13 1.13 0 01-.19-.64 1.21 1.21 0 01.17-.63 1.13 1.13 0 01.55-.45 2.6 2.6 0 011-.16h1.21v.65h-1.12a1 1 0 00-.67.16.52.52 0 00-.17.39.5.5 0 00.21.42 1 1 0 00.58.16 1.27 1.27 0 00.64-.16.93.93 0 00.41-.48l.16.58a1.08 1.08 0 01-.5.57 1.85 1.85 0 01-.92.2zm1.31-.05v-.84l-.05-.2v-1.48a.86.86 0 00-.26-.67 1.11 1.11 0 00-.78-.24 2.25 2.25 0 00-.69.11 1.7 1.7 0 00-.57.3l-.38-.71a2.32 2.32 0 01.8-.39 3.57 3.57 0 011-.13 2.05 2.05 0 011.4.43 1.69 1.69 0 01.49 1.34v2.44zm4.95-4.22a2 2 0 01.89.2 1.42 1.42 0 01.62.6 2.1 2.1 0 01.23 1v2.38h-1v-2.26a1.16 1.16 0 00-.26-.83 1 1 0 00-.73-.27 1.28 1.28 0 00-.61.14 1 1 0 00-.41.42 1.5 1.5 0 00-.14.7v2.1h-1v-4.17h.93v1.17l-.16-.34a1.47 1.47 0 01.63-.61 2.07 2.07 0 011.01-.23zm4.58 4.27a2 2 0 01-.82-.16 1.26 1.26 0 01-.54-.45 1.13 1.13 0 01-.19-.64 1.21 1.21 0 01.17-.63 1.13 1.13 0 01.55-.45 2.6 2.6 0 011-.16h1.25v.65h-1.14a1 1 0 00-.67.16.52.52 0 00-.17.39.5.5 0 00.21.42 1 1 0 00.58.16 1.27 1.27 0 00.64-.16.93.93 0 00.41-.48l.16.58a1.08 1.08 0 01-.5.57 1.85 1.85 0 01-.94.2zm1.31-.05v-.84l-.05-.18v-1.48a.86.86 0 00-.26-.67 1.11 1.11 0 00-.78-.24 2.25 2.25 0 00-.69.11 1.71 1.71 0 00-.57.3l-.38-.71a2.32 2.32 0 01.8-.39 3.57 3.57 0 011-.13 2.05 2.05 0 011.4.43 1.69 1.69 0 01.49 1.34v2.42zm4.33-.19a2.25 2.25 0 01-1.07-.25 1.92 1.92 0 01-.76-.71 2.16 2.16 0 010-2.12 1.89 1.89 0 01.76-.7 2.27 2.27 0 011.07-.25 2.09 2.09 0 011 .21 1.59 1.59 0 01.67.66 2.7 2.7 0 010 2.28 1.6 1.6 0 01-.67.66 2.06 2.06 0 01-1 .22zm.12 1.76a4.19 4.19 0 01-1.12-.15 2.42 2.42 0 01-.9-.44l.44-.73a2.11 2.11 0 00.69.36 2.7 2.7 0 00.84.14 1.38 1.38 0 001-.32 1.28 1.28 0 00.32-.95v-.74l.08-.95v-1.95h.93v3.54a2.17 2.17 0 01-.58 1.67 2.36 2.36 0 01-1.7.51zm0-2.58a1.38 1.38 0 00.65-.15 1.1 1.1 0 00.45-.42 1.29 1.29 0 000-1.24 1.06 1.06 0 00-.45-.41 1.45 1.45 0 00-.65-.14 1.47 1.47 0 00-.66.14 1.06 1.06 0 00-.45.41 1.28 1.28 0 000 1.24 1.1 1.1 0 00.45.42 1.4 1.4 0 00.68.12zm5.87 1.06a2.53 2.53 0 01-1.21-.28 2 2 0 01-.8-.76 2.13 2.13 0 01-.28-1.1 2.17 2.17 0 01.28-1.11 2 2 0 01.76-.75 2.22 2.22 0 011.11-.27 2.17 2.17 0 011.08.27 1.92 1.92 0 01.75.75 2.29 2.29 0 01.27 1.14v.29h-3.47v-.65h3l-.38.2a1.2 1.2 0 00-.15-.63 1.15 1.15 0 00-.42-.43 1.22 1.22 0 00-.62-.16 1.24 1.24 0 00-.63.16 1.11 1.11 0 00-.42.43 1.33 1.33 0 00-.15.65v.16a1.28 1.28 0 00.17.66 1.14 1.14 0 00.48.44 1.57 1.57 0 00.72.16 1.72 1.72 0 00.63-.11 1.34 1.34 0 00.5-.34l.52.6a1.83 1.83 0 01-.71.5 2.52 2.52 0 01-1.03.18zm7.6.02a4.07 4.07 0 01-1.22-.18 2.66 2.66 0 01-.93-.47l.35-.79a2.84 2.84 0 00.81.43 2.91 2.91 0 001 .17 2.11 2.11 0 00.69-.09.82.82 0 00.39-.25.57.57 0 00.13-.36.5.5 0 00-.18-.4 1.31 1.31 0 00-.46-.24l-.63-.17-.69-.18a2.86 2.86 0 01-.63-.27 1.37 1.37 0 01-.46-.45 1.32 1.32 0 01-.18-.72 1.48 1.48 0 01.24-.82 1.64 1.64 0 01.72-.59 3 3 0 011.23-.22 3.89 3.89 0 011 .13 2.83 2.83 0 01.84.36l-.32.79a3 3 0 00-.76-.32 2.86 2.86 0 00-.75-.11 1.92 1.92 0 00-.68.1.84.84 0 00-.38.27.62.62 0 00-.12.38.51.51 0 00.17.4 1.23 1.23 0 00.46.24l.63.17.7.18a2.92 2.92 0 01.63.27 1.29 1.29 0 01.46.45 1.32 1.32 0 01.18.71 1.47 1.47 0 01-.24.81 1.64 1.64 0 01-.73.59 3 3 0 01-1.27.18zm2.95-3.43v-.78h2.77v.78zm2.12 3.41a1.48 1.48 0 01-1.06-.36 1.38 1.38 0 01-.37-1v-3.74h1v3.72a.65.65 0 00.15.46.55.55 0 00.42.16.85.85 0 00.54-.17l.27.7a1.14 1.14 0 01-.42.21 1.89 1.89 0 01-.53.02zm3.38 0a2 2 0 01-.82-.16 1.26 1.26 0 01-.54-.45 1.13 1.13 0 01-.19-.64 1.21 1.21 0 01.17-.63 1.13 1.13 0 01.55-.45 2.6 2.6 0 011-.16h1.21v.65h-1.14a1 1 0 00-.67.16.52.52 0 00-.17.39.5.5 0 00.21.42 1 1 0 00.58.16 1.27 1.27 0 00.64-.16.93.93 0 00.41-.48l.16.58a1.08 1.08 0 01-.5.57 1.85 1.85 0 01-.9.2zm1.31-.05v-.84l-.05-.18v-1.48a.86.86 0 00-.26-.67 1.11 1.11 0 00-.78-.24 2.25 2.25 0 00-.69.11 1.7 1.7 0 00-.57.3l-.38-.71a2.32 2.32 0 01.8-.39 3.57 3.57 0 011-.13 2.05 2.05 0 011.4.43 1.69 1.69 0 01.49 1.34v2.42zm2-3.36v-.78h2.77v.78zm2.12 3.41a1.48 1.48 0 01-1.06-.36 1.38 1.38 0 01-.37-1v-3.74h1v3.72a.65.65 0 00.15.46.55.55 0 00.42.16.85.85 0 00.54-.17l.27.7a1.14 1.14 0 01-.42.21 1.89 1.89 0 01-.53.02zm2.62-4.91a.61.61 0 01-.45-.17.58.58 0 010-.83.62.62 0 01.45-.17.64.64 0 01.45.16.52.52 0 01.18.4.59.59 0 01-.62.61zm-.49 4.86v-4.17h1v4.13zm3.92.05a3.64 3.64 0 01-1-.14 2.58 2.58 0 01-.76-.33l.37-.74a2.65 2.65 0 00.67.3 2.69 2.69 0 00.78.12 1.33 1.33 0 00.67-.12.38.38 0 00.21-.34.29.29 0 00-.14-.26 1.08 1.08 0 00-.37-.14l-.5-.09-.55-.11a1.92 1.92 0 01-.5-.2 1 1 0 01-.37-.35 1.06 1.06 0 01-.14-.58 1.1 1.1 0 01.23-.69 1.45 1.45 0 01.63-.45 2.65 2.65 0 011-.16 4 4 0 01.85.09 2.29 2.29 0 01.71.27l-.37.74a2 2 0 00-.6-.25 2.77 2.77 0 00-.6-.07 1.28 1.28 0 00-.66.13.39.39 0 00-.21.34.32.32 0 00.14.28 1.12 1.12 0 00.37.15l.5.09a4.42 4.42 0 01.55.11 2.29 2.29 0 01.5.19 1 1 0 01.37.34 1 1 0 01.14.57 1.06 1.06 0 01-.23.68 1.47 1.47 0 01-.65.45 2.83 2.83 0 01-1.04.17zm2.56-3.41v-.78h2.77v.78zm2.12 3.41a1.48 1.48 0 01-1.06-.36 1.38 1.38 0 01-.37-1v-3.74h1v3.72a.65.65 0 00.15.46.55.55 0 00.42.16.85.85 0 00.54-.17l.27.7a1.14 1.14 0 01-.42.21 1.89 1.89 0 01-.53.02zm2.58-4.91a.61.61 0 01-.45-.17.58.58 0 010-.83.62.62 0 01.45-.17.64.64 0 01.45.16.52.52 0 01.18.4.59.59 0 01-.62.61zm-.49 4.86v-4.17h1v4.13zm4.59.05a2.4 2.4 0 01-1.16-.28 2 2 0 01-.8-.76 2.26 2.26 0 010-2.21 2 2 0 01.8-.75 2.42 2.42 0 011.16-.27 2.25 2.25 0 011.07.25 1.64 1.64 0 01.71.72l-.75.44a1.2 1.2 0 00-.46-.44 1.23 1.23 0 00-.58-.14 1.34 1.34 0 00-.65.16 1.12 1.12 0 00-.45.45 1.57 1.57 0 000 1.4 1.11 1.11 0 00.45.45 1.33 1.33 0 00.65.16 1.23 1.23 0 00.58-.14 1.2 1.2 0 00.46-.44l.75.44a1.69 1.69 0 01-.71.72 2.2 2.2 0 01-1.07.24zm4.29 0a3.64 3.64 0 01-1-.14 2.58 2.58 0 01-.76-.33l.37-.74a2.65 2.65 0 00.67.3 2.69 2.69 0 00.78.12 1.33 1.33 0 00.67-.12.38.38 0 00.21-.34.29.29 0 00-.14-.26 1.08 1.08 0 00-.37-.14l-.5-.09-.55-.11a1.92 1.92 0 01-.5-.2 1 1 0 01-.37-.35 1.06 1.06 0 01-.14-.58 1.1 1.1 0 01.23-.69 1.45 1.45 0 01.63-.45 2.65 2.65 0 011-.16 4 4 0 01.85.09 2.29 2.29 0 01.71.27l-.37.74a2 2 0 00-.6-.25 2.77 2.77 0 00-.6-.07 1.28 1.28 0 00-.66.13.39.39 0 00-.21.34.32.32 0 00.14.28 1.12 1.12 0 00.37.15l.5.09a4.42 4.42 0 01.55.11 2.29 2.29 0 01.5.19 1 1 0 01.37.34 1 1 0 01.14.57 1.06 1.06 0 01-.23.68 1.47 1.47 0 01-.65.45 2.83 2.83 0 01-1.04.17z" fill="#6a6f82"/><g clip-path="url(#j)"><path fill="#d7a584" d="M45.46 359.31l-2.87 19.29v-19.29h2.87z"/><path fill="#d7a584" d="M47.14 359.31l-4.13 27.75h-.42v-8.46l2.87-19.29h1.68z"/><path fill="#d7a484" d="M48.83 359.31l-4.14 27.75h-1.68l4.13-27.75h1.69z"/><path fill="#d7a384" d="M50.51 359.31l-4.13 27.75h-1.69l4.14-27.75h1.68z"/><path fill="#d7a284" d="M52.19 359.31l-4.13 27.75h-1.68l4.13-27.75h1.68z"/><path fill="#d7a184" d="M53.88 359.31l-4.14 27.75h-1.68l4.13-27.75h1.69z"/><path fill="#d8a084" d="M55.56 359.31l-4.14 27.75h-1.68l4.14-27.75h1.68z"/><path fill="#d89f84" d="M57.24 359.31l-4.13 27.75h-1.69l4.14-27.75h1.68z"/><path fill="#d89e84" d="M58.92 359.31l-4.13 27.75h-1.68l4.13-27.75h1.68z"/><path fill="#d89d83" d="M60.61 359.31l-4.13 27.75h-1.69l4.13-27.75h1.69z"/><path fill="#d89c83" d="M62.29 359.31l-4.13 27.75h-1.68l4.13-27.75h1.68z"/><path fill="#d89b83" d="M63.97 359.31l-4.13 27.75h-1.68l4.13-27.75h1.68z"/><path fill="#d89a83" d="M65.66 359.31l-4.14 27.75h-1.68l4.13-27.75h1.69z"/><path fill="#d89983" d="M67.34 359.31l-4.13 27.75h-1.69l4.14-27.75h1.68z"/><path fill="#d89883" d="M69.02 359.31l-4.13 27.75h-1.68l4.13-27.75h1.68z"/><path fill="#d99783" d="M70.71 359.31l-4.14 27.75h-1.68l4.13-27.75h1.69z"/><path fill="#d99683" d="M72.39 359.31l-4.13 27.75h-1.69l4.14-27.75h1.68z"/><path fill="#d99583" d="M74.07 359.31l-4.13 27.75h-1.68l4.13-27.75h1.68z"/><path fill="#d99483" d="M75.76 359.31l-4.14 27.75h-1.68l4.13-27.75h1.69z"/><path fill="#d99383" d="M77.44 359.31l-4.13 27.75h-1.69l4.14-27.75h1.68z"/><path fill="#d99283" d="M79.12 359.31l-4.13 27.75h-1.68l4.13-27.75h1.68z"/><path fill="#d99183" d="M80.81 359.31l-4.14 27.75h-1.68l4.13-27.75h1.69z"/><path fill="#d99083" d="M82.49 359.31l-4.13 27.75h-1.69l4.14-27.75h1.68z"/><path fill="#da8f83" d="M84.17 359.31l-4.13 27.75h-1.68l4.13-27.75h1.68z"/><path fill="#da8e83" d="M85.86 359.31l-4.14 27.75h-1.68l4.13-27.75h1.69z"/><path fill="#da8d82" d="M87.54 359.31l-4.13 27.75h-1.69l4.14-27.75h1.68z"/><path fill="#da8c82" d="M89.22 359.31l-4.13 27.75h-1.68l4.13-27.75h1.68z"/><path fill="#da8b82" d="M90.91 359.31l-4.14 27.75h-1.68l4.13-27.75h1.69z"/><path fill="#da8a82" d="M92.59 359.31l-4.13 27.75h-1.69l4.14-27.75h1.68z"/><path fill="#da8982" d="M94.27 359.31l-4.13 27.75h-1.68l4.13-27.75h1.68z"/><path fill="#da8882" d="M95.95 359.31l-4.13 27.75h-1.68l4.13-27.75h1.68z"/><path fill="#da8782" d="M97.64 359.31l-4.14 27.75h-1.68l4.13-27.75h1.69z"/><path fill="#db8682" d="M99.32 359.31l-4.13 27.75H93.5l4.14-27.75h1.68z"/><path fill="#db8582" d="M101 359.31l-4.13 27.75h-1.68l4.13-27.75H101z"/><path fill="#db8482" d="M102.69 359.31l-4.13 27.75h-1.69l4.13-27.75h1.69z"/><path fill="#db8382" d="M104.37 359.31l-4.13 27.75h-1.68l4.13-27.75h1.68z"/><path fill="#db8282" d="M106.06 359.31l-4.14 27.75h-1.68l4.13-27.75h1.69z"/><path fill="#db8182" d="M107.74 359.31l-4.13 27.75h-1.69l4.14-27.75h1.68z"/><path fill="#db8082" d="M109.42 359.31l-4.13 27.75h-1.68l4.13-27.75h1.68z"/><path fill="#db7e82" d="M111.1 359.31l-4.13 27.75h-1.68l4.13-27.75h1.68z"/><path fill="#db7d82" d="M112.79 359.31l-4.14 27.75h-1.68l4.13-27.75h1.69z"/><path fill="#dc7c81" d="M114.47 359.31l-4.13 27.75h-1.69l4.14-27.75h1.68z"/><path fill="#dc7b81" d="M116.15 359.31l-4.13 27.75h-1.68l4.13-27.75h1.68z"/><path fill="#dc7a81" d="M117.84 359.31l-4.14 27.75h-1.68l4.13-27.75h1.69z"/><path fill="#dc7981" d="M119.52 359.31l-4.13 27.75h-1.69l4.14-27.75h1.68z"/><path fill="#dc7881" d="M121.2 359.31l-4.13 27.75h-1.68l4.13-27.75h1.68z"/><path fill="#dc7781" d="M122.89 359.31l-4.14 27.75h-1.68l4.13-27.75h1.69z"/><path fill="#dc7681" d="M124.57 359.31l-4.13 27.75h-1.69l4.14-27.75h1.68z"/><path fill="#dc7581" d="M126.25 359.31l-4.13 27.75h-1.68l4.13-27.75h1.68z"/><path fill="#dc7481" d="M127.94 359.31l-4.14 27.75h-1.68l4.13-27.75h1.69z"/><path fill="#dd7381" d="M129.62 359.31l-4.13 27.75h-1.69l4.14-27.75h1.68z"/><path fill="#dd7281" d="M131.3 359.31l-4.13 27.75h-1.68l4.13-27.75h1.68z"/><path fill="#dd7181" d="M132.99 359.31l-4.14 27.75h-1.68l4.13-27.75h1.69z"/><path fill="#dd7081" d="M134.67 359.31l-4.13 27.75h-1.69l4.14-27.75h1.68z"/><path fill="#dd6f81" d="M136.35 359.31l-4.13 27.75h-1.68l4.13-27.75h1.68z"/><path fill="#dd6e81" d="M138.04 359.31l-4.14 27.75h-1.68l4.13-27.75h1.69z"/><path fill="#dd6d81" d="M139.72 359.31l-4.13 27.75h-1.69l4.14-27.75h1.68z"/><path fill="#dd6c80" d="M141.4 359.31l-4.13 27.75h-1.68l4.13-27.75h1.68z"/><path fill="#dd6b80" d="M143.09 359.31l-4.14 27.75h-1.68l4.13-27.75h1.69z"/><path fill="#de6a80" d="M144.77 359.31l-4.14 27.75h-1.68l4.14-27.75h1.68z"/><path fill="#de6980" d="M146.45 359.31l-4.13 27.75h-1.69l4.14-27.75h1.68z"/><path fill="#de6880" d="M148.13 359.31L144 387.06h-1.68l4.13-27.75h1.68z"/><path fill="#de6780" d="M149.82 359.31l-4.13 27.75H144l4.13-27.75h1.69z"/><path fill="#de6680" d="M151.5 359.31l-4.13 27.75h-1.68l4.13-27.75h1.68z"/><path fill="#de6580" d="M153.19 359.31l-4.14 27.75h-1.68l4.13-27.75h1.69z"/><path fill="#de6480" d="M154.87 359.31l-4.13 27.75h-1.69l4.14-27.75h1.68z"/><path fill="#de6380" d="M156.55 359.31l-4.13 27.75h-1.68l4.13-27.75h1.68z"/><path fill="#df6280" d="M158.23 359.31l-4.13 27.75h-1.68l4.13-27.75h1.68z"/><path fill="#df6180" d="M159.92 359.31l-4.14 27.75h-1.68l4.13-27.75h1.69z"/><path fill="#df6080" d="M161.6 359.31l-4.13 27.75h-1.69l4.14-27.75h1.68z"/><path fill="#df5f80" d="M162.32 365.76l-3.17 21.3h-1.68l4.13-27.75h.72v6.45z"/><path fill="#df5e80" d="M162.32 377.06l-1.49 10h-1.68l3.17-21.3v11.3z"/><path fill="#df5d80" d="M160.83 387.06l1.49-10v10h-1.49z"/></g><path d="M85.69 375.54a3.18 3.18 0 01-1.16-.21 2.75 2.75 0 01-.93-.59 2.67 2.67 0 01-.61-.89 3 3 0 010-2.25 2.65 2.65 0 01.62-.89 2.81 2.81 0 01.93-.59 3.36 3.36 0 012.38 0 2.41 2.41 0 01.93.68l-.65.62a1.91 1.91 0 00-1.46-.64 2.11 2.11 0 00-.78.14 1.8 1.8 0 00-1 1 2.16 2.16 0 000 1.55 1.8 1.8 0 001 1 2.11 2.11 0 00.78.14 1.89 1.89 0 001.46-.65l.65.62a2.49 2.49 0 01-.93.68 3.12 3.12 0 01-1.23.28zm5.15-.02a2.3 2.3 0 01-1.14-.28 2.06 2.06 0 01-.79-.76 2.26 2.26 0 010-2.21 2 2 0 01.79-.75 2.32 2.32 0 011.14-.27 2.36 2.36 0 011.15.27 2 2 0 01.79.75 2.28 2.28 0 010 2.21 2 2 0 01-.79.76 2.34 2.34 0 01-1.15.28zm0-.84a1.28 1.28 0 00.64-.16 1.1 1.1 0 00.44-.45 1.6 1.6 0 000-1.39 1.11 1.11 0 00-.44-.45 1.36 1.36 0 00-1.27 0 1.14 1.14 0 00-.44.45 1.56 1.56 0 000 1.39 1.13 1.13 0 00.44.45 1.25 1.25 0 00.63.16zm5.91-3.43a2 2 0 01.89.2 1.42 1.42 0 01.62.6 2.1 2.1 0 01.23 1v2.39h-1v-2.26a1.16 1.16 0 00-.26-.83 1 1 0 00-.73-.27 1.28 1.28 0 00-.61.14 1 1 0 00-.41.42 1.5 1.5 0 00-.14.7v2.11h-1v-4.17h.93v1.12l-.16-.34a1.47 1.47 0 01.63-.61 2.07 2.07 0 011.01-.2zm2.81.86v-.78h2.77v.78zm2.12 3.41a1.48 1.48 0 01-1.06-.36 1.38 1.38 0 01-.37-1v-3.74h1v3.69a.65.65 0 00.15.46.55.55 0 00.42.16.85.85 0 00.54-.17l.27.7a1.14 1.14 0 01-.42.21 1.89 1.89 0 01-.53.05zm2.62-4.91a.61.61 0 01-.45-.17.58.58 0 010-.83.62.62 0 01.45-.17.64.64 0 01.45.16.52.52 0 01.18.4.59.59 0 01-.62.61zm-.49 4.86v-4.17h1v4.17zm5-4.22a2 2 0 01.89.2 1.42 1.42 0 01.62.6 2.1 2.1 0 01.23 1v2.39h-1v-2.26a1.16 1.16 0 00-.26-.83 1 1 0 00-.73-.27 1.28 1.28 0 00-.61.14 1 1 0 00-.41.42 1.5 1.5 0 00-.14.7v2.11h-1v-4.17h.93v1.12l-.16-.34a1.47 1.47 0 01.63-.61 2.07 2.07 0 011.01-.2zm5.1 4.27a2.09 2.09 0 01-.93-.2 1.43 1.43 0 01-.63-.61 2.13 2.13 0 01-.23-1v-2.38h1v2.25a1.21 1.21 0 00.25.84.92.92 0 00.72.28 1.2 1.2 0 00.6-.14 1 1 0 00.4-.42 1.52 1.52 0 00.14-.7v-2.11h1v4.17h-.93v-1.12l.16.34a1.44 1.44 0 01-.62.62 1.86 1.86 0 01-.93.18zm5.91 0a2.53 2.53 0 01-1.21-.28 2 2 0 01-.8-.76 2.13 2.13 0 01-.28-1.1 2.17 2.17 0 01.28-1.11 2 2 0 01.76-.75 2.22 2.22 0 011.11-.27 2.17 2.17 0 011.08.27 1.92 1.92 0 01.75.75 2.29 2.29 0 01.27 1.14v.29h-3.47v-.65h3l-.38.2a1.2 1.2 0 00-.15-.63 1.15 1.15 0 00-.42-.43 1.22 1.22 0 00-.62-.16 1.24 1.24 0 00-.63.16 1.11 1.11 0 00-.42.43 1.33 1.33 0 00-.15.65v.16a1.28 1.28 0 00.17.66 1.14 1.14 0 00.48.44 1.57 1.57 0 00.72.16 1.72 1.72 0 00.63-.11 1.34 1.34 0 00.5-.34l.52.6a1.83 1.83 0 01-.71.5 2.52 2.52 0 01-1.03.18z" fill="#fff"/><path d="M149.91 305.58a28.13 28.13 0 002.78-7.69c.17-1.2-1.5-2.23-2.16-.91a28.18 28.18 0 00-2.15 8c-.13.85 1.08 1.57 1.52.64z" fill="#3d3d3d" opacity=".25"/><path d="M147.91 303.58a28.13 28.13 0 002.78-7.69c.17-1.2-1.5-2.23-2.16-.91a28.18 28.18 0 00-2.15 8c-.13.85 1.08 1.57 1.52.64z" fill="#6e3281"/><path d="M47.91 286.35c-1.17 2.3-3 5.09-3.29 7.72-.3 3.2 3.08 2.23 5 1.81s6.11-.58 5.59-3.43c-.23-1.27-1.53-2.25-2.37-3.11l-3.62-3.75c-1.22-1.26-3.18.7-1.92 1.93l2.8 2.73c.52.51 2.74 2.13 2.63 3l.36-.87c-.63.79-2.86.95-3.79 1.18-.62.16-1.29.26-1.9.47-1 .34-.5.15-.29-.68a56.61 56.61 0 001.53-6.64c.06-.41-.5-.75-.73-.31z" fill="#3d3d3d" opacity=".25"/><path d="M45.91 284.35c-1.17 2.3-3 5.09-3.29 7.72-.3 3.2 3.08 2.23 5 1.81s6.11-.58 5.59-3.43c-.23-1.27-1.53-2.25-2.37-3.11l-3.62-3.75c-1.22-1.26-3.18.7-1.92 1.93l2.8 2.73c.52.51 2.74 2.13 2.63 3l.36-.87c-.63.79-2.86.95-3.79 1.18-.62.16-1.29.26-1.9.47-1 .34-.5.15-.29-.68a56.61 56.61 0 001.53-6.64c.06-.41-.5-.75-.73-.31z" fill="#dbea83"/><g opacity=".46" fill="#251a51"><circle cx="155.97" cy="32.67" r=".46"/><path d="M157.06 31.55a1.5 1.5 0 00-2.07 0l-.07.07-.09.09a.29.29 0 000 .41.29.29 0 00.41 0l.16-.16a.92.92 0 011.31 0l.11.11a.29.29 0 00.41-.41z"/><path d="M157.84 30.98l-.09-.1-.07-.08a2.5 2.5 0 00-3.38.08l-.17.17a.262.262 0 00.37.37l.17-.17a2 2 0 012.72 0l.14.14a.262.262 0 00.37-.37z"/></g><path d="M26.69 33.48a.13.13 0 01-.1 0 .12.12 0 010-.09v-2.58l-.56.38h-.07a.12.12 0 01-.09 0 .13.13 0 010-.09.12.12 0 01.07-.11l.7-.47h.05a.12.12 0 01.08 0 .13.13 0 010 .09v2.7a.12.12 0 010 .09.13.13 0 01-.08.08zm1.85.04a.82.82 0 01-.56-.2 1.22 1.22 0 01-.34-.55 2.68 2.68 0 010-1.54 1.21 1.21 0 01.34-.54.9.9 0 011.13 0 1.22 1.22 0 01.34.54 2.66 2.66 0 010 1.54 1.24 1.24 0 01-.34.55.82.82 0 01-.57.2zm0-.26a.58.58 0 00.37-.15 1 1 0 00.25-.44 2.59 2.59 0 000-1.32 1 1 0 00-.25-.44.58.58 0 00-.41-.16.57.57 0 00-.41.16 1 1 0 00-.25.44 2.56 2.56 0 000 1.32 1 1 0 00.25.44.57.57 0 00.45.15zm1.63-1.54a.13.13 0 01-.11 0 .17.17 0 010-.12v-.09a.18.18 0 010-.12.13.13 0 01.11 0 .14.14 0 01.11 0 .18.18 0 010 .12v.09a.18.18 0 010 .12.14.14 0 01-.11 0zm0 1.76a.13.13 0 01-.11 0 .17.17 0 010-.12v-.09a.17.17 0 010-.12.14.14 0 01.11 0 .14.14 0 01.11 0 .17.17 0 010 .12v.09a.18.18 0 010 .12.14.14 0 01-.11 0zm.74-.44h.06a.59.59 0 00.21.14.75.75 0 00.28 0 .77.77 0 00.38-.09.71.71 0 00.27-.26.72.72 0 00.1-.38.63.63 0 00-.38-.62.83.83 0 00-.34-.07h-.23a.1.1 0 01-.08 0 .14.14 0 010-.09.11.11 0 010-.05v-.05l.85-.93.05.07h-1.17a.12.12 0 01-.12-.12.11.11 0 010-.08.12.12 0 01.09 0h1.41a.11.11 0 01.1 0 .16.16 0 010 .09l-.85.93-.09-.05h.21a.91.91 0 01.44.11.89.89 0 01.33.31.94.94 0 01.13.5.93.93 0 01-.51.86 1.12 1.12 0 01-.52.12 1 1 0 01-.34-.06.82.82 0 01-.29-.18v-.05a.11.11 0 010-.05.14.14 0 010-.09.11.11 0 01.01.09zm3.12.48a.82.82 0 01-.56-.2 1.22 1.22 0 01-.34-.55 2.68 2.68 0 010-1.54 1.21 1.21 0 01.34-.54.9.9 0 011.13 0 1.22 1.22 0 01.34.54 2.66 2.66 0 010 1.54 1.24 1.24 0 01-.34.55.82.82 0 01-.57.2zm0-.26a.58.58 0 00.41-.16 1 1 0 00.25-.44 2.59 2.59 0 000-1.32 1 1 0 00-.25-.44.58.58 0 00-.41-.16.57.57 0 00-.41.16 1 1 0 00-.25.44 2.56 2.56 0 000 1.32 1 1 0 00.25.44.57.57 0 00.41.16zm3.78-2.41l-1 2.55a.14.14 0 010 .06h-.07a.12.12 0 01-.09 0 .13.13 0 010-.08.1.1 0 010-.05l1.11-2.72a.14.14 0 01.05-.07h.14a.15.15 0 010 .06l1.11 2.71a.15.15 0 010 .05.11.11 0 010 .09.13.13 0 01-.09 0h-.07a.15.15 0 010-.06l-1-2.56zm-.78 1.77l.1-.25h1.3v.25zm2.65-2.09h.11l1.16 1.74h-.11L42 30.53a.12.12 0 01.11-.06.12.12 0 01.09 0 .12.12 0 010 .09v2.7a.12.12 0 010 .09.13.13 0 01-.09 0 .13.13 0 01-.1 0 .12.12 0 010-.09v-2.35h.08l-1.06 1.61h-.12l-1.07-1.63.08-.06v2.5a.13.13 0 010 .09.12.12 0 01-.09 0 .11.11 0 01-.09 0 .13.13 0 010-.09v-2.7a.13.13 0 010-.09.12.12 0 01-.06-.01zm121.95 1.16a.78.78 0 01.25.15.81.81 0 01.18.24.67.67 0 01.07.3.71.71 0 01-.11.39.82.82 0 01-.31.28 1 1 0 01-.87 0 .82.82 0 01-.31-.28.71.71 0 01-.11-.39.69.69 0 01.07-.31.74.74 0 01.18-.23.93.93 0 01.24-.15.8.8 0 01-.2-.14.74.74 0 01-.15-.22.65.65 0 01-.06-.28.72.72 0 01.11-.39.76.76 0 01.29-.27.81.81 0 01.4-.1.79.79 0 01.4.1.77.77 0 01.28.27.73.73 0 01.1.39.63.63 0 01-.06.28.69.69 0 01-.16.21.79.79 0 01-.23.15zm-.37 1.2a.62.62 0 00.44-.16.54.54 0 00.09-.68.58.58 0 00-.22-.2.67.67 0 00-.61 0 .58.58 0 00-.22.2.54.54 0 00.08.68.62.62 0 00.44.17zm-.55-1.78a.52.52 0 00.08.28.55.55 0 00.2.19.55.55 0 00.27.07.55.55 0 00.27-.07.53.53 0 00.2-.19.52.52 0 00.07-.28.51.51 0 00-.15-.38.53.53 0 00-.39-.15.54.54 0 00-.39.15.51.51 0 00-.16.38zm2.55 2a1 1 0 01-.33-.05.85.85 0 01-.29-.16.13.13 0 010-.06.12.12 0 010-.08.11.11 0 01.08 0 .14.14 0 01.09 0 .82.82 0 00.22.12.71.71 0 00.24 0 .89.89 0 00.41-.09.65.65 0 00.27-.26.76.76 0 00.1-.38.68.68 0 00-.09-.35.62.62 0 00-.25-.24.8.8 0 00-.38-.09.74.74 0 00-.26 0l-.2.09a.32.32 0 01-.14 0h-.08a.11.11 0 010-.06.16.16 0 010-.08l.17-1.06a.11.11 0 010-.07.12.12 0 01.08 0h1.2a.11.11 0 01.08 0 .11.11 0 010 .08.12.12 0 010 .09.11.11 0 01-.08 0h-1.19l-.16.95-.07-.05.15-.08.22-.07a1.06 1.06 0 01.26 0 .93.93 0 01.46.11.85.85 0 01.32.32.91.91 0 01.12.46 1 1 0 01-.12.51.88.88 0 01-.35.34 1.12 1.12 0 01-.48.16zm1.96-1.38a.45.45 0 01-.3-.1.62.62 0 01-.18-.27 1 1 0 01-.06-.36 1.06 1.06 0 01.06-.37.61.61 0 01.19-.27.47.47 0 01.3-.1.46.46 0 01.3.1.6.6 0 01.18.27 1 1 0 01.06.36 1 1 0 01-.06.36.62.62 0 01-.18.27.46.46 0 01-.31.11zm0-.21a.25.25 0 00.24-.15.82.82 0 00.07-.37.77.77 0 00-.08-.38.26.26 0 00-.25-.15.25.25 0 00-.24.15.85.85 0 00-.07.37.75.75 0 00.08.37.26.26 0 00.26.16zm-.05 1.59a.11.11 0 01-.08 0 .1.1 0 010-.08.12.12 0 010-.06l1.7-2.59a.11.11 0 01.09-.05.12.12 0 01.08 0 .09.09 0 010 .08.14.14 0 010 .06l-1.7 2.59a.1.1 0 01-.08.05zm1.68 0a.46.46 0 01-.3-.1.6.6 0 01-.18-.27 1.08 1.08 0 010-.72.61.61 0 01.19-.27.47.47 0 01.3-.1.46.46 0 01.3.1.6.6 0 01.18.27 1.07 1.07 0 01.06.36 1 1 0 01-.06.36.63.63 0 01-.19.27.46.46 0 01-.29.1zm0-.21a.25.25 0 00.24-.15.79.79 0 00.08-.37.77.77 0 00-.08-.38.26.26 0 00-.24-.15.25.25 0 00-.24.15.83.83 0 00-.08.37.74.74 0 00.08.37.27.27 0 00.3.18zm4.69.58a.35.35 0 01-.36-.33v-2.6a.35.35 0 01.36-.33h6a.35.35 0 01.36.33v.56h.46v1.54h-.45v.46a.35.35 0 01-.36.33zm6.13-3h-6.25v2.8h6.25zm-6 .27h4.55v2.28h-4.55z" opacity=".48" fill="#251a51"/></g></svg>