<svg xmlns="http://www.w3.org/2000/svg" viewBox="0 0 236.64 432.69"><defs><clipPath id="clip-path" transform="translate(22.69 23.21)"><rect class="cls-1" width="202.47" height="409.49" rx="33.11" ry="33.11"/></clipPath><clipPath id="clip-path-2" transform="translate(22.69 23.21)"><rect class="cls-1" x="38.13" y="342.14" width="119.74" height="27.75" rx="11.61" ry="11.61"/></clipPath><clipPath id="clip-path-3" transform="translate(22.69 23.21)"><path class="cls-1" d="M165.82 173l.08-24.48-2.12-13.93a12 12 0 00-15.11-9.76l-13.25 3.75a31.2 31.2 0 00-11.55 6.12l-20.4 17.4-12.61-18.6-7.7 5.41c0 1.54 9.24 34 18.1 32.82 6.31-.83 20-8.43 26.33-11.32a108.45 108.45 0 014.08 10.29l-1.17 28.88a9.11 9.11 0 009 9.48c11.7.17 31-1.87 36.9-16.33z"/></clipPath><clipPath id="clip-path-4" transform="translate(22.69 23.21)"><rect class="cls-1" x="11.6" y="9.98" width="179.26" height="389.53" rx="26.11" ry="26.11"/></clipPath><clipPath id="clip-path-5" transform="translate(22.69 23.21)"><path class="cls-1" d="M50.1 3.76v5.63a11.36 11.36 0 0011.35 11.38H141a11.36 11.36 0 0011.36-11.38V1.33z"/></clipPath><style>.cls-1{fill:none}.cls-4{fill:#fefefe}.cls-5{fill:#fdfdfd}.cls-6{fill:#fcfcfc}.cls-38{fill:#dbe1e2}.cls-39{fill:#fff}.cls-42{fill:#d7a584}.cls-117{opacity:.11}.cls-118{fill:#251a51}.cls-119{fill:#f9b9b4}.cls-174{fill:#6a437c}.cls-176{fill:#edc483}.cls-178{opacity:.18}.cls-179{fill:#eeedf2}.cls-180{opacity:.12}.cls-181,.cls-184{opacity:.25}.cls-183{fill:#e3707f}.cls-184{mix-blend-mode:multiply}.cls-185{fill:#3d3d3d}.cls-188{fill:#8aa9fc}.cls-195{fill:#7f7f7f}.cls-197{opacity:.48}</style></defs><g style="isolation:isolate"><g id="Objects"><g clip-path="url(#clip-path)"><path class="cls-4" d="M225.15 23.36L22.69 27.04v-3.83h202.46v.15z"/><path class="cls-5" d="M225.15 27.27L22.69 30.95v-3.91l202.46-3.68v3.91z"/><path class="cls-6" d="M225.15 31.18L22.69 34.87v-3.92l202.46-3.68v3.91z"/><path fill="#fbfcfc" d="M225.15 35.1L22.69 38.78v-3.91l202.46-3.69v3.92z"/><path fill="#fafbfb" d="M225.15 39.01L22.69 42.69v-3.91l202.46-3.68v3.91z"/><path fill="#f9fafa" d="M225.15 42.92L22.69 46.6v-3.91l202.46-3.68v3.91z"/><path fill="#f8f9f9" d="M225.15 46.83L22.69 50.51V46.6l202.46-3.68v3.91z"/><path fill="#f7f8f8" d="M225.15 50.74L22.69 54.42v-3.91l202.46-3.68v3.91z"/><path fill="#f6f7f7" d="M225.15 54.66L22.69 58.34v-3.92l202.46-3.68v3.92z"/><path fill="#f5f6f7" d="M225.15 58.57L22.69 62.25v-3.91l202.46-3.68v3.91z"/><path fill="#f4f6f6" d="M225.15 62.48L22.69 66.16v-3.91l202.46-3.68v3.91z"/><path fill="#f3f5f5" d="M225.15 66.39L22.69 70.07v-3.91l202.46-3.68v3.91z"/><path fill="#f2f4f4" d="M225.15 70.3L22.69 73.98v-3.91l202.46-3.68v3.91z"/><path fill="#f1f3f3" d="M225.15 74.21L22.69 77.89v-3.91l202.46-3.68v3.91z"/><path fill="#eff2f2" d="M225.15 78.12L22.69 81.81v-3.92l202.46-3.68v3.91z"/><path fill="#eef1f2" d="M225.15 82.04L22.69 85.72v-3.91l202.46-3.69v3.92z"/><path fill="#edf0f1" d="M225.15 85.95L22.69 89.63v-3.91l202.46-3.68v3.91z"/><path fill="#eceff0" d="M225.15 89.86L22.69 93.54v-3.91l202.46-3.68v3.91z"/><path fill="#ebefef" d="M225.15 93.77L22.69 97.45v-3.91l202.46-3.68v3.91z"/><path fill="#eaeeee" d="M225.15 97.68l-202.46 3.68v-3.91l202.46-3.68v3.91z"/><path fill="#e9edee" d="M225.15 101.59l-202.46 3.69v-3.92l202.46-3.68v3.91z"/><path fill="#e8eced" d="M225.15 105.51l-202.46 3.68v-3.91l202.46-3.69v3.92z"/><path fill="#e7ebec" d="M225.15 109.42L22.69 113.1v-3.91l202.46-3.68v3.91z"/><path fill="#e6eaeb" d="M225.15 113.33l-202.46 3.68v-3.91l202.46-3.68v3.91z"/><path fill="#e5e9ea" d="M225.15 117.24l-202.46 3.68v-3.91l202.46-3.68v3.91z"/><path fill="#e4e9e9" d="M225.15 121.15l-202.46 3.68v-3.91l202.46-3.68v3.91z"/><path fill="#e3e8e9" d="M225.15 125.06l-202.46 3.69v-3.92l202.46-3.68v3.91z"/><path fill="#e2e7e8" d="M225.15 128.97l-202.46 3.69v-3.91l202.46-3.69v3.91z"/><path fill="#e1e6e7" d="M225.15 132.89l-202.46 3.68v-3.91l202.46-3.69v3.92z"/><path fill="#e0e5e6" d="M225.15 136.8l-202.46 3.68v-3.91l202.46-3.68v3.91z"/><path fill="#dfe4e5" d="M225.15 140.71l-202.46 3.68v-3.91l202.46-3.68v3.91z"/><path fill="#dee4e4" d="M225.15 144.62L22.69 148.3v-3.91l202.46-3.68v3.91z"/><path fill="#dde3e4" d="M225.15 148.53l-202.46 3.68v-3.91l202.46-3.68v3.91z"/><path fill="#dce2e3" d="M225.15 152.44l-202.46 3.69v-3.92l202.46-3.68v3.91z"/><path class="cls-38" d="M225.15 156.36l-202.46 3.68v-3.91l202.46-3.69v3.92z"/><path class="cls-38" d="M22.69 160.04l202.46-3.68v276.33H22.69V160.04z"/></g><rect class="cls-39" x="34.29" y="33.18" width="179.26" height="389.53" rx="26.11" ry="26.11"/><path d="M25.74 298.23v-4.92h.36v4.6h2.83v.32zm5.71.03a1.83 1.83 0 01-.94-.24 1.77 1.77 0 01-.65-.66 2 2 0 010-1.93 1.77 1.77 0 01.65-.66 1.83 1.83 0 01.94-.24 1.85 1.85 0 01.94.24 1.74 1.74 0 01.65.66 2.07 2.07 0 010 1.93 1.74 1.74 0 01-.65.66 1.85 1.85 0 01-.94.24zm0-.32a1.49 1.49 0 00.76-.19 1.35 1.35 0 00.53-.54 1.83 1.83 0 000-1.62 1.36 1.36 0 00-.53-.54 1.49 1.49 0 00-.76-.19 1.47 1.47 0 00-.75.19 1.39 1.39 0 00-.53.54 1.79 1.79 0 000 1.62 1.38 1.38 0 00.53.54 1.47 1.47 0 00.75.19zm3.27.29v-3.67h.34v1-.11a1.3 1.3 0 01.52-.68 1.63 1.63 0 01.91-.24v.34h-.08a1.22 1.22 0 00-1 .38 1.54 1.54 0 00-.34 1.06v1.91zm4.5.03a2 2 0 01-1-.24 1.74 1.74 0 01-.67-.66 1.9 1.9 0 01-.24-1 2 2 0 01.23-1 1.68 1.68 0 01.63-.66 1.82 1.82 0 011.79 0 1.64 1.64 0 01.62.65 2 2 0 01.23 1 .45.45 0 000 .05h-3.22v-.27h3l-.14.13a1.52 1.52 0 00-.18-.77 1.4 1.4 0 00-.5-.53 1.47 1.47 0 00-1.46 0 1.35 1.35 0 00-.5.53 1.62 1.62 0 00-.18.78v.06a1.57 1.57 0 00.2.8 1.41 1.41 0 00.55.54 1.63 1.63 0 00.8.19 1.68 1.68 0 00.66-.13 1.29 1.29 0 00.52-.39l.2.23a1.5 1.5 0 01-.6.45 2 2 0 01-.74.24zm7.6-3.73a1.62 1.62 0 01.77.17 1.2 1.2 0 01.51.52 1.84 1.84 0 01.18.86v2.14h-.35v-2.12a1.33 1.33 0 00-.3-.94 1.1 1.1 0 00-.84-.32 1.39 1.39 0 00-.71.18 1.17 1.17 0 00-.46.49 1.65 1.65 0 00-.16.76v2h-.36v-2.12a1.33 1.33 0 00-.3-.94 1.1 1.1 0 00-.84-.32 1.4 1.4 0 00-.72.18 1.18 1.18 0 00-.46.49 1.65 1.65 0 00-.16.76v2h-.35v-3.67h.34v1-.11a1.37 1.37 0 01.54-.68 1.62 1.62 0 01.91-.25 1.5 1.5 0 01.92.28 1.25 1.25 0 01.47.83h-.12a1.45 1.45 0 01.55-.76 1.65 1.65 0 01.94-.43zm5.58-.86a.28.28 0 01-.2-.08.27.27 0 01-.08-.2.28.28 0 01.08-.2.28.28 0 01.2-.08.28.28 0 01.21.08.27.27 0 01.08.2.28.28 0 01-.08.2.28.28 0 01-.21.08zm-.17 4.56v-3.67h.35v3.67zm2.18 1.36v-5h.34v1.2l-.06.64.07.64v2.55zm1.84-1.33a1.71 1.71 0 01-.87-.23 1.62 1.62 0 01-.62-.64 2.28 2.28 0 010-2 1.62 1.62 0 01.62-.64 1.71 1.71 0 01.87-.23 1.84 1.84 0 01.93.24 1.7 1.7 0 01.65.66 2.13 2.13 0 010 1.94 1.7 1.7 0 01-.65.66 1.84 1.84 0 01-.94.24zm0-.32a1.49 1.49 0 00.76-.19 1.39 1.39 0 00.53-.54 1.8 1.8 0 000-1.62A1.4 1.4 0 0057 295a1.49 1.49 0 00-.76-.19 1.47 1.47 0 00-.75.19 1.4 1.4 0 00-.53.54 1.8 1.8 0 000 1.62 1.39 1.39 0 00.53.54 1.47 1.47 0 00.73.24zm4.16.32a2.65 2.65 0 01-.85-.13 1.66 1.66 0 01-.61-.34l.16-.28a1.81 1.81 0 00.56.31 2.16 2.16 0 00.76.13 1.41 1.41 0 00.83-.19.6.6 0 00.25-.5.48.48 0 00-.13-.36.86.86 0 00-.35-.2 3.66 3.66 0 00-.48-.12l-.52-.1a2.1 2.1 0 01-.48-.16.89.89 0 01-.35-.29.86.86 0 01-.13-.5.88.88 0 01.15-.51 1.06 1.06 0 01.46-.36 1.9 1.9 0 01.77-.14 2.53 2.53 0 01.69.1 1.74 1.74 0 01.56.26l-.16.28a1.5 1.5 0 00-.52-.25 2.22 2.22 0 00-.58-.08 1.26 1.26 0 00-.78.2.61.61 0 00-.25.49.51.51 0 00.13.37.83.83 0 00.35.21 3.25 3.25 0 00.48.12l.52.1a2.2 2.2 0 01.48.16.87.87 0 01.35.28.8.8 0 01.13.48.86.86 0 01-.17.53 1.06 1.06 0 01-.49.35 2.16 2.16 0 01-.78.14zm4.27 0a1.79 1.79 0 01-.81-.17 1.2 1.2 0 01-.53-.52 1.81 1.81 0 01-.19-.86v-2.14h.35v2.12a1.3 1.3 0 00.32.94 1.19 1.19 0 00.89.32 1.4 1.4 0 00.71-.18 1.17 1.17 0 00.46-.5 1.66 1.66 0 00.16-.76v-2h.35v3.67h-.34v-1 .12a1.37 1.37 0 01-.54.68 1.57 1.57 0 01-.83.28zm8.11-3.73a1.62 1.62 0 01.77.17 1.2 1.2 0 01.51.52 1.84 1.84 0 01.18.86v2.14h-.35v-2.12a1.33 1.33 0 00-.3-.94 1.1 1.1 0 00-.84-.32 1.39 1.39 0 00-.76.16 1.17 1.17 0 00-.46.49 1.65 1.65 0 00-.16.76v2h-.35v-2.12a1.33 1.33 0 00-.3-.94 1.1 1.1 0 00-.84-.32 1.4 1.4 0 00-.72.18 1.18 1.18 0 00-.46.49 1.65 1.65 0 00-.16.76v2h-.35v-3.67h.34v1-.11a1.37 1.37 0 01.54-.68 1.62 1.62 0 01.91-.25 1.5 1.5 0 01.92.28 1.25 1.25 0 01.47.83h-.12a1.45 1.45 0 01.55-.76 1.65 1.65 0 01.98-.41zm6.81 3.73a1.83 1.83 0 01-.92-.24 1.72 1.72 0 01-.65-.66 2.1 2.1 0 010-1.94 1.72 1.72 0 01.65-.65 1.83 1.83 0 01.92-.24 1.71 1.71 0 01.87.23 1.62 1.62 0 01.62.64 2 2 0 01.23 1 2.08 2.08 0 01-.22 1 1.58 1.58 0 01-.61.65 1.72 1.72 0 01-.89.21zm0-.32a1.47 1.47 0 00.75-.19 1.39 1.39 0 00.53-.54 1.8 1.8 0 000-1.62 1.4 1.4 0 00-.53-.54 1.56 1.56 0 00-1.51 0 1.39 1.39 0 00-.53.54 1.79 1.79 0 000 1.62 1.38 1.38 0 00.53.54 1.47 1.47 0 00.78.19zm1.48.29V297l.06-.64-.07-.64V293h.35v5.21zm3.63.03a1.82 1.82 0 01-.94-.24 1.77 1.77 0 01-.65-.66 2 2 0 010-1.93 1.77 1.77 0 01.65-.66 1.82 1.82 0 01.94-.24 1.84 1.84 0 01.94.24 1.74 1.74 0 01.65.66 2.07 2.07 0 010 1.93 1.74 1.74 0 01-.65.66 1.84 1.84 0 01-.94.24zm0-.32a1.49 1.49 0 00.76-.19 1.35 1.35 0 00.53-.54 1.83 1.83 0 000-1.62 1.36 1.36 0 00-.53-.54A1.57 1.57 0 0084 295a1.4 1.4 0 00-.53.54 1.8 1.8 0 000 1.62 1.39 1.39 0 00.53.54 1.48 1.48 0 00.71.24zm3.29.29V293h.35v5.21zm3.58.03a1.82 1.82 0 01-.94-.24 1.77 1.77 0 01-.65-.66 2 2 0 010-1.93 1.77 1.77 0 01.65-.66 1.82 1.82 0 01.94-.24 1.84 1.84 0 01.94.24 1.74 1.74 0 01.65.66 2.07 2.07 0 010 1.93 1.74 1.74 0 01-.65.66 1.84 1.84 0 01-.94.24zm0-.32a1.49 1.49 0 00.76-.19 1.35 1.35 0 00.53-.54 1.83 1.83 0 000-1.62 1.36 1.36 0 00-.53-.54 1.57 1.57 0 00-1.51 0 1.4 1.4 0 00-.53.54 1.8 1.8 0 000 1.62 1.39 1.39 0 00.53.54 1.48 1.48 0 00.75.19zm3.27.29v-3.67h.34v1-.11a1.3 1.3 0 01.52-.68 1.63 1.63 0 01.91-.24v.34h-.12a1.22 1.22 0 00-1 .38 1.54 1.54 0 00-.34 1.06v1.91zm6.15.03a2.65 2.65 0 01-.85-.13 1.67 1.67 0 01-.61-.34l.16-.28a1.79 1.79 0 00.56.31 2.15 2.15 0 00.76.13 1.4 1.4 0 00.83-.19.6.6 0 00.25-.5.48.48 0 00-.13-.36.86.86 0 00-.35-.2 3.66 3.66 0 00-.48-.12l-.52-.1a2.09 2.09 0 01-.48-.16.88.88 0 01-.35-.29.85.85 0 01-.13-.5.87.87 0 01.15-.51 1.06 1.06 0 01.46-.36 1.89 1.89 0 01.77-.14 2.53 2.53 0 01.69.1 1.73 1.73 0 01.56.26l-.16.28a1.49 1.49 0 00-.52-.25 2.22 2.22 0 00-.58-.08 1.26 1.26 0 00-.78.2.61.61 0 00-.25.49.51.51 0 00.13.37.82.82 0 00.35.21 3.24 3.24 0 00.48.12l.52.1a2.18 2.18 0 01.48.16.87.87 0 01.35.28.81.81 0 01.13.48.87.87 0 01-.17.53 1.06 1.06 0 01-.49.35 2.16 2.16 0 01-.78.14zm3-4.59a.28.28 0 01-.2-.08.27.27 0 01-.08-.2.28.28 0 01.08-.2.28.28 0 01.2-.08.28.28 0 01.21.08.27.27 0 01.08.2.28.28 0 01-.08.2.28.28 0 01-.21.08zm-.17 4.56v-3.67h.35v3.67zm1.56-3.37v-.3h2.19v.3zm1.67 3.39a1 1 0 01-.74-.27 1 1 0 01-.26-.73v-3.5h.35v3.46a.77.77 0 00.17.54.65.65 0 00.5.19.81.81 0 00.57-.2l.15.25a.84.84 0 01-.34.2 1.35 1.35 0 01-.4.07zm5.22.01a1.76 1.76 0 01-.7-.13 1 1 0 01-.46-.37 1 1 0 01-.16-.55 1 1 0 01.13-.51.94.94 0 01.43-.37 1.9 1.9 0 01.81-.14h1.35v.27h-1.34a1.17 1.17 0 00-.8.21.73.73 0 000 1.09 1.18 1.18 0 00.75.21 1.39 1.39 0 00.78-.21 1.25 1.25 0 00.47-.61l.1.24a1.27 1.27 0 01-.5.64 1.6 1.6 0 01-.86.23zm1.32 0v-2.34a1 1 0 00-.28-.78 1.12 1.12 0 00-.81-.27 1.88 1.88 0 00-.71.13 1.91 1.91 0 00-.56.33l-.18-.25a1.94 1.94 0 01.66-.38 2.38 2.38 0 01.81-.14 1.46 1.46 0 011 .34 1.35 1.35 0 01.36 1v2.33zm6.68-3.73a1.61 1.61 0 01.77.17 1.2 1.2 0 01.51.52 1.85 1.85 0 01.18.86v2.14h-.35v-2.12a1.34 1.34 0 00-.3-.94 1.1 1.1 0 00-.84-.32 1.4 1.4 0 00-.71.18 1.17 1.17 0 00-.46.49 1.65 1.65 0 00-.16.76v2h-.35v-2.12a1.34 1.34 0 00-.3-.94 1.1 1.1 0 00-.84-.32 1.4 1.4 0 00-.71.18 1.17 1.17 0 00-.46.49 1.65 1.65 0 00-.16.76v2h-.35v-3.67h.34v1-.11a1.38 1.38 0 01.54-.68 1.62 1.62 0 01.91-.25 1.5 1.5 0 01.92.28 1.25 1.25 0 01.47.83h-.12a1.44 1.44 0 01.55-.76 1.65 1.65 0 01.92-.43zm4.72 3.73a2 2 0 01-1-.24 1.74 1.74 0 01-.67-.66 1.9 1.9 0 01-.24-1 2 2 0 01.23-1 1.69 1.69 0 01.63-.66 1.82 1.82 0 011.79 0 1.65 1.65 0 01.62.65 2 2 0 01.23 1 .3.3 0 000 .05h-3.19v-.27h3l-.14.13a1.53 1.53 0 00-.18-.77 1.38 1.38 0 00-.5-.53 1.39 1.39 0 00-2 .53 1.63 1.63 0 00-.18.78v.06a1.58 1.58 0 00.2.8 1.41 1.41 0 00.55.54 1.63 1.63 0 00.8.19 1.68 1.68 0 00.66-.13 1.29 1.29 0 00.52-.39l.2.23a1.5 1.5 0 01-.6.45 2 2 0 01-.73.24zm2.47-3.4v-.3h2.19v.3zm1.67 3.39a1 1 0 01-.74-.27 1 1 0 01-.26-.73v-3.5h.35v3.46a.77.77 0 00.17.54.65.65 0 00.5.19.81.81 0 00.57-.2l.15.25a.84.84 0 01-.34.2 1.35 1.35 0 01-.4.07zm1.81.98l.27-1.19v.2a.3.3 0 01-.22-.08.28.28 0 01-.09-.21.28.28 0 01.09-.21.29.29 0 01.21-.08.28.28 0 01.21.09.3.3 0 01.08.21.66.66 0 010 .1.71.71 0 010 .1v.13l-.27 1zm5.69-.97a1.88 1.88 0 01-1-.24 1.75 1.75 0 01-.66-.66 2.05 2.05 0 010-1.93 1.73 1.73 0 01.66-.66 1.91 1.91 0 011-.24 1.88 1.88 0 01.8.17 1.41 1.41 0 01.58.51l-.26.19a1.19 1.19 0 00-.49-.42 1.6 1.6 0 00-1.41.06 1.38 1.38 0 00-.53.54 1.81 1.81 0 000 1.62 1.38 1.38 0 00.53.54 1.6 1.6 0 001.41.06 1.2 1.2 0 00.49-.41l.26.19a1.41 1.41 0 01-.58.51 1.88 1.88 0 01-.8.17zm4.16 0a1.83 1.83 0 01-.94-.24 1.77 1.77 0 01-.65-.66 2 2 0 010-1.93 1.77 1.77 0 01.65-.66 1.83 1.83 0 01.94-.24 1.85 1.85 0 01.94.24 1.74 1.74 0 01.65.66 2.07 2.07 0 010 1.93 1.74 1.74 0 01-.65.66 1.85 1.85 0 01-.94.24zm0-.32a1.49 1.49 0 00.76-.19 1.35 1.35 0 00.53-.54 1.83 1.83 0 000-1.62 1.36 1.36 0 00-.53-.54 1.49 1.49 0 00-.76-.19 1.47 1.47 0 00-.75.19 1.39 1.39 0 00-.53.54 1.79 1.79 0 000 1.62 1.38 1.38 0 00.53.54 1.47 1.47 0 00.75.19zm5.05-3.41a1.68 1.68 0 01.78.17 1.21 1.21 0 01.52.52 1.81 1.81 0 01.19.86v2.14H147v-2.12a1.3 1.3 0 00-.31-.94 1.16 1.16 0 00-.87-.32 1.5 1.5 0 00-.74.18 1.18 1.18 0 00-.48.49 1.63 1.63 0 00-.16.76v2h-.35v-3.67h.34v1-.11a1.39 1.39 0 01.55-.68 1.71 1.71 0 01.87-.28zm4.21 3.73a2.65 2.65 0 01-.85-.13 1.66 1.66 0 01-.61-.34l.16-.28a1.81 1.81 0 00.56.31 2.16 2.16 0 00.76.13 1.41 1.41 0 00.83-.19.6.6 0 00.25-.5.48.48 0 00-.13-.36.86.86 0 00-.35-.2 3.66 3.66 0 00-.48-.12l-.52-.1a2.1 2.1 0 01-.48-.16.89.89 0 01-.35-.29.86.86 0 01-.13-.5.88.88 0 01.15-.51 1.06 1.06 0 01.46-.36 1.9 1.9 0 01.77-.14 2.53 2.53 0 01.69.1 1.74 1.74 0 01.56.26l-.16.28a1.5 1.5 0 00-.52-.25 2.22 2.22 0 00-.58-.08 1.26 1.26 0 00-.78.2.61.61 0 00-.25.49.51.51 0 00.13.37.83.83 0 00.35.21 3.25 3.25 0 00.48.12l.52.1a2.2 2.2 0 01.48.16.87.87 0 01.35.28.8.8 0 01.13.48.86.86 0 01-.17.53 1.06 1.06 0 01-.49.35 2.16 2.16 0 01-.78.14zm4.26 0a2 2 0 01-1-.24 1.74 1.74 0 01-.67-.66 1.9 1.9 0 01-.24-1 2 2 0 01.23-1 1.68 1.68 0 01.63-.66 1.82 1.82 0 011.79 0 1.64 1.64 0 01.62.65 2 2 0 01.23 1 .45.45 0 000 .05h-3.23v-.27h3l-.14.13a1.52 1.52 0 00-.18-.77 1.4 1.4 0 00-.5-.53 1.47 1.47 0 00-1.46 0 1.35 1.35 0 00-.5.53 1.62 1.62 0 00-.18.78v.06a1.57 1.57 0 00.2.8 1.41 1.41 0 00.55.54 1.63 1.63 0 00.8.19 1.68 1.68 0 00.66-.13 1.29 1.29 0 00.52-.39l.2.23a1.5 1.5 0 01-.6.45 2 2 0 01-.73.24zm4.5 0a1.88 1.88 0 01-1-.24 1.76 1.76 0 01-.66-.66 2.05 2.05 0 010-1.93 1.73 1.73 0 01.66-.66 1.91 1.91 0 011-.24 1.87 1.87 0 01.8.17 1.4 1.4 0 01.58.51l-.26.19a1.19 1.19 0 00-.49-.42 1.6 1.6 0 00-1.41.06 1.38 1.38 0 00-.53.54 1.8 1.8 0 000 1.62 1.38 1.38 0 00.53.54 1.6 1.6 0 001.41.06 1.2 1.2 0 00.49-.41l.26.19a1.4 1.4 0 01-.58.51 1.87 1.87 0 01-.8.17zm2.18-3.4v-.3h2.19v.3zm1.67 3.39a1 1 0 01-.67-.25 1 1 0 01-.26-.73v-3.5h.35v3.46a.77.77 0 00.17.54.65.65 0 00.5.19.81.81 0 00.57-.2l.15.25a.84.84 0 01-.34.2 1.35 1.35 0 01-.42.05zm3.47.01a2 2 0 01-1-.24 1.74 1.74 0 01-.67-.66 1.9 1.9 0 01-.24-1 2 2 0 01.23-1 1.68 1.68 0 01.63-.66 1.82 1.82 0 011.79 0 1.64 1.64 0 01.62.65 2 2 0 01.23 1 .45.45 0 000 .05h-3.23v-.27h3l-.14.13a1.52 1.52 0 00-.18-.77 1.4 1.4 0 00-.5-.53 1.47 1.47 0 00-1.46 0 1.35 1.35 0 00-.5.53 1.62 1.62 0 00-.18.78v.06a1.57 1.57 0 00.2.8 1.41 1.41 0 00.55.54 1.63 1.63 0 00.8.19 1.68 1.68 0 00.66-.13 1.29 1.29 0 00.52-.39l.2.23a1.5 1.5 0 01-.6.45 2 2 0 01-.73.24zm2.74-1.76v-.32h1.8v.32zM26.72 308.92v-.3h2.18v.3zm1.67 3.39a1 1 0 01-.74-.27 1 1 0 01-.26-.73v-3.5h.35v3.46a.77.77 0 00.18.54.65.65 0 00.5.19.81.81 0 00.57-.2l.15.25a.85.85 0 01-.34.2 1.36 1.36 0 01-.41.06zm3.56 0a1.79 1.79 0 01-.81-.17 1.19 1.19 0 01-.53-.52 1.81 1.81 0 01-.19-.86v-2.14h.35v2.12a1.29 1.29 0 00.32.94 1.18 1.18 0 00.91.32 1.39 1.39 0 00.71-.18 1.17 1.17 0 00.46-.5 1.66 1.66 0 00.16-.76v-2h.35v3.67h-.34v-1 .12a1.37 1.37 0 01-.54.68 1.57 1.57 0 01-.85.28zm5.05 0a2 2 0 01-1-.24 1.74 1.74 0 01-.67-.66 1.9 1.9 0 01-.24-1 2 2 0 01.23-1 1.69 1.69 0 01.63-.66 1.82 1.82 0 011.79 0 1.65 1.65 0 01.62.65 2 2 0 01.23 1 .3.3 0 000 .05h-3.23v-.27h3l-.14.13a1.53 1.53 0 00-.18-.77 1.38 1.38 0 00-.5-.53 1.39 1.39 0 00-2 .53 1.63 1.63 0 00-.18.78v.06a1.58 1.58 0 00.2.8 1.41 1.41 0 00.55.54 1.63 1.63 0 00.8.19 1.68 1.68 0 00.66-.13 1.29 1.29 0 00.52-.39l.2.23a1.5 1.5 0 01-.6.45 2 2 0 01-.69.24zm3-.03v-3.67h.34v1-.11a1.3 1.3 0 01.52-.68 1.63 1.63 0 01.91-.24v.34h-.08a1.22 1.22 0 00-1 .38 1.54 1.54 0 00-.34 1.06v1.91zm6.29.03a1.77 1.77 0 01-.71-.13 1 1 0 01-.46-.37 1 1 0 01-.16-.55 1 1 0 01.13-.51 1 1 0 01.43-.37 1.89 1.89 0 01.81-.14h1.35v.27h-1.33a1.17 1.17 0 00-.79.21.69.69 0 00-.23.53.68.68 0 00.27.56 1.18 1.18 0 00.75.21 1.39 1.39 0 00.78-.21 1.25 1.25 0 00.47-.61l.1.24a1.27 1.27 0 01-.5.64 1.6 1.6 0 01-.91.23zm1.32 0v-2.34a1 1 0 00-.28-.78 1.13 1.13 0 00-.81-.27 1.88 1.88 0 00-.7.13 1.9 1.9 0 00-.56.33l-.17-.25a1.92 1.92 0 01.66-.38 2.38 2.38 0 01.81-.14 1.47 1.47 0 011 .34 1.35 1.35 0 01.36 1v2.33zm3.54 0a1.82 1.82 0 01-.92-.24 1.71 1.71 0 01-.65-.66 2.09 2.09 0 010-1.94 1.72 1.72 0 01.65-.65 1.82 1.82 0 01.92-.24 1.7 1.7 0 01.87.23 1.62 1.62 0 01.62.64 2 2 0 01.23 1 2.08 2.08 0 01-.22 1 1.59 1.59 0 01-.61.65 1.72 1.72 0 01-.89.21zm0-.32a1.48 1.48 0 00.75-.19 1.38 1.38 0 00.53-.54 1.79 1.79 0 000-1.62 1.39 1.39 0 00-.53-.54 1.57 1.57 0 00-1.51 0 1.4 1.4 0 00-.53.54 1.8 1.8 0 000 1.62 1.39 1.39 0 00.53.54 1.48 1.48 0 00.78.2zm1.48.29v-1.2l.06-.64-.07-.64v-2.73H53v5.21zm2.37-4.56a.28.28 0 01-.2-.08.27.27 0 01-.08-.2.29.29 0 01.29-.29.28.28 0 01.21.08.27.27 0 01.08.2.29.29 0 01-.08.2.27.27 0 01-.22.09zm-.18 4.56v-3.67h.35v3.67zm2.18 1.37v-5h.34v1.2l-.06.64.07.64v2.55zm1.84-1.33a1.7 1.7 0 01-.87-.23 1.61 1.61 0 01-.62-.64 2.29 2.29 0 010-2 1.61 1.61 0 01.62-.64 1.7 1.7 0 01.87-.23 1.84 1.84 0 01.93.24 1.69 1.69 0 01.64.66 2.12 2.12 0 010 1.94 1.69 1.69 0 01-.64.66 1.84 1.84 0 01-.93.23zm0-.32a1.49 1.49 0 00.76-.19 1.37 1.37 0 00.53-.54 1.79 1.79 0 000-1.62 1.38 1.38 0 00-.53-.54 1.49 1.49 0 00-.76-.19 1.47 1.47 0 00-.75.19 1.39 1.39 0 00-.53.54 1.79 1.79 0 000 1.62 1.38 1.38 0 00.53.54 1.47 1.47 0 00.73.19zm3.42-4.28a.28.28 0 01-.2-.08.27.27 0 01-.08-.2.29.29 0 01.29-.29.28.28 0 01.21.08.27.27 0 01.08.2.29.29 0 01-.08.2.27.27 0 01-.22.09zm-.18 4.56v-3.67h.35v3.67zm3.11.03a2.65 2.65 0 01-.85-.13 1.66 1.66 0 01-.61-.34l.16-.28a1.81 1.81 0 00.56.31 2.16 2.16 0 00.76.13 1.41 1.41 0 00.83-.19.6.6 0 00.25-.5.48.48 0 00-.13-.36.86.86 0 00-.35-.2 3.66 3.66 0 00-.48-.12l-.52-.1a2.1 2.1 0 01-.48-.16.89.89 0 01-.35-.29.86.86 0 01-.13-.5.88.88 0 01.15-.51 1.06 1.06 0 01.46-.36 1.9 1.9 0 01.77-.14 2.53 2.53 0 01.69.1 1.74 1.74 0 01.56.26l-.16.28a1.5 1.5 0 00-.52-.25 2.22 2.22 0 00-.58-.08 1.26 1.26 0 00-.78.2.61.61 0 00-.25.49.51.51 0 00.13.37.83.83 0 00.35.21 3.25 3.25 0 00.48.12l.52.1a2.2 2.2 0 01.48.16.87.87 0 01.35.28.8.8 0 01.13.48.86.86 0 01-.17.53 1.06 1.06 0 01-.49.35 2.16 2.16 0 01-.78.14zm4.23 0a1.88 1.88 0 01-1-.24 1.75 1.75 0 01-.66-.66 2.05 2.05 0 010-1.93 1.73 1.73 0 01.66-.66 1.91 1.91 0 011-.24 1.88 1.88 0 01.8.17 1.41 1.41 0 01.58.51l-.26.19a1.19 1.19 0 00-.49-.42 1.6 1.6 0 00-1.41.06 1.38 1.38 0 00-.53.54 1.81 1.81 0 000 1.62 1.38 1.38 0 00.53.54 1.6 1.6 0 001.41.06 1.2 1.2 0 00.49-.41l.26.19a1.41 1.41 0 01-.58.51 1.88 1.88 0 01-.8.17zm2.9-4.59a.28.28 0 01-.2-.08.27.27 0 01-.08-.2.29.29 0 01.29-.29.28.28 0 01.21.08.27.27 0 01.08.2.29.29 0 01-.08.2.27.27 0 01-.22.09zm-.18 4.56v-3.67h.35v3.67zm3.97-3.69a1.68 1.68 0 01.78.17 1.21 1.21 0 01.52.52 1.81 1.81 0 01.19.86v2.14h-.35v-2.12a1.3 1.3 0 00-.31-.94 1.16 1.16 0 00-.87-.32 1.5 1.5 0 00-.74.18 1.18 1.18 0 00-.48.49 1.63 1.63 0 00-.16.76v2h-.35v-3.67h.34v1-.11a1.39 1.39 0 01.55-.68 1.71 1.71 0 01.88-.28zm4.71 3.56a1.88 1.88 0 01-.93-.23 1.72 1.72 0 01-.65-.63 1.89 1.89 0 010-1.85 1.71 1.71 0 01.65-.62 1.89 1.89 0 01.93-.23 1.84 1.84 0 01.89.21 1.59 1.59 0 01.63.61 2.07 2.07 0 010 1.9 1.61 1.61 0 01-.63.62 1.82 1.82 0 01-.89.22zm.1 1.53a2.9 2.9 0 01-.95-.15 1.92 1.92 0 01-.73-.43l.19-.27a1.92 1.92 0 00.66.39 2.37 2.37 0 00.82.14 1.24 1.24 0 001.43-1.43v-1l.07-.55-.06-.55v-1.2h.34v3.28a1.81 1.81 0 01-.45 1.35 1.83 1.83 0 01-1.33.42zm-.07-1.84a1.58 1.58 0 00.78-.19 1.36 1.36 0 00.53-.52 1.61 1.61 0 000-1.53 1.34 1.34 0 00-.53-.51 1.72 1.72 0 00-1.54 0 1.34 1.34 0 00-.53.51 1.61 1.61 0 000 1.53 1.35 1.35 0 00.53.52 1.57 1.57 0 00.75.18zm7.31.47a2 2 0 01-1-.24 1.74 1.74 0 01-.67-.66 1.9 1.9 0 01-.24-1 2 2 0 01.23-1 1.69 1.69 0 01.63-.66 1.82 1.82 0 011.79 0 1.65 1.65 0 01.62.65 2 2 0 01.23 1 .3.3 0 000 .05h-3.21v-.27h3l-.14.13a1.53 1.53 0 00-.18-.77 1.38 1.38 0 00-.5-.53 1.39 1.39 0 00-2 .53 1.63 1.63 0 00-.18.78v.06a1.58 1.58 0 00.2.8 1.41 1.41 0 00.55.54 1.63 1.63 0 00.8.19 1.68 1.68 0 00.66-.13 1.29 1.29 0 00.52-.39l.2.23a1.5 1.5 0 01-.6.45 2 2 0 01-.71.24zm3.05-.03v-5.21h.35v5.21zm2.36-4.56a.28.28 0 01-.2-.08.27.27 0 01-.08-.2.28.28 0 01.08-.2.28.28 0 01.2-.08.28.28 0 01.21.08.27.27 0 01.08.2.28.28 0 01-.08.2.28.28 0 01-.21.08zm-.17 4.56v-3.67h.35v3.67zm1.6-3.36v-.3h2.19v.3zm1.67 3.39a1 1 0 01-.74-.27 1 1 0 01-.26-.73v-3.5H96v3.46a.77.77 0 00.17.54.65.65 0 00.5.19.81.81 0 00.57-.2l.15.25a.84.84 0 01-.34.2 1.35 1.35 0 01-.41.06zm1.78.98l.27-1.19v.2a.3.3 0 01-.22-.08.28.28 0 01-.09-.21.28.28 0 01.09-.21.29.29 0 01.21-.08.28.28 0 01.21.09.3.3 0 01.08.19.66.66 0 010 .1.71.71 0 010 .1v.13l-.27 1zm5.16-.98a2.65 2.65 0 01-.85-.13 1.67 1.67 0 01-.61-.34l.16-.28a1.79 1.79 0 00.56.31 2.15 2.15 0 00.76.13 1.4 1.4 0 00.83-.19.6.6 0 00.25-.5.48.48 0 00-.13-.36.86.86 0 00-.35-.2 3.66 3.66 0 00-.48-.12l-.52-.1a2.09 2.09 0 01-.48-.16.88.88 0 01-.35-.29.85.85 0 01-.13-.5.87.87 0 01.15-.51 1.06 1.06 0 01.46-.36 1.89 1.89 0 01.77-.14 2.53 2.53 0 01.69.1 1.73 1.73 0 01.56.26l-.16.28a1.49 1.49 0 00-.52-.25 2.22 2.22 0 00-.58-.08 1.26 1.26 0 00-.78.2.61.61 0 00-.25.49.51.51 0 00.13.37.82.82 0 00.35.21 3.24 3.24 0 00.48.12l.52.1a2.18 2.18 0 01.48.16.87.87 0 01.35.28.81.81 0 01.13.48.87.87 0 01-.17.53 1.06 1.06 0 01-.49.35 2.16 2.16 0 01-.78.14zm4.26 0a2 2 0 01-1-.24 1.74 1.74 0 01-.67-.66 1.9 1.9 0 01-.24-1 2 2 0 01.23-1 1.68 1.68 0 01.63-.66 1.82 1.82 0 011.79 0 1.64 1.64 0 01.62.65 2 2 0 01.23 1 .45.45 0 000 .05h-3.23v-.27h3l-.14.13a1.52 1.52 0 00-.18-.77 1.4 1.4 0 00-.5-.53 1.47 1.47 0 00-1.46 0 1.35 1.35 0 00-.5.53 1.62 1.62 0 00-.18.78v.06a1.57 1.57 0 00.2.8 1.41 1.41 0 00.55.54 1.63 1.63 0 00.8.19 1.68 1.68 0 00.66-.13 1.29 1.29 0 00.52-.39l.2.23a1.5 1.5 0 01-.6.45 2 2 0 01-.73.24zm4.46 0a1.83 1.83 0 01-.92-.24 1.72 1.72 0 01-.65-.66 2.1 2.1 0 010-1.94 1.72 1.72 0 01.65-.65 1.83 1.83 0 01.92-.24 1.71 1.71 0 01.87.23 1.62 1.62 0 01.62.64 2 2 0 01.23 1 2.08 2.08 0 01-.22 1 1.58 1.58 0 01-.61.65 1.72 1.72 0 01-.89.21zm0-.32a1.47 1.47 0 00.75-.19 1.39 1.39 0 00.53-.54 1.8 1.8 0 000-1.62 1.4 1.4 0 00-.53-.54 1.56 1.56 0 00-1.51 0 1.39 1.39 0 00-.53.54 1.79 1.79 0 000 1.62 1.38 1.38 0 00.53.54 1.47 1.47 0 00.78.2zm1.48.29v-1.2l.06-.64-.07-.64v-2.73h.35v5.21zm5.76.03a1.83 1.83 0 01-.92-.24 1.72 1.72 0 01-.65-.66 2.1 2.1 0 010-1.94 1.72 1.72 0 01.65-.65 1.83 1.83 0 01.92-.24 1.71 1.71 0 01.87.23 1.62 1.62 0 01.62.64 2 2 0 01.23 1 2.08 2.08 0 01-.22 1 1.58 1.58 0 01-.61.65 1.72 1.72 0 01-.89.21zm0-.32a1.47 1.47 0 00.75-.19 1.39 1.39 0 00.53-.54 1.8 1.8 0 000-1.62 1.4 1.4 0 00-.53-.54 1.56 1.56 0 00-1.51 0 1.39 1.39 0 00-.53.54 1.79 1.79 0 000 1.62 1.38 1.38 0 00.53.54 1.47 1.47 0 00.78.2zm1.48.29v-1.2l.06-.64-.07-.64v-2.73h.35v5.21zm2.37-4.56a.28.28 0 01-.2-.08.27.27 0 01-.08-.2.28.28 0 01.08-.2.28.28 0 01.2-.08.28.28 0 01.21.08.27.27 0 01.08.2.28.28 0 01-.08.2.28.28 0 01-.21.08zm-.17 4.56v-3.67h.35v3.67zm3.16.03a1.76 1.76 0 01-.7-.13 1 1 0 01-.46-.37 1 1 0 01-.16-.55 1 1 0 01.13-.51.94.94 0 01.43-.37 1.9 1.9 0 01.81-.14h1.35v.27h-1.34a1.17 1.17 0 00-.8.21.73.73 0 000 1.09 1.18 1.18 0 00.75.21 1.39 1.39 0 00.78-.21 1.25 1.25 0 00.47-.61l.1.24a1.27 1.27 0 01-.5.64 1.6 1.6 0 01-.86.23zm1.32 0v-2.34a1 1 0 00-.28-.78 1.12 1.12 0 00-.81-.27 1.88 1.88 0 00-.71.13 1.91 1.91 0 00-.56.33l-.18-.25a1.94 1.94 0 01.66-.38 2.38 2.38 0 01.81-.14 1.46 1.46 0 011 .34 1.35 1.35 0 01.36 1v2.33zm6.68-3.72a1.61 1.61 0 01.77.17 1.2 1.2 0 01.51.52 1.85 1.85 0 01.18.86v2.14h-.35v-2.12a1.34 1.34 0 00-.3-.94 1.1 1.1 0 00-.84-.32 1.4 1.4 0 00-.71.18 1.17 1.17 0 00-.46.49 1.65 1.65 0 00-.16.76v2h-.35v-2.12a1.34 1.34 0 00-.3-.94 1.1 1.1 0 00-.84-.32 1.4 1.4 0 00-.71.18 1.17 1.17 0 00-.46.49 1.65 1.65 0 00-.16.76v2h-.35v-3.67h.34v1-.11a1.38 1.38 0 01.54-.68 1.62 1.62 0 01.91-.25 1.5 1.5 0 01.92.28 1.25 1.25 0 01.47.83h-.12a1.44 1.44 0 01.55-.76 1.65 1.65 0 01.92-.43zm7.2 0a1.67 1.67 0 01.78.17 1.21 1.21 0 01.52.52 1.81 1.81 0 01.19.86v2.14h-.35v-2.12a1.3 1.3 0 00-.31-.94 1.16 1.16 0 00-.87-.32 1.5 1.5 0 00-.74.18 1.17 1.17 0 00-.48.49 1.62 1.62 0 00-.17.76v2h-.35v-3.67h.34v1-.11a1.39 1.39 0 01.55-.68 1.71 1.71 0 01.89-.28zm4.71 3.72a1.82 1.82 0 01-.94-.24 1.77 1.77 0 01-.65-.66 2 2 0 010-1.93 1.77 1.77 0 01.65-.66 1.82 1.82 0 01.94-.24 1.84 1.84 0 01.94.24 1.74 1.74 0 01.65.66 2.07 2.07 0 010 1.93 1.74 1.74 0 01-.65.66 1.84 1.84 0 01-.94.24zm0-.32a1.49 1.49 0 00.76-.19 1.35 1.35 0 00.53-.54 1.83 1.83 0 000-1.62 1.36 1.36 0 00-.53-.54 1.57 1.57 0 00-1.51 0 1.4 1.4 0 00-.53.54 1.8 1.8 0 000 1.62 1.39 1.39 0 00.53.54 1.48 1.48 0 00.75.2zm5.05-3.4a1.67 1.67 0 01.78.17 1.21 1.21 0 01.52.52 1.81 1.81 0 01.19.86v2.14h-.35v-2.12a1.3 1.3 0 00-.31-.94 1.16 1.16 0 00-.87-.32 1.5 1.5 0 00-.74.18 1.17 1.17 0 00-.48.49 1.62 1.62 0 00-.17.76v2h-.35v-3.67h.34v1-.11a1.39 1.39 0 01.55-.68 1.71 1.71 0 01.89-.28zm4.77 3.72a1.79 1.79 0 01-.81-.17 1.2 1.2 0 01-.53-.52 1.81 1.81 0 01-.19-.86v-2.14h.39v2.12a1.3 1.3 0 00.32.94 1.19 1.19 0 00.89.32 1.4 1.4 0 00.71-.18 1.17 1.17 0 00.46-.5 1.66 1.66 0 00.16-.76v-2h.35v3.67h-.34v-1 .12a1.37 1.37 0 01-.54.68 1.57 1.57 0 01-.87.28zm8.11-3.72a1.62 1.62 0 01.77.17 1.2 1.2 0 01.51.52 1.84 1.84 0 01.18.86v2.14h-.35v-2.12a1.33 1.33 0 00-.3-.94 1.1 1.1 0 00-.84-.32 1.39 1.39 0 00-.71.18 1.17 1.17 0 00-.46.49 1.65 1.65 0 00-.16.76v2h-.35v-2.12a1.33 1.33 0 00-.3-.94 1.1 1.1 0 00-.84-.32 1.4 1.4 0 00-.72.18 1.18 1.18 0 00-.46.49 1.65 1.65 0 00-.16.76v2h-.35v-3.67h.29v1-.11a1.37 1.37 0 01.54-.68 1.62 1.62 0 01.91-.25 1.5 1.5 0 01.92.28 1.25 1.25 0 01.47.83h-.12a1.45 1.45 0 01.55-.76 1.65 1.65 0 01.98-.43zm2.95 1.97v-.32h1.8v.32zM51.59 322.64a1.62 1.62 0 01.77.17 1.2 1.2 0 01.51.52 1.84 1.84 0 01.18.86v2.14h-.35v-2.12a1.33 1.33 0 00-.3-.94 1.1 1.1 0 00-.84-.32 1.39 1.39 0 00-.71.18 1.17 1.17 0 00-.46.49 1.65 1.65 0 00-.16.76v2h-.35v-2.12a1.33 1.33 0 00-.3-.94 1.1 1.1 0 00-.84-.32 1.4 1.4 0 00-.72.18 1.18 1.18 0 00-.46.49 1.65 1.65 0 00-.16.76v2H47v-3.67h.34v1-.11a1.37 1.37 0 01.54-.68 1.62 1.62 0 01.91-.25 1.5 1.5 0 01.92.28 1.25 1.25 0 01.47.83h-.12a1.45 1.45 0 01.55-.76 1.65 1.65 0 01.98-.43zm3.1 5.09a1.33 1.33 0 01-.47-.08 1 1 0 01-.37-.25l.18-.27a.92.92 0 00.3.22 1 1 0 00.38.07.74.74 0 00.45-.14 1.28 1.28 0 00.36-.51l.25-.56v-.06l1.55-3.47h.36l-1.88 4.17a2 2 0 01-.32.53 1 1 0 01-.38.28 1.17 1.17 0 01-.41.07zm1.06-1.3l-1.7-3.76h.37l1.58 3.45zm7.02-3.79a1.68 1.68 0 01.78.17 1.21 1.21 0 01.52.52 1.81 1.81 0 01.19.86v2.14h-.36v-2.12a1.3 1.3 0 00-.31-.94 1.16 1.16 0 00-.87-.32 1.5 1.5 0 00-.74.18 1.18 1.18 0 00-.48.49 1.63 1.63 0 00-.16.76v2H61v-3.67h.34v1-.11a1.39 1.39 0 01.55-.68 1.71 1.71 0 01.88-.28zm3.45-.86a.28.28 0 01-.2-.08.27.27 0 01-.08-.2.29.29 0 01.29-.29.28.28 0 01.21.08.27.27 0 01.08.2.29.29 0 01-.08.2.27.27 0 01-.22.09zm-.22 4.56v-3.67h.35v3.67zm2.23 0v-5.21h.35v2.73l-.07.64.06.64v1.2zm1.84 0a1.7 1.7 0 01-.87-.23 1.6 1.6 0 01-.62-.65 2.29 2.29 0 010-2 1.61 1.61 0 01.62-.64 1.7 1.7 0 01.87-.23 1.84 1.84 0 01.93.24 1.69 1.69 0 01.64.65 2.12 2.12 0 010 1.94 1.69 1.69 0 01-.64.66 1.84 1.84 0 01-.94.29zm0-.32a1.49 1.49 0 00.76-.19 1.37 1.37 0 00.53-.54 1.79 1.79 0 000-1.62 1.38 1.38 0 00-.53-.54A1.49 1.49 0 0070 323a1.47 1.47 0 00-.75.19 1.39 1.39 0 00-.53.54 1.79 1.79 0 000 1.62 1.38 1.38 0 00.53.54 1.47 1.47 0 00.75.16zm5.03-3.38a1.67 1.67 0 01.78.17 1.21 1.21 0 01.52.52 1.81 1.81 0 01.19.86v2.14h-.35v-2.12a1.3 1.3 0 00-.31-.94A1.16 1.16 0 0075 323a1.5 1.5 0 00-.74.18 1.17 1.17 0 00-.48.49 1.62 1.62 0 00-.17.76v2h-.35v-5.21h.35v2.57l-.06-.11a1.39 1.39 0 01.55-.68 1.71 1.71 0 011-.36zm6.9 3.73a2 2 0 01-1-.24 1.74 1.74 0 01-.67-.66 1.9 1.9 0 01-.24-1 2 2 0 01.23-1 1.69 1.69 0 01.63-.66 1.82 1.82 0 011.79 0 1.65 1.65 0 01.62.65 2 2 0 01.23 1 .3.3 0 000 .05h-3.2v-.27h3l-.14.13a1.53 1.53 0 00-.18-.77 1.38 1.38 0 00-.5-.53 1.39 1.39 0 00-2 .53 1.63 1.63 0 00-.18.78v.06a1.58 1.58 0 00.2.8 1.41 1.41 0 00.55.54 1.63 1.63 0 00.8.19 1.68 1.68 0 00.66-.13 1.29 1.29 0 00.52-.39l.2.23a1.5 1.5 0 01-.6.45 2 2 0 01-.72.24zm4.55 0a1.79 1.79 0 01-.81-.17 1.19 1.19 0 01-.53-.52 1.81 1.81 0 01-.19-.86v-2.14h.35v2.12a1.29 1.29 0 00.32.94 1.18 1.18 0 00.89.32 1.39 1.39 0 00.71-.18 1.17 1.17 0 00.46-.5 1.66 1.66 0 00.16-.76v-2h.35v3.67h-.34v-1 .12a1.37 1.37 0 01-.54.68 1.57 1.57 0 01-.83.28zm3.73-4.59a.28.28 0 01-.2-.08.27.27 0 01-.08-.2.29.29 0 01.29-.29.28.28 0 01.21.08.27.27 0 01.08.2.29.29 0 01-.08.2.27.27 0 01-.22.09zm-.18 4.56v-3.67h.35v3.67zm3.11.03a2.65 2.65 0 01-.85-.13 1.67 1.67 0 01-.61-.34l.16-.28a1.79 1.79 0 00.56.31 2.15 2.15 0 00.76.13 1.4 1.4 0 00.83-.19.6.6 0 00.25-.5.48.48 0 00-.13-.36.86.86 0 00-.35-.2 3.66 3.66 0 00-.48-.12l-.52-.1a2.09 2.09 0 01-.48-.16.88.88 0 01-.35-.29.85.85 0 01-.13-.5.87.87 0 01.15-.51 1.06 1.06 0 01.46-.36 1.89 1.89 0 01.77-.14 2.53 2.53 0 01.69.1 1.73 1.73 0 01.56.26l-.16.28a1.49 1.49 0 00-.52-.25 2.22 2.22 0 00-.58-.08 1.26 1.26 0 00-.78.2.61.61 0 00-.25.49.51.51 0 00.13.37.82.82 0 00.35.21 3.24 3.24 0 00.48.12l.52.1a2.18 2.18 0 01.48.16.87.87 0 01.35.28.81.81 0 01.13.48.87.87 0 01-.17.53 1.06 1.06 0 01-.49.35 2.16 2.16 0 01-.78.14zm7.34-3.73a1.62 1.62 0 01.77.17 1.2 1.2 0 01.51.52 1.84 1.84 0 01.18.86v2.14h-.35v-2.12a1.33 1.33 0 00-.3-.94 1.1 1.1 0 00-.84-.32 1.39 1.39 0 00-.71.18 1.17 1.17 0 00-.46.49 1.65 1.65 0 00-.16.76v2h-.35v-2.12a1.33 1.33 0 00-.3-.94 1.1 1.1 0 00-.84-.32 1.4 1.4 0 00-.72.18 1.18 1.18 0 00-.46.49 1.65 1.65 0 00-.16.76v2H96v-3.67h.34v1-.11a1.37 1.37 0 01.54-.68 1.62 1.62 0 01.91-.25 1.5 1.5 0 01.92.28 1.25 1.25 0 01.47.83h-.12a1.45 1.45 0 01.55-.76 1.65 1.65 0 01.94-.43zm4.68 3.73a1.82 1.82 0 01-.94-.24 1.77 1.77 0 01-.65-.66 2 2 0 010-1.93 1.77 1.77 0 01.65-.66 1.82 1.82 0 01.94-.24 1.84 1.84 0 01.94.24 1.74 1.74 0 01.65.66 2.07 2.07 0 010 1.93 1.74 1.74 0 01-.65.66 1.84 1.84 0 01-.94.24zm0-.32a1.49 1.49 0 00.76-.19 1.35 1.35 0 00.53-.54 1.83 1.83 0 000-1.62 1.36 1.36 0 00-.53-.54 1.57 1.57 0 00-1.51 0 1.4 1.4 0 00-.53.54 1.8 1.8 0 000 1.62 1.39 1.39 0 00.53.54 1.48 1.48 0 00.75.19zm4.67.32a1.83 1.83 0 01-.92-.24 1.72 1.72 0 01-.65-.66 2.1 2.1 0 010-1.94 1.72 1.72 0 01.65-.65 1.83 1.83 0 01.92-.24 1.71 1.71 0 01.87.23 1.62 1.62 0 01.62.64 2 2 0 01.23 1 2.08 2.08 0 01-.22 1 1.58 1.58 0 01-.61.65 1.72 1.72 0 01-.89.21zm0-.32a1.47 1.47 0 00.75-.19 1.39 1.39 0 00.53-.54 1.8 1.8 0 000-1.62 1.4 1.4 0 00-.53-.54 1.56 1.56 0 00-1.51 0 1.39 1.39 0 00-.53.54 1.79 1.79 0 000 1.62 1.38 1.38 0 00.53.54 1.47 1.47 0 00.79.19zm1.48.29v-1.2l.06-.64-.07-.64v-2.73h.35v5.21zm3.75-3.34v-.3h2.19v.3zm1.67 3.39a1 1 0 01-.74-.27 1 1 0 01-.26-.73v-3.5h.35v3.46a.77.77 0 00.18.54.65.65 0 00.5.19.81.81 0 00.57-.2l.15.25a.85.85 0 01-.34.2 1.36 1.36 0 01-.41.04zm2.2-4.61a.28.28 0 01-.2-.08.27.27 0 01-.08-.2.28.28 0 01.08-.2.28.28 0 01.2-.08.28.28 0 01.21.08.27.27 0 01.08.2.28.28 0 01-.08.2.28.28 0 01-.21.08zm-.17 4.56v-3.67h.35v3.67zm4.01-3.7a1.68 1.68 0 01.78.17 1.21 1.21 0 01.52.52 1.81 1.81 0 01.19.86v2.14H124v-2.12a1.3 1.3 0 00-.31-.94 1.16 1.16 0 00-.87-.32 1.5 1.5 0 00-.74.18 1.18 1.18 0 00-.48.49 1.63 1.63 0 00-.16.76v2h-.35v-3.67h.34v1-.11a1.39 1.39 0 01.55-.68 1.71 1.71 0 01.86-.28zm4.73 3.73a1.88 1.88 0 01-1-.24 1.75 1.75 0 01-.66-.66 2.05 2.05 0 010-1.93 1.73 1.73 0 01.66-.66 1.91 1.91 0 011-.24 1.88 1.88 0 01.8.17 1.41 1.41 0 01.58.51l-.26.19a1.19 1.19 0 00-.49-.42 1.6 1.6 0 00-1.41.06 1.38 1.38 0 00-.53.54 1.81 1.81 0 000 1.62 1.38 1.38 0 00.53.54 1.6 1.6 0 001.41.06 1.2 1.2 0 00.49-.41l.26.19a1.41 1.41 0 01-.58.51 1.88 1.88 0 01-.8.17zm2.9-4.59a.28.28 0 01-.2-.08.27.27 0 01-.08-.2.29.29 0 01.29-.29.28.28 0 01.21.08.27.27 0 01.08.2.29.29 0 01-.08.2.27.27 0 01-.22.09zm-.18 4.56v-3.67h.35v3.67zm3.6.03a1.83 1.83 0 01-.92-.24 1.72 1.72 0 01-.65-.66 2.1 2.1 0 010-1.94 1.72 1.72 0 01.65-.65 1.83 1.83 0 01.92-.24 1.71 1.71 0 01.87.23 1.62 1.62 0 01.62.64 2 2 0 01.23 1 2.08 2.08 0 01-.22 1 1.58 1.58 0 01-.61.65 1.72 1.72 0 01-.89.21zm0-.32a1.47 1.47 0 00.75-.19 1.39 1.39 0 00.53-.54 1.8 1.8 0 000-1.62 1.4 1.4 0 00-.53-.54 1.56 1.56 0 00-1.51 0 1.39 1.39 0 00-.53.54 1.79 1.79 0 000 1.62 1.38 1.38 0 00.53.54 1.47 1.47 0 00.78.19zm1.48.29v-1.2l.06-.64-.07-.64v-2.73h.35v5.21zm3.63.03a1.79 1.79 0 01-.81-.17 1.2 1.2 0 01-.53-.52 1.81 1.81 0 01-.19-.86v-2.14h.35v2.12a1.3 1.3 0 00.32.94 1.19 1.19 0 00.89.32 1.4 1.4 0 00.71-.18 1.17 1.17 0 00.46-.5 1.66 1.66 0 00.16-.76v-2h.35v3.67h-.34v-1 .12a1.37 1.37 0 01-.54.68 1.57 1.57 0 01-.83.28zm5.39-3.73a1.67 1.67 0 01.78.17 1.21 1.21 0 01.52.52 1.81 1.81 0 01.19.86v2.14h-.35v-2.12a1.3 1.3 0 00-.31-.94 1.16 1.16 0 00-.87-.32 1.5 1.5 0 00-.74.18 1.17 1.17 0 00-.48.49 1.62 1.62 0 00-.17.76v2h-.35v-3.67h.34v1-.11a1.39 1.39 0 01.55-.68 1.71 1.71 0 01.89-.28zm2.68.36v-.3h2.19v.3zm1.67 3.39a1 1 0 01-.74-.27 1 1 0 01-.26-.73v-3.5h.35v3.46a.77.77 0 00.17.54.65.65 0 00.5.19.81.81 0 00.57-.2l.15.25a.84.84 0 01-.34.2 1.35 1.35 0 01-.41.04z" transform="translate(22.69 23.21)" fill="#939393"/><g clip-path="url(#clip-path-2)"><path class="cls-42" d="M63.7 365.34l-2.88 19.29v-19.29h2.88z"/><path class="cls-42" d="M65.38 365.34l-4.13 27.75h-.43v-8.46l2.88-19.29h1.68z"/><path fill="#d7a484" d="M67.06 365.34l-4.13 27.75h-1.68l4.13-27.75h1.68z"/><path fill="#d7a384" d="M68.75 365.34l-4.14 27.75h-1.68l4.13-27.75h1.69z"/><path fill="#d7a284" d="M70.43 365.34l-4.13 27.75h-1.69l4.14-27.75h1.68z"/><path fill="#d7a184" d="M72.11 365.34l-4.13 27.75H66.3l4.13-27.75h1.68z"/><path fill="#d8a084" d="M73.8 365.34l-4.14 27.75h-1.68l4.13-27.75h1.69z"/><path fill="#d89f84" d="M75.48 365.34l-4.14 27.75h-1.68l4.14-27.75h1.68z"/><path fill="#d89e84" d="M77.16 365.34l-4.13 27.75h-1.69l4.14-27.75h1.68z"/><path fill="#d89d83" d="M78.84 365.34l-4.13 27.75h-1.68l4.13-27.75h1.68z"/><path fill="#d89c83" d="M80.53 365.34l-4.14 27.75h-1.68l4.13-27.75h1.69z"/><path fill="#d89b83" d="M82.21 365.34l-4.13 27.75h-1.69l4.14-27.75h1.68z"/><path fill="#d89a83" d="M83.89 365.34l-4.13 27.75h-1.68l4.13-27.75h1.68z"/><path fill="#d89983" d="M85.58 365.34l-4.14 27.75h-1.68l4.13-27.75h1.69z"/><path fill="#d89883" d="M87.26 365.34l-4.13 27.75h-1.69l4.14-27.75h1.68z"/><path fill="#d99783" d="M88.94 365.34l-4.13 27.75h-1.68l4.13-27.75h1.68z"/><path fill="#d99683" d="M90.63 365.34l-4.14 27.75h-1.68l4.13-27.75h1.69z"/><path fill="#d99583" d="M92.31 365.34l-4.13 27.75h-1.69l4.14-27.75h1.68z"/><path fill="#d99483" d="M93.99 365.34l-4.13 27.75h-1.68l4.13-27.75h1.68z"/><path fill="#d99383" d="M95.68 365.34l-4.14 27.75h-1.68l4.13-27.75h1.69z"/><path fill="#d99283" d="M97.36 365.34l-4.13 27.75h-1.69l4.14-27.75h1.68z"/><path fill="#d99183" d="M99.04 365.34l-4.13 27.75h-1.68l4.13-27.75h1.68z"/><path fill="#d99083" d="M100.73 365.34l-4.14 27.75h-1.68l4.13-27.75h1.69z"/><path fill="#da8f83" d="M102.41 365.34l-4.13 27.75h-1.69l4.14-27.75h1.68z"/><path fill="#da8e83" d="M104.09 365.34l-4.13 27.75h-1.68l4.13-27.75h1.68z"/><path fill="#da8d82" d="M105.78 365.34l-4.14 27.75h-1.68l4.13-27.75h1.69z"/><path fill="#da8c82" d="M107.46 365.34l-4.13 27.75h-1.69l4.14-27.75h1.68z"/><path fill="#da8b82" d="M109.14 365.34l-4.13 27.75h-1.68l4.13-27.75h1.68z"/><path fill="#da8a82" d="M110.83 365.34l-4.14 27.75h-1.68l4.13-27.75h1.69z"/><path fill="#da8982" d="M112.51 365.34l-4.13 27.75h-1.69l4.14-27.75h1.68z"/><path fill="#da8882" d="M114.19 365.34l-4.13 27.75h-1.68l4.13-27.75h1.68z"/><path fill="#da8782" d="M115.88 365.34l-4.14 27.75h-1.68l4.13-27.75h1.69z"/><path fill="#db8682" d="M117.56 365.34l-4.13 27.75h-1.69l4.14-27.75h1.68z"/><path fill="#db8582" d="M119.24 365.34l-4.13 27.75h-1.68l4.13-27.75h1.68z"/><path fill="#db8482" d="M120.92 365.34l-4.13 27.75h-1.68l4.13-27.75h1.68z"/><path fill="#db8382" d="M122.61 365.34l-4.14 27.75h-1.68l4.13-27.75h1.69z"/><path fill="#db8282" d="M124.29 365.34l-4.13 27.75h-1.69l4.14-27.75h1.68z"/><path fill="#db8182" d="M125.97 365.34l-4.13 27.75h-1.68l4.13-27.75h1.68z"/><path fill="#db8082" d="M127.66 365.34l-4.13 27.75h-1.69l4.13-27.75h1.69z"/><path fill="#db7e82" d="M129.34 365.34l-4.13 27.75h-1.68l4.13-27.75h1.68z"/><path fill="#db7d82" d="M131.03 365.34l-4.14 27.75h-1.68l4.13-27.75h1.69z"/><path fill="#dc7c81" d="M132.71 365.34l-4.14 27.75h-1.68l4.14-27.75h1.68z"/><path fill="#dc7b81" d="M134.39 365.34l-4.13 27.75h-1.69l4.14-27.75h1.68z"/><path fill="#dc7a81" d="M136.07 365.34l-4.13 27.75h-1.68l4.13-27.75h1.68z"/><path fill="#dc7981" d="M137.76 365.34l-4.14 27.75h-1.68l4.13-27.75h1.69z"/><path fill="#dc7881" d="M139.44 365.34l-4.13 27.75h-1.69l4.14-27.75h1.68z"/><path fill="#dc7781" d="M141.12 365.34l-4.13 27.75h-1.68l4.13-27.75h1.68z"/><path fill="#dc7681" d="M142.81 365.34l-4.14 27.75h-1.68l4.13-27.75h1.69z"/><path fill="#dc7581" d="M144.49 365.34l-4.13 27.75h-1.69l4.14-27.75h1.68z"/><path fill="#dc7481" d="M146.17 365.34l-4.13 27.75h-1.68l4.13-27.75h1.68z"/><path fill="#dd7381" d="M147.86 365.34l-4.14 27.75h-1.68l4.13-27.75h1.69z"/><path fill="#dd7281" d="M149.54 365.34l-4.13 27.75h-1.69l4.14-27.75h1.68z"/><path fill="#dd7181" d="M151.22 365.34l-4.13 27.75h-1.68l4.13-27.75h1.68z"/><path fill="#dd7081" d="M152.91 365.34l-4.14 27.75h-1.68l4.13-27.75h1.69z"/><path fill="#dd6f81" d="M154.59 365.34l-4.13 27.75h-1.69l4.14-27.75h1.68z"/><path fill="#dd6e81" d="M156.27 365.34l-4.13 27.75h-1.68l4.13-27.75h1.68z"/><path fill="#dd6d81" d="M157.96 365.34l-4.14 27.75h-1.68l4.13-27.75h1.69z"/><path fill="#dd6c80" d="M159.64 365.34l-4.13 27.75h-1.69l4.14-27.75h1.68z"/><path fill="#dd6b80" d="M161.32 365.34l-4.13 27.75h-1.68l4.13-27.75h1.68z"/><path fill="#de6a80" d="M163.01 365.34l-4.14 27.75h-1.68l4.13-27.75h1.69z"/><path fill="#de6980" d="M164.69 365.34l-4.13 27.75h-1.69l4.14-27.75h1.68z"/><path fill="#de6880" d="M166.37 365.34l-4.13 27.75h-1.68l4.13-27.75h1.68z"/><path fill="#de6780" d="M168.06 365.34l-4.14 27.75h-1.68l4.13-27.75h1.69z"/><path fill="#de6680" d="M169.74 365.34l-4.14 27.75h-1.68l4.14-27.75h1.68z"/><path fill="#de6580" d="M171.42 365.34l-4.13 27.75h-1.69l4.14-27.75h1.68z"/><path fill="#de6480" d="M173.1 365.34l-4.13 27.75h-1.68l4.13-27.75h1.68z"/><path fill="#de6380" d="M174.79 365.34l-4.13 27.75h-1.69l4.13-27.75h1.69z"/><path fill="#df6280" d="M176.47 365.34l-4.13 27.75h-1.68l4.13-27.75h1.68z"/><path fill="#df6180" d="M178.16 365.34l-4.14 27.75h-1.68l4.13-27.75h1.69z"/><path fill="#df6080" d="M179.84 365.34l-4.13 27.75h-1.69l4.14-27.75h1.68z"/><path fill="#df5f80" d="M180.56 371.8l-3.17 21.29h-1.68l4.13-27.75h.72v6.46z"/><path fill="#df5e80" d="M180.56 383.1l-1.49 9.99h-1.68l3.17-21.29v11.3z"/><path fill="#df5d80" d="M179.07 393.09l1.49-9.99v9.99h-1.49z"/></g><path class="cls-39" d="M81.25 358.38a3.18 3.18 0 01-1.16-.21 2.75 2.75 0 01-.93-.59 2.67 2.67 0 01-.61-.89 3 3 0 010-2.25 2.65 2.65 0 01.62-.89 2.8 2.8 0 01.93-.59 3.36 3.36 0 012.38 0 2.41 2.41 0 01.93.68l-.65.62a1.91 1.91 0 00-1.46-.64 2.11 2.11 0 00-.78.14 1.8 1.8 0 00-1 1 2.16 2.16 0 000 1.55 1.81 1.81 0 00.41.61 1.83 1.83 0 00.62.4 2.11 2.11 0 00.78.14 1.89 1.89 0 001.46-.65l.65.62a2.49 2.49 0 01-.93.68 3.13 3.13 0 01-1.26.27zm5.15-.03a2.3 2.3 0 01-1.14-.28 2.06 2.06 0 01-.79-.76 2.26 2.26 0 010-2.21 2 2 0 01.79-.75 2.32 2.32 0 011.14-.27 2.36 2.36 0 011.15.27 2 2 0 01.79.75 2.29 2.29 0 010 2.21 2 2 0 01-.79.76 2.34 2.34 0 01-1.15.28zm0-.84a1.28 1.28 0 00.64-.16 1.1 1.1 0 00.44-.45 1.61 1.61 0 000-1.39 1.11 1.11 0 00-.44-.45 1.36 1.36 0 00-1.27 0 1.15 1.15 0 00-.44.45 1.57 1.57 0 000 1.39 1.14 1.14 0 00.44.45 1.25 1.25 0 00.63.17zm5.9-3.43a2 2 0 01.89.2 1.42 1.42 0 01.62.6 2.09 2.09 0 01.23 1v2.39h-1V356a1.16 1.16 0 00-.26-.83 1 1 0 00-.73-.27 1.27 1.27 0 00-.61.14 1 1 0 00-.41.42 1.5 1.5 0 00-.14.7v2.11h-1v-4.17h.93v1.12l-.16-.34a1.47 1.47 0 01.63-.61 2.07 2.07 0 011.01-.19zm2.81.86v-.78h2.77v.78zm2.12 3.41a1.48 1.48 0 01-1.06-.36 1.38 1.38 0 01-.37-1v-3.74h1v3.72a.65.65 0 00.15.46.55.55 0 00.42.16.85.85 0 00.54-.17l.27.7a1.14 1.14 0 01-.42.21 1.88 1.88 0 01-.53.02zm2.62-4.91a.62.62 0 01-.45-.17.58.58 0 010-.83.63.63 0 01.45-.17.64.64 0 01.45.16.52.52 0 01.18.4.59.59 0 01-.62.61zm-.49 4.86v-4.17h1v4.17zm5-4.22a2 2 0 01.89.2 1.42 1.42 0 01.62.6 2.09 2.09 0 01.23 1v2.39h-1V356a1.16 1.16 0 00-.26-.83 1 1 0 00-.73-.27 1.27 1.27 0 00-.61.14 1 1 0 00-.41.42 1.5 1.5 0 00-.14.7v2.11h-1v-4.17h.93v1.12l-.16-.34a1.47 1.47 0 01.63-.61 2.07 2.07 0 011.01-.19zm5.12 4.27a2.09 2.09 0 01-.93-.2 1.42 1.42 0 01-.63-.61 2.12 2.12 0 01-.23-1v-2.38h1v2.25a1.21 1.21 0 00.25.84.92.92 0 00.72.28 1.21 1.21 0 00.6-.14 1 1 0 00.4-.42 1.51 1.51 0 00.14-.7v-2.11h1v4.17h-.93v-1.12l.16.34a1.43 1.43 0 01-.62.62 1.86 1.86 0 01-.93.18zm5.89 0a2.53 2.53 0 01-1.21-.28 2 2 0 01-.8-.76 2.13 2.13 0 01-.28-1.1 2.18 2.18 0 01.28-1.11 2 2 0 01.76-.75 2.22 2.22 0 011.11-.27 2.17 2.17 0 011.08.27 1.92 1.92 0 01.75.75 2.29 2.29 0 01.27 1.14v.29h-3.47v-.65h3l-.38.2a1.21 1.21 0 00-.15-.63 1.16 1.16 0 00-.42-.43 1.32 1.32 0 00-1.25 0 1.11 1.11 0 00-.42.43 1.33 1.33 0 00-.15.65v.16a1.28 1.28 0 00.17.66 1.14 1.14 0 00.48.44 1.58 1.58 0 00.72.16 1.71 1.71 0 00.63-.11 1.33 1.33 0 00.5-.34l.52.6a1.83 1.83 0 01-.71.5 2.52 2.52 0 01-1.03.18z" transform="translate(22.69 23.21)"/><rect x="89.25" y="404.46" width="62.88" height="2.46" rx="1.03" ry="1.03" fill="#e0e6e9"/><path d="M71.07 279.05a4.06 4.06 0 01-1.22-.18 2.65 2.65 0 01-.93-.47l.35-.79a2.86 2.86 0 00.81.43 2.91 2.91 0 001 .17 2.12 2.12 0 00.69-.09.83.83 0 00.39-.25.57.57 0 00.12-.36.5.5 0 00-.18-.4 1.33 1.33 0 00-.46-.24l-.63-.17-.69-.18a2.86 2.86 0 01-.63-.27 1.36 1.36 0 01-.46-.45 1.31 1.31 0 01-.18-.72 1.48 1.48 0 01.24-.82 1.64 1.64 0 01.72-.59 3 3 0 011.23-.22 3.88 3.88 0 011 .13 2.83 2.83 0 01.84.36l-.32.79a3 3 0 00-.76-.32 2.86 2.86 0 00-.75-.11 1.92 1.92 0 00-.68.1.83.83 0 00-.38.27.61.61 0 00-.19.33.51.51 0 00.17.4 1.23 1.23 0 00.46.24l.63.17.7.18a2.9 2.9 0 01.63.27 1.3 1.3 0 01.46.45 1.33 1.33 0 01.17.71 1.47 1.47 0 01-.24.81 1.63 1.63 0 01-.73.59 3 3 0 01-1.18.23zm8.75-4.29a1.93 1.93 0 01.88.2 1.4 1.4 0 01.6.6 2.17 2.17 0 01.22 1V279h-1v-2.26a1.23 1.23 0 00-.24-.83.88.88 0 00-.69-.27 1.11 1.11 0 00-.56.14 1 1 0 00-.38.41 1.56 1.56 0 00-.14.7V279h-1v-2.26a1.22 1.22 0 00-.24-.83.88.88 0 00-.69-.27 1.11 1.11 0 00-.56.14 1 1 0 00-.38.41 1.56 1.56 0 00-.14.7V279h-1v-4.17h.93v1.11l-.16-.33a1.42 1.42 0 01.61-.62 1.94 1.94 0 01.92-.21 1.78 1.78 0 011 .29 1.39 1.39 0 01.57.87l-.38-.13a1.6 1.6 0 01.67-.75 2.06 2.06 0 011.16-.3zm4.6 4.24a2 2 0 01-.82-.16 1.26 1.26 0 01-.54-.45 1.13 1.13 0 01-.19-.64 1.21 1.21 0 01.17-.63 1.13 1.13 0 01.55-.45 2.6 2.6 0 011-.16h1.21v.65h-1.13a1 1 0 00-.67.16.52.52 0 00-.17.39.5.5 0 00.21.42 1 1 0 00.58.16 1.26 1.26 0 00.64-.16.93.93 0 00.41-.48l.16.58a1.09 1.09 0 01-.5.57 1.85 1.85 0 01-.91.2zm1.31-.05v-.84l-.05-.18v-1.48a.87.87 0 00-.26-.67 1.12 1.12 0 00-.78-.24 2.26 2.26 0 00-.69.11 1.71 1.71 0 00-.57.3l-.38-.71a2.32 2.32 0 01.8-.39 3.57 3.57 0 011-.13 2.05 2.05 0 011.4.43 1.69 1.69 0 01.49 1.34V279zm2.55.05v-4.17h.93V276l-.11-.34a1.31 1.31 0 01.59-.64 2.06 2.06 0 011-.22v.93h-.23a1.2 1.2 0 00-.88.32 1.3 1.3 0 00-.33 1v2zm3.23-3.38v-.78h2.77v.78zm2.12 3.38a1.48 1.48 0 01-1.06-.36 1.38 1.38 0 01-.37-1v-3.74h1v3.72a.65.65 0 00.15.46.55.55 0 00.42.16.85.85 0 00.54-.17l.27.7a1.15 1.15 0 01-.42.21 1.88 1.88 0 01-.53.02zm6.45.05a4.06 4.06 0 01-1.22-.18 2.65 2.65 0 01-.93-.47l.35-.79a2.86 2.86 0 00.81.43 2.91 2.91 0 001 .17 2.12 2.12 0 00.69-.09.83.83 0 00.39-.25.57.57 0 00.12-.36.5.5 0 00-.18-.4 1.33 1.33 0 00-.46-.24l-.63-.17-.69-.18a2.86 2.86 0 01-.63-.27 1.36 1.36 0 01-.46-.45 1.31 1.31 0 01-.18-.72 1.48 1.48 0 01.24-.82 1.64 1.64 0 01.72-.59 3 3 0 011.23-.22 3.88 3.88 0 011 .13 2.83 2.83 0 01.84.36l-.32.79a3 3 0 00-.76-.32 2.86 2.86 0 00-.75-.11 1.92 1.92 0 00-.68.1.83.83 0 00-.38.27.61.61 0 00-.2.33.51.51 0 00.17.4 1.23 1.23 0 00.46.24l.63.17.7.18a2.9 2.9 0 01.63.27 1.3 1.3 0 01.46.45 1.33 1.33 0 01.17.71 1.47 1.47 0 01-.24.81 1.63 1.63 0 01-.73.59 3 3 0 01-1.17.23zm5.46-.05a2.53 2.53 0 01-1.21-.28 2 2 0 01-.8-.76 2.13 2.13 0 01-.28-1.1 2.17 2.17 0 01.28-1.11 2 2 0 01.76-.75 2.22 2.22 0 011.11-.27 2.17 2.17 0 011.08.27 1.93 1.93 0 01.75.75 2.29 2.29 0 01.27 1.14v.29H104v-.65h3l-.38.2a1.21 1.21 0 00-.15-.63 1.14 1.14 0 00-.42-.43 1.21 1.21 0 00-.62-.16 1.23 1.23 0 00-.63.16 1.12 1.12 0 00-.42.43 1.34 1.34 0 00-.15.65v.16a1.28 1.28 0 00.17.66 1.14 1.14 0 00.48.44 1.57 1.57 0 00.72.16 1.72 1.72 0 00.63-.11 1.34 1.34 0 00.5-.34l.52.6a1.84 1.84 0 01-.71.5 2.52 2.52 0 01-1 .18zm4.46 0a2 2 0 01-.82-.16 1.26 1.26 0 01-.54-.45 1.12 1.12 0 01-.19-.64 1.21 1.21 0 01.17-.63 1.13 1.13 0 01.55-.45 2.6 2.6 0 011-.16h1.21v.65h-1.18a1 1 0 00-.67.16.52.52 0 00-.17.39.5.5 0 00.21.42 1 1 0 00.58.16 1.26 1.26 0 00.64-.16.93.93 0 00.41-.48l.16.58a1.09 1.09 0 01-.5.57 1.85 1.85 0 01-.86.2zm1.31-.05v-.84l-.05-.18v-1.48a.87.87 0 00-.26-.67 1.11 1.11 0 00-.78-.24 2.25 2.25 0 00-.69.11 1.7 1.7 0 00-.57.3l-.38-.71a2.32 2.32 0 01.8-.39 3.58 3.58 0 011-.13 2.05 2.05 0 011.4.43 1.69 1.69 0 01.5 1.34V279zm2.51.05v-4.17h.93V276l-.11-.34a1.32 1.32 0 01.59-.64 2.07 2.07 0 011-.22v.93H116a1.2 1.2 0 00-.88.32 1.3 1.3 0 00-.33 1v2zm5.49 0a2.4 2.4 0 01-1.16-.28 2 2 0 01-.8-.76 2.26 2.26 0 010-2.21 2 2 0 01.8-.75 2.42 2.42 0 011.16-.27 2.25 2.25 0 011.07.25 1.64 1.64 0 01.71.72l-.75.44a1.2 1.2 0 00-.46-.44 1.23 1.23 0 00-.58-.14 1.34 1.34 0 00-.65.16 1.12 1.12 0 00-.45.45 1.58 1.58 0 000 1.4 1.12 1.12 0 00.45.45 1.33 1.33 0 00.65.16 1.23 1.23 0 00.58-.14 1.2 1.2 0 00.46-.44l.75.44a1.69 1.69 0 01-.71.72 2.2 2.2 0 01-1.07.24zm5.32-4.24a2 2 0 01.89.2 1.43 1.43 0 01.62.6 2.1 2.1 0 01.23 1V279h-1v-2.26a1.16 1.16 0 00-.26-.83 1 1 0 00-.73-.27 1.28 1.28 0 00-.61.14 1 1 0 00-.41.42 1.51 1.51 0 00-.14.7v2.1h-1v-5.79h1v2.75l-.21-.34a1.47 1.47 0 01.64-.61 2.06 2.06 0 01.98-.25z" transform="translate(22.69 23.21)" fill="#6a6f82"/><path d="M39 95.25c0 1 23.64 78.82 23.64 78.82l112.76-4.76-20-74.07z" transform="translate(22.69 23.21)" fill="#e6e8ed"/><g class="cls-117"><path class="cls-118" d="M66.37 143.46c.29.58 3.18 9.44 3.18 9.44l42.73-1.16-3.62-8.28z" transform="translate(22.69 23.21)"/></g><g class="cls-117"><path class="cls-118" d="M91.47 128.07c.22.19 2.74 8.75 2.74 8.75h11.14l-2.56-8.75z" transform="translate(22.69 23.21)"/></g><g class="cls-117"><path class="cls-118" d="M106.23 128.07c.22.19 2.74 8.75 2.74 8.75h11.14l-2.56-8.75z" transform="translate(22.69 23.21)"/></g><g class="cls-117"><path class="cls-118" d="M121 128.07c.22.19 2.74 8.75 2.74 8.75h11.14l-2.56-8.75z" transform="translate(22.69 23.21)"/></g><path class="cls-39" d="M54.75 112.2a6.55 6.55 0 006.32 4.59l62.35-.67a6.57 6.57 0 006.28-8.2 6.56 6.56 0 00-6.41-4.94l-62.36.64a6.57 6.57 0 00-6.18 8.58z" transform="translate(22.69 23.21)"/><path class="cls-119" d="M86.62 142.48l-4-7.14-5.09-3.44a2.11 2.11 0 01-.91-2l.6-4.2a4.46 4.46 0 01.8-2l1.08-1.19s-5.62-6.68-4.41-7.08 7.4 7.55 8.61 7.68 2.18-.67 3.37-.13 2.33 3.73 2.33 3.73l.67 7.68 2.19 4.61zm58.46-31.96l.78 18.34a7.23 7.23 0 01-7.26 7.54 7.23 7.23 0 01-7.16-6.86l-.54-10.49z" transform="translate(22.69 23.21)"/><g clip-path="url(#clip-path-3)"><path fill="#72c6c8" d="M194.21 232.42l4.84-.88v.88h-4.84z"/><path fill="#73c7c8" d="M183.31 232.42l15.74-2.85v1.97l-4.84.88h-10.9z"/><path fill="#74c7c7" d="M172.42 232.42l26.63-4.83v1.98l-15.74 2.85h-10.89z"/><path fill="#75c8c6" d="M161.52 232.42l37.53-6.81v1.98l-26.63 4.83h-10.9z"/><path fill="#76c9c5" d="M150.62 232.42l48.43-8.79v1.98l-37.53 6.81h-10.9z"/><path fill="#77c9c5" d="M139.73 232.42l59.32-10.76v1.97l-48.43 8.79h-10.89z"/><path fill="#78cac4" d="M128.83 232.42l70.22-12.74v1.98l-59.32 10.76h-10.9z"/><path fill="#79cbc3" d="M117.93 232.42l81.12-14.72v1.98l-70.22 12.74h-10.9z"/><path fill="#7accc3" d="M116.3 232.42l-.3-1.62 83.05-15.08v1.98l-81.12 14.72h-1.63z"/><path fill="#7bccc2" d="M116 230.8l-.35-1.92 83.4-15.14v1.98L116 230.8z"/><path fill="#7ccdc1" d="M115.65 228.88l-.34-1.91 83.74-15.21v1.98l-83.4 15.14z"/><path fill="#7dcec1" d="M115.31 226.97l-.35-1.92 84.09-15.26v1.97l-83.74 15.21z"/><path fill="#7ecec0" d="M114.96 225.05l-.35-1.91 84.44-15.33v1.98l-84.09 15.26z"/><path fill="#7fcfbf" d="M114.61 223.14l-.35-1.92 84.79-15.39v1.98l-84.44 15.33z"/><path fill="#80d0bf" d="M114.26 221.22l-.34-1.91 84.98-15.43.15.85v1.1l-84.79 15.39z"/><path transform="rotate(-10.29 273.725 73.014)" fill="#81d0be" d="M90.36 186.46h86.37v1.95H90.36z"/><path transform="rotate(-10.29 273.395 71.081)" fill="#82d1bd" d="M90.01 184.54h86.37v1.95H90.01z"/><path transform="rotate(-10.29 273.06 69.203)" fill="#83d2bd" d="M89.66 182.63h86.37v1.95H89.66z"/><path transform="rotate(-10.29 272.675 67.265)" fill="#84d3bc" d="M89.32 180.71h86.37v1.95H89.32z"/><path transform="rotate(-10.29 272.34 65.388)" fill="#85d3bb" d="M88.97 178.8h86.37v1.95H88.97z"/><path transform="rotate(-10.29 272.01 63.455)" fill="#86d4bb" d="M88.62 176.88h86.37v1.95H88.62z"/><path transform="rotate(-10.29 271.625 61.517)" fill="#87d5ba" d="M88.27 174.97h86.37v1.95H88.27z"/><path transform="rotate(-10.29 271.29 59.64)" fill="#88d5b9" d="M87.93 173.05h86.37V175H87.93z"/><path transform="rotate(-10.29 270.96 57.706)" fill="#8ad6b9" d="M87.58 171.14h86.37v1.95H87.58z"/><path transform="rotate(-10.29 270.631 55.773)" fill="#8bd7b8" d="M87.23 169.22h86.37v1.95H87.23z"/><path transform="rotate(-10.29 270.24 53.89)" fill="#8cd7b7" d="M86.88 167.31h86.37v1.95H86.88z"/><path transform="rotate(-10.29 269.911 51.957)" fill="#8dd8b6" d="M86.54 165.39h86.37v1.95H86.54z"/><path transform="rotate(-10.29 269.581 50.024)" fill="#8ed9b6" d="M86.19 163.48h86.37v1.95H86.19z"/><path transform="rotate(-10.29 269.19 48.142)" fill="#8fdab5" d="M85.84 161.56h86.37v1.95H85.84z"/><path transform="rotate(-10.29 268.861 46.209)" fill="#90dab4" d="M85.49 159.65h86.37v1.95H85.49z"/><path transform="rotate(-10.29 268.531 44.276)" fill="#91dbb4" d="M85.14 157.73h86.37v1.95H85.14z"/><path transform="rotate(-10.29 268.197 42.398)" fill="#92dcb3" d="M84.8 155.82h86.37v1.95H84.8z"/><path transform="rotate(-10.29 267.811 40.46)" fill="#93dcb2" d="M84.45 153.9h86.37v1.95H84.45z"/><path transform="rotate(-10.29 267.476 38.583)" fill="#94ddb2" d="M84.1 151.99h86.37v1.95H84.1z"/><path transform="rotate(-10.29 267.147 36.65)" fill="#95deb1" d="M83.75 150.07h86.37v1.95H83.75z"/><path transform="rotate(-10.29 266.761 34.711)" fill="#96deb0" d="M83.41 148.16h86.37v1.95H83.41z"/><path transform="rotate(-10.29 266.427 32.834)" fill="#97dfb0" d="M83.06 146.24h86.37v1.95H83.06z"/><path transform="rotate(-10.29 266.097 30.9)" fill="#98e0af" d="M82.71 144.33h86.37v1.95H82.71z"/><path fill="#99e1ae" d="M105.92 175.26l-.08-.42v-1.54l84.71-15.38.35 1.92-84.98 15.42z"/><path fill="#9ae1ae" d="M105.84 171.32l84.36-15.31.35 1.91-84.71 15.38v-1.98z"/><path fill="#9be2ad" d="M105.84 169.34l84.02-15.25.34 1.92-84.36 15.31v-1.98z"/><path fill="#9ce3ac" d="M105.84 167.36l83.67-15.18.35 1.91-84.02 15.25v-1.98z"/><path fill="#9de3ac" d="M105.84 165.39l83.32-15.13.35 1.92-83.67 15.18v-1.97z"/><path fill="#9ee4ab" d="M105.84 163.41l82.97-15.06.35 1.91-83.32 15.13v-1.98z"/><path fill="#9fe5aa" d="M105.84 161.43l82.63-15 .34 1.92-82.97 15.06v-1.98z"/><path fill="#a0e5a9" d="M105.84 159.45l73.75-13.39h8.81l.07.37-82.63 15v-1.98z"/><path fill="#a1e6a9" d="M105.84 157.47l62.85-11.41h10.9l-73.75 13.39v-1.98z"/><path fill="#a2e7a8" d="M105.84 155.5l51.95-9.44h10.9l-62.85 11.41v-1.97z"/><path fill="#a3e8a7" d="M105.84 153.52l41.06-7.46h10.89l-51.95 9.44v-1.98z"/><path fill="#a4e8a7" d="M105.84 151.54l30.16-5.48h10.9l-41.06 7.46v-1.98z"/><path fill="#a5e9a6" d="M105.84 149.56l19.26-3.5H136l-30.16 5.48v-1.98z"/><path fill="#a6eaa5" d="M105.84 147.58l8.37-1.52h10.89l-19.26 3.5v-1.98z"/><path fill="#a7eaa5" d="M114.21 146.06l-8.37 1.52v-1.52h8.37z"/></g><path class="cls-119" d="M142.9 98.87l1 6.66s5.26-.5 4.88 4.5-4.33 3.77-4.33 3.77 1.91 12.2-11.17 11.2c-10.49-.76-12.77-13.71-14-24.8a7.13 7.13 0 016.83-7.93l8.49-.3a8.13 8.13 0 018.3 6.9z" transform="translate(22.69 23.21)"/><path class="cls-174" d="M128.63 89.56s10.65-5.91 17 1.14 6.57 23.17 12 26.12 15.41 3.41 17 13.17 6.12 10.22 6.12 10.22l-9.51 6.13-4.3-2 .91 4.09-5 2.27-3.4-2 .23 4.77s-4.08 5.91-6.8 0-.45-19.08-5.21-22.49-17.22-3.41-17.22-16.35c0 0 4.76-1.59 3.4-4.77s-5.21-1.59-5.21-1.59-4.53-1.59-4.08-5.45l-6.23 3.1s-4.96-17.71 10.3-16.36z" transform="translate(22.69 23.21)"/><path class="cls-119" d="M119.71 103.77s.77 8.35 1.31 10.74c.28 1.26 1.31.77 1.31.77z" transform="translate(22.69 23.21)"/><path class="cls-118" d="M131.15 113.29c0-.06.35-.14.74-.51a1.14 1.14 0 00.36-.78.86.86 0 00-.46-.82.67.67 0 00-.87.4l-.35-.09a5.61 5.61 0 01.8-1.59 5.62 5.62 0 01-.47 1.72l-.35-.09a1 1 0 011.38-.72 1.21 1.21 0 01.68 1.22 1.37 1.37 0 01-.54 1c-.51.35-.92.31-.92.26z" transform="translate(22.69 23.21)"/><ellipse class="cls-118" cx="84.15" cy="123.85" rx=".2" ry="2.01" transform="rotate(-57.57 116.628 114.809)"/><path class="cls-118" d="M80 128.07c-.08.08-.68-.41-1.49-.9s-1.52-.79-1.49-.91a2.72 2.72 0 011.7.56c.85.52 1.35 1.18 1.28 1.25zm-.61 1.46c0 .11-.74 0-1.52-.39s-1.31-.87-1.24-1 .67.23 1.42.59 1.37.69 1.34.8zm-16.22-22.41s-.24-.07-.65-.15a2.73 2.73 0 00-1.72.27 2.61 2.61 0 00-1.39 2 2.56 2.56 0 004.29 2.15 2.62 2.62 0 00.79-2.34 2.75 2.75 0 00-.81-1.54c-.31-.29-.53-.4-.51-.44a1.32 1.32 0 01.61.32 2.74 2.74 0 011 1.6 2.88 2.88 0 01-.78 2.71 2.91 2.91 0 01-5-2.46 2.88 2.88 0 011.67-2.24 2.72 2.72 0 011.88-.17 1.32 1.32 0 01.62.29z" transform="translate(22.69 23.21)"/><ellipse class="cls-118" cx="64.08" cy="113.01" rx=".2" ry="1.3" transform="rotate(-36.38 110.722 90.08)"/><ellipse class="cls-118" cx="116.44" cy="134.9" rx="24.21" ry=".2" opacity=".32"/><path class="cls-176" d="M61.95 128.07c.22.19 2.74 8.75 2.74 8.75h11.14l-2.56-8.75z" transform="translate(22.69 23.21)"/><path class="cls-174" d="M181.55 127.41a2.24 2.24 0 01-.64.11 3.94 3.94 0 01-1.82-.35 7.05 7.05 0 01-2.33-1.77 18.14 18.14 0 01-2.15-3.22 11.06 11.06 0 00-2.86-3.56 8.79 8.79 0 00-5-1.31 25.7 25.7 0 01-5.94-.44 10.94 10.94 0 01-5.33-3.52 20.11 20.11 0 01-3.31-5.48c-.8-1.91-1.39-3.81-2-5.6-1.17-3.58-2.54-6.73-4.47-8.83a9.88 9.88 0 00-8-3.87 3.77 3.77 0 01.64-.06 7.71 7.71 0 011.84.18 11.1 11.1 0 015.71 3.56 16.36 16.36 0 012.62 3.9 40.72 40.72 0 012 5c.61 1.79 1.21 3.68 2 5.56a19.87 19.87 0 003.24 5.37 10.59 10.59 0 005.13 3.4 25.79 25.79 0 005.85.45 9.09 9.09 0 015.19 1.41 11.23 11.23 0 012.92 3.69 18.43 18.43 0 002.07 3.21 7 7 0 002.23 1.78 4.08 4.08 0 001.75.42c.44 0 .66-.06.66-.03zm-31.41 27.01a4.8 4.8 0 01-1.73-.34 7.16 7.16 0 01-3.63-3.09 6.64 6.64 0 01-1-3.21 10 10 0 01.75-3.76c.47-1.26 1.07-2.53 1.52-3.89a10.12 10.12 0 00.47-2.11 6.33 6.33 0 00-.19-2.19 8.12 8.12 0 00-2.33-3.63 18.63 18.63 0 00-3.37-2.4c-2.3-1.33-4.45-2.54-5.81-4.11a7.48 7.48 0 01-2-4.33 4.85 4.85 0 01.07-1.31 1.93 1.93 0 01.13-.44 6.61 6.61 0 002 5.89c1.34 1.49 3.46 2.66 5.78 4a18.67 18.67 0 013.45 2.44 8.47 8.47 0 012.49 3.81 6.72 6.72 0 01.2 2.33 10.38 10.38 0 01-.49 2.2c-.47 1.4-1.08 2.66-1.55 3.9a9.82 9.82 0 00-.76 3.62 6.4 6.4 0 00.87 3.07 7.18 7.18 0 003.44 3.09 12.49 12.49 0 001.69.46zm-18.74-47.05s-.07.16-.28.39a3.45 3.45 0 01-1.07.75 4.23 4.23 0 01-1.91.38 3.81 3.81 0 01-3.63-2.75 4.26 4.26 0 01-.16-1.94 3.47 3.47 0 01.42-1.24c.16-.26.28-.39.3-.37a7.59 7.59 0 00-.44 1.64 3.81 3.81 0 005.3 4 7.51 7.51 0 001.47-.86z" transform="translate(22.69 23.21)"/><path d="M131.54 114.55s.33.13.31.61a1 1 0 01-.38.72 1 1 0 01-1 .06 1.05 1.05 0 01-.6-.8 1.12 1.12 0 01.18-.77c.27-.38.57-.41.58-.36s-.19.18-.33.5a.78.78 0 00.34 1.06.65.65 0 00.62 0 .73.73 0 00.3-.44c.1-.34-.06-.54-.02-.58z" transform="translate(22.69 23.21)" fill="#9a9aa0"/><ellipse class="cls-174" cx="129.76" cy="89.26" rx=".2" ry="2.05" transform="translate(20.5 26.48)"/><path class="cls-174" d="M127.73 87.24a7.09 7.09 0 012.11 4.4 17.29 17.29 0 01-1-2.21 17.3 17.3 0 01-1.11-2.19z" transform="translate(22.69 23.21)"/><g class="cls-178"><path class="cls-179" d="M173.12 186.5c.05 0 .15.27-.13.66a1.94 1.94 0 01-1.82.61c-.84-.11-1.68-.65-2.48-.58a3.38 3.38 0 00-2.41 1.59 12.79 12.79 0 00-1.44 3.78 7.64 7.64 0 01-3 4.61 4.16 4.16 0 01-1.59.6 3.12 3.12 0 01-.89 0h-.45c-.15 0-.29-.08-.43-.12a6.31 6.31 0 01-2.67-1.88c-.69-.75-1.27-1.53-1.88-2.21a4.42 4.42 0 00-1.91-1.41 2.06 2.06 0 00-1.91.43 6.62 6.62 0 00-1.55 1.94c-.22.39-.41.77-.61 1.2s-.43.86-.67 1.29a8.31 8.31 0 01-1.88 2.36 4.21 4.21 0 01-3 1 4.94 4.94 0 01-2.64-1.13 8.49 8.49 0 01-1.67-1.83c-.43-.63-.78-1.24-1.11-1.8a8.51 8.51 0 00-2.06-2.56 3.68 3.68 0 00-2.22-.69c-1.35 0-1.79.88-1.93.77s0-.26.22-.61a2.58 2.58 0 011.62-.94 4.29 4.29 0 012.92.51 9 9 0 012.65 2.73 11.92 11.92 0 002.6 3.08 3.28 3.28 0 001.74.69 2.4 2.4 0 001.69-.64 6.67 6.67 0 001.38-1.86c.2-.38.39-.77.58-1.18s.41-.89.65-1.33a8.38 8.38 0 012-2.56 4.39 4.39 0 011.71-.84 4 4 0 012 .05 6.26 6.26 0 012.87 2c.69.78 1.26 1.57 1.85 2.22 1.16 1.37 2.43 1.89 3.58 1.18a4.4 4.4 0 001.44-1.5 10.4 10.4 0 00.89-2 13.09 13.09 0 011.9-4.14 4.49 4.49 0 013.55-1.85 3.89 3.89 0 011.59.46 8.43 8.43 0 001.06.48 1.64 1.64 0 001.36-.13c.38-.26.38-.47.5-.45z" transform="translate(22.69 23.21)"/></g><g class="cls-178"><path class="cls-179" d="M168.09 177.64c-.1.14-.66-.38-1.74-.13a3.47 3.47 0 00-1.67 1 8.4 8.4 0 00-1.39 2.36c-.22.5-.46 1-.77 1.61a7 7 0 01-1.26 1.69 4.32 4.32 0 01-2.16 1.2 3.64 3.64 0 01-2.7-.56c-1.52-1-2.24-2.51-3.24-3.5a3.16 3.16 0 00-1.54-1 3.21 3.21 0 00-1.86.17 6 6 0 00-2.92 2.89c-.35.62-.65 1.36-1 2.08a7.3 7.3 0 01-1.54 2.05 3.26 3.26 0 01-2.72.81 3.59 3.59 0 01-2.17-1.38c-.91-1.17-1.36-2.27-2-3.05a3.88 3.88 0 00-2.07-1.42 4.8 4.8 0 00-2-.15c-1.13.16-1.71.58-1.8.45s.33-.75 1.62-1.21a5 5 0 012.45-.19 4.93 4.93 0 012.89 1.64c.82.91 1.39 2 2.14 2.88a1.9 1.9 0 001.17.71 1.43 1.43 0 001.2-.45 5.71 5.71 0 001.07-1.56c.33-.62.6-1.35 1-2.12a10.11 10.11 0 011.53-2.2 6.43 6.43 0 012.42-1.65 5.17 5.17 0 013-.23 5.08 5.08 0 012.5 1.56 22.25 22.25 0 011.52 1.91 6.52 6.52 0 001.32 1.4 2 2 0 002.69-.32 9.15 9.15 0 001.89-2.71 8.57 8.57 0 011.91-2.56 4 4 0 012.35-.9 2.32 2.32 0 011.52.45c.34.2.4.39.36.43z" transform="translate(22.69 23.21)"/></g><g class="cls-180"><path class="cls-179" d="M166.3 166.18c-.06.16-.7-.13-1.59.35a4.29 4.29 0 00-1.36 1.26 5.53 5.53 0 00-.59 1l-.56 1.34a11.21 11.21 0 01-.77 1.54 4.93 4.93 0 01-1.41 1.52 4.27 4.27 0 01-2.22.71 6.19 6.19 0 01-2.29-.42 11.43 11.43 0 01-2-1c-.32-.2-.63-.41-.95-.62s-.58-.4-.88-.59A6.22 6.22 0 00148 170a2.42 2.42 0 00-1.46.69 5.73 5.73 0 00-1.08 1.57 17.72 17.72 0 01-2.1 4 4.62 4.62 0 01-2 1.39 3.19 3.19 0 01-4.07-1.56c-.31-.56-.51-1.06-.72-1.49a4.39 4.39 0 00-3.36-2.4c-1.06-.16-1.69 0-1.74-.12s.51-.58 1.77-.67a5 5 0 012.25.42 5.08 5.08 0 012.32 2.07c.56.95 1 2 1.71 2.16a2.36 2.36 0 002.39-1 18.79 18.79 0 001.75-3.64 7.49 7.49 0 011.46-2.15 4.42 4.42 0 012.66-1.26 5.77 5.77 0 012.75.46 12 12 0 012.16 1.17c.33.21.64.44.94.66s.56.4.84.59a10.12 10.12 0 001.67.91 4.57 4.57 0 001.59.38 2.6 2.6 0 001.33-.34 5.55 5.55 0 001.79-2.27c.24-.45.47-.89.71-1.31a6.14 6.14 0 01.86-1.16 4.53 4.53 0 011.94-1.27 2.21 2.21 0 011.49 0c.36.17.47.3.45.35z" transform="translate(22.69 23.21)"/></g><g class="cls-180"><path class="cls-179" d="M166.23 156.76c-.1.14-.64-.33-1.63-.05a3.83 3.83 0 00-1.59.94 12.69 12.69 0 00-1.56 2.15 9.08 9.08 0 01-1.1 1.39 4.8 4.8 0 01-1.76 1.15 6.78 6.78 0 01-4.4-.12c-1.42-.43-2.75-1.19-4-1.71a6.57 6.57 0 00-3.87-.62 3.07 3.07 0 00-1.52.89 8.83 8.83 0 00-1.18 1.66c-.37.63-.71 1.28-1.19 2a7.22 7.22 0 01-1.71 1.72 4 4 0 01-2.42.78 3.77 3.77 0 01-2.3-.94 30.91 30.91 0 01-2.32-2.6 2.68 2.68 0 00-2-1 3.17 3.17 0 00-1.73.51c-.88.57-1.09 1.22-1.25 1.16s-.09-.2 0-.52a2.7 2.7 0 01.76-1.25 3.72 3.72 0 012.15-1 3.43 3.43 0 011.58.17 4.78 4.78 0 011.47.9c.87.75 1.56 1.72 2.37 2.31a2 2 0 002.55-.09 5.54 5.54 0 001.21-1.31c.35-.5.68-1.17 1.06-1.83a10.34 10.34 0 011.45-2.06 5.06 5.06 0 012.48-1.46 6.25 6.25 0 012.77 0 11.87 11.87 0 012.36.77c1.47.64 2.65 1.36 3.86 1.77a5.27 5.27 0 003.26.3 4.67 4.67 0 002.24-1.79 11.3 11.3 0 012-2.18 4.21 4.21 0 012.2-.85 2.12 2.12 0 011.45.39c.29.19.35.37.31.42z" transform="translate(22.69 23.21)"/></g><path class="cls-174" d="M103.32 152.8c.11.06-.84 1.76-1.46 4s-.69 4.23-.81 4.22a12.74 12.74 0 012.27-8.26z" transform="translate(22.69 23.21)"/><path class="cls-174" d="M104.71 160a9.72 9.72 0 01-1-8.18 28.16 28.16 0 000 4.15 28.23 28.23 0 001 4.03z" transform="translate(22.69 23.21)"/><g class="cls-181"><path class="cls-174" d="M132 128.93a5 5 0 011 0 7.86 7.86 0 012.84.75 9.7 9.7 0 013.6 2.92 10.2 10.2 0 012 5.77 13.78 13.78 0 01-1.75 7.22 17.93 17.93 0 01-2.47 3.37 22.82 22.82 0 01-3.34 2.9 47.92 47.92 0 01-8.3 4.54l-9.28 4.08-9.3 4.06a32.37 32.37 0 01-4.51 1.76 7.64 7.64 0 01-2.37.26 6 6 0 01-2.26-.6 9.77 9.77 0 01-3.36-2.91 26.54 26.54 0 01-2.22-3.53 60.39 60.39 0 01-3.11-6.78c-1.63-4.26-2.63-7.81-3.32-10.26l-.77-2.83-.19-.74a1.26 1.26 0 01-.05-.26 1.22 1.22 0 01.09.24l.23.73.84 2.81c.74 2.43 1.78 6 3.44 10.2a61.35 61.35 0 003.13 6.72 26.43 26.43 0 002.2 3.47 9.44 9.44 0 003.24 2.79 6.15 6.15 0 004.38.3 32.36 32.36 0 004.45-1.75l9.28-4.07 9.28-4.07a48 48 0 008.24-4.48 22.56 22.56 0 003.3-2.84 17.67 17.67 0 002.43-3.29 13.54 13.54 0 001.76-7 10 10 0 00-1.93-5.65 9.65 9.65 0 00-3.49-2.92A8.15 8.15 0 00133 129c-.67-.07-1 0-1-.07z" transform="translate(22.69 23.21)"/></g><g class="cls-181"><path class="cls-174" d="M134.44 207.29a3 3 0 010-.56l.16-1.6.63-5.88a194.56 194.56 0 001.25-19.43 88 88 0 00-1.91-19.33c-.54-2.43-1.09-4.37-1.51-5.7-.2-.67-.38-1.18-.49-1.53a2.94 2.94 0 01-.15-.54 2.88 2.88 0 01.23.51c.13.34.34.84.56 1.51a57.08 57.08 0 011.64 5.69 83.21 83.21 0 012 19.39 171.15 171.15 0 01-1.37 19.46c-.3 2.48-.56 4.48-.76 5.86l-.23 1.59a2.89 2.89 0 01-.05.56z" transform="translate(22.69 23.21)"/></g><g class="cls-181"><ellipse class="cls-174" cx="129.74" cy="159.62" rx="2.82" ry=".2" transform="rotate(-21.74 201.5 112.128)"/></g><path class="cls-174" d="M74.64 115.38s-.35.09-.08.69.47 1 .47 1 .64-.14.52-.46a7 7 0 00-.91-1.23z" transform="translate(22.69 23.21)"/><path class="cls-118" d="M122.52 109.52c-.09.06-.34-.16-.46-.53s0-.7.08-.7.21.26.31.58.16.59.07.65zm.19-4.04c0 .11-.39.09-.78.2s-.69.28-.77.2.15-.46.67-.6.92.1.88.2z" transform="translate(22.69 23.21)"/><path class="cls-183" d="M127.93 114.09a2.25 2.25 0 01-4.13 1.76 2.28 2.28 0 014.13-1.76z" transform="translate(22.69 23.21)" opacity=".22"/><g class="cls-184"><path class="cls-185" d="M59.23 98.61c-1.82.42-3.7.4-4.38-1.44-.51-1.37.37-2.37.74-3.67a4.51 4.51 0 00-.93-4.28c-2-2.35-7-2.62-8.25.42a1.1 1.1 0 001.51 1.28c1.05-.51 2.2-1.39 3.51-1 2 .62 1.66 2.59 1.18 3.92-.55 1.5-1 2.89-.21 4.44 1.3 2.62 5.22 3.81 7.54 1.66a.79.79 0 00-.7-1.36z" transform="translate(22.69 23.21)"/></g><path class="cls-183" d="M57.67 97.05c-1.82.42-3.7.4-4.38-1.44-.51-1.37.37-2.37.74-3.67a4.51 4.51 0 00-.93-4.28c-2-2.35-7-2.62-8.25.42a1.1 1.1 0 001.51 1.28c1.05-.51 2.2-1.39 3.51-1 2 .62 1.66 2.59 1.18 3.92-.55 1.5-1 2.89-.21 4.44 1.3 2.62 5.22 3.81 7.54 1.66a.79.79 0 00-.7-1.36z" transform="translate(22.69 23.21)"/><g class="cls-184"><path class="cls-185" d="M80 97c1.29-.6 2.18-1.9 3.11-2.95q1.64-1.84 3.27-3.68c.91-1-.77-2.34-1.67-1.32l-3.07 3.51c-.91 1-2.16 2.12-2.59 3.46-.18.56.32 1.26.95 1z" transform="translate(22.69 23.21)"/></g><path d="M78.46 95.4c1.29-.6 2.18-1.9 3.11-2.95q1.64-1.84 3.27-3.68c.91-1-.77-2.34-1.67-1.32L80.11 91c-.91 1-2.16 2.12-2.59 3.46-.18.56.32 1.26.95 1z" transform="translate(22.69 23.21)" fill="#e8947e"/><g class="cls-184"><path class="cls-185" d="M57.7 71.71a1.58 1.58 0 10-2.13.67 1.6 1.6 0 002.13-.67z" transform="translate(22.69 23.21)"/></g><path class="cls-118" d="M56.14 70.15a1.58 1.58 0 10-2.13.67 1.6 1.6 0 002.13-.67z" transform="translate(22.69 23.21)"/><g class="cls-184"><path class="cls-185" d="M68.74 74.94c-1 2.95.48 6.13 3.81 6.51A5.26 5.26 0 1072.41 71c-2.8.41-5.45 3.72-4.15 6.51a1.11 1.11 0 002-.36c.25-1.57.33-3.13 2.08-3.8a3 3 0 013.77 2.35 3.17 3.17 0 01-3 3.52c-1.9.06-3.85-2.29-3.68-4.15a.37.37 0 00-.71-.15z" transform="translate(22.69 23.21)"/></g><path class="cls-176" d="M67.18 73.38c-1 2.95.48 6.13 3.81 6.51a5.26 5.26 0 10-.13-10.42c-2.8.41-5.45 3.72-4.15 6.51a1.11 1.11 0 002-.36c.25-1.57.33-3.13 2.08-3.8a3 3 0 013.77 2.35 3.17 3.17 0 01-3 3.52c-1.9.06-3.85-2.29-3.68-4.15a.37.37 0 00-.71-.15z" transform="translate(22.69 23.21)"/><g class="cls-184"><path class="cls-185" d="M42 110.91a28.05 28.05 0 00-5.52-6c-1-.71-2.66.31-1.8 1.5a28.08 28.08 0 006.08 5.59c.69.51 1.89-.23 1.27-1.06z" transform="translate(22.69 23.21)"/></g><path d="M40.48 109.35a28.05 28.05 0 00-5.52-6c-1-.71-2.66.31-1.8 1.5a28.08 28.08 0 006.05 5.58c.69.51 1.89-.23 1.27-1.06z" transform="translate(22.69 23.21)" fill="#dbea83"/><g class="cls-184"><path class="cls-185" d="M70.11 60.24a28.14 28.14 0 002.24-7.87c.09-1.21-1.65-2.12-2.22-.76a28.18 28.18 0 00-1.58 8.09c-.07.86 1.18 1.49 1.56.53z" transform="translate(22.69 23.21)"/></g><path class="cls-174" d="M68.55 58.69a28.13 28.13 0 002.24-7.87c.09-1.21-1.65-2.12-2.22-.76A28.19 28.19 0 0067 58.15c-.07.86 1.18 1.49 1.56.53z" transform="translate(22.69 23.21)"/><g class="cls-184"><path class="cls-185" d="M44.75 129.49c1.5 2.1 3.1 5.06 5.32 6.49 2.7 1.75 3.4-1.71 3.9-3.61s2.31-5.7-.45-6.55c-1.23-.38-2.7.33-3.85.67l-5 1.48a1.36 1.36 0 00.82 2.6l3.71-1.23c.69-.23 3.15-1.45 3.83-1l-.61-.72c.41.92-.49 3-.71 3.91-.15.63-.36 1.27-.46 1.91-.15 1-.1.51-.74-.06a56.38 56.38 0 00-5.15-4.38c-.33-.24-.9.1-.61.51z" transform="translate(22.69 23.21)"/></g><path class="cls-188" d="M43.19 127.93c1.5 2.1 3.1 5.06 5.32 6.49 2.7 1.75 3.4-1.71 3.9-3.61s2.31-5.7-.45-6.55c-1.23-.38-2.7.33-3.85.67l-5 1.48a1.36 1.36 0 00.82 2.6l3.71-1.23c.69-.23 3.15-1.45 3.83-1l-.61-.72c.41.92-.49 3-.71 3.91-.15.63-.36 1.27-.46 1.91-.15 1-.1.51-.74-.06a56.38 56.38 0 00-5.17-4.42c-.33-.24-.9.1-.61.51z" transform="translate(22.69 23.21)"/><g clip-path="url(#clip-path-4)"><g opacity=".42"><g class="cls-184"><path class="cls-185" d="M-14.56 197c-7.78 22.25 3.65 46.3 28.73 49.15 23.41 2.66 46-18.12 44.23-41.89-1.64-22-23.32-40-45.19-36.79C-8 170.55-28 195.53-18.09 216.62c3.11 6.64 14.13 4.07 15.2-2.7C-1 202-.42 190.28 12.78 185.22c12.33-4.73 26.09 5.27 28.48 17.72 2.54 13.23-9.69 26.13-22.68 26.54-14.36.45-29-17.31-27.75-31.32a2.76 2.76 0 00-5.39-1.16z" transform="translate(22.69 23.21)"/></g><path class="cls-174" d="M-16.56 195c-7.78 22.25 3.65 46.3 28.73 49.15 23.41 2.66 46-18.12 44.23-41.89-1.64-22-23.32-40-45.19-36.79-21.21 3.08-41.21 28.06-31.3 49.15 3.11 6.64 14.13 4.07 15.2-2.7C-3 200-2.42 188.28 10.78 183.22c12.33-4.73 26.09 5.27 28.48 17.72 2.54 13.23-9.69 26.13-22.68 26.54-14.36.45-29-17.31-27.75-31.32a2.76 2.76 0 00-5.39-1.16z" transform="translate(22.69 23.21)"/></g><g opacity=".47"><g class="cls-184"><path class="cls-185" d="M207.69 308.61c-12 2.79-24.34 2.64-28.87-9.46-3.37-9 2.45-15.57 4.89-24.13a29.71 29.71 0 00-6.14-28.16c-13.45-15.48-45.93-17.26-54.29 2.74-2.09 5 4.2 11.25 9.93 8.46 6.92-3.36 14.47-9.15 23.1-6.43 13 4.08 11 17 7.75 25.79-3.63 9.9-6.41 19-1.37 29.22 8.53 17.26 34.37 25.05 49.6 10.94 3.36-3.12 1.49-10.38-4.6-9z" transform="translate(22.69 23.21)"/></g><path class="cls-183" d="M205.69 306.61c-12 2.79-24.34 2.64-28.87-9.46-3.37-9 2.45-15.57 4.89-24.13a29.71 29.71 0 00-6.14-28.16c-13.45-15.48-45.93-17.26-54.29 2.74-2.09 5 4.2 11.25 9.93 8.46 6.92-3.36 14.47-9.15 23.1-6.43 13 4.08 11 17 7.75 25.79-3.63 9.9-6.41 19-1.37 29.22 8.53 17.26 34.37 25.05 49.6 10.94 3.36-3.12 1.49-10.38-4.6-9z" transform="translate(22.69 23.21)"/></g><g opacity=".41"><g class="cls-184"><path class="cls-185" d="M27.17 43.07c10-4.63 16.85-14.71 24-22.79q12.69-14.2 25.3-28.44c7-8-5.92-18.09-12.89-10.17Q51.67-4.82 39.88 8.8c-7.06 8.11-16.69 16.36-20 26.78-1.38 4.33 2.44 9.75 7.31 7.5z" transform="translate(22.69 23.21)"/></g><path class="cls-176" d="M25.17 41.07c10-4.63 16.85-14.71 24-22.79q12.69-14.2 25.3-28.44c7-8-5.92-18.09-12.89-10.17Q49.67-6.82 37.88 6.8c-7.06 8.11-16.69 16.36-20 26.78-1.38 4.33 2.44 9.75 7.31 7.5z" transform="translate(22.69 23.21)"/></g><g opacity=".37"><g class="cls-184"><path class="cls-185" d="M132.51 50.08c11.61 16.29 24 39.22 41.19 50.33 20.9 13.53 26.33-13.23 30.24-27.94 3.67-13.82 17.88-44.18-3.48-50.8-9.52-2.95-20.9 2.53-29.81 5.18L132 38.36c-13 3.87-6.56 24.4 6.33 20.13L167 49c5.36-1.77 24.37-11.26 29.66-7.54L192 35.84c3.17 7.15-3.77 23.12-5.49 30.3C185.35 71 183.7 76 183 80.91c-1.19 8-.8 4-5.7-.47-13.2-12-25.45-23.93-40-34.28-2.59-1.84-7 .78-4.72 3.92z" transform="translate(22.69 23.21)"/></g><path class="cls-188" d="M130.51 48.08c11.61 16.29 24 39.22 41.19 50.33 20.9 13.53 26.33-13.23 30.24-27.94 3.67-13.82 17.88-44.18-3.48-50.8-9.52-2.95-20.9 2.53-29.81 5.18L130 36.36c-13 3.87-6.56 24.4 6.33 20.13L165 47c5.36-1.77 24.37-11.26 29.66-7.54L190 33.84c3.17 7.15-3.77 23.12-5.49 30.3C183.35 69 181.7 74 181 78.91c-1.19 8-.8 4-5.7-.47-13.2-12-25.45-23.93-40-34.28-2.59-1.84-7 .78-4.72 3.92z" transform="translate(22.69 23.21)"/></g></g><g style="mix-blend-mode:multiply" opacity=".1"><path class="cls-195" d="M110.61 210.51l5.12-.33a1.36 1.36 0 001.41-1.31l.56-15.37a1.36 1.36 0 00-1.35-1.41h-2.61l.93-5.82-8.48 5.82h-27a1.36 1.36 0 00-1.33 1.59l2.93 17.15a1.36 1.36 0 001.4 1.17l25.74-1.28" transform="translate(22.69 23.21)"/><rect class="cls-195" x="106.7" y="222.04" width="29.72" height="1.38" rx=".58" ry=".58"/><rect class="cls-195" x="107.02" y="225.24" width="18.41" height="1.38" rx=".58" ry=".58"/></g><path class="cls-176" d="M106.61 206.51l5.12-.33a1.36 1.36 0 001.41-1.31l.56-15.37a1.36 1.36 0 00-1.35-1.41h-2.61l.93-5.82-8.48 5.82h-27a1.36 1.36 0 00-1.33 1.59l2.93 17.15a1.36 1.36 0 001.4 1.17l25.74-1.28" transform="translate(22.69 23.21)"/><rect class="cls-39" x="102.7" y="218.04" width="29.72" height="1.38" rx=".58" ry=".58"/><rect class="cls-39" x="103.02" y="221.24" width="18.41" height="1.38" rx=".58" ry=".58"/><g opacity=".46"><circle class="cls-118" cx="176.52" cy="37.42" r=".46"/><path class="cls-118" d="M154.93 13.11a1.5 1.5 0 00-2.07 0l-.07.07-.09.09a.29.29 0 000 .41.29.29 0 00.41 0l.16-.16a.92.92 0 011.31 0l.11.11a.29.29 0 00.41-.41z" transform="translate(22.69 23.21)"/><path class="cls-118" d="M155.72 12.54l-.09-.1-.07-.08a2.5 2.5 0 00-3.38.08l-.17.17a.26.26 0 00.37.37l.17-.17a2 2 0 012.72 0l.14.14a.26.26 0 00.37-.37z" transform="translate(22.69 23.21)"/></g><g class="cls-197"><path class="cls-118" d="M24.56 15a.13.13 0 01-.1 0 .12.12 0 010-.09v-2.54l-.56.38h-.07a.12.12 0 01-.09 0 .13.13 0 010-.09.12.12 0 01.07-.11l.7-.47h.05a.12.12 0 01.08 0 .13.13 0 010 .09v2.7a.12.12 0 010 .09.13.13 0 01-.08.04zm1.85.07a.82.82 0 01-.56-.2 1.22 1.22 0 01-.34-.55 2.68 2.68 0 010-1.54 1.21 1.21 0 01.34-.54.9.9 0 011.13 0 1.22 1.22 0 01.34.54 2.68 2.68 0 010 1.54 1.24 1.24 0 01-.34.55.82.82 0 01-.57.2zm0-.26a.58.58 0 00.41-.16 1 1 0 00.25-.44 2.59 2.59 0 000-1.32 1 1 0 00-.25-.44.62.62 0 00-.82 0 1 1 0 00-.25.44 2.59 2.59 0 000 1.32 1 1 0 00.25.44.57.57 0 00.41.16zM28 13.27a.14.14 0 01-.11 0 .17.17 0 010-.12V13a.18.18 0 010-.12.14.14 0 01.11 0 .14.14 0 01.11 0 .18.18 0 010 .12v.09a.17.17 0 010 .12.14.14 0 01-.11 0zM28 15a.14.14 0 01-.11 0 .17.17 0 010-.12v-.09a.17.17 0 010-.12.14.14 0 01.11 0 .14.14 0 01.11 0 .17.17 0 010 .12v.09a.17.17 0 010 .12.14.14 0 01-.11 0zm.83-.4h.06a.59.59 0 00.21.14.75.75 0 00.28 0 .77.77 0 00.38-.09.71.71 0 00.27-.26.73.73 0 00.1-.38.66.66 0 00-.11-.39.65.65 0 00-.27-.22.82.82 0 00-.34-.07h-.23a.1.1 0 01-.08 0 .14.14 0 010-.09.11.11 0 010-.05v-.05l.85-.93.05.07h-1.22a.12.12 0 01-.09 0 .12.12 0 010-.09.11.11 0 010-.08.12.12 0 01.09 0h1.41a.11.11 0 01.1 0 .16.16 0 010 .09l-.85.93-.09-.05h.21a.91.91 0 01.43.11.87.87 0 01.33.31.93.93 0 01.13.5.93.93 0 01-.51.86 1.12 1.12 0 01-.52.12 1 1 0 01-.34-.06.82.82 0 01-.29-.18v-.05a.11.11 0 010-.05.15.15 0 010-.09.11.11 0 01.04.05zm3.08.47a.82.82 0 01-.56-.2 1.22 1.22 0 01-.34-.55 2.68 2.68 0 010-1.54 1.21 1.21 0 01.34-.54.9.9 0 011.13 0 1.22 1.22 0 01.34.54 2.68 2.68 0 010 1.54 1.24 1.24 0 01-.34.55.82.82 0 01-.57.2zm0-.26a.58.58 0 00.41-.16 1 1 0 00.25-.44 2.59 2.59 0 000-1.32 1 1 0 00-.25-.44.62.62 0 00-.82 0 1 1 0 00-.25.44 2.59 2.59 0 000 1.32 1 1 0 00.25.44.57.57 0 00.41.16zm3.77-2.4l-1 2.55a.13.13 0 010 .06h-.07a.11.11 0 01-.09 0 .12.12 0 010-.08.12.12 0 010-.05l1.11-2.72a.14.14 0 01.05-.07h.14a.15.15 0 010 .06l1.11 2.71a.15.15 0 010 .05.11.11 0 010 .09.13.13 0 01-.09 0h-.07a.15.15 0 010-.06l-1-2.56zm-.78 1.77l.1-.25h1.3l.05.25zm2.65-2.1h.11l1.16 1.74h-.11l1.17-1.74a.13.13 0 01.2 0 .12.12 0 010 .09v2.7a.12.12 0 010 .09.13.13 0 01-.08.04.13.13 0 01-.1 0 .12.12 0 010-.09v-2.44h.08l-1.06 1.61h-.22l-1.07-1.63.08-.06v2.5a.12.12 0 010 .09.12.12 0 01-.09 0 .11.11 0 01-.09 0 .13.13 0 010-.09v-2.7a.12.12 0 010-.09.12.12 0 01.02-.02z" transform="translate(22.69 23.21)"/></g><g class="cls-197"><path class="cls-118" d="M159.5 13.25a.78.78 0 01.25.15.79.79 0 01.18.24.67.67 0 01.07.3.71.71 0 01-.11.39.81.81 0 01-.31.28 1 1 0 01-.87 0 .82.82 0 01-.31-.28.71.71 0 01-.11-.39.68.68 0 01.07-.31.74.74 0 01.18-.23.93.93 0 01.24-.15.8.8 0 01-.2-.14.73.73 0 01-.15-.22.64.64 0 01-.06-.28.72.72 0 01.11-.39.76.76 0 01.29-.27.81.81 0 01.4-.1.79.79 0 01.4.1.77.77 0 01.28.27.72.72 0 01.11.39.65.65 0 01-.06.28.73.73 0 01-.16.21.8.8 0 01-.24.15zm-.37 1.2a.62.62 0 00.44-.16.51.51 0 00.17-.39.51.51 0 00-.08-.29.58.58 0 00-.22-.2.67.67 0 00-.6 0 .57.57 0 00-.22.2.54.54 0 00.08.68.62.62 0 00.43.16zm-.54-1.83a.52.52 0 00.08.28.55.55 0 00.2.19.56.56 0 00.27.07.55.55 0 00.27-.07.53.53 0 00.2-.19.52.52 0 00.07-.28.51.51 0 00-.15-.38.53.53 0 00-.39-.15.54.54 0 00-.39.15.51.51 0 00-.17.38zm2.54 2.04a1.05 1.05 0 01-.33-.05.86.86 0 01-.29-.16.13.13 0 010-.06.12.12 0 010-.08.1.1 0 01.08 0 .14.14 0 01.09 0 .82.82 0 00.22.12.71.71 0 00.25 0 .89.89 0 00.41-.09.64.64 0 00.27-.26.76.76 0 00.1-.38.68.68 0 00-.09-.35.61.61 0 00-.25-.24.8.8 0 00-.38-.09.74.74 0 00-.26 0l-.2.09a.32.32 0 01-.14 0h-.08a.12.12 0 010-.06.16.16 0 010-.08l.17-1.06a.11.11 0 010-.07.12.12 0 01.09 0H162a.11.11 0 01.08 0 .11.11 0 010 .08.12.12 0 010 .09.11.11 0 01-.08 0h-1.14l-.16.95-.07-.05.15-.08.22-.07a1.06 1.06 0 01.26 0 .93.93 0 01.46.11.84.84 0 01.32.32.91.91 0 01.12.46 1 1 0 01-.12.51.88.88 0 01-.35.34 1.12 1.12 0 01-.56.16zm1.96-1.38a.45.45 0 01-.3-.1.62.62 0 01-.18-.27 1 1 0 01-.06-.36 1.06 1.06 0 01.06-.37.6.6 0 01.18-.27.47.47 0 01.3-.1.46.46 0 01.3.1.61.61 0 01.18.27 1 1 0 01.06.36 1 1 0 01-.06.36.63.63 0 01-.19.27.46.46 0 01-.29.11zm0-.21a.25.25 0 00.24-.15.81.81 0 00.07-.37.77.77 0 00-.08-.38.26.26 0 00-.24-.15.25.25 0 00-.24.15.85.85 0 00-.07.37.76.76 0 00.08.37.26.26 0 00.25.16zm-.09 1.59a.11.11 0 01-.08 0 .1.1 0 010-.08.12.12 0 010-.06l1.7-2.59a.1.1 0 01.09-.05.12.12 0 01.08 0 .1.1 0 010 .08.13.13 0 010 .06l-1.7 2.59a.1.1 0 01-.09.05zm1.68 0a.46.46 0 01-.3-.1.6.6 0 01-.18-.27 1 1 0 01-.06-.36 1 1 0 01.06-.37.61.61 0 01.19-.27.51.51 0 01.6 0 .6.6 0 01.18.27 1.07 1.07 0 01.06.36 1 1 0 01-.06.36.62.62 0 01-.18.27.46.46 0 01-.26.13zm0-.21a.26.26 0 00.24-.15.81.81 0 00.08-.37.79.79 0 00-.08-.38.26.26 0 00-.25-.15.25.25 0 00-.24.15.82.82 0 00-.08.37.74.74 0 00.08.37.26.26 0 00.31.18zm4.73.55a.35.35 0 01-.36-.33V12.1a.35.35 0 01.36-.33h6a.35.35 0 01.36.33v.54h.46v1.54h-.47v.53a.35.35 0 01-.36.33zm6.13-3h-6.25v2.8h6.25zm-6 .27h4.54v2.28h-4.55z" transform="translate(22.69 23.21)"/></g><g clip-path="url(#clip-path-5)"><path class="cls-39" d="M104.44 24.54L72.79 37.28V24.54h31.65z"/><path class="cls-39" d="M142.71 24.54L94.47 43.97H72.79v-6.69l31.65-12.74h38.27z"/><path class="cls-4" d="M175.05 26.93l-42.31 17.04H94.47l48.24-19.43h32.34v2.39z"/><path class="cls-5" d="M175.05 42.34l-4.04 1.63h-38.27l42.31-17.04v15.41z"/><path class="cls-6" d="M171.01 43.97l4.04-1.63v1.63h-4.04z"/></g></g></g></svg>