<svg version="1.1" id="Objects" xmlns="http://www.w3.org/2000/svg" xmlns:xlink="http://www.w3.org/1999/xlink" x="0" y="0" viewBox="0 0 202.5 409.5" xml:space="preserve"><style>.st0{clip-path:url(#SVGID_4_);fill:#fff}.st30{fill:#251a51}.st32{fill:#fff}.st33{clip-path:url(#SVGID_6_);fill:#6bc1cd}.st89{opacity:.25}.st90{fill:#3d3d3d}.st91{fill:#e3707f}.st93{fill:#8aa9fc}.st95{fill:#e8947e}.st97{fill:#f5f7fc}.st98{fill:#fcb1ad}.st99{fill:#38486d}.st100{fill:#6a437c}.st103{fill:#f9b9b4}.st201{clip-path:url(#SVGID_12_);fill:#df5f7f}.st209{opacity:.45}.st210{opacity:.51}.st211{fill:#89cfc6}.st212{fill:#edc483}.st213{fill:#6e3281}.st214{fill:#343b5b}.st215{opacity:.14}.st216{fill:#322772}.st217{opacity:.46}.st218{clip-path:url(#SVGID_14_);fill:#fff}.st222{opacity:.48}</style><defs><path id="SVGID_1_" d="M164.9 399.5h-127c-14.4 0-26.1-11.7-26.1-26.1V36.1C11.7 21.7 23.4 10 37.8 10h127c14.4 0 26.1 11.7 26.1 26.1v337.3c.1 14.4-11.6 26.1-26 26.1z"/></defs><clipPath id="SVGID_2_"><use xlink:href="#SVGID_1_" overflow="visible"/></clipPath><defs><path id="SVGID_3_" d="M169.4 409.5H33.1C14.8 409.5 0 394.7 0 376.4V33.1C0 14.8 14.8 0 33.1 0h136.2c18.3 0 33.1 14.8 33.1 33.1v343.3c.1 18.3-14.8 33.1-33 33.1z"/></defs><clipPath id="SVGID_4_"><use xlink:href="#SVGID_3_" overflow="visible"/></clipPath><path class="st0" d="M98.5 0L0 39.7V0z"/><path class="st0" d="M136.4 0L0 55V39.7L98.5 0z"/><path clip-path="url(#SVGID_4_)" fill="#fefefe" d="M174.4 0L0 70.3V55L136.4 0z"/><path clip-path="url(#SVGID_4_)" fill="#fdfdfd" d="M198.6 0l2 4.7L0 85.5V70.3L174.4 0z"/><path clip-path="url(#SVGID_4_)" fill="#fcfcfc" d="M200.6 4.7l1.9 4.8v9.8L0 100.8V85.5z"/><path clip-path="url(#SVGID_4_)" fill="#fbfcfc" d="M202.5 34.5L0 116.1v-15.3l202.5-81.5z"/><path clip-path="url(#SVGID_4_)" fill="#fafbfb" d="M202.5 49.8L0 131.4v-15.3l202.5-81.6z"/><path clip-path="url(#SVGID_4_)" fill="#f9fafa" d="M202.5 65.1L0 146.7v-15.3l202.5-81.6z"/><path clip-path="url(#SVGID_4_)" fill="#f8f9f9" d="M202.5 80.4L0 162v-15.3l202.5-81.6z"/><path clip-path="url(#SVGID_4_)" fill="#f7f8f8" d="M202.5 95.7L0 177.3V162l202.5-81.6z"/><path clip-path="url(#SVGID_4_)" fill="#f6f7f7" d="M202.5 111L0 192.5v-15.2l202.5-81.6z"/><path clip-path="url(#SVGID_4_)" fill="#f5f6f7" d="M202.5 126.3L0 207.8v-15.3L202.5 111z"/><path clip-path="url(#SVGID_4_)" fill="#f4f6f6" d="M202.5 141.6L0 223.1v-15.3l202.5-81.5z"/><path clip-path="url(#SVGID_4_)" fill="#f3f5f5" d="M202.5 156.8L0 238.4v-15.3l202.5-81.5z"/><path clip-path="url(#SVGID_4_)" fill="#f2f4f4" d="M202.5 172.1L0 253.7v-15.3l202.5-81.6z"/><path clip-path="url(#SVGID_4_)" fill="#f1f3f3" d="M202.5 187.4L0 269v-15.3l202.5-81.6z"/><path clip-path="url(#SVGID_4_)" fill="#eff2f2" d="M202.5 202.7L0 284.3V269l202.5-81.6z"/><path clip-path="url(#SVGID_4_)" fill="#eef1f2" d="M202.5 218L0 299.6v-15.3l202.5-81.6z"/><path clip-path="url(#SVGID_4_)" fill="#edf0f1" d="M202.5 233.3L0 314.8v-15.2L202.5 218z"/><path clip-path="url(#SVGID_4_)" fill="#eceff0" d="M202.5 248.6L0 330.1v-15.3l202.5-81.5z"/><path clip-path="url(#SVGID_4_)" fill="#ebefef" d="M202.5 263.9L0 345.4v-15.3l202.5-81.5z"/><path clip-path="url(#SVGID_4_)" fill="#eaeeee" d="M202.5 279.1L0 360.7v-15.3l202.5-81.5z"/><path clip-path="url(#SVGID_4_)" fill="#e9edee" d="M202.5 294.4L0 376v-15.3l202.5-81.6z"/><path clip-path="url(#SVGID_4_)" fill="#e8eced" d="M202.5 309.7L0 391.3V376l202.5-81.6z"/><path clip-path="url(#SVGID_4_)" fill="#e7ebec" d="M202.5 325L2.3 405.7 0 400v-8.7l202.5-81.6z"/><path clip-path="url(#SVGID_4_)" fill="#e6eaeb" d="M202.5 340.3L30.7 409.5H3.8l-1.5-3.8L202.5 325z"/><path clip-path="url(#SVGID_4_)" fill="#e5e9ea" d="M202.5 355.6L68.7 409.5h-38l171.8-69.2z"/><path clip-path="url(#SVGID_4_)" fill="#e4e9e9" d="M202.5 370.9l-95.9 38.6H68.7l133.8-53.9z"/><path clip-path="url(#SVGID_4_)" fill="#e3e8e9" d="M202.5 386.2l-57.9 23.3h-38l95.9-38.6z"/><path clip-path="url(#SVGID_4_)" fill="#e2e7e8" d="M202.5 401.4l-20 8.1h-37.9l57.9-23.3z"/><path clip-path="url(#SVGID_4_)" fill="#e1e6e7" d="M182.5 409.5l20-8.1v8.1z"/><path class="st30" d="M164.9 399.5h-127c-14.4 0-26.1-11.7-26.1-26.1V36.1C11.7 21.7 23.4 10 37.8 10h127c14.4 0 26.1 11.7 26.1 26.1v337.3c.1 14.4-11.6 26.1-26 26.1z"/><path d="M129.8 385.9H69c-.6 0-1-.5-1-1v-.4c0-.6.5-1 1-1h60.8c.6 0 1 .5 1 1v.4c.1.6-.4 1-1 1z" fill="#e0e6e9"/><path class="st32" d="M26.9 300.4v-4.9h.4v4.6H30v.3h-3.1zm5.7.1c-.4 0-.7-.1-.9-.2s-.5-.4-.7-.7c-.2-.3-.2-.6-.2-1s.1-.7.2-1c.2-.3.4-.5.7-.7s.6-.2.9-.2.7.1.9.2c.3.2.5.4.7.7.2.3.2.6.2 1s-.1.7-.2 1c-.2.3-.4.5-.7.7-.3.1-.6.2-.9.2zm0-.3c.3 0 .5-.1.8-.2.2-.1.4-.3.5-.5s.2-.5.2-.8c0-.3-.1-.6-.2-.8-.1-.2-.3-.4-.5-.5-.2-.1-.5-.2-.8-.2-.3 0-.5.1-.8.2-.2.1-.4.3-.5.5-.1.2-.2.5-.2.8 0 .3.1.6.2.8.1.2.3.4.5.5.2.1.5.2.8.2zm3.2.2v-3.7h.3v1-.1c.1-.3.3-.5.5-.7.2-.2.5-.2.9-.2v.3c-.4 0-.7.1-1 .4-.2.3-.3.6-.3 1.1v1.9h-.4zm4.5.1c-.4 0-.7-.1-1-.2s-.5-.4-.7-.7c-.2-.3-.2-.6-.2-1s.1-.7.2-1c.2-.3.4-.5.6-.7s.6-.2.9-.2c.3 0 .6.1.9.2.3.2.5.4.6.7.2.3.2.6.2 1v.1h-3.2v-.3h3l-.1.1c0-.3-.1-.5-.2-.8-.1-.2-.3-.4-.5-.5s-.5-.2-.7-.2c-.3 0-.5.1-.7.2-.2.1-.4.3-.5.5s-.2.5-.2.8v.1c0 .3.1.6.2.8.1.2.3.4.6.5s.5.2.8.2c.2 0 .5 0 .7-.1.2-.1.4-.2.5-.4l.2.2c-.2.2-.4.3-.6.4s-.5.3-.8.3zm7.6-3.7c.3 0 .6.1.8.2.2.1.4.3.5.5.1.2.2.5.2.9v2.1H49v-2.1c0-.4-.1-.7-.3-.9-.2-.2-.5-.3-.8-.3-.3 0-.5.1-.7.2-.2.1-.4.3-.5.5s-.2.5-.2.8v2h-.4v-2.1c0-.4-.1-.7-.3-.9-.2-.2-.5-.3-.8-.3-.3 0-.5.1-.7.2-.2.1-.4.3-.5.5s-.2.5-.2.8v2h-.4v-3.7h.3v1-.1c.1-.3.3-.5.5-.7s.6-.3.9-.3c.4 0 .7.1.9.3.3.2.4.5.5.8h-.1c.1-.3.3-.6.6-.8.4-.6.8-.6 1.1-.6zm5.6-.9c-.1 0-.1 0-.2-.1s-.1-.1-.1-.2 0-.1.1-.2.1-.1.2-.1.2 0 .2.1.1.1.1.2 0 .1-.1.2c0 .1-.1.1-.2.1zm-.2 4.5v-3.7h.4v3.7h-.4zm2.2 1.4v-5h.3v1.2l-.1.6.1.6v2.6h-.3zm1.9-1.3c-.3 0-.6-.1-.9-.2-.3-.1-.5-.4-.6-.6-.2-.3-.2-.6-.2-1s.1-.7.2-1c.2-.3.4-.5.6-.6.3-.2.6-.2.9-.2.3 0 .7.1.9.2.3.2.5.4.6.7.2.3.2.6.2 1s-.1.7-.2 1c-.2.3-.4.5-.6.7-.3-.1-.6 0-.9 0zm-.1-.3c.3 0 .5-.1.8-.2.2-.1.4-.3.5-.5s.2-.5.2-.8c0-.3-.1-.6-.2-.8-.1-.2-.3-.4-.5-.5-.2-.1-.5-.2-.8-.2-.3 0-.5.1-.8.2-.2.1-.4.3-.5.5-.1.2-.2.5-.2.8 0 .3.1.6.2.8s.3.4.5.5c.3.1.6.2.8.2zm4.2.3c-.3 0-.6 0-.9-.1-.3-.1-.5-.2-.6-.3l.2-.3c.1.1.3.2.6.3s.5.1.8.1c.4 0 .7-.1.8-.2.2-.1.3-.3.3-.5s0-.3-.1-.4c-.1-.1-.2-.2-.3-.2-.1 0-.3-.1-.5-.1s-.3-.1-.5-.1-.3-.1-.5-.2c-.1-.1-.3-.2-.3-.3s-.1-.3-.1-.5.1-.4.2-.5c.1-.1.3-.3.5-.4.2-.1.5-.1.8-.1.2 0 .5 0 .7.1l.6.3-.2.3c-.2-.1-.3-.2-.5-.3s-.4-.1-.6-.1c-.4 0-.6.1-.8.2-.2.1-.2.3-.2.5s0 .3.1.4c.1.1.2.2.3.2s.3.1.5.1.3.1.5.1.3.1.5.2c.1.1.3.2.3.3.1.1.1.3.1.5s-.1.4-.2.5c-.1.2-.3.3-.5.4-.4 0-.6.1-1 .1zm4.3 0c-.3 0-.6-.1-.8-.2-.2-.1-.4-.3-.5-.5-.1-.2-.2-.5-.2-.9v-2.1h.4v2.1c0 .4.1.7.3.9.2.2.5.3.9.3.3 0 .5-.1.7-.2.2-.1.4-.3.5-.5.1-.2.2-.5.2-.8v-2h.4v3.7h-.3v-1 .1c-.1.3-.3.5-.5.7-.5.3-.8.4-1.1.4zm8.1-3.7c.3 0 .6.1.8.2.2.1.4.3.5.5.1.2.2.5.2.9v2.1H75v-2.1c0-.4-.1-.7-.3-.9-.2-.2-.5-.3-.8-.3-.3 0-.5.1-.7.2-.2.1-.4.3-.5.5s-.2.5-.2.8v2h-.4v-2.1c0-.4-.1-.7-.3-.9-.2-.2-.5-.3-.8-.3-.3 0-.5.1-.7.2-.2.1-.4.3-.5.5s-.2.5-.2.8v2h-.4v-3.7h.3v1-.1c.1-.3.3-.5.5-.7s.6-.3.9-.3c.4 0 .7.1.9.3.3.2.4.5.5.8h-.1c.1-.3.3-.6.6-.8.4-.6.7-.6 1.1-.6zm6.8 3.7c-.3 0-.6-.1-.9-.2-.3-.2-.5-.4-.6-.7-.2-.3-.2-.6-.2-1s.1-.7.2-1c.2-.3.4-.5.6-.7.3-.2.6-.2.9-.2.3 0 .6.1.9.2.3.1.5.4.6.6.2.3.2.6.2 1s-.1.7-.2 1c-.1.3-.4.5-.6.6-.3.3-.5.4-.9.4zm0-.3c.3 0 .5-.1.8-.2s.4-.3.5-.5.2-.5.2-.8c0-.3-.1-.6-.2-.8-.1-.2-.3-.4-.5-.5s-.5-.2-.8-.2c-.3 0-.5.1-.8.2-.2.1-.4.3-.5.5-.1.2-.2.5-.2.8 0 .3.1.6.2.8.1.2.3.4.5.5.3.1.6.2.8.2zm1.5.2v-1.2l.1-.6-.1-.6v-2.7h.4v5.2h-.4zm3.6.1c-.4 0-.7-.1-.9-.2s-.5-.4-.7-.7c-.2-.3-.2-.6-.2-1s.1-.7.2-1c.2-.3.4-.5.7-.7s.6-.2.9-.2.7.1.9.2c.3.2.5.4.7.7.2.3.2.6.2 1s-.1.7-.2 1c-.2.3-.4.5-.7.7-.2.1-.5.2-.9.2zm0-.3c.3 0 .5-.1.8-.2.2-.1.4-.3.5-.5s.2-.5.2-.8c0-.3-.1-.6-.2-.8-.1-.2-.3-.4-.5-.5-.2-.1-.5-.2-.8-.2-.3 0-.5.1-.8.2-.2.1-.4.3-.5.5-.1.2-.2.5-.2.8 0 .3.1.6.2.8.1.2.3.4.5.5.3.1.5.2.8.2zm3.3.2v-5.2h.4v5.2h-.4zm3.6.1c-.4 0-.7-.1-.9-.2s-.5-.4-.7-.7c-.2-.3-.2-.6-.2-1s.1-.7.2-1c.2-.3.4-.5.7-.7s.6-.2.9-.2.7.1.9.2c.3.2.5.4.7.7.2.3.2.6.2 1s-.1.7-.2 1c-.2.3-.4.5-.7.7-.2.1-.5.2-.9.2zm0-.3c.3 0 .5-.1.8-.2.2-.1.4-.3.5-.5s.2-.5.2-.8c0-.3-.1-.6-.2-.8-.1-.2-.3-.4-.5-.5-.2-.1-.5-.2-.8-.2s-.5.1-.8.2c-.2.1-.4.3-.5.5-.1.2-.2.5-.2.8 0 .3.1.6.2.8.1.2.3.4.5.5.3.1.5.2.8.2zm3.3.2v-3.7h.3v1-.1c.1-.3.3-.5.5-.7s.5-.2.9-.2v.3c-.4 0-.7.1-1 .4-.2.3-.3.6-.3 1.1v1.9H96zm6.2.1c-.3 0-.6 0-.9-.1-.3-.1-.5-.2-.6-.3l.2-.3c.1.1.3.2.6.3.2.1.5.1.8.1.4 0 .7-.1.8-.2.2-.1.3-.3.3-.5s0-.3-.1-.4c-.1-.1-.2-.2-.3-.2s-.3-.1-.5-.1-.3-.1-.5-.1-.3-.1-.5-.2c-.1-.1-.3-.2-.3-.3-.1-.1-.1-.3-.1-.5s.1-.4.2-.5c.1-.1.3-.3.5-.4.2-.1.5-.1.8-.1.2 0 .5 0 .7.1l.6.3-.2.3c-.2-.1-.3-.2-.5-.3-.2-.1-.4-.1-.6-.1-.4 0-.6.1-.8.2-.2.1-.2.3-.2.5s0 .3.1.4c.1.1.2.2.3.2.1 0 .3.1.5.1s.3.1.5.1.3.1.5.2c.1.1.3.2.3.3.1.1.1.3.1.5s-.1.4-.2.5c-.1.2-.3.3-.5.4-.5 0-.7.1-1 .1zm2.9-4.6c-.1 0-.1 0-.2-.1s-.1-.1-.1-.2 0-.1.1-.2.1-.1.2-.1.2 0 .2.1.1.1.1.2 0 .1-.1.2c0 .1-.1.1-.2.1zm-.2 4.5v-3.7h.4v3.7h-.4zm1.6-3.3v-.3h2.2v.3h-2.2zm1.7 3.4c-.3 0-.6-.1-.7-.3-.2-.2-.3-.4-.3-.7V296h.4v3.5c0 .2.1.4.2.5s.3.2.5.2.4-.1.6-.2l.1.2c-.1.1-.2.2-.3.2s-.4.1-.5.1zm5.2 0c-.3 0-.5 0-.7-.1-.2-.1-.4-.2-.5-.4s-.2-.3-.2-.5 0-.4.1-.5c.1-.2.2-.3.4-.4.2-.1.5-.1.8-.1h1.3v.3h-1.3c-.4 0-.6.1-.8.2-.2.1-.2.3-.2.5s.1.4.3.6.4.2.8.2c.3 0 .6-.1.8-.2.2-.1.4-.3.5-.6l.1.2c-.1.3-.3.5-.5.6-.2.1-.5.2-.9.2zm1.3-.1v-2.3c0-.3-.1-.6-.3-.8-.2-.2-.5-.3-.8-.3-.3 0-.5 0-.7.1l-.6.3-.2-.3c.2-.2.4-.3.7-.4.3-.1.5-.1.8-.1.5 0 .8.1 1 .3s.4.6.4 1v2.3h-.3zm6.7-3.6c.3 0 .6.1.8.2.2.1.4.3.5.5.1.2.2.5.2.9v2.1h-.4v-2.1c0-.4-.1-.7-.3-.9-.2-.2-.5-.3-.8-.3-.3 0-.5.1-.7.2s-.4.3-.5.5-.2.5-.2.8v2h-.4v-2.1c0-.4-.1-.7-.3-.9-.2-.2-.5-.3-.8-.3-.3 0-.5.1-.7.2-.2.1-.4.3-.5.5s-.2.5-.2.8v2h-.4v-3.7h.3v1-.1c.1-.3.3-.5.5-.7s.6-.3.9-.3c.4 0 .7.1.9.3.3.2.4.5.5.8h-.1c.1-.3.3-.6.6-.8.4-.6.7-.6 1.1-.6zm4.7 3.7c-.4 0-.7-.1-1-.2-.3-.2-.5-.4-.7-.7-.2-.3-.2-.6-.2-1s.1-.7.2-1c.2-.3.4-.5.6-.7.3-.2.6-.2.9-.2.3 0 .6.1.9.2.3.2.5.4.6.7.2.3.2.6.2 1v.1h-3.2v-.3h3l-.1.1c0-.3-.1-.5-.2-.8s-.3-.4-.5-.5-.5-.2-.7-.2c-.3 0-.5.1-.7.2-.2.1-.4.3-.5.5-.1.2-.2.5-.2.8v.1c0 .3.1.6.2.8.1.2.3.4.6.5.2.1.5.2.8.2.2 0 .5 0 .7-.1.2-.1.4-.2.5-.4l.2.2c-.2.2-.4.3-.6.4-.2.2-.5.3-.8.3zm2.5-3.4v-.3h2.2v.3h-2.2zm1.7 3.4c-.3 0-.6-.1-.7-.3-.2-.2-.3-.4-.3-.7V296h.4v3.5c0 .2.1.4.2.5s.3.2.5.2.4-.1.6-.2l.1.2c-.1.1-.2.2-.3.2s-.4.1-.5.1zm1.8 1l.3-1.2v.2c-.1 0-.2 0-.2-.1-.1-.1-.1-.1-.1-.2s0-.2.1-.2c.1-.1.1-.1.2-.1s.2 0 .2.1.1.1.1.2v.3l-.3 1h-.3zm5.7-1c-.4 0-.7-.1-1-.2s-.5-.4-.7-.7c-.2-.3-.2-.6-.2-1s.1-.7.2-1c.2-.3.4-.5.7-.7.3-.2.6-.2 1-.2.3 0 .6.1.8.2.2.1.4.3.6.5l-.3.2c-.1-.2-.3-.3-.5-.4s-.4-.1-.6-.1c-.3 0-.5.1-.8.2s-.4.3-.5.5c-.1.2-.2.5-.2.8 0 .3.1.6.2.8.1.2.3.4.5.5s.5.2.8.2c.2 0 .4 0 .6-.1s.4-.2.5-.4l.3.2c-.1.2-.3.4-.6.5-.3.1-.5.2-.8.2zm4.1 0c-.4 0-.7-.1-.9-.2s-.5-.4-.7-.7c-.2-.3-.2-.6-.2-1s.1-.7.2-1c.2-.3.4-.5.7-.7s.6-.2.9-.2.7.1.9.2c.3.2.5.4.7.7.2.3.2.6.2 1s-.1.7-.2 1c-.2.3-.4.5-.7.7-.2.1-.5.2-.9.2zm0-.3c.3 0 .5-.1.8-.2.2-.1.4-.3.5-.5s.2-.5.2-.8c0-.3-.1-.6-.2-.8-.1-.2-.3-.4-.5-.5-.2-.1-.5-.2-.8-.2s-.5.1-.8.2c-.2.1-.4.3-.5.5-.1.2-.2.5-.2.8 0 .3.1.6.2.8.1.2.3.4.5.5.3.1.5.2.8.2zm5.1-3.4c.3 0 .6.1.8.2.2.1.4.3.5.5.1.2.2.5.2.9v2.1h-.4v-2.1c0-.4-.1-.7-.3-.9-.2-.2-.5-.3-.9-.3-.3 0-.5.1-.7.2-.2.1-.4.3-.5.5-.1.2-.2.5-.2.8v2h-.4V297h.3v1-.1c.1-.3.3-.5.6-.7s.6-.4 1-.4zm4.2 3.7c-.3 0-.6 0-.9-.1-.3-.1-.5-.2-.6-.3l.2-.3c.1.1.3.2.6.3.2.1.5.1.8.1.4 0 .7-.1.8-.2.2-.1.3-.3.3-.5s0-.3-.1-.4c-.1-.1-.2-.2-.3-.2s-.3-.1-.5-.1-.3-.1-.5-.1-.3-.1-.5-.2c-.1-.1-.3-.2-.3-.3-.1-.1-.1-.3-.1-.5s.1-.4.2-.5c.1-.1.3-.3.5-.4.2-.1.5-.1.8-.1.2 0 .5 0 .7.1l.6.3-.2.3c-.2-.1-.3-.2-.5-.3-.2-.1-.4-.1-.6-.1-.4 0-.6.1-.8.2-.2.1-.2.3-.2.5s0 .3.1.4c.1.1.2.2.3.2.1 0 .3.1.5.1s.3.1.5.1.3.1.5.2c.1.1.3.2.3.3.1.1.1.3.1.5s-.1.4-.2.5c-.1.2-.3.3-.5.4-.4 0-.7.1-1 .1zm4.2 0c-.4 0-.7-.1-1-.2-.3-.2-.5-.4-.7-.7-.2-.3-.2-.6-.2-1s.1-.7.2-1c.2-.3.4-.5.6-.7.3-.2.6-.2.9-.2.3 0 .6.1.9.2.3.2.5.4.6.7.2.3.2.6.2 1v.1h-3.2v-.3h3l-.1.1c0-.3-.1-.5-.2-.8s-.3-.4-.5-.5-.5-.2-.7-.2c-.3 0-.5.1-.7.2-.2.1-.4.3-.5.5-.1.2-.2.5-.2.8v.1c0 .3.1.6.2.8.1.2.3.4.6.5.2.1.5.2.8.2.2 0 .5 0 .7-.1.2-.1.4-.2.5-.4l.2.2c-.2.2-.4.3-.6.4-.2.2-.5.3-.8.3zm4.5 0c-.4 0-.7-.1-1-.2s-.5-.4-.7-.7c-.2-.3-.2-.6-.2-1s.1-.7.2-1c.2-.3.4-.5.7-.7.3-.2.6-.2 1-.2.3 0 .6.1.8.2.2.1.4.3.6.5l-.3.2c-.1-.2-.3-.3-.5-.4s-.4-.1-.6-.1c-.3 0-.5.1-.8.2s-.4.3-.5.5c-.1.2-.2.5-.2.8 0 .3.1.6.2.8.1.2.3.4.5.5s.5.2.8.2c.2 0 .4 0 .6-.1s.4-.2.5-.4l.3.2c-.1.2-.3.4-.6.5-.2.1-.5.2-.8.2zm2.3-3.4v-.3h2.2v.3h-2.2zm1.6 3.4c-.3 0-.6-.1-.7-.3-.2-.2-.3-.4-.3-.7V296h.4v3.5c0 .2.1.4.2.5s.3.2.5.2.4-.1.6-.2l.1.2c-.1.1-.2.2-.3.2s-.3.1-.5.1zm3.5 0c-.4 0-.7-.1-1-.2-.3-.2-.5-.4-.7-.7-.2-.3-.2-.6-.2-1s.1-.7.2-1c.2-.3.4-.5.6-.7.3-.2.6-.2.9-.2.3 0 .6.1.9.2.3.2.5.4.6.7.2.3.2.6.2 1v.1h-3.2v-.3h3l-.1.1c0-.3-.1-.5-.2-.8s-.3-.4-.5-.5-.5-.2-.7-.2c-.3 0-.5.1-.7.2-.2.1-.4.3-.5.5-.1.2-.2.5-.2.8v.1c0 .3.1.6.2.8.1.2.3.4.6.5.2.1.5.2.8.2.2 0 .5 0 .7-.1.2-.1.4-.2.5-.4l.2.2c-.2.2-.4.3-.6.4-.3.2-.6.3-.8.3zm2.7-1.8v-.3h1.8v.3H170zM27.8 311.1v-.3H30v.3h-2.2zm1.7 3.4c-.3 0-.6-.1-.7-.3-.2-.2-.3-.4-.3-.7V310h.4v3.5c0 .2.1.4.2.5s.3.2.5.2.4-.1.6-.2l.1.2c-.1.1-.2.2-.3.2s-.4.1-.5.1zm3.6 0c-.3 0-.6-.1-.8-.2-.2-.1-.4-.3-.5-.5-.1-.2-.2-.5-.2-.9v-2.1h.4v2.1c0 .4.1.7.3.9.2.2.5.3.9.3.3 0 .5-.1.7-.2.2-.1.4-.3.5-.5.1-.2.2-.5.2-.8v-2h.4v3.7h-.3v-1 .1c-.1.3-.3.5-.5.7-.5.4-.8.4-1.1.4zm5 0c-.4 0-.7-.1-1-.2s-.5-.4-.7-.7c-.2-.3-.2-.6-.2-1s.1-.7.2-1c.2-.3.4-.5.6-.7s.6-.2.9-.2c.3 0 .6.1.9.2.3.2.5.4.6.7.2.3.2.6.2 1v.1h-3.2v-.3h3l-.1.1c0-.3-.1-.5-.2-.8-.1-.2-.3-.4-.5-.5s-.5-.2-.7-.2c-.3 0-.5.1-.7.2-.2.1-.4.3-.5.5s-.2.5-.2.8v.1c0 .3.1.6.2.8.1.2.3.4.6.5s.5.2.8.2c.2 0 .5 0 .7-.1.2-.1.4-.2.5-.4l.2.2c-.2.2-.4.3-.6.4s-.5.3-.8.3zm3.1 0v-3.7h.3v1-.1c.1-.3.3-.5.5-.7.2-.2.5-.2.9-.2v.3c-.4 0-.7.1-1 .4-.2.3-.3.6-.3 1.1v1.9h-.4zm6.2 0c-.3 0-.5 0-.7-.1-.2-.1-.4-.2-.5-.4s-.2-.3-.2-.5 0-.4.1-.5c.1-.2.2-.3.4-.4.2-.1.5-.1.8-.1h1.3v.3h-1.3c-.4 0-.6.1-.8.2-.2.1-.2.3-.2.5s.1.4.3.6c.2.1.4.2.8.2.3 0 .6-.1.8-.2.2-.1.4-.3.5-.6l.1.2c-.1.3-.3.5-.5.6-.2.2-.5.2-.9.2zm1.3 0v-2.3c0-.3-.1-.6-.3-.8-.2-.2-.5-.3-.8-.3-.3 0-.5 0-.7.1l-.6.3-.2-.3c.2-.2.4-.3.7-.4.3-.1.5-.1.8-.1.5 0 .8.1 1 .3.2.2.4.6.4 1v2.3h-.3zm3.6 0c-.3 0-.6-.1-.9-.2-.3-.2-.5-.4-.6-.7-.2-.3-.2-.6-.2-1s.1-.7.2-1c.2-.3.4-.5.6-.7.3-.2.6-.2.9-.2.3 0 .6.1.9.2.3.1.5.4.6.6.2.3.2.6.2 1s-.1.7-.2 1c-.1.3-.4.5-.6.6-.3.4-.6.4-.9.4zm0-.3c.3 0 .5-.1.8-.2s.4-.3.5-.5.2-.5.2-.8c0-.3-.1-.6-.2-.8-.1-.2-.3-.4-.5-.5s-.5-.2-.8-.2c-.3 0-.5.1-.8.2-.2.1-.4.3-.5.5-.1.2-.2.5-.2.8 0 .3.1.6.2.8.1.2.3.4.5.5.3.2.5.2.8.2zm1.5.3v-1.2l.1-.6-.1-.6v-2.7h.4v5.2h-.4zm2.3-4.6c-.1 0-.1 0-.2-.1s-.1-.1-.1-.2 0-.1.1-.2.1-.1.2-.1.2 0 .2.1.1.1.1.2 0 .1-.1.2c0 .1-.1.1-.2.1zm-.2 4.6v-3.7h.4v3.7h-.4zm2.2 1.4v-5h.3v1.2l-.1.6.1.6v2.6h-.3zm1.9-1.4c-.3 0-.6-.1-.9-.2-.3-.1-.5-.4-.6-.6-.2-.3-.2-.6-.2-1s.1-.7.2-1c.2-.3.4-.5.6-.6.3-.2.6-.2.9-.2.3 0 .7.1.9.2.3.2.5.4.6.7.2.3.2.6.2 1s-.1.7-.2 1c-.2.3-.4.5-.6.7H60zm-.1-.3c.3 0 .5-.1.8-.2.2-.1.4-.3.5-.5s.2-.5.2-.8c0-.3-.1-.6-.2-.8-.1-.2-.3-.4-.5-.5-.2-.1-.5-.2-.8-.2-.3 0-.5.1-.8.2-.2.1-.4.3-.5.5-.1.2-.2.5-.2.8 0 .3.1.6.2.8s.3.4.5.5c.3.2.6.2.8.2zm3.5-4.3c-.1 0-.1 0-.2-.1s-.1-.1-.1-.2 0-.1.1-.2.1-.1.2-.1.2 0 .2.1.1.1.1.2 0 .1-.1.2-.1.1-.2.1zm-.2 4.6v-3.7h.4v3.7h-.4zm3.1 0c-.3 0-.6 0-.9-.1-.3-.1-.5-.2-.6-.3l.2-.3c.1.1.3.2.6.3s.5.1.8.1c.4 0 .7-.1.8-.2.2-.1.3-.3.3-.5s0-.3-.1-.4c-.1-.1-.2-.2-.3-.2-.1 0-.3-.1-.5-.1s-.3-.1-.5-.1-.3-.1-.5-.2c-.1-.1-.3-.2-.3-.3s-.3-.2-.3-.4.1-.4.2-.5c.1-.1.3-.3.5-.4.2-.1.5-.1.8-.1.2 0 .5 0 .7.1l.6.3-.2.3c-.2-.1-.3-.2-.5-.3s-.4-.1-.6-.1c-.4 0-.6.1-.8.2-.2.1-.2.3-.2.5s0 .3.1.4c.1.1.2.2.3.2s.3.1.5.1.3.1.5.1.3.1.5.2c.1.1.3.2.3.3.1.1.1.3.1.5s-.1.4-.2.5c-.1.2-.3.3-.5.4h-.8zm4.2 0c-.4 0-.7-.1-1-.2-.3-.2-.5-.4-.7-.7-.2-.3-.2-.6-.2-1s.1-.7.2-1 .4-.5.7-.7c.3-.2.6-.2 1-.2.3 0 .6.1.8.2s.4.3.6.5l-.3.2c-.1-.2-.3-.3-.5-.4s-.4-.1-.6-.1c-.3 0-.5.1-.8.2-.2.1-.4.3-.5.5-.1.2-.2.5-.2.8 0 .3.1.6.2.8.1.2.3.4.5.5.2.1.5.2.8.2.2 0 .4 0 .6-.1s.4-.2.5-.4l.3.2c-.1.2-.3.4-.6.5s-.5.2-.8.2zm2.9-4.6c-.1 0-.1 0-.2-.1s-.1-.1-.1-.2 0-.1.1-.2.1-.1.2-.1.2 0 .2.1.1.1.1.2 0 .1-.1.2c0 .1-.1.1-.2.1zm-.1 4.6v-3.7h.4v3.7h-.4zm3.9-3.7c.3 0 .6.1.8.2.2.1.4.3.5.5.1.2.2.5.2.9v2.1h-.4v-2.1c0-.4-.1-.7-.3-.9-.2-.2-.5-.3-.9-.3-.3 0-.5.1-.7.2-.2.1-.4.3-.5.5s-.2.5-.2.8v2h-.4V311h.3v1-.1c.1-.3.3-.5.6-.7.3-.3.7-.4 1-.4zm4.7 3.6c-.3 0-.7-.1-.9-.2s-.5-.4-.7-.6-.2-.6-.2-.9c0-.4.1-.7.2-.9.2-.3.4-.5.7-.6.3-.2.6-.2.9-.2.3 0 .6.1.9.2.3.1.5.3.6.6s.2.6.2 1-.1.7-.2.9c-.2.3-.4.5-.6.6s-.5.1-.9.1zm.1 1.5c-.3 0-.6-.1-.9-.2-.3-.1-.5-.2-.7-.4l.2-.3c.2.2.4.3.7.4s.5.1.8.1c.5 0 .9-.1 1.1-.3.2-.2.3-.6.3-1.1v-1l.1-.5-.1-.5v-1.2h.3v3.3c0 .6-.1 1.1-.4 1.4-.3.2-.8.3-1.4.3zm0-1.8c.3 0 .6-.1.8-.2.2-.1.4-.3.5-.5.1-.2.2-.5.2-.8 0-.3-.1-.5-.2-.8-.1-.2-.3-.4-.5-.5-.2-.1-.5-.2-.8-.2-.3 0-.5.1-.8.2-.2.1-.4.3-.5.5-.1.2-.2.5-.2.8 0 .3.1.5.2.8.1.2.3.4.5.5.2.1.5.2.8.2zm7.3.4c-.4 0-.7-.1-1-.2-.3-.2-.5-.4-.7-.7-.2-.3-.2-.6-.2-1s.1-.7.2-1c.2-.3.4-.5.6-.7.3-.2.6-.2.9-.2.3 0 .6.1.9.2.3.2.5.4.6.7.2.3.2.6.2 1v.1h-3.2v-.3h3l-.1.1c0-.3-.1-.5-.2-.8s-.3-.4-.5-.5-.5-.2-.7-.2c-.3 0-.5.1-.7.2-.2.1-.4.3-.5.5-.1.2-.2.5-.2.8v.1c0 .3.1.6.2.8.1.2.3.4.6.5.2.1.5.2.8.2.2 0 .5 0 .7-.1.2-.1.4-.2.5-.4l.2.2c-.2.2-.4.3-.6.4-.3.3-.5.3-.8.3zm3 0v-5.2h.4v5.2h-.4zm2.4-4.6c-.1 0-.1 0-.2-.1s-.1-.1-.1-.2 0-.1.1-.2.1-.1.2-.1.2 0 .2.1.1.1.1.2 0 .1-.1.2-.1.1-.2.1zm-.2 4.6v-3.7h.4v3.7h-.4zm1.6-3.4v-.3h2.2v.3h-2.2zm1.7 3.4c-.3 0-.6-.1-.7-.3-.2-.2-.3-.4-.3-.7V310h.4v3.5c0 .2.1.4.2.5s.3.2.5.2.4-.1.6-.2l.1.2c-.1.1-.2.2-.3.2s-.4.1-.5.1zm1.8 1l.3-1.2v.2c-.1 0-.2 0-.2-.1-.1-.1-.1-.1-.1-.2s0-.2.1-.2c.1-.1.1-.1.2-.1s.2 0 .2.1.1.1.1.2v.3l-.3 1h-.3zm5.1-1c-.3 0-.6 0-.9-.1-.3-.1-.5-.2-.6-.3l.2-.3c.1.1.3.2.6.3.2.1.5.1.8.1.4 0 .7-.1.8-.2.2-.1.3-.3.3-.5s0-.3-.1-.4c-.1-.1-.2-.2-.3-.2s-.3-.1-.5-.1-.3-.1-.5-.1-.3-.1-.5-.2c-.1-.1-.3-.2-.3-.3-.1-.1-.1-.3-.1-.5s.1-.4.2-.5c.1-.1.3-.3.5-.4.2-.1.5-.1.8-.1.2 0 .5 0 .7.1l.6.3-.2.3c-.2-.1-.3-.2-.5-.3-.2-.1-.4-.1-.6-.1-.4 0-.6.1-.8.2-.2.1-.2.3-.2.5s0 .3.1.4c.1.1.2.2.3.2.1 0 .3.1.5.1s.3.1.5.1.3.1.5.2c.1.1.3.2.3.3.1.1.1.3.1.5s-.1.4-.2.5c-.1.2-.3.3-.5.4-.4.1-.7.1-1 .1zm4.3 0c-.4 0-.7-.1-1-.2-.3-.2-.5-.4-.7-.7-.2-.3-.2-.6-.2-1s.1-.7.2-1c.2-.3.4-.5.6-.7.3-.2.6-.2.9-.2.3 0 .6.1.9.2.3.2.5.4.6.7.2.3.2.6.2 1v.1h-3.2v-.3h3l-.1.1c0-.3-.1-.5-.2-.8s-.3-.4-.5-.5-.5-.2-.7-.2c-.3 0-.5.1-.7.2-.2.1-.4.3-.5.5-.1.2-.2.5-.2.8v.1c0 .3.1.6.2.8.1.2.3.4.6.5.2.1.5.2.8.2.2 0 .5 0 .7-.1.2-.1.4-.2.5-.4l.2.2c-.2.2-.4.3-.6.4-.3.3-.5.3-.8.3zm4.5 0c-.3 0-.6-.1-.9-.2-.3-.2-.5-.4-.6-.7-.2-.3-.2-.6-.2-1s.1-.7.2-1c.2-.3.4-.5.6-.7.3-.2.6-.2.9-.2.3 0 .6.1.9.2.3.1.5.4.6.6.2.3.2.6.2 1s-.1.7-.2 1-.4.5-.6.6c-.3.4-.6.4-.9.4zm0-.3c.3 0 .5-.1.8-.2s.4-.3.5-.5c.1-.2.2-.5.2-.8 0-.3-.1-.6-.2-.8-.1-.2-.3-.4-.5-.5s-.5-.2-.8-.2-.5.1-.8.2c-.2.1-.4.3-.5.5-.1.2-.2.5-.2.8 0 .3.1.6.2.8.1.2.3.4.5.5.2.2.5.2.8.2zm1.5.3v-1.2l.1-.6-.1-.6v-2.7h.4v5.2h-.4zm5.7 0c-.3 0-.6-.1-.9-.2-.3-.2-.5-.4-.6-.7-.2-.3-.2-.6-.2-1s.1-.7.2-1c.2-.3.4-.5.6-.7.3-.2.6-.2.9-.2.3 0 .6.1.9.2.3.1.5.4.6.6.2.3.2.6.2 1s-.1.7-.2 1-.4.5-.6.6c-.3.4-.6.4-.9.4zm0-.3c.3 0 .5-.1.8-.2s.4-.3.5-.5c.1-.2.2-.5.2-.8 0-.3-.1-.6-.2-.8-.1-.2-.3-.4-.5-.5s-.5-.2-.8-.2-.5.1-.8.2c-.2.1-.4.3-.5.5-.1.2-.2.5-.2.8 0 .3.1.6.2.8.1.2.3.4.5.5.3.2.5.2.8.2zm1.5.3v-1.2l.1-.6-.1-.6v-2.7h.4v5.2h-.4zm2.3-4.6c-.1 0-.1 0-.2-.1s-.1-.1-.1-.2 0-.1.1-.2.1-.1.2-.1.2 0 .2.1.1.1.1.2 0 .1-.1.2c0 .1-.1.1-.2.1zm-.1 4.6v-3.7h.4v3.7h-.4zm3.1 0c-.3 0-.5 0-.7-.1-.2-.1-.4-.2-.5-.4s-.2-.3-.2-.5 0-.4.1-.5c.1-.2.2-.3.4-.4.2-.1.5-.1.8-.1h1.3v.3h-1.3c-.4 0-.6.1-.8.2-.2.1-.2.3-.2.5s.1.4.3.6.4.2.8.2c.3 0 .6-.1.8-.2.2-.1.4-.3.5-.6l.1.2c-.1.3-.3.5-.5.6-.2.2-.5.2-.9.2zm1.3 0v-2.3c0-.3-.1-.6-.3-.8-.2-.2-.5-.3-.8-.3-.3 0-.5 0-.7.1l-.6.3-.2-.3c.2-.2.4-.3.7-.4.3-.1.5-.1.8-.1.5 0 .8.1 1 .3s.4.6.4 1v2.3h-.3zm6.7-3.7c.3 0 .6.1.8.2.2.1.4.3.5.5.1.2.2.5.2.9v2.1h-.4v-2.1c0-.4-.1-.7-.3-.9-.2-.2-.5-.3-.8-.3-.3 0-.5.1-.7.2s-.4.3-.5.5-.2.5-.2.8v2h-.4v-2.1c0-.4-.1-.7-.3-.9-.2-.2-.5-.3-.8-.3-.3 0-.5.1-.7.2-.2.1-.4.3-.5.5s-.2.5-.2.8v2h-.2v-3.7h.3v1-.1c.1-.3.3-.5.5-.7s.6-.3.9-.3c.4 0 .7.1.9.3.3.2.4.5.5.8h-.1c.1-.3.3-.6.6-.8.2-.5.5-.6.9-.6zm7.2 0c.3 0 .6.1.8.2.2.1.4.3.5.5.1.2.2.5.2.9v2.1h-.4v-2.1c0-.4-.1-.7-.3-.9-.2-.2-.5-.3-.9-.3-.3 0-.5.1-.7.2-.2.1-.4.3-.5.5-.1.2-.2.5-.2.8v2h-.4V311h.3v1-.1c.1-.3.3-.5.6-.7s.7-.4 1-.4zm4.7 3.7c-.4 0-.7-.1-.9-.2s-.5-.4-.7-.7c-.2-.3-.2-.6-.2-1s.1-.7.2-1c.2-.3.4-.5.7-.7s.6-.2.9-.2.7.1.9.2c.3.2.5.4.7.7.2.3.2.6.2 1s-.1.7-.2 1c-.2.3-.4.5-.7.7-.2.2-.5.2-.9.2zm0-.3c.3 0 .5-.1.8-.2.2-.1.4-.3.5-.5s.2-.5.2-.8c0-.3-.1-.6-.2-.8-.1-.2-.3-.4-.5-.5-.2-.1-.5-.2-.8-.2s-.5.1-.8.2c-.2.1-.4.3-.5.5-.1.2-.2.5-.2.8 0 .3.1.6.2.8.1.2.3.4.5.5.3.2.6.2.8.2zm5.1-3.4c.3 0 .6.1.8.2.2.1.4.3.5.5.1.2.2.5.2.9v2.1h-.4v-2.1c0-.4-.1-.7-.3-.9-.2-.2-.5-.3-.9-.3-.3 0-.5.1-.7.2-.2.1-.4.3-.5.5-.1.2-.2.5-.2.8v2h-.4V311h.3v1-.1c.1-.3.3-.5.6-.7s.6-.4 1-.4zm4.8 3.7c-.3 0-.6-.1-.8-.2-.2-.1-.4-.3-.5-.5-.1-.2-.2-.5-.2-.9v-2.1h.4v2.1c0 .4.1.7.3.9.2.2.5.3.9.3.3 0 .5-.1.7-.2.2-.1.4-.3.5-.5.1-.2.2-.5.2-.8v-2h.4v3.7h-.3v-1 .1c-.1.3-.3.5-.5.7-.5.4-.8.4-1.1.4zm8.1-3.7c.3 0 .6.1.8.2.2.1.4.3.5.5.1.2.2.5.2.9v2.1h-.4v-2.1c0-.4-.1-.7-.3-.9-.2-.2-.5-.3-.8-.3-.3 0-.5.1-.7.2s-.4.3-.5.5-.2.5-.2.8v2h-.4v-2.1c0-.4-.1-.7-.3-.9-.2-.2-.5-.3-.8-.3-.3 0-.5.1-.7.2-.2.1-.4.3-.5.5s-.2.5-.2.8v2h-.4v-3.7h.3v1-.1c.1-.3.3-.5.5-.7s.6-.3.9-.3c.4 0 .7.1.9.3.3.2.4.5.5.8h-.1c.1-.3.3-.6.6-.8.4-.5.7-.6 1.1-.6zm2.9 2v-.3h1.8v.3h-1.8zM52.7 324.9c.3 0 .6.1.8.2.2.1.4.3.5.5.1.2.2.5.2.9v2.1h-.4v-2.1c0-.4-.1-.7-.3-.9-.2-.2-.5-.3-.8-.3-.3 0-.5.1-.7.2-.2.1-.4.3-.5.5s-.2.5-.2.8v2H51v-2.1c0-.4-.1-.7-.3-.9-.2-.2-.5-.3-.8-.3-.3 0-.5.1-.7.2-.2.1-.4.3-.5.5s-.2.5-.2.8v2h-.4v-3.7h.3v1-.1c.1-.3.3-.5.5-.7s.6-.3.9-.3c.4 0 .7.1.9.3.3.2.4.5.5.8h-.1c.1-.3.3-.6.6-.8.3-.5.6-.6 1-.6zm3.1 5.1c-.2 0-.3 0-.5-.1-.1-.1-.3-.1-.4-.2l.2-.3c.1.1.2.2.3.2s.2.1.4.1.3 0 .4-.1c.1-.1.2-.3.4-.5l.3-.6v-.1l1.5-3.5h.4l-1.9 4.2c-.1.2-.2.4-.3.5-.1.1-.2.2-.4.3-.1 0-.2.1-.4.1zm1.1-1.3l-1.7-3.8h.4l1.5 3.5-.2.3zm7-3.8c.3 0 .6.1.8.2.2.1.4.3.5.5.1.2.2.5.2.9v2.1H65v-2.1c0-.4-.1-.7-.3-.9-.2-.2-.5-.3-.9-.3-.3 0-.5.1-.7.2-.2.1-.4.3-.5.5s-.2.5-.2.8v2H62v-3.7h.3v1-.1c.1-.3.3-.5.6-.7.3-.4.6-.4 1-.4zm3.4-.9c-.1 0-.1 0-.2-.1s-.1-.1-.1-.2 0-.1.1-.2.1-.1.2-.1.2 0 .2.1.1.1.1.2 0 .1-.1.2c0 .1-.1.1-.2.1zm-.1 4.6v-3.7h.4v3.7h-.4zm2.2 0v-5.2h.4v2.7l-.1.6.1.6v1.2h-.4zm1.8 0c-.3 0-.6-.1-.9-.2-.3-.1-.5-.4-.6-.6-.2-.3-.2-.6-.2-1s.1-.7.2-1c.2-.3.4-.5.6-.6.3-.2.6-.2.9-.2.3 0 .7.1.9.2.3.2.5.4.6.7.2.3.2.6.2 1s-.1.7-.2 1c-.2.3-.4.5-.6.7-.3-.1-.6 0-.9 0zm0-.3c.3 0 .5-.1.8-.2.2-.1.4-.3.5-.5s.2-.5.2-.8c0-.3-.1-.6-.2-.8-.1-.2-.3-.4-.5-.5-.2-.1-.5-.2-.8-.2-.3 0-.5.1-.8.2-.2.1-.4.3-.5.5-.1.2-.2.5-.2.8 0 .3.1.6.2.8s.3.4.5.5c.2.1.5.2.8.2zm5-3.4c.3 0 .6.1.8.2.2.1.4.3.5.5.1.2.2.5.2.9v2.1h-.4v-2.1c0-.4-.1-.7-.3-.9-.2-.2-.5-.3-.9-.3-.3 0-.5.1-.7.2-.2.1-.4.3-.5.5s-.2.5-.2.8v2h-.4v-5.2h.4v2.6l-.1-.1c.1-.3.3-.5.6-.7.3-.5.6-.5 1-.5zm6.9 3.7c-.4 0-.7-.1-1-.2s-.5-.4-.7-.7c-.2-.3-.2-.6-.2-1s.1-.7.2-1c.2-.3.4-.5.6-.7s.6-.2.9-.2c.3 0 .6.1.9.2.3.2.5.4.6.7.2.3.2.6.2 1v.1h-3.2v-.3h3l-.1.1c0-.3-.1-.5-.2-.8-.1-.2-.3-.4-.5-.5s-.5-.2-.7-.2c-.3 0-.5.1-.7.2-.2.1-.4.3-.5.5s-.2.5-.2.8v.1c0 .3.1.6.2.8.1.2.3.4.6.5s.5.2.8.2c.2 0 .5 0 .7-.1.2-.1.4-.2.5-.4l.2.2c-.2.2-.4.3-.6.4s-.5.3-.8.3zm4.6 0c-.3 0-.6-.1-.8-.2-.2-.1-.4-.3-.5-.5-.1-.2-.2-.5-.2-.9v-2.1h.4v2.1c0 .4.1.7.3.9.2.2.5.3.9.3.3 0 .5-.1.7-.2.2-.1.4-.3.5-.5.1-.2.2-.5.2-.8v-2h.4v3.7h-.3v-1 .1c-.1.3-.3.5-.5.7-.5.3-.8.4-1.1.4zm3.7-4.6c-.1 0-.1 0-.2-.1s-.1-.1-.1-.2 0-.1.1-.2.1-.1.2-.1.2 0 .2.1.1.1.1.2 0 .1-.1.2c0 .1-.1.1-.2.1zm-.2 4.6v-3.7h.4v3.7h-.4zm3.1 0c-.3 0-.6 0-.9-.1-.3-.1-.5-.2-.6-.3l.2-.3c.1.1.3.2.6.3.2.1.5.1.8.1.4 0 .7-.1.8-.2.2-.1.3-.3.3-.5s0-.3-.1-.4c-.1-.1-.2-.2-.3-.2s-.3-.1-.5-.1-.3-.1-.5-.1-.3-.1-.5-.2c-.1-.1-.3-.2-.3-.3-.1-.1-.1-.3-.1-.5s.1-.4.2-.5c.1-.1.3-.3.5-.4.2-.1.5-.1.8-.1.2 0 .5 0 .7.1l.6.3-.2.3c-.2-.1-.3-.2-.5-.3-.2-.1-.4-.1-.6-.1-.4 0-.6.1-.8.2-.2.1-.2.3-.2.5s0 .3.1.4c.1.1.2.2.3.2.1 0 .3.1.5.1s.3.1.5.1.3.1.5.2c.1.1.3.2.3.3.1.1.1.3.1.5s-.1.4-.2.5c-.1.2-.3.3-.5.4-.4 0-.7.1-1 .1zm7.4-3.7c.3 0 .6.1.8.2.2.1.4.3.5.5.1.2.2.5.2.9v2.1h-.4v-2.1c0-.4-.1-.7-.3-.9-.2-.2-.5-.3-.8-.3-.3 0-.5.1-.7.2s-.4.3-.5.5-.2.5-.2.8v2h-.4v-2.1c0-.4-.1-.7-.3-.9-.2-.2-.5-.3-.8-.3-.3 0-.5.1-.7.2-.2.1-.4.3-.5.5s-.2.5-.2.8v2H97v-3.7h.3v1-.1c.1-.3.3-.5.5-.7s.6-.3.9-.3c.4 0 .7.1.9.3.3.2.4.5.5.8h-.1c.1-.3.3-.6.6-.8.3-.5.7-.6 1.1-.6zm4.6 3.7c-.4 0-.7-.1-.9-.2s-.5-.4-.7-.7c-.2-.3-.2-.6-.2-1s.1-.7.2-1c.2-.3.4-.5.7-.7s.6-.2.9-.2.7.1.9.2c.3.2.5.4.7.7.2.3.2.6.2 1s-.1.7-.2 1c-.2.3-.4.5-.7.7-.2.1-.5.2-.9.2zm0-.3c.3 0 .5-.1.8-.2.2-.1.4-.3.5-.5s.2-.5.2-.8c0-.3-.1-.6-.2-.8-.1-.2-.3-.4-.5-.5-.2-.1-.5-.2-.8-.2s-.5.1-.8.2c-.2.1-.4.3-.5.5-.1.2-.2.5-.2.8 0 .3.1.6.2.8.1.2.3.4.5.5.3.1.6.2.8.2zm4.7.3c-.3 0-.6-.1-.9-.2-.3-.2-.5-.4-.6-.7-.2-.3-.2-.6-.2-1s.1-.7.2-1c.2-.3.4-.5.6-.7.3-.2.6-.2.9-.2.3 0 .6.1.9.2.3.1.5.4.6.6.2.3.2.6.2 1s-.1.7-.2 1-.4.5-.6.6c-.3.3-.5.4-.9.4zm0-.3c.3 0 .5-.1.8-.2s.4-.3.5-.5c.1-.2.2-.5.2-.8 0-.3-.1-.6-.2-.8-.1-.2-.3-.4-.5-.5s-.5-.2-.8-.2-.5.1-.8.2c-.2.1-.4.3-.5.5-.1.2-.2.5-.2.8 0 .3.1.6.2.8.1.2.3.4.5.5.3.1.6.2.8.2zm1.5.3v-1.2l.1-.6-.1-.6v-2.7h.4v5.2h-.4zm3.7-3.4v-.3h2.2v.3h-2.2zm1.7 3.4c-.3 0-.6-.1-.7-.3-.2-.2-.3-.4-.3-.7v-3.5h.4v3.5c0 .2.1.4.2.5s.3.2.5.2.4-.1.6-.2l.1.2c-.1.1-.2.2-.3.2s-.3.1-.5.1zm2.3-4.6c-.1 0-.1 0-.2-.1s-.1-.1-.1-.2 0-.1.1-.2.1-.1.2-.1.2 0 .2.1.1.1.1.2 0 .1-.1.2-.1.1-.2.1zm-.2 4.6v-3.7h.4v3.7h-.4zm4-3.7c.3 0 .6.1.8.2.2.1.4.3.5.5.1.2.2.5.2.9v2.1h-.4v-2.1c0-.4-.1-.7-.3-.9-.2-.2-.5-.3-.9-.3-.3 0-.5.1-.7.2-.2.1-.4.3-.5.5-.1.2-.2.5-.2.8v2h-.4v-3.7h.3v1-.1c.1-.3.3-.5.6-.7s.6-.4 1-.4zm4.7 3.7c-.4 0-.7-.1-1-.2-.3-.2-.5-.4-.7-.7-.2-.3-.2-.6-.2-1s.1-.7.2-1c.2-.3.4-.5.7-.7.3-.2.6-.2 1-.2.3 0 .6.1.8.2.2.1.4.3.6.5l-.3.2c-.1-.2-.3-.3-.5-.4s-.4-.1-.6-.1c-.3 0-.5.1-.8.2-.2.1-.4.3-.5.5-.1.2-.2.5-.2.8 0 .3.1.6.2.8.1.2.3.4.5.5.2.1.5.2.8.2.2 0 .4 0 .6-.1s.4-.2.5-.4l.3.2c-.1.2-.3.4-.6.5-.2.1-.5.2-.8.2zm2.9-4.6c-.1 0-.1 0-.2-.1s-.1-.1-.1-.2 0-.1.1-.2.1-.1.2-.1.2 0 .2.1.1.1.1.2 0 .1-.1.2-.1.1-.2.1zm-.2 4.6v-3.7h.4v3.7h-.4zm3.6 0c-.3 0-.6-.1-.9-.2-.3-.2-.5-.4-.6-.7-.2-.3-.2-.6-.2-1s.1-.7.2-1c.2-.3.4-.5.6-.7.3-.2.6-.2.9-.2.3 0 .6.1.9.2.3.1.5.4.6.6.2.3.2.6.2 1s-.1.7-.2 1-.4.5-.6.6c-.3.3-.6.4-.9.4zm0-.3c.3 0 .5-.1.8-.2s.4-.3.5-.5c.1-.2.2-.5.2-.8 0-.3-.1-.6-.2-.8-.1-.2-.3-.4-.5-.5s-.5-.2-.8-.2-.5.1-.8.2c-.2.1-.4.3-.5.5-.1.2-.2.5-.2.8 0 .3.1.6.2.8.1.2.3.4.5.5.3.1.5.2.8.2zm1.5.3v-1.2l.1-.6-.1-.6v-2.7h.4v5.2h-.4zm3.7 0c-.3 0-.6-.1-.8-.2-.2-.1-.4-.3-.5-.5-.1-.2-.2-.5-.2-.9v-2.1h.4v2.1c0 .4.1.7.3.9.2.2.5.3.9.3.3 0 .5-.1.7-.2.2-.1.4-.3.5-.5.1-.2.2-.5.2-.8v-2h.4v3.7h-.3v-1 .1c-.1.3-.3.5-.5.7-.5.3-.8.4-1.1.4zm5.3-3.7c.3 0 .6.1.8.2.2.1.4.3.5.5.1.2.2.5.2.9v2.1h-.4v-2.1c0-.4-.1-.7-.3-.9-.2-.2-.5-.3-.9-.3-.3 0-.5.1-.7.2-.2.1-.4.3-.5.5-.1.2-.2.5-.2.8v2h-.4v-3.7h.3v1-.1c.1-.3.3-.5.6-.7s.6-.4 1-.4zm2.7.3v-.3h2.2v.3h-2.2zm1.7 3.4c-.3 0-.6-.1-.7-.3-.2-.2-.3-.4-.3-.7v-3.5h.4v3.5c0 .2.1.4.2.5s.3.2.5.2.4-.1.6-.2l.1.2c-.1.1-.2.2-.3.2s-.4.1-.5.1zM54 280.3h3.1v.9H53v-5.5h4v.9h-3v3.7zm-.1-2.3h2.7v.8h-2.7v-.8zm6.9-1c.3 0 .6.1.9.2.3.1.5.3.6.6.2.3.2.6.2 1v2.4h-1v-2.3c0-.4-.1-.6-.3-.8-.2-.2-.4-.3-.7-.3-.2 0-.4 0-.6.1-.2.1-.3.2-.4.4s-.1.4-.1.7v2.1h-1V277h.9v1.1l-.2-.3c.1-.3.4-.5.6-.6.5-.1.8-.2 1.1-.2zm5.8 0c.3 0 .6.1.9.2.3.1.5.3.6.6.2.3.2.6.2 1v2.4h-1v-2.3c0-.4-.1-.6-.3-.8-.2-.2-.4-.3-.7-.3-.2 0-.4 0-.6.1-.2.1-.3.2-.4.4s-.1.4-.1.7v2.1h-1v-5.8h1v2.7l-.2-.3c.1-.3.4-.5.6-.6.3 0 .6-.1 1-.1zm4.6 4.3c-.3 0-.6-.1-.8-.2-.2-.1-.4-.3-.5-.4-.1-.2-.2-.4-.2-.6 0-.2.1-.4.2-.6.1-.2.3-.3.5-.4.3-.1.6-.2 1-.2h1.2v.6h-1.1c-.3 0-.6.1-.7.2-.1.1-.2.2-.2.4s.1.3.2.4c.1.1.3.2.6.2.2 0 .5-.1.6-.2s.3-.3.4-.5l.2.6c-.1.2-.3.4-.5.6-.2 0-.5.1-.9.1zm1.3-.1v-.8l-.1-.2v-1.5c0-.3-.1-.5-.3-.7-.2-.2-.4-.2-.8-.2-.2 0-.5 0-.7.1l-.6.3-.4-.7c.2-.2.5-.3.8-.4s.6-.1 1-.1c.6 0 1.1.1 1.4.4.3.3.5.7.5 1.3v2.4h-.8zm4.9-4.2c.3 0 .6.1.9.2.3.1.5.3.6.6.2.3.2.6.2 1v2.4h-1v-2.3c0-.4-.1-.6-.3-.8-.2-.2-.4-.3-.7-.3-.2 0-.4 0-.6.1-.2.1-.3.2-.4.4s-.1.4-.1.7v2.1h-1V277h1v1.1l-.2-.3c.1-.3.4-.5.6-.6.3-.1.6-.2 1-.2zm5.3 4.3c-.4 0-.8-.1-1.2-.3-.3-.2-.6-.4-.8-.8-.2-.3-.3-.7-.3-1.1 0-.4.1-.8.3-1.1.2-.3.5-.6.8-.8.3-.2.7-.3 1.2-.3.4 0 .8.1 1.1.2.3.2.5.4.7.7l-.7.4c-.1-.2-.3-.3-.5-.4s-.4-.1-.6-.1c-.2 0-.5.1-.6.2-.2.1-.3.3-.5.4-.1.2-.2.4-.2.7s.1.5.2.7c.1.2.3.3.5.4.2.1.4.2.6.2.2 0 .4 0 .6-.1s.3-.2.5-.4l.7.4c-.2.3-.4.6-.7.7-.3.3-.7.4-1.1.4zm4.9 0c-.5 0-.9-.1-1.2-.3-.3-.2-.6-.4-.8-.8-.2-.3-.3-.7-.3-1.1 0-.4.1-.8.3-1.1.2-.3.4-.6.8-.8.3-.2.7-.3 1.1-.3.4 0 .8.1 1.1.3.3.2.6.4.7.7.2.3.3.7.3 1.1v.2h-3.5v-.6h3l-.4.2c0-.2 0-.5-.1-.6-.1-.2-.2-.3-.4-.4-.2-.1-.4-.2-.6-.2-.2 0-.4.1-.6.2-.2.1-.3.2-.4.4-.1.2-.2.4-.2.7v.2c0 .3.1.5.2.7.1.2.3.3.5.4.2.1.4.2.7.2.2 0 .4 0 .6-.1.2-.1.4-.2.5-.3l.5.6c-.2.2-.4.4-.7.5s-.7.2-1.1.2zm5.9-.1v-5.5h2.2c.5 0 .9.1 1.2.2s.6.4.8.7c.2.3.3.6.3 1s-.1.7-.3 1c-.2.3-.5.5-.8.7s-.8.2-1.2.2H94l.5-.5v2.1h-1zm1-1.9l-.5-.5h1.6c.4 0 .8-.1 1-.3.2-.2.3-.5.3-.8 0-.3-.1-.6-.3-.8s-.6-.3-1-.3H94l.5-.5v3.2zm4.8 1.9V277h.9v1.1l-.1-.3c.1-.3.3-.5.6-.6.3-.1.6-.2 1-.2v.9h-.2c-.4 0-.7.1-.9.3s-.3.5-.3 1v2h-1zm5.5.1c-.4 0-.8-.1-1.1-.3-.3-.2-.6-.4-.8-.8-.2-.3-.3-.7-.3-1.1 0-.4.1-.8.3-1.1s.5-.6.8-.8c.3-.2.7-.3 1.1-.3.4 0 .8.1 1.1.3.3.2.6.4.8.7.2.3.3.7.3 1.1 0 .4-.1.8-.3 1.1-.2.3-.5.6-.8.8s-.7.4-1.1.4zm0-.9c.2 0 .5-.1.6-.2.2-.1.3-.3.4-.5.1-.2.2-.4.2-.7 0-.3-.1-.5-.2-.7s-.3-.3-.4-.4c-.2-.1-.4-.2-.6-.2-.2 0-.5.1-.6.2-.2.1-.3.3-.4.4-.1.2-.2.4-.2.7 0 .3.1.5.2.7.1.2.3.3.4.5.1.2.4.2.6.2zm5.3.9c-.4 0-.8-.1-1.1-.3s-.6-.4-.8-.7c-.2-.3-.3-.7-.3-1.1 0-.4.1-.8.3-1.1.2-.3.4-.6.8-.7.3-.2.7-.3 1.1-.3.3 0 .7.1.9.2.3.2.5.4.7.7s.2.7.2 1.2-.1.9-.2 1.2c-.2.3-.4.6-.6.7s-.6.2-1 .2zm.1-.9c.2 0 .4-.1.6-.2.2-.1.3-.3.4-.5.1-.2.2-.4.2-.7 0-.3-.1-.5-.2-.7s-.3-.3-.4-.4c-.2-.1-.4-.2-.6-.2-.2 0-.4.1-.6.2-.2.1-.3.3-.4.4-.1.2-.2.4-.2.7 0 .3.1.5.2.7.1.2.3.3.4.5.2.2.4.2.6.2zm1.3.8v-2.1l-.1-1.1v-2.6h1v5.8h-.9zm4.3.1c-.4 0-.7-.1-.9-.2-.3-.1-.5-.3-.6-.6-.2-.3-.2-.6-.2-1V277h1v2.2c0 .4.1.7.3.8.2.2.4.3.7.3.2 0 .4 0 .6-.1.2-.1.3-.2.4-.4.1-.2.1-.4.1-.7V277h1v4.2h-.9v-1.1l.2.3c-.1.3-.3.5-.6.6-.4.2-.7.3-1.1.3zm5.9 0c-.4 0-.8-.1-1.2-.3-.3-.2-.6-.4-.8-.8-.2-.3-.3-.7-.3-1.1 0-.4.1-.8.3-1.1s.5-.6.8-.8c.3-.2.7-.3 1.2-.3.4 0 .8.1 1.1.2s.5.4.7.7l-.7.4c-.1-.2-.3-.3-.5-.4-.2-.1-.4-.1-.6-.1-.2 0-.5.1-.6.2-.2.1-.3.3-.5.4-.1.2-.2.4-.2.7s.1.5.2.7c.1.2.3.3.5.4.2.1.4.2.6.2.2 0 .4 0 .6-.1.2-.1.3-.2.5-.4l.7.4c-.2.3-.4.6-.7.7s-.7.4-1.1.4zm2.5-3.5v-.8h2.8v.8h-2.8zm2.1 3.5c-.5 0-.8-.1-1.1-.4-.2-.2-.4-.6-.4-1v-3.7h1v3.7c0 .2.1.4.2.5.1.1.2.2.4.2s.4-.1.5-.2l.3.7c-.1.1-.3.2-.4.2-.1-.1-.3 0-.5 0zm2.6-5c-.2 0-.3-.1-.4-.2s-.2-.3-.2-.4c0-.2.1-.3.2-.4.1-.1.3-.2.4-.2.2 0 .3.1.4.2.1.1.2.2.2.4s-.1.3-.2.4-.2.2-.4.2zm-.5 4.9V277h1v4.2h-1zm3.8 0l-1.8-4.2h1l1.5 3.7h-.5l1.6-3.7h.9l-1.8 4.2h-.9zm4.3-4.9c-.2 0-.3-.1-.4-.2s-.2-.3-.2-.4c0-.2.1-.3.2-.4.1-.1.3-.2.4-.2.2 0 .3.1.4.2.1.1.2.2.2.4s-.1.3-.2.4-.3.2-.4.2zm-.5 4.9V277h1v4.2h-1zm2.1-3.4v-.8h2.8v.8h-2.8zm2.1 3.5c-.5 0-.8-.1-1.1-.4-.2-.2-.4-.6-.4-1v-3.7h1v3.7c0 .2.1.4.2.5.1.1.2.2.4.2s.4-.1.5-.2l.3.7c-.1.1-.3.2-.4.2-.2-.1-.4 0-.5 0zm2.4 1.5c-.2 0-.4 0-.6-.1-.2-.1-.4-.2-.5-.3l.4-.7c.1.1.2.2.3.2.1.1.3.1.4.1.2 0 .3 0 .4-.1.1-.1.2-.2.3-.4l.2-.5.1-.1 1.6-3.7h.9l-1.9 4.5c-.1.3-.3.6-.4.7-.2.2-.3.3-.5.4-.3-.1-.5 0-.7 0zm.8-1.5l-1.9-4.3h1l1.5 3.6-.6.7z"/><defs><path id="SVGID_5_" d="M151.1 372.1H54.6c-6.4 0-11.6-5.2-11.6-11.6V356c0-6.4 5.2-11.6 11.6-11.6h96.5c6.4 0 11.6 5.2 11.6 11.6v4.5c0 6.4-5.2 11.6-11.6 11.6z"/></defs><clipPath id="SVGID_6_"><use xlink:href="#SVGID_5_" overflow="visible"/></clipPath><path class="st33" d="M52.6 344.4l-4.2 27.7H43v-27.7z"/><path class="st33" d="M54.7 344.4l-4.2 27.7h-2.1l4.2-27.7z"/><path clip-path="url(#SVGID_6_)" fill="#6cc2cc" d="M56.8 344.4l-4.2 27.7h-2.1l4.2-27.7z"/><path clip-path="url(#SVGID_6_)" fill="#6dc2cc" d="M58.9 344.4l-4.2 27.7h-2.1l4.2-27.7z"/><path clip-path="url(#SVGID_6_)" fill="#6ec3cb" d="M61 344.4l-4.2 27.7h-2.1l4.2-27.7z"/><path clip-path="url(#SVGID_6_)" fill="#6fc4ca" d="M63 344.4l-4.1 27.7h-2.1l4.2-27.7z"/><path clip-path="url(#SVGID_6_)" fill="#70c5ca" d="M65.1 344.4L61 372.1h-2.1l4.1-27.7z"/><path clip-path="url(#SVGID_6_)" fill="#71c5c9" d="M67.2 344.4l-4.1 27.7H61l4.1-27.7z"/><path clip-path="url(#SVGID_6_)" fill="#72c6c8" d="M69.3 344.4l-4.1 27.7h-2.1l4.1-27.7z"/><path clip-path="url(#SVGID_6_)" fill="#73c7c8" d="M71.4 344.4l-4.1 27.7h-2.1l4.1-27.7z"/><path clip-path="url(#SVGID_6_)" fill="#74c7c7" d="M73.5 344.4l-4.1 27.7h-2.1l4.1-27.7z"/><path clip-path="url(#SVGID_6_)" fill="#75c8c6" d="M75.6 344.4l-4.1 27.7h-2.1l4.1-27.7z"/><path clip-path="url(#SVGID_6_)" fill="#76c9c5" d="M77.7 344.4l-4.1 27.7h-2.1l4.1-27.7z"/><path clip-path="url(#SVGID_6_)" fill="#77c9c5" d="M79.8 344.4l-4.1 27.7h-2.1l4.1-27.7z"/><path clip-path="url(#SVGID_6_)" fill="#78cac4" d="M81.9 344.4l-4.1 27.7h-2.1l4.1-27.7z"/><path clip-path="url(#SVGID_6_)" fill="#79cbc3" d="M84 344.4l-4.1 27.7h-2.1l4.1-27.7z"/><path clip-path="url(#SVGID_6_)" fill="#7accc3" d="M86.1 344.4L82 372.1h-2.1l4.1-27.7z"/><path clip-path="url(#SVGID_6_)" fill="#7bccc2" d="M88.2 344.4l-4.1 27.7H82l4.1-27.7z"/><path clip-path="url(#SVGID_6_)" fill="#7ccdc1" d="M90.3 344.4l-4.1 27.7h-2.1l4.1-27.7z"/><path clip-path="url(#SVGID_6_)" fill="#7dcec1" d="M92.4 344.4l-4.1 27.7h-2.1l4.1-27.7z"/><path clip-path="url(#SVGID_6_)" fill="#7ecec0" d="M94.5 344.4l-4.1 27.7h-2.1l4.1-27.7z"/><path clip-path="url(#SVGID_6_)" fill="#7fcfbf" d="M96.6 344.4l-4.1 27.7h-2.1l4.1-27.7z"/><path clip-path="url(#SVGID_6_)" fill="#80d0bf" d="M98.7 344.4l-4.1 27.7h-2.1l4.1-27.7z"/><path clip-path="url(#SVGID_6_)" fill="#81d0be" d="M100.8 344.4l-4.1 27.7h-2.1l4.1-27.7z"/><path clip-path="url(#SVGID_6_)" fill="#82d1bd" d="M102.9 344.4l-4.1 27.7h-2.1l4.1-27.7z"/><path clip-path="url(#SVGID_6_)" fill="#83d2bd" d="M105 344.4l-4.1 27.7h-2.1l4.1-27.7z"/><path clip-path="url(#SVGID_6_)" fill="#84d3bc" d="M107.1 344.4l-4.1 27.7h-2.1l4.1-27.7z"/><path clip-path="url(#SVGID_6_)" fill="#85d3bb" d="M109.2 344.4l-4.1 27.7H103l4.1-27.7z"/><path clip-path="url(#SVGID_6_)" fill="#86d4bb" d="M111.3 344.4l-4.2 27.7h-2l4.1-27.7z"/><path clip-path="url(#SVGID_6_)" fill="#87d5ba" d="M113.4 344.4l-4.2 27.7h-2.1l4.2-27.7z"/><path clip-path="url(#SVGID_6_)" fill="#88d5b9" d="M115.5 344.4l-4.2 27.7h-2.1l4.2-27.7z"/><path clip-path="url(#SVGID_6_)" fill="#8ad6b9" d="M117.6 344.4l-4.2 27.7h-2.1l4.2-27.7z"/><path clip-path="url(#SVGID_6_)" fill="#8bd7b8" d="M119.7 344.4l-4.2 27.7h-2.1l4.2-27.7z"/><path clip-path="url(#SVGID_6_)" fill="#8cd7b7" d="M121.8 344.4l-4.2 27.7h-2.1l4.2-27.7z"/><path clip-path="url(#SVGID_6_)" fill="#8dd8b6" d="M123.9 344.4l-4.2 27.7h-2.1l4.2-27.7z"/><path clip-path="url(#SVGID_6_)" fill="#8ed9b6" d="M126 344.4l-4.2 27.7h-2.1l4.2-27.7z"/><path clip-path="url(#SVGID_6_)" fill="#8fdab5" d="M128.1 344.4l-4.2 27.7h-2.1l4.2-27.7z"/><path clip-path="url(#SVGID_6_)" fill="#90dab4" d="M130.2 344.4l-4.2 27.7h-2.1l4.2-27.7z"/><path clip-path="url(#SVGID_6_)" fill="#91dbb4" d="M132.3 344.4l-4.2 27.7H126l4.2-27.7z"/><path clip-path="url(#SVGID_6_)" fill="#92dcb3" d="M134.3 344.4l-4.1 27.7h-2.1l4.2-27.7z"/><path clip-path="url(#SVGID_6_)" fill="#93dcb2" d="M136.4 344.4l-4.1 27.7h-2.1l4.1-27.7z"/><path clip-path="url(#SVGID_6_)" fill="#94ddb2" d="M138.5 344.4l-4.1 27.7h-2.1l4.1-27.7z"/><path clip-path="url(#SVGID_6_)" fill="#95deb1" d="M140.6 344.4l-4.1 27.7h-2.1l4.1-27.7z"/><path clip-path="url(#SVGID_6_)" fill="#96deb0" d="M142.7 344.4l-4.1 27.7h-2.1l4.1-27.7z"/><path clip-path="url(#SVGID_6_)" fill="#97dfb0" d="M144.8 344.4l-4.1 27.7h-2.1l4.1-27.7z"/><path clip-path="url(#SVGID_6_)" fill="#98e0af" d="M146.9 344.4l-4.1 27.7h-2.1l4.1-27.7z"/><path clip-path="url(#SVGID_6_)" fill="#99e1ae" d="M149 344.4l-4.1 27.7h-2.1l4.1-27.7z"/><path clip-path="url(#SVGID_6_)" fill="#9ae1ae" d="M151.1 344.4l-4.1 27.7h-2.1l4.1-27.7z"/><path clip-path="url(#SVGID_6_)" fill="#9be2ad" d="M153.2 344.4l-4.1 27.7H147l4.1-27.7z"/><path clip-path="url(#SVGID_6_)" fill="#9ce3ac" d="M155.3 344.4l-4.1 27.7h-2.1l4.1-27.7z"/><path clip-path="url(#SVGID_6_)" fill="#9de3ac" d="M157.4 344.4l-4.1 27.7h-2.1l4.1-27.7z"/><path clip-path="url(#SVGID_6_)" fill="#9ee4ab" d="M159.5 344.4l-4.1 27.7h-2.1l4.1-27.7z"/><path clip-path="url(#SVGID_6_)" fill="#9fe5aa" d="M161.6 344.4l-4.1 27.7h-2.1l4.1-27.7z"/><path clip-path="url(#SVGID_6_)" fill="#a0e5a9" d="M162.7 351.2l-3.1 20.9h-2.1l4.1-27.7h1.1z"/><path clip-path="url(#SVGID_6_)" fill="#a1e6a9" d="M162.7 365.3l-1 6.8h-2.1l3.1-20.9z"/><path clip-path="url(#SVGID_6_)" fill="#a2e7a8" d="M161.7 372.1l1-6.8v6.8z"/><path class="st32" d="M86.1 360.6c-.4 0-.8-.1-1.2-.2s-.7-.3-.9-.6c-.3-.3-.5-.5-.6-.9-.1-.3-.2-.7-.2-1.1s.1-.8.2-1.1c.1-.3.4-.6.6-.9.3-.3.6-.4.9-.6s.7-.2 1.2-.2c.4 0 .9.1 1.2.2.4.2.7.4.9.7l-.7.6c-.2-.2-.4-.4-.7-.5s-.5-.2-.8-.2-.5 0-.8.1c-.2.1-.4.2-.6.4s-.3.4-.4.6c-.1.2-.1.5-.1.8s0 .5.1.8c.1.2.2.4.4.6.2.2.4.3.6.4.2.1.5.1.8.1s.6-.1.8-.2c.2-.1.5-.3.7-.5l.7.6c-.3.3-.6.5-.9.7-.4.3-.8.4-1.2.4zm5.1 0c-.4 0-.8-.1-1.1-.3-.3-.2-.6-.4-.8-.8-.2-.3-.3-.7-.3-1.1 0-.4.1-.8.3-1.1s.5-.6.8-.8c.3-.2.7-.3 1.1-.3.4 0 .8.1 1.1.3.3.2.6.4.8.7.2.3.3.7.3 1.1 0 .4-.1.8-.3 1.1-.2.3-.5.6-.8.8s-.7.4-1.1.4zm0-.9c.2 0 .5-.1.6-.2.2-.1.3-.3.4-.5.1-.2.2-.4.2-.7 0-.3-.1-.5-.2-.7s-.3-.3-.4-.4c-.2-.1-.4-.2-.6-.2-.2 0-.5.1-.6.2-.2.1-.3.3-.4.4-.1.2-.2.4-.2.7 0 .3.1.5.2.7.1.2.3.3.4.5.2.2.4.2.6.2zm5.9-3.4c.3 0 .6.1.9.2.3.1.5.3.6.6.2.3.2.6.2 1v2.4h-1v-2.3c0-.4-.1-.6-.3-.8-.2-.2-.4-.3-.7-.3-.2 0-.4 0-.6.1-.2.1-.3.2-.4.4-.1.2-.1.4-.1.7v2.1h-1v-4.2h.9v1.1l-.2-.3c.1-.3.4-.5.6-.6.4 0 .8-.1 1.1-.1zm2.8.9v-.8h2.8v.8h-2.8zm2.1 3.4c-.5 0-.8-.1-1.1-.4-.2-.2-.4-.6-.4-1v-3.7h1v3.7c0 .2.1.4.2.5.1.1.2.2.4.2s.4-.1.5-.2l.3.7c-.1.1-.3.2-.4.2h-.5zm2.7-4.9c-.2 0-.3-.1-.4-.2s-.2-.3-.2-.4c0-.2.1-.3.2-.4.1-.1.3-.2.4-.2.2 0 .3.1.4.2.1.1.2.2.2.4s-.1.3-.2.4-.2.2-.4.2zm-.5 4.8v-4.2h1v4.2h-1zm5-4.2c.3 0 .6.1.9.2.3.1.5.3.6.6.2.3.2.6.2 1v2.4h-1v-2.3c0-.4-.1-.6-.3-.8-.2-.2-.4-.3-.7-.3-.2 0-.4 0-.6.1-.2.1-.3.2-.4.4-.1.2-.1.4-.1.7v2.1h-1v-4.2h.9v1.1l-.2-.3c.1-.3.4-.5.6-.6.4 0 .7-.1 1.1-.1zm5.1 4.3c-.4 0-.7-.1-.9-.2-.3-.1-.5-.3-.6-.6-.2-.3-.2-.6-.2-1v-2.4h1v2.2c0 .4.1.7.3.8.2.2.4.3.7.3.2 0 .4 0 .6-.1.2-.1.3-.2.4-.4.1-.2.1-.4.1-.7v-2.1h1v4.2h-.9v-1.1l.2.3c-.1.3-.3.5-.6.6-.5.1-.8.2-1.1.2zm5.9 0c-.5 0-.9-.1-1.2-.3-.3-.2-.6-.4-.8-.8-.2-.3-.3-.7-.3-1.1 0-.4.1-.8.3-1.1s.4-.6.8-.8c.3-.2.7-.3 1.1-.3.4 0 .8.1 1.1.3.3.2.6.4.7.7.2.3.3.7.3 1.1v.2h-3.5v-.6h3l-.4.2c0-.2 0-.5-.1-.6-.1-.2-.2-.3-.4-.4-.2-.1-.4-.2-.6-.2-.2 0-.4.1-.6.2-.2.1-.3.2-.4.4-.1.2-.2.4-.2.7v.2c0 .3.1.5.2.7.1.2.3.3.5.4.2.1.4.2.7.2.2 0 .4 0 .6-.1.2-.1.4-.2.5-.3l.5.6c-.2.2-.4.4-.7.5s-.7.2-1.1.2z"/><defs><path id="SVGID_7_" d="M164.9 399.5h-127c-14.4 0-26.1-11.7-26.1-26.1V36.1C11.7 21.7 23.4 10 37.8 10h127c14.4 0 26.1 11.7 26.1 26.1v337.3c.1 14.4-11.6 26.1-26 26.1z"/></defs><clipPath id="SVGID_8_"><use xlink:href="#SVGID_7_" overflow="visible"/></clipPath><g opacity=".29" clip-path="url(#SVGID_8_)"><g class="st89"><path class="st90" d="M23 99.2c-4.5-11.7-5.8-24.2 7.2-30 9.7-4.3 17.7.9 27.6 2.4 11.2 1.8 22.5-1.1 30.8-9.1 15.8-15.1 14-47.9-9.3-54.2-5.8-1.6-12.1 5.4-8.3 10.8 4.6 6.6 11.9 13.6 9.9 22.5C77.8 55 63.1 54.4 52.9 52c-11.5-2.6-22-4.5-32.8 1.6C1.7 64.2-4 90.9 13.5 104.8c3.9 3 11.8.4 9.5-5.6z"/></g><path class="st91" d="M21 97.2c-4.5-11.7-5.8-24.2 7.2-30 9.7-4.3 17.7.9 27.6 2.4 11.2 1.8 22.5-1.1 30.8-9.1 15.8-15.1 14-47.9-9.3-54.2-5.8-1.6-12.1 5.4-8.3 10.8 4.6 6.6 11.9 13.6 9.9 22.5C75.8 53 61.1 52.4 50.9 50c-11.5-2.6-22-4.5-32.8 1.6C-.3 62.2-6 88.9 11.5 102.8c3.9 3 11.8.4 9.5-5.6z"/></g><g opacity=".36" clip-path="url(#SVGID_8_)"><g class="st89"><path class="st90" d="M168.5 262.9c-25.2 3.6-42.5 26.6-32.7 52.2 9.1 23.9 40.3 35.2 62.2 21.6 20.3-12.6 26.6-42.4 12.6-61.9-13.5-18.8-47.4-25.6-62.7-5.6-4.8 6.3 3.2 15.6 10.2 13.3 12.3-4.1 23.9-9.4 35.3.7 10.7 9.5 8 27.7-2.7 36.3-11.4 9-29.9 3.7-36.7-8.6-7.6-13.6 2.1-36.6 16.1-42.3 3.6-1.4 2.2-6.3-1.6-5.7z"/></g><path class="st93" d="M166.5 260.9c-25.2 3.6-42.5 26.6-32.7 52.2 9.1 23.9 40.3 35.2 62.2 21.6 20.3-12.6 26.6-42.4 12.6-61.9-13.5-18.8-47.4-25.6-62.7-5.6-4.8 6.3 3.2 15.6 10.2 13.3 12.3-4.1 23.9-9.4 35.3.7 10.7 9.5 8 27.7-2.7 36.3-11.4 9-29.9 3.7-36.7-8.6-7.6-13.6 2.1-36.6 16.1-42.3 3.6-1.4 2.2-6.3-1.6-5.7z"/></g><g opacity=".46" clip-path="url(#SVGID_8_)"><g class="st89"><path class="st90" d="M171.9 81.1c6.9-2.2 12.1-8.2 17.4-12.9l18.6-16.5c5.2-4.6-2.4-12.2-7.6-7.6-5.9 5.2-11.7 10.5-17.5 15.8-5.2 4.7-12.1 9.3-15.1 15.8-1.2 2.6.9 6.4 4.2 5.4z"/></g><path class="st95" d="M169.9 79.1c6.9-2.2 12.1-8.2 17.4-12.9l18.6-16.5c5.2-4.6-2.4-12.2-7.6-7.6-5.9 5.2-11.7 10.5-17.5 15.8-5.2 4.7-12.1 9.3-15.1 15.8-1.2 2.6.9 6.4 4.2 5.4z"/></g><g opacity=".34" clip-path="url(#SVGID_8_)"><g class="st89"><path class="st90" d="M-5.6 234.3c2.3 6.8 8.4 12 13.2 17.2 5.6 6.1 11.1 12.3 16.8 18.4 4.7 5.1 12.1-2.6 7.5-7.7-5.3-5.8-10.7-11.5-16-17.3-4.8-5.2-9.5-12-16-14.9-2.9-1.2-6.6.9-5.5 4.3z"/></g><path class="st97" d="M-7.6 232.3c2.3 6.8 8.4 12 13.2 17.2 5.6 6.1 11.1 12.3 16.8 18.4 4.7 5.1 12.1-2.6 7.5-7.7-5.3-5.8-10.7-11.5-16-17.3-4.8-5.2-9.5-12-16-14.9-2.9-1.2-6.6.9-5.5 4.3z"/></g><path class="st98" d="M53.1 245.1l.6 6.5 11.4 2.3-1.2-7.2z"/><path class="st93" d="M53.7 251.6s-16-.1-14.9 1c1.2 1.1 27.2 5 27.2 5l-.9-3.7-11.4-2.3z"/><ellipse transform="rotate(-13.615 48.304 252.617)" class="st99" cx="48.3" cy="252.6" rx=".2" ry="1.2"/><ellipse transform="rotate(-10.765 49.71 252.653)" class="st99" cx="49.7" cy="252.7" rx=".2" ry="1.1"/><path class="st99" d="M51.5 254.1c-.1.1-.5-.5-.7-1.2-.2-.7-.3-1.4-.2-1.4.1 0 .3.6.5 1.3.3.7.5 1.3.4 1.3zm.4-2.1s-.1-.1-.3-.4c-.1-.3-.3-.7-.2-1.2 0-.3.2-.6.3-.8.1-.1.2-.3.3-.4.1-.1.1-.1.3-.2.1-.1.3 0 .4.1.2.3 0 .5 0 .7 0 .2-.1.4-.2.5-.1.4-.3.7-.6 1-.1.1-.1.2-.3.3-.1.1-.3.1-.5.1-.3-.1-.3-.3-.5-.4-.2-.3-.4-.6-.6-1-.1-.2-.1-.3-.2-.5 0-.2 0-.5.3-.6.3-.1.5.1.6.2.1.1.2.2.2.4.5 1 .3 1.7.3 1.7-.1 0 0-.7-.5-1.5-.1-.2-.3-.5-.4-.4 0 0-.1.1-.1.2s.1.3.1.4c.1.3.3.6.5.8l.3.3s.1 0 .2-.2c.2-.3.4-.6.5-1 .1-.2.1-.3.2-.5 0-.2.1-.3 0-.4.1 0 0 0-.2.1l-.3.3c-.2.2-.3.5-.3.7-.1.5 0 .9 0 1.1.7.5.8.6.7.6zm13.8 4.7h-.3c-.2 0-.5 0-.8-.1-.8-.1-1.7-.2-2.9-.3-2.4-.3-5.8-.7-9.5-1.3-3.7-.6-7.1-1.2-9.5-1.7-1.1-.2-2.1-.4-2.9-.6-.3-.1-.5-.1-.8-.2-.2 0-.3-.1-.3-.1h.3c.2 0 .5.1.8.1.8.1 1.7.3 2.9.6 2.4.5 5.8 1.1 9.5 1.6 3.7.6 7.1 1 9.5 1.3 1.2.1 2.1.3 2.9.4.3 0 .6.1.8.1.2.2.3.2.3.2z"/><path class="st99" d="M61.8 256.4s.3-1 1.4-1.5c1.1-.5 2.1-.2 2.1-.2 0 .1-1-.2-2 .3-1 .6-1.4 1.5-1.5 1.4z"/><ellipse transform="rotate(-77.96 57.935 254.705)" class="st99" cx="57.9" cy="254.7" rx=".1" ry="2"/><path class="st32" d="M53.7 251.6l-.1-1.4 11.1 1 .4 2.7z"/><path class="st98" d="M92.6 247.1l2.4 6.1 11.6-.9-3.1-6.6z"/><path class="st93" d="M95 253.2s-15.4 4.3-14 5.1c1.4.8 27.5-2.7 27.5-2.7l-1.9-3.2-11.6.8z"/><ellipse transform="rotate(-29.588 90.04 255.661)" class="st99" cx="90" cy="255.7" rx=".2" ry="1.2"/><ellipse transform="rotate(-26.735 91.427 255.352)" class="st99" cx="91.4" cy="255.4" rx=".2" ry="1.1"/><path class="st99" d="M93.5 256.2c-.1.1-.6-.3-1-1-.4-.6-.6-1.2-.5-1.3.1-.1.4.4.9 1.1.4.6.7 1.1.6 1.2zm-.1-2.1s-.2 0-.4-.3c-.2-.2-.5-.6-.5-1.1 0-.3 0-.6.1-.9.1-.2.1-.3.2-.5 0-.1.1-.2.2-.2.1-.1.3-.1.5 0 .2.2.2.5.2.6v.6c0 .4-.1.8-.2 1.2 0 .1-.1.2-.2.3-.1.1-.3.2-.4.2-.3-.1-.4-.2-.6-.3-.3-.2-.6-.5-.8-.8-.1-.1-.2-.3-.3-.5-.1-.2-.1-.5.1-.6.2-.2.5-.1.6 0l.3.3c.7.8.8 1.5.7 1.5-.1 0-.2-.6-.9-1.3-.2-.2-.4-.4-.5-.3 0 0-.1.1 0 .2s.2.2.3.4l.7.7c.1.1.3.2.4.2l.2-.2c.1-.3.2-.7.2-1.1v-.9l-.1.1c-.1.1-.1.2-.2.4-.1.3-.1.5-.1.8 0 .5.2.8.4 1.1 0 .3.1.4.1.4zm14.5.7s-.1 0-.3.1c-.2 0-.5.1-.8.2-.8.1-1.7.3-2.9.5-2.4.4-5.8.9-9.5 1.4-3.7.5-7.1.8-9.6 1-1.2.1-2.1.2-2.9.2h-1.1.3c.2 0 .5 0 .8-.1.8-.1 1.7-.2 2.9-.3 2.5-.2 5.8-.6 9.6-1 3.7-.5 7.1-1 9.5-1.3 1.2-.2 2.1-.3 2.9-.5.3 0 .6-.1.8-.1.2-.1.3-.1.3-.1z"/><path class="st99" d="M104.1 255.6s0-1 1-1.9c.9-.8 2-.8 2-.7 0 0-1 .1-1.9.9-.9.7-1.1 1.7-1.1 1.7z"/><ellipse transform="matrix(.9976 -.06974 .06974 .9976 -17.542 7.588)" class="st99" cx="99.9" cy="255" rx="2" ry=".1"/><path class="st32" d="M95 253.2l-.5-1.3 11-2.1 1.1 2.5z"/><path class="st100" d="M115.3 71.8c1.6-1.4 3.1-2.3 5-2.7 1.9-.4 3.9-.2 5.9.1 1.8.2 3.6.5 5.2 1.2s3.2 1.9 3.9 3.5c.6 1.4.6 3 .8 4.6.2 1.5.7 3.2 2 4.1 1.3.9 3.1.7 4.5 1.4 2 .9 3.1 3.2 3.2 5.4s-.6 4.4-1.4 6.4c2.4.2 4.9.4 7.1 1.5 2.2 1.1 4 3.1 4.2 5.6.1 2.3-1.2 4.4-2.5 6.3 2.1-1.1 4.8.1 5.9 2.1 1.1 2.1.6 4.7-.8 6.6-1.4 1.9-3.6 3-5.8 3.6-2.2.6-4.6.6-6.9.6-5.3 0-10.6 0-15.8-.9-5.2-.9-10.4-2.7-14.7-5.8-2.1-1.5-4-3.4-4.8-5.8-.9-2.4-.4-5.4 1.6-7 .5-.4 1.1-.7 1.3-1.3.5-1.1-.5-2.2-1.5-2.8-1-.5-2.2-.9-2.9-1.8-.8-1.2-.3-2.9.6-4.1.9-1.2 2.1-2 3-3.2 1.8-2.5 1.8-5.8 1.8-8.9-.1-3.1-1.2-6.6 1.1-8.7"/><path class="st32" d="M151.9 117.4c-2.4-4.2-5-7.6-6.9-8.9 0 0-5.8-5.9-23-5.9-4.4 0-8 1.6-10.5 3.7-.2.2.2-.2 0 0L79.9 135l3.8 17.2 26.1-21 1.2 11.7-5.3 26.4 38.4.9v-9.5c8.8-.3 17.6-1.1 20-3 5.5-4.3-9.1-35.1-12.2-40.3zm-7.1 29.4c0-3.3-1.8-13.8-1.8-17.1l6.3 16.3-4.5.8z"/><path d="M77.2 169.4H56.4s-8.2 1.9-8 10.3c.2 8.4 0 67.4 0 67.4h21.4l-1.2-58.7 14.1-.8-5.5-18.2z" fill="#312a77"/><path d="M74.5 169.4s-10.3 2.7-8.3 14.3c2 11.7 19.1 64.9 19.1 64.9l24.9-1.7-17.5-54.5h34.9c8 0 14.9-5.7 16.3-13.6.4-2.6.6-5.7.3-9.4H74.5z" fill="#3e308e"/><path class="st103" d="M135.9 79.6l-.4 5.6s4.4.6 3.1 4.6c-1.3 4-4.3 2.3-4.3 2.3s-.8 10.3-11.3 7c-8.4-2.6-7.8-13.6-6.8-22.9.4-3.5 3.7-5.9 7.1-5.2l7 1.4c3.5.6 5.8 3.7 5.6 7.2z"/><path class="st103" d="M135.4 89.5l-2.8 15.1c-.6 3.4-4 5.6-7.4 4.8-3.1-.7-5.1-3.8-4.6-7l1.5-8.7 13.3-4.2z"/><path class="st30" d="M123.7 89.7s-.1.1-.4.2c-.2.1-.6 0-.9-.4-.3-.4-.3-.9-.2-1.6.1-.7.1-1.4.2-2.1.1-1.5.2-2.8.3-3.8.1-1 .1-1.6 0-1.6s-.2.6-.3 1.6c-.1 1-.3 2.3-.4 3.8-.1.7-.1 1.4-.2 2.1-.1.6 0 1.3.3 1.8.4.4.9.5 1.2.3.4-.1.5-.3.4-.3zm-3.8 8s.4.5 1.3.9c.9.5 2.2.9 3.7 1 1.5 0 2.9-.4 3.7-.8.9-.4 1.3-.9 1.3-.9 0-.1-.5.3-1.4.6-.9.4-2.2.7-3.6.7s-2.7-.4-3.6-.8c-.8-.4-1.3-.7-1.4-.7zm2.5-5.9s.1.3.6.6c.4.3 1.2.5 2.1.3.8-.3 1.3-.9 1.5-1.4.2-.5.1-.9.1-.9-.1 0-.1.3-.3.7-.2.4-.7 1-1.4 1.2-.7.2-1.4.1-1.8-.1-.5-.2-.7-.4-.8-.4z"/><path class="st30" d="M126.2 90.2c0 .1.4.2.8.5s.6.7.7.6c.1 0 0-.6-.4-.9-.6-.3-1.1-.3-1.1-.2zm9.6.1s.3.1.7 0c.2-.1.5-.3.6-.6.1-.1.1-.3 0-.5 0-.2-.2-.4-.4-.4-.3-.1-.6 0-.8.2l.3.2c.3-.8.5-1.5.5-1.5-.1 0-.4.5-.8 1.4l.3.2c0-.1.2-.1.3-.1.2.1.2.3.2.5-.1.2-.2.3-.3.4-.4.2-.6.2-.6.2z"/><ellipse transform="rotate(-77.297 118.994 82.242)" class="st30" cx="119" cy="82.2" rx=".8" ry=".2"/><ellipse transform="rotate(-74.509 127.35 83.066)" class="st30" cx="127.3" cy="83.1" rx=".9" ry=".2"/><ellipse class="st97" cx="66" cy="105.3" rx="12.2" ry="12.3"/><path class="st97" d="M76.8 118.5l-5.7-2.8 4.7-3.4z"/><defs><path id="SVGID_9_" d="M55.5 134.5l7.4 34.8h65.9v-1.8l-25.2.3-7.5-33.3z"/></defs><clipPath id="SVGID_10_"><use xlink:href="#SVGID_9_" overflow="visible"/></clipPath><path d="M55.5 134.5v34.8-34.8zm0 0h1.3v34.8h-1.3z" clip-path="url(#SVGID_10_)" fill="#e58f7e"/><path clip-path="url(#SVGID_10_)" fill="#e58e7e" d="M56.8 134.5h1.3v34.8h-1.3z"/><path clip-path="url(#SVGID_10_)" fill="#e58d7e" d="M58.1 134.5h1.3v34.8h-1.3z"/><path clip-path="url(#SVGID_10_)" fill="#e58b7e" d="M59.4 134.5h1.3v34.8h-1.3z"/><path clip-path="url(#SVGID_10_)" fill="#e48a7e" d="M60.7 134.5H62v34.8h-1.3z"/><path clip-path="url(#SVGID_10_)" fill="#e4897e" d="M62 134.5h1.3v34.8H62z"/><path clip-path="url(#SVGID_10_)" fill="#e4887e" d="M63.3 134.5h1.3v34.8h-1.3z"/><path clip-path="url(#SVGID_10_)" fill="#e4867e" d="M64.5 134.5h1.3v34.8h-1.3z"/><path clip-path="url(#SVGID_10_)" fill="#e4857e" d="M65.8 134.5h1.3v34.8h-1.3z"/><path clip-path="url(#SVGID_10_)" fill="#e4847e" d="M67.1 134.5h1.3v34.8h-1.3z"/><path clip-path="url(#SVGID_10_)" fill="#e3837e" d="M68.4 134.5h1.3v34.8h-1.3z"/><path clip-path="url(#SVGID_10_)" fill="#e3827e" d="M69.7 134.5H71v34.8h-1.3z"/><path clip-path="url(#SVGID_10_)" fill="#e3807e" d="M71 134.5h1.3v34.8H71z"/><path clip-path="url(#SVGID_10_)" fill="#e37f7e" d="M72.2 134.5h1.3v34.8h-1.3z"/><path clip-path="url(#SVGID_10_)" fill="#e37e7e" d="M73.5 134.5h1.3v34.8h-1.3z"/><path clip-path="url(#SVGID_10_)" fill="#e37d7e" d="M74.8 134.5h1.3v34.8h-1.3z"/><path clip-path="url(#SVGID_10_)" fill="#e37c7e" d="M76.1 134.5h1.3v34.8h-1.3z"/><path clip-path="url(#SVGID_10_)" fill="#e27a7e" d="M77.4 134.5h1.3v34.8h-1.3z"/><path clip-path="url(#SVGID_10_)" fill="#e2797e" d="M78.7 134.5H80v34.8h-1.3z"/><path clip-path="url(#SVGID_10_)" fill="#e2787e" d="M80 134.5h1.3v34.8H80z"/><path clip-path="url(#SVGID_10_)" fill="#e2777e" d="M81.2 134.5h1.3v34.8h-1.3z"/><path clip-path="url(#SVGID_10_)" fill="#e2767e" d="M82.5 134.5h1.3v34.8h-1.3z"/><path clip-path="url(#SVGID_10_)" fill="#e2757e" d="M83.8 134.5h1.3v34.8h-1.3z"/><path clip-path="url(#SVGID_10_)" fill="#e2747e" d="M85.1 134.5h1.3v34.8h-1.3z"/><path clip-path="url(#SVGID_10_)" fill="#e2737e" d="M86.4 134.5h1.3v34.8h-1.3z"/><path clip-path="url(#SVGID_10_)" fill="#e1717f" d="M87.7 134.5H89v34.8h-1.3z"/><path clip-path="url(#SVGID_10_)" fill="#e1707f" d="M88.9 134.5h1.3v34.8h-1.3z"/><path clip-path="url(#SVGID_10_)" fill="#e16f7f" d="M90.2 134.5h1.3v34.8h-1.3z"/><path clip-path="url(#SVGID_10_)" fill="#e16e7f" d="M91.5 134.5h1.3v34.8h-1.3z"/><path clip-path="url(#SVGID_10_)" fill="#e16d7f" d="M92.8 134.5h1.3v34.8h-1.3z"/><path clip-path="url(#SVGID_10_)" fill="#e16c7f" d="M94.1 134.5h1.3v34.8h-1.3z"/><path clip-path="url(#SVGID_10_)" fill="#e16b7f" d="M95.4 134.5h1.3v34.8h-1.3z"/><path clip-path="url(#SVGID_10_)" fill="#e06a7f" d="M96.7 134.5H98v34.8h-1.3z"/><path clip-path="url(#SVGID_10_)" fill="#e0697f" d="M97.9 134.5h1.3v34.8h-1.3z"/><path clip-path="url(#SVGID_10_)" fill="#e0687f" d="M99.2 134.5h1.3v34.8h-1.3z"/><path clip-path="url(#SVGID_10_)" fill="#e0677f" d="M100.5 134.5h1.3v34.8h-1.3z"/><path clip-path="url(#SVGID_10_)" fill="#e0667f" d="M101.8 134.5h1.3v34.8h-1.3z"/><path clip-path="url(#SVGID_10_)" fill="#e0657f" d="M103.1 134.5h1.3v34.8h-1.3z"/><path clip-path="url(#SVGID_10_)" fill="#e0647f" d="M104.4 134.5h1.3v34.8h-1.3z"/><path clip-path="url(#SVGID_10_)" fill="#e0637f" d="M105.6 134.5h1.3v34.8h-1.3z"/><path clip-path="url(#SVGID_10_)" fill="#df627f" d="M106.9 134.5h1.3v34.8h-1.3z"/><path clip-path="url(#SVGID_10_)" fill="#df617f" d="M108.2 134.5h1.3v34.8h-1.3z"/><path clip-path="url(#SVGID_10_)" fill="#df607f" d="M109.5 134.5h1.3v34.8h-1.3z"/><path d="M110.8 134.5h1.3v34.8h-1.3zm1.3 0h1.3v34.8h-1.3z" fill="#df5f7f" clip-path="url(#SVGID_10_)"/><path clip-path="url(#SVGID_10_)" fill="#df5e7f" d="M113.3 134.5h1.3v34.8h-1.3z"/><path clip-path="url(#SVGID_10_)" fill="#df5d7f" d="M114.6 134.5h1.3v34.8h-1.3z"/><path clip-path="url(#SVGID_10_)" fill="#df5c7f" d="M115.9 134.5h1.3v34.8h-1.3z"/><path clip-path="url(#SVGID_10_)" fill="#df5b7f" d="M117.2 134.5h1.3v34.8h-1.3z"/><path clip-path="url(#SVGID_10_)" fill="#df5a7f" d="M118.5 134.5h1.3v34.8h-1.3z"/><path clip-path="url(#SVGID_10_)" fill="#de5a7f" d="M119.8 134.5h1.3v34.8h-1.3z"/><path clip-path="url(#SVGID_10_)" fill="#de597f" d="M121.1 134.5h1.3v34.8h-1.3z"/><path d="M122.3 134.5h1.3v34.8h-1.3zm1.3 0h1.3v34.8h-1.3z" fill="#de587f" clip-path="url(#SVGID_10_)"/><path clip-path="url(#SVGID_10_)" fill="#de577f" d="M124.9 134.5h1.3v34.8h-1.3z"/><path d="M126.2 134.5h1.3v34.8h-1.3zm1.3 0h1.3v34.8h-1.3zm1.3 34.8v-34.8 34.8z" fill="#de567f" clip-path="url(#SVGID_10_)"/><defs><path id="SVGID_11_" d="M54 134.5l7.4 34.8h67.4v-1.8l-26.8.3-6.7-33.3z"/></defs><clipPath id="SVGID_12_"><use xlink:href="#SVGID_11_" overflow="visible"/></clipPath><path clip-path="url(#SVGID_12_)" fill="#e58f7e" d="M54.1 134.5H54z"/><path clip-path="url(#SVGID_12_)" fill="#e58e7e" d="M61.1 134.5l-7.1.9v-.9h.1z"/><path clip-path="url(#SVGID_12_)" fill="#e58d7e" d="M68.1 134.5L54 136.3v-.9l7.1-.9z"/><path clip-path="url(#SVGID_12_)" fill="#e58b7e" d="M75.1 134.5L54 137.3v-1l14.1-1.8z"/><path clip-path="url(#SVGID_12_)" fill="#e48a7e" d="M82.1 134.5L54 138.2v-.9l21.1-2.8z"/><path clip-path="url(#SVGID_12_)" fill="#e4897e" d="M89.2 134.5L54 139.1v-.9l28.1-3.7z"/><path clip-path="url(#SVGID_12_)" fill="#e4887e" d="M96.2 134.5L54 140.1v-1l35.2-4.6z"/><path clip-path="url(#SVGID_12_)" fill="#e4867e" d="M103.2 134.5L54 141v-.9l42.2-5.6z"/><path clip-path="url(#SVGID_12_)" fill="#e4857e" d="M110.2 134.5L54 141.9v-.9l49.2-6.5z"/><path clip-path="url(#SVGID_12_)" fill="#e4847e" d="M117.2 134.5L54 142.8v-.9l56.2-7.4z"/><path clip-path="url(#SVGID_12_)" fill="#e3837e" d="M124.2 134.5L54 143.8v-1l63.2-8.3z"/><path clip-path="url(#SVGID_12_)" fill="#e3827e" d="M126.4 134.5l.1.6-72.5 9.6v-.9l70.2-9.3z"/><path clip-path="url(#SVGID_12_)" fill="#e3807e" d="M126.5 135.1l.1.9-72.6 9.6v-.9z"/><path clip-path="url(#SVGID_12_)" fill="#e37f7e" d="M126.6 136l.1.9-72.7 9.7v-1z"/><path clip-path="url(#SVGID_12_)" fill="#e37e7e" d="M126.7 136.9l.1.9-72.8 9.7v-.9z"/><path clip-path="url(#SVGID_12_)" fill="#e37d7e" d="M126.8 137.8l.2.9-73 9.7v-.9z"/><path clip-path="url(#SVGID_12_)" fill="#e37c7e" d="M127 138.7l.1 1-73.1 9.6v-.9z"/><path clip-path="url(#SVGID_12_)" fill="#e27a7e" d="M127.1 139.7l.1.9-73.1 9.7-.1-.6v-.4z"/><path transform="rotate(-7.545 90.702 145.87)" clip-path="url(#SVGID_12_)" fill="#e2797e" d="M53.8 145.4h73.8v.9H53.8z"/><path transform="rotate(-7.545 90.823 146.782)" clip-path="url(#SVGID_12_)" fill="#e2787e" d="M53.9 146.3h73.8v.9H53.9z"/><path transform="rotate(-7.545 90.944 147.694)" clip-path="url(#SVGID_12_)" fill="#e2777e" d="M54.1 147.2h73.8v.9H54.1z"/><path transform="rotate(-7.545 91.065 148.607)" clip-path="url(#SVGID_12_)" fill="#e2767e" d="M54.2 148.1H128v.9H54.2z"/><path transform="rotate(-7.545 91.186 149.52)" clip-path="url(#SVGID_12_)" fill="#e2757e" d="M54.3 149.1h73.8v.9H54.3z"/><path transform="rotate(-7.545 91.306 150.432)" clip-path="url(#SVGID_12_)" fill="#e2747e" d="M54.4 150h73.8v.9H54.4z"/><path transform="rotate(-7.545 91.427 151.344)" clip-path="url(#SVGID_12_)" fill="#e2737e" d="M54.5 150.9h73.8v.9H54.5z"/><path transform="rotate(-7.545 91.548 152.257)" clip-path="url(#SVGID_12_)" fill="#e1717f" d="M54.7 151.8h73.8v.9H54.7z"/><path transform="rotate(-7.545 91.669 153.169)" clip-path="url(#SVGID_12_)" fill="#e1707f" d="M54.8 152.7h73.8v.9H54.8z"/><path transform="rotate(-7.545 91.79 154.081)" clip-path="url(#SVGID_12_)" fill="#e16f7f" d="M54.9 153.6h73.8v.9H54.9z"/><path transform="rotate(-7.545 91.91 154.993)" clip-path="url(#SVGID_12_)" fill="#e16e7f" d="M55 154.5h73.8v.9H55z"/><path transform="rotate(-7.545 92.031 155.906)" clip-path="url(#SVGID_12_)" fill="#e16d7f" d="M55.1 155.4h73.8v.9H55.1z"/><path clip-path="url(#SVGID_12_)" fill="#e16c7f" d="M128.7 151.5l.1.8v.1l-73.2 9.7-.1-.9z"/><path clip-path="url(#SVGID_12_)" fill="#e16b7f" d="M128.8 153.4l-73 9.6-.2-.9 73.2-9.7z"/><path clip-path="url(#SVGID_12_)" fill="#e06a7f" d="M128.8 154.3l-72.9 9.6-.1-.9 73-9.6z"/><path clip-path="url(#SVGID_12_)" fill="#e0697f" d="M128.8 155.2L56 164.9l-.1-1 72.9-9.6z"/><path clip-path="url(#SVGID_12_)" fill="#e0687f" d="M128.8 156.1l-72.7 9.7-.1-.9 72.8-9.7z"/><path clip-path="url(#SVGID_12_)" fill="#e0677f" d="M128.8 157.1l-72.6 9.6-.1-.9 72.7-9.7z"/><path clip-path="url(#SVGID_12_)" fill="#e0667f" d="M128.8 158l-72.4 9.6-.2-.9 72.6-9.6z"/><path clip-path="url(#SVGID_12_)" fill="#e0657f" d="M128.8 158.9l-72.3 9.6-.1-.9 72.4-9.6z"/><path clip-path="url(#SVGID_12_)" fill="#e0647f" d="M128.8 159.9l-71.2 9.4h-1l-.1-.8 72.3-9.6z"/><path clip-path="url(#SVGID_12_)" fill="#e0637f" d="M128.8 160.8l-64.2 8.5h-7l71.2-9.4z"/><path clip-path="url(#SVGID_12_)" fill="#df627f" d="M128.8 161.7l-57.2 7.6h-7l64.2-8.5z"/><path clip-path="url(#SVGID_12_)" fill="#df617f" d="M128.8 162.6l-50.2 6.7h-7l57.2-7.6z"/><path clip-path="url(#SVGID_12_)" fill="#df607f" d="M128.8 163.6l-43.2 5.7h-7l50.2-6.7z"/><path class="st201" d="M128.8 164.5l-36.2 4.8h-7l43.2-5.7z"/><path class="st201" d="M128.8 165.4l-29.2 3.9h-7l36.2-4.8z"/><path clip-path="url(#SVGID_12_)" fill="#df5e7f" d="M128.8 166.4l-22.2 2.9h-7l29.2-3.9z"/><path clip-path="url(#SVGID_12_)" fill="#df5d7f" d="M128.8 167.3l-15.2 2h-7l22.2-2.9z"/><path clip-path="url(#SVGID_12_)" fill="#df5c7f" d="M128.8 168.2l-8.1 1.1h-7.1l15.2-2z"/><path clip-path="url(#SVGID_12_)" fill="#df5b7f" d="M128.8 169.1l-1.1.2h-7l8.1-1.1z"/><path clip-path="url(#SVGID_12_)" fill="#df5a7f" d="M127.7 169.3l1.1-.2v.2z"/><circle class="st97" cx="78" cy="151.2" r="4" opacity=".24"/><circle class="st97" cx="77.9" cy="151.2" r="2.5" opacity=".71"/><path class="st98" d="M124.7 153.8h-12.8s-7.9 7-6.5 7.4c1.4.3 6.2-4.4 6.2-4.4l-3.7 8.1s5.6-.8 7.4-2.3c1.8-1.5 3.5-2.7 3.5-2.7l7.3.7-1.4-6.8z"/><g class="st209"><path class="st30" d="M150.1 145.8s-.4.1-1 .3c-.8.2-1.7.4-2.9.6-2.4.5-5.8 1.3-9.4 2.3-3.6 1-6.9 1.9-9.3 2.6-1.2.3-2.2.6-2.8.8-.7.2-1 .2-1.1.2 0 0 .4-.2 1-.4.7-.2 1.7-.5 2.8-.9 2.4-.7 5.7-1.7 9.3-2.7 3.7-1 7-1.7 9.5-2.2 1.2-.2 2.2-.4 2.9-.5.6-.1.9-.2 1-.1z"/></g><g class="st209"><path class="st30" d="M142.7 129s.6.9 1.2 2.4 1.4 3.6 2.3 6c.8 2.3 1.6 4.4 2.2 6 .6 1.5 1 2.5.9 2.5 0 0-.6-.9-1.2-2.4s-1.4-3.6-2.3-6c-.8-2.3-1.6-4.4-2.2-6-.6-1.6-1-2.5-.9-2.5z"/></g><g class="st209"><path class="st30" d="M132.5 103.4s.1.3 0 .8c0 .5-.2 1.3-.6 2.1-.4.8-1.1 1.8-2.1 2.5s-2.4 1.1-3.9 1c-1.4-.1-2.8-.6-3.7-1.5-1-.8-1.5-1.8-1.9-2.7-.3-.9-.4-1.6-.4-2.2 0-.5.1-.8.1-.8.1 0-.1 1.2.5 2.9.3.8.9 1.8 1.8 2.5.9.8 2.2 1.3 3.5 1.3 1.4.1 2.7-.3 3.6-.9 1-.6 1.7-1.5 2.1-2.3 1-1.6.9-2.8 1-2.7z"/></g><g class="st209"><ellipse transform="rotate(-16.947 125.877 157.038)" class="st30" cx="125.9" cy="157" rx=".2" ry="4.9"/></g><g class="st209"><ellipse transform="rotate(-5.253 139.606 161.402)" class="st30" cx="139.6" cy="161.4" rx="12.1" ry=".2"/></g><g class="st210"><path class="st91" d="M119.7 133.7c-.4-1.1-.6-2.3.7-2.9.9-.4 1.7.1 2.6.2 1.1.2 2.1-.1 2.9-.9 1.5-1.4 1.3-4.6-.9-5.2-.6-.2-1.2.5-.8 1 .4.6 1.1 1.3.9 2.1-.3 1.3-1.7 1.2-2.7 1-1.1-.3-2.1-.4-3.1.2-1.7 1-2.3 3.5-.6 4.9.5.4 1.2.2 1-.4z"/></g><g class="st210"><path class="st93" d="M139 156.6c-.7 1-1.6 1.8-2.7 1.1-.9-.5-.9-1.4-1.3-2.3-.5-1-1.3-1.7-2.4-1.9-2-.4-4.5 1.5-3.7 3.7.2.5 1.1.7 1.3.1.3-.7.4-1.7 1.2-2 1.2-.5 2 .7 2.3 1.6.4 1 .8 2 1.9 2.5 1.8.9 4.2-.1 4.3-2.2.1-.7-.6-1.1-.9-.6z"/></g><g class="st210"><path class="st91" d="M151.6 128.4c-.7 1-1.6 1.8-2.7 1.1-.9-.5-.9-1.4-1.3-2.3-.5-1-1.3-1.7-2.4-1.9-2-.4-4.5 1.5-3.7 3.7.2.5 1.1.7 1.3.1.3-.7.4-1.7 1.2-2 1.2-.5 2 .7 2.3 1.6.4 1 .8 2 1.9 2.5 1.8.9 4.2-.1 4.3-2.2 0-.6-.6-1.1-.9-.6z"/></g><g class="st210"><path class="st211" d="M114.6 132.2c1.1.6 1.9 1.4 1.3 2.6-.4.9-1.3 1-2.1 1.6-.9.6-1.6 1.5-1.7 2.6-.2 2.1 2 4.3 4.1 3.3.5-.3.5-1.1-.1-1.3-.7-.2-1.7-.2-2.1-1-.6-1.2.5-2 1.4-2.5 1-.5 1.9-1.1 2.3-2.2.7-1.9-.6-4.2-2.7-4.1-.6 0-1 .7-.4 1z"/></g><g class="st210"><path class="st212" d="M100.2 123.8c1.1.6 1.9 1.4 1.3 2.6-.4.9-1.3 1-2.1 1.6-.9.6-1.6 1.5-1.7 2.6-.2 2.1 2 4.3 4.1 3.3.5-.3.5-1.1-.1-1.3-.7-.2-1.7-.2-2.1-1-.6-1.2.5-2 1.4-2.5 1-.5 1.9-1.1 2.3-2.2.7-1.9-.6-4.2-2.7-4.1-.6 0-1 .7-.4 1z"/></g><g class="st210"><path class="st93" d="M131.9 145.3c-1 .7-2.1 1.1-2.9 0-.6-.8-.3-1.7-.4-2.6-.1-1.1-.6-2.1-1.6-2.6-1.8-1.1-4.7-.2-4.8 2.1 0 .6.8 1 1.2.5.5-.6 1-1.4 1.8-1.4 1.3 0 1.6 1.4 1.6 2.3 0 1.1.1 2.1.9 3 1.4 1.5 4 1.4 4.9-.6.2-.4-.2-1-.7-.7z"/></g><g class="st210"><path class="st95" d="M134.8 129.3c.8-.3 1.4-1 2-1.5.7-.6 1.5-1.3 2.2-1.9.6-.5-.3-1.4-.9-.9-.7.6-1.4 1.2-2 1.8-.6.6-1.4 1.1-1.8 1.9-.1.3.1.8.5.6z"/></g><g class="st210"><path class="st95" d="M132.3 111.8c.8-.3 1.4-1 2-1.5.7-.6 1.5-1.3 2.2-1.9.6-.5-.3-1.4-.9-.9-.7.6-1.4 1.2-2 1.8-.6.6-1.4 1.1-1.8 1.9-.2.2.1.7.5.6z"/></g><g class="st210"><path class="st95" d="M117.9 166.6c.8-.3 1.4-1 2-1.5.7-.6 1.5-1.3 2.2-1.9.6-.5-.3-1.4-.9-.9-.7.6-1.4 1.2-2 1.8-.6.6-1.4 1.1-1.8 1.9-.2.3.1.7.5.6z"/></g><g class="st210"><path class="st95" d="M93.3 127.7c.8-.3 1.4-1 2-1.5.7-.6 1.5-1.3 2.2-1.9.6-.5-.3-1.4-.9-.9-.7.6-1.4 1.2-2 1.8-.6.6-1.4 1.1-1.8 1.9-.2.3.1.7.5.6z"/></g><g class="st210"><path class="st95" d="M144.9 155.9c.5.7 1.4 1 2.1 1.4.8.5 1.7.9 2.5 1.4.7.4 1.2-.7.5-1.1-.8-.4-1.6-.9-2.4-1.3-.7-.4-1.5-1-2.3-1-.4-.1-.7.3-.4.6z"/></g><g class="st210"><path class="st30" d="M131 123.7c.5 0 1-.4.9-.9 0-.5-.4-.9-.9-.9s-1 .4-.9.9c0 .5.4.9.9.9z"/></g><g class="st210"><path class="st30" d="M110.3 126.4c.5 0 1-.4.9-.9 0-.5-.4-.9-.9-.9s-1 .4-.9.9c0 .4.4.9.9.9z"/></g><g class="st210"><path class="st30" d="M146.4 115.9c.5 0 1-.4.9-.9 0-.5-.4-.9-.9-.9s-1 .4-.9.9c0 .4.4.9.9.9z"/></g><g class="st210"><path class="st30" d="M150.1 151.5c.5 0 1-.4.9-.9 0-.5-.4-.9-.9-.9s-1 .4-.9.9c-.1.4.3.9.9.9z"/></g><g class="st210"><path class="st30" d="M123.4 135.5c.5 0 1-.4.9-.9 0-.5-.4-.9-.9-.9s-1 .4-.9.9c0 .4.3.9.9.9z"/></g><g class="st210"><path class="st30" d="M148.2 136.8c.5 0 1-.4.9-.9 0-.5-.4-.9-.9-.9s-1 .4-.9.9c0 .5.4.9.9.9z"/></g><g class="st210"><path class="st93" d="M136.3 114.6c-1.8.3-3.1 1.9-2.4 3.8.7 1.7 2.9 2.5 4.5 1.6 1.5-.9 1.9-3.1.9-4.5-1-1.4-3.4-1.9-4.5-.4-.3.5.2 1.1.7 1 .9-.3 1.7-.7 2.6.1.8.7.6 2-.2 2.6-.8.7-2.2.3-2.7-.6-.6-1 .1-2.6 1.2-3.1.2-.2.1-.6-.1-.5z"/></g><g class="st210"><path class="st212" d="M154.1 135.5c-1.8.3-3.1 1.9-2.4 3.8.7 1.7 2.9 2.5 4.5 1.6 1.5-.9 1.9-3.1.9-4.5-1-1.4-3.4-1.9-4.5-.4-.3.5.2 1.1.7 1 .9-.3 1.7-.7 2.6.1.8.7.6 2-.2 2.6-.8.7-2.2.3-2.7-.6-.6-1 .1-2.6 1.2-3.1.3-.2.2-.5-.1-.5z"/></g><g class="st210"><path class="st91" d="M106.3 115.9c-1.8.3-3.1 1.9-2.4 3.8.7 1.7 2.9 2.5 4.5 1.6 1.5-.9 1.9-3.1.9-4.5-1-1.4-3.4-1.9-4.5-.4-.3.5.2 1.1.7 1 .9-.3 1.7-.7 2.6.1.8.7.6 2-.2 2.6-.8.7-2.2.3-2.7-.6-.6-1 .1-2.6 1.2-3.1.3-.2.2-.6-.1-.5z"/></g><g class="st210"><path class="st212" d="M118.3 145c-1.8.3-3.1 1.9-2.4 3.8.7 1.7 2.9 2.5 4.5 1.6 1.5-.9 1.9-3.1.9-4.5-1-1.4-3.4-1.9-4.5-.4-.3.5.2 1.1.7 1 .9-.3 1.7-.7 2.6.1.8.7.6 2-.2 2.6-.8.7-2.2.3-2.7-.6-.6-1 .1-2.6 1.2-3.1.3-.2.2-.6-.1-.5z"/></g><g class="st210"><path class="st213" d="M126.3 120.3c.7-1.4 1.4-3 1.6-4.5.1-.7-.9-1.3-1.3-.5-.7 1.4-1 3.2-1.3 4.7 0 .4.8.9 1 .3z"/></g><g class="st210"><path class="st213" d="M132.7 137.3c.1-1.5.1-3.3-.3-4.8-.2-.7-1.3-.8-1.4 0-.1 1.6.3 3.3.7 4.8.1.5 1 .6 1 0z"/></g><g class="st210"><path class="st211" d="M137 131.9c.8 1.3 1.8 2.8 2.9 3.8.5.5 1.6 0 1.1-.8-.8-1.4-2.1-2.6-3.3-3.6-.3-.3-1 .1-.7.6z"/></g><g class="st210"><path class="st211" d="M147.1 120.8c.8 1.3 1.8 2.8 2.9 3.8.5.5 1.6 0 1.1-.8-.8-1.4-2.1-2.6-3.3-3.6-.3-.2-1.1.1-.7.6z"/></g><g class="st210"><path class="st211" d="M135.9 163.9c.8 1.3 1.8 2.8 2.9 3.8.5.5 1.6 0 1.1-.8-.8-1.4-2.1-2.6-3.3-3.6-.3-.3-1 .1-.7.6z"/></g><g class="st210"><path class="st213" d="M144.1 149.9c-1.4.7-3 1.5-4.1 2.6-.5.5-.1 1.6.7 1.2 1.4-.7 2.8-1.8 3.9-2.9.3-.4 0-1.2-.5-.9z"/></g><g class="st210"><path class="st213" d="M116.8 107.4c-1.4.7-3 1.5-4.1 2.6-.5.5-.1 1.6.7 1.2 1.4-.7 2.8-1.8 3.9-2.9.3-.4 0-1.2-.5-.9z"/></g><g class="st210"><path class="st213" d="M113.9 149.3c-1.4.7-3 1.5-4.1 2.6-.5.5-.1 1.6.7 1.2 1.4-.7 2.8-1.8 3.9-2.9.4-.4.1-1.2-.5-.9z"/></g><g class="st210"><path class="st212" d="M117.3 115.8c-.7 1.4-1.8 3-1.9 4.6-.2 1.9 1.8 1.3 3 1.1 1.1-.2 3.6-.3 3.3-2-.1-.7-.9-1.3-1.4-1.8-.7-.7-1.4-1.5-2.1-2.2-.7-.7-1.9.4-1.1 1.1.6.5 1.1 1.1 1.7 1.6.3.3 1.6 1.3 1.6 1.7.1-.2.1-.3.2-.5-.4.5-1.7.6-2.2.7-.4.1-.8.2-1.1.3-.6.2-.3.1-.2-.4.3-1.3.7-2.6.9-3.9-.2-.4-.5-.6-.7-.3z"/></g><g class="st210"><path class="st91" d="M155.2 150c-.1 1.5-.4 3.5 0 5 .6 1.8 2.2.5 3.1-.2.9-.6 3.2-1.8 2.2-3.2-.4-.6-1.4-.9-2-1.1-.9-.4-1.9-.8-2.8-1.2-1-.4-1.6 1.1-.6 1.5.7.3 1.4.5 2.2.8.4.2 2 .5 2.1 1v-.6c-.2.6-1.3 1.2-1.8 1.5-.3.2-.6.4-.9.7-.5.4-.2.2-.3-.3-.2-1.3-.4-2.6-.7-4-.1-.1-.5-.2-.5.1z"/></g><g class="st210"><path class="st91" d="M137.4 140c-.1 1.5-.4 3.5 0 5 .6 1.8 2.2.5 3.1-.2.9-.6 3.2-1.8 2.2-3.2-.4-.6-1.4-.9-2-1.1-.9-.4-1.9-.8-2.8-1.2-1-.4-1.6 1.1-.6 1.5.7.3 1.4.5 2.2.8.4.2 2 .5 2.1 1v-.6c-.2.6-1.3 1.2-1.8 1.5-.3.2-.6.4-.9.7-.5.4-.2.2-.3-.3-.2-1.3-.4-2.6-.7-4-.1-.2-.5-.2-.5.1z"/></g><path class="st214" d="M59.8 100.9h1c.7 0 1.7.1 2.9.1 2.5.1 6 .2 10.2.5h.2v.2c.1 2.3.1 4.9.2 7.6v.2h-.7c-5 .2-9.6.3-13.3.4h-.2v-.2c-.1-2.7-.1-4.9-.2-6.5v-1.8c-.1-.3-.1-.5-.1-.5s0 .2.1.7c0 .5.1 1.1.1 1.8.1 1.6.2 3.8.4 6.4l-.2-.2c3.7-.1 8.3-.3 13.3-.5h.5l-.2.2c-.1-2.7-.1-5.3-.2-7.6l.2.2c-4.1-.2-7.5-.5-10-.6-1.2-.1-2.2-.2-2.9-.2-.3 0-.6 0-.8-.1-.2-.1-.3-.1-.3-.1z"/><path class="st214" d="M73.8 101.9s-.7.5-1.9 1.3-2.9 1.8-4.9 2.9l-.1.1-.1-.1c-.1-.1-.2-.1-.3-.2-1.9-1.3-3.6-2.5-4.8-3.4-1.2-.9-1.9-1.5-1.9-1.5s.8.4 2.1 1.3c1.3.8 3 2 4.9 3.3.1.1.2.1.3.2h-.2c1.9-1.1 3.7-2.1 4.9-2.8 1.2-.8 2-1.2 2-1.1z"/><ellipse transform="rotate(-46.292 62.66 107.183)" class="st214" cx="62.7" cy="107.2" rx="3.6" ry=".2"/><ellipse transform="rotate(-37.458 72.047 106.664)" class="st214" cx="72" cy="106.7" rx=".2" ry="3.3"/><path class="st100" d="M115.7 76.8l6.8.7.4-2.3.5 2.7h6.6l.5-2.3.5 3.5 2.7.4s-.8 5.7 1.7 5.7c0 0 3.3-11.7-2.9-13.6-6.2-1.9-16.8-3.5-16.8 5.2z"/><path class="st100" d="M136.1 78.1c0-1.2.4-2.3 1.2-3.2.8-.9 1.9-1.4 3.1-1.5.7 0 1.4.1 1.9.5s.8 1.1.9 1.7c.2 1.9-1.3 3.7-3.1 4.2s-3.8 0-5.4-.9"/><path class="st100" d="M143.9 81.1s-.3.6-1.2 1.1c-.9.5-2.4.9-3.9.3-1.5-.6-2.4-1.9-2.7-2.8-.3-1-.2-1.6-.2-1.6.1 0 .1.6.4 1.5.4.9 1.2 2 2.6 2.5 1.4.5 2.8.2 3.6-.2 1-.4 1.4-.9 1.4-.8zm-30.7-1.5s-.1-.2-.2-.5-.3-.8-.3-1.4c-.2-1.2 0-3.1 1.1-4.7 1.1-1.7 2.6-2.6 3.8-3 .6-.2 1.1-.3 1.5-.3h.5c0 .1-.8.1-1.9.6-1.1.4-2.6 1.4-3.6 2.9-1 1.6-1.2 3.3-1.1 4.5-.1 1.2.2 1.9.2 1.9zm38.8 14s-.1.1-.3.1c-.2.1-.6.1-1-.1-.2-.1-.4-.3-.5-.5-.1-.3 0-.7.2-.9.2-.3.5-.4.9-.5.4-.1.8 0 1.2.2.8.3 1.4 1.1 1.6 2.1.1 1-.3 2-1 2.8-.8.8-1.9 1.2-3 1.3-1.1.1-2.4-.1-3.5-.8-.5-.3-1-.9-1.1-1.5-.2-.6-.1-1.2 0-1.8.3-1.1.8-2.1.9-3.1.2-2-.5-3.8-1.5-5-1-1.1-2.2-1.7-3-1.9-.8-.2-1.3-.2-1.3-.3h.4c.2 0 .6 0 1 .1.9.2 2.1.7 3.2 1.8s1.9 3.1 1.7 5.2c-.1 1.1-.6 2.1-.9 3.1-.1.5-.2 1.1 0 1.6s.5.9 1 1.3c.9.6 2.1.8 3.2.7 1.1-.1 2.1-.5 2.8-1.2.7-.7 1.1-1.6 1-2.5-.1-.9-.7-1.6-1.3-1.9-.3-.2-.7-.2-1-.2-.3.1-.6.2-.8.4-.2.2-.2.5-.2.7.1.2.2.4.4.5.4.2.7.2.9.1-.1.3 0 .2 0 .2z"/><path class="st30" d="M128.6 80.6c-.1.1-.5-.1-1.1-.2-.6-.2-1-.2-1-.3 0-.1.5-.2 1.2 0 .5 0 .9.4.9.5zm-10.9-.7c0-.1.3-.3.7-.5.5-.1.9-.1.9 0s-.3.3-.8.4c-.4.1-.8.2-.8.1z"/><g class="st215"><path class="st91" d="M131 87.7c-.1 1.1-1 2-2.1 2s-2-.8-2.1-1.9c-.1-1.1.8-2.1 2.1-2.1 1.2-.1 2.2.9 2.1 2z"/></g><g class="st215"><path class="st91" d="M120.8 88.6c-.1 1.1-1 2-2.1 2s-2-.8-2.1-1.9c-.1-1.1.8-2.1 2.1-2.1 1.2-.1 2.2.9 2.1 2z"/></g><path class="st216" d="M108.9 241.8s-.3.1-1 .1-1.6.1-2.6.1c-2.2.1-5.2.3-8.6.7-3.3.4-6.3.9-8.5 1.3-1 .2-1.9.3-2.6.5-.6.1-.9.2-1 .1l.9-.3c.6-.2 1.5-.4 2.5-.6 2.2-.5 5.2-1 8.5-1.4 3.3-.4 6.4-.5 8.6-.5h2.6c.8-.1 1.2 0 1.2 0zm34.3-60.9s-.1.4-.5 1c-.4.7-1 1.6-2.1 2.5-1.1.9-2.6 1.8-4.6 2.4-1.9.6-4.3.9-6.8 1-5.1.1-11.1.2-17.9.3-3.4 0-6.9.1-10.5.1-1.8 0-3.7 0-5.6.1h-2.9c-1 0-1.9 0-2.8.1-.5.1-.9.3-1.2.6-.3.3-.4.7-.4 1.2 0 .9.3 1.8.4 2.8.4 1.8.8 3.7 1.3 5.4.9 3.5 2 6.9 3 10.1 2.1 6.4 4 12.1 5.5 17 1.6 4.8 2.8 8.7 3.7 11.5.4 1.3.8 2.4 1 3.1.1.3.2.6.2.8.1.2.1.3.1.3s0-.1-.1-.3c-.1-.2-.2-.5-.3-.8-.3-.7-.6-1.8-1.1-3.1l-3.8-11.4c-1.6-4.8-3.5-10.6-5.6-16.9-1-3.2-2.1-6.6-3-10.1-.5-1.8-.9-3.6-1.3-5.4-.2-.9-.4-1.8-.4-2.9 0-.5.2-1.1.5-1.5.4-.4.9-.6 1.4-.7 1-.2 2-.1 2.9-.1h2.9c1.9 0 3.7 0 5.6-.1 3.7 0 7.2-.1 10.5-.1 6.7-.1 12.8-.1 17.9-.2 2.5-.1 4.8-.3 6.7-.9 1.9-.6 3.4-1.5 4.5-2.3 1.1-.9 1.8-1.8 2.1-2.4.5-.7.6-1.1.7-1.1z"/><ellipse transform="rotate(-87.231 58.86 241.482)" class="st216" cx="58.9" cy="241.5" rx=".2" ry="10.4"/><path class="st216" d="M67.9 187.7s0 .2-.1.6c-.1.4-.1.9-.2 1.6-.2 1.4-.5 3.3-.8 5.8-.6 4.9-1.3 11.6-1.7 19.1-.3 7.5-.2 14.3 0 19.2.1 2.5.2 4.4.3 5.8 0 .7.1 1.2.1 1.6v.6s0-.2-.1-.5c0-.4-.1-.9-.2-1.6-.1-1.4-.3-3.4-.4-5.8-.3-4.9-.4-11.7-.1-19.2.3-7.5 1.1-14.3 1.8-19.1.4-2.4.7-4.4.9-5.8.1-.6.2-1.2.3-1.6.1-.6.2-.7.2-.7z"/><g class="st217"><path class="st216" d="M85.4 188.9c0-.1 1.9.3 4 1.4 2.1 1.1 3.5 2.4 3.4 2.5-.1.1-1.6-1-3.6-2.1-2.1-1.1-3.9-1.7-3.8-1.8z"/></g><g class="st217"><ellipse transform="rotate(-31.452 89.438 187.548)" class="st216" cx="89.4" cy="187.6" rx=".2" ry="6.2"/></g><g class="st217"><path class="st216" d="M138.3 180.1s-.7-.4-1.6-1.3c-.9-.9-2.1-2.2-3.3-3.8-.6-.8-1.1-1.7-.9-2.6.1-.9.8-1.5 1.3-1.9.5-.4 1-.5 1.4-.7.3-.1.5-.2.5-.1s-.7.3-1.7 1c-.5.4-1 .9-1.1 1.7-.1.8.3 1.6.9 2.4 1.1 1.5 2.3 2.9 3.1 3.8.9.9 1.4 1.5 1.4 1.5z"/></g><g class="st217"><ellipse transform="rotate(-39.38 133.362 177.888)" class="st216" cx="133.4" cy="177.9" rx=".2" ry="3.8"/></g><path class="st212" d="M108 192.9v3.6l41.2-1.8-1.6-3.8z"/><path class="st212" d="M118.9 196c-.3 1-7.5 58.6-7.5 58.6l1.2.1 10.4-59-4.1.3m7.3-.3l8.6 58.5 1.1-.2-6.2-58.5zm7.8-.7l21.7 56 1.6-.4-20.3-56.2z"/><path class="st212" d="M117.2 222.7c.3-.1 28.5-.1 28.5-.1l-1.2-2.6-26.7 1.3-.6 1.4z"/><defs><path id="SVGID_13_" d="M47.5 6v5.6c0 6.3 5.1 11.4 11.3 11.4h79.6c6.3 0 11.3-5.1 11.3-11.4v-8L47.5 6z"/></defs><clipPath id="SVGID_14_"><use xlink:href="#SVGID_13_" overflow="visible"/></clipPath><path class="st218" d="M79.1 3.6L47.5 16.3V3.6z"/><path class="st218" d="M117.4 3.6L69.2 23H47.5v-6.7L79.1 3.6z"/><path clip-path="url(#SVGID_14_)" fill="#fefefe" d="M149.8 5.9L107.5 23H69.2l48.2-19.4h32.4z"/><path clip-path="url(#SVGID_14_)" fill="#fdfdfd" d="M149.8 21.4l-4.1 1.6h-38.2l42.3-17.1z"/><path clip-path="url(#SVGID_14_)" fill="#fcfcfc" d="M145.7 23l4.1-1.6V23z"/><g class="st217"><circle class="st32" cx="155.3" cy="17.7" r=".5"/><path class="st32" d="M156.4 16.6c-.1 0-.1 0 0 0-.6-.6-1.6-.6-2.1 0l-.1.1-.1.1c-.1.1-.1.3 0 .4.1.1.3.1.4 0l.2-.2c.4-.4.9-.4 1.3 0l.1.1c.1.1.3.1.4 0 .1-.1.1-.1.1-.2s0-.1-.1-.2l-.1-.1z"/><path class="st32" d="M157.1 16c0-.1 0-.1 0 0l-.2-.2c-1-.9-2.4-.8-3.4.1l-.2.2c-.1.1-.1.3 0 .4.1.1.3.1.4 0l.2-.2c.8-.7 2-.7 2.7 0l.1.1c.1.1.3.1.4 0 .1-.1.1-.3 0-.4z"/></g><g class="st222"><path class="st32" d="M26 18.5s-.1 0 0 0l-.1-.1v-2.5l-.6.4h-.2v-.1s0-.1.1-.1l.7-.5h.2v2.8s0 .1-.1.1c.1 0 0 0 0 0zm1.8.1c-.2 0-.4-.1-.6-.2s-.3-.3-.3-.5-.1-.5-.1-.8c0-.3 0-.5.1-.8s.2-.4.3-.5c.2-.1.3-.2.6-.2.2 0 .4.1.6.2.1.1.3.3.3.5s.1.5.1.8c0 .3 0 .5-.1.8s-.2.4-.3.5-.3.2-.6.2zm0-.3c.2 0 .3-.1.4-.2s.2-.3.3-.4c.1-.2.1-.4.1-.7 0-.3 0-.5-.1-.7-.1-.2-.1-.3-.3-.4-.1-.1-.2-.2-.4-.2s-.3.1-.4.2c-.1.1-.2.3-.3.4-.1.2-.1.4-.1.7 0 .3 0 .5.1.7.1.2.1.3.3.4.1.2.3.2.4.2zm1.7-1.5h-.1v-.3h.2v.3h-.1zm0 1.7h-.1v-.3h.2v.3h-.1zm.8-.4h.1c.1.1.1.1.2.1h.3c.1 0 .3 0 .4-.1.1-.1.2-.1.3-.3.1-.1.1-.2.1-.4s0-.3-.1-.4c-.1-.1-.2-.2-.3-.2-.1 0-.2-.1-.3-.1h-.4v-.3l.9-.9.1.1h-1.4v-.2h1.6v.1l-.9.9-.1-.1h.2c.2 0 .3 0 .4.1l.3.3c.1.1.1.3.1.5s0 .4-.1.5c-.1.1-.2.3-.4.3-.2.1-.3.1-.5.1-.1 0-.2 0-.3-.1-.1 0-.2-.1-.3-.2v-.2c-.1.6-.1.6.1.5-.1 0-.1 0 0 0zm3 .5c-.2 0-.4-.1-.6-.2s-.3-.3-.3-.5-.1-.5-.1-.8c0-.3 0-.5.1-.8s.2-.4.3-.5c.2-.1.3-.2.6-.2.2 0 .4.1.6.2.1.1.3.3.3.5s.1.5.1.8c0 .3 0 .5-.1.8s-.2.4-.3.5-.3.2-.6.2zm0-.3c.2 0 .3-.1.4-.2s.2-.3.3-.4c.1-.2.1-.4.1-.7 0-.3 0-.5-.1-.7-.1-.2-.1-.3-.3-.4-.1-.1-.2-.2-.4-.2s-.3.1-.4.2c-.1.1-.2.3-.3.4-.1.2-.1.4-.1.7 0 .3 0 .5.1.7.1.2.1.3.3.4.1.2.3.2.4.2zm3.8-2.4l-1 2.5v.1h-.2v-.2l1.1-2.7s0-.1.1-.1h.2v.1l1.1 2.7v.2h-.2v-.1l-1.1-2.5zm-.8 1.8l.1-.2h1.3l.1.2h-1.5zm2.7-2.1c.1 0 .1 0 .1.1l1.2 1.7h-.1l1.2-1.7.1-.1h.1v2.9h-.2V16h.1l-1.1 1.6h-.2L39 16l.1-.1v2.6h-.2v-2.8s0-.1.1-.1c-.1 0-.1 0 0 0z"/></g><g class="st222"><path class="st32" d="M160.9 16.7c.1 0 .2 0 .2.1l.2.2c0 .1.1.2.1.3 0 .1 0 .3-.1.4l-.3.3c-.1.1-.3.1-.4.1-.2 0-.3 0-.4-.1l-.3-.3c-.1-.1-.1-.2-.1-.4 0-.1 0-.2.1-.3 0-.1.1-.2.2-.2.1-.1.2-.1.2-.1-.1 0-.1-.1-.2-.1l-.2-.2c0-.1-.1-.2-.1-.3 0-.1 0-.3.1-.4l.3-.3c.1-.1.3-.1.4-.1s.3 0 .4.1l.3.3c.1.1.1.2.1.4 0 .1 0 .2-.1.3 0 .1-.1.2-.2.2 0 .1-.1.1-.2.1zm-.3 1.3c.2 0 .3-.1.4-.2s.2-.2.2-.4c0-.1 0-.2-.1-.3-.1-.1-.1-.2-.2-.2s-.2-.1-.3-.1-.2 0-.3.1-.2.1-.2.2c-.1.1-.1.2-.1.3 0 .2.1.3.2.4s.2.2.4.2zm-.6-1.9c0 .1 0 .2.1.3l.2.2c.1 0 .2.1.3.1.1 0 .2 0 .3-.1.1 0 .1-.1.2-.2 0-.1.1-.2.1-.3 0-.2-.1-.3-.2-.4-.1-.1-.2-.1-.4-.1s-.3 0-.4.1c-.1.1-.2.3-.2.4zm2.6 2.1c-.1 0-.2 0-.3-.1-.1 0-.2-.1-.3-.2v-.2h.2c.1.1.1.1.2.1h.2c.2 0 .3 0 .4-.1.1-.1.2-.1.3-.3s.1-.2.1-.4c0-.1 0-.3-.1-.4s-.1-.2-.2-.2-.2-.1-.4-.1h-.3c-.1 0-.1.1-.2.1h-.2v-.2l.2-1.1V15c0-.1.1 0 .1 0h1.3v.2h-1.2l-.2.9-.1-.1.1-.1c.1 0 .1 0 .2-.1h.3c.2 0 .3 0 .5.1l.3.3c.1.1.1.3.1.5s0 .4-.1.5c-.1.1-.2.3-.4.3s-.3.7-.5.7zm1.9-1.4c-.1 0-.2 0-.3-.1-.1-.1-.1-.2-.2-.3 0-.1-.1-.2-.1-.4 0-.1 0-.3.1-.4 0-.1.1-.2.2-.3s.2-.1.3-.1c.1 0 .2 0 .3.1s.1.2.2.3c0 .1.1.2.1.4 0 .1 0 .2-.1.4 0 .1-.1.2-.2.3s-.2.1-.3.1zm0-.2c.1 0 .2 0 .2-.1s.1-.2.1-.4 0-.3-.1-.4c-.1-.1-.1-.1-.2-.1s-.2.1-.2.2-.1.2-.1.4 0 .3.1.4.1 0 .2 0zm0 1.6c-.1 0-.1 0 0 0l-.1-.1V18l1.7-2.6.1-.1h.1v.2l-1.8 2.7c0-.1 0 0 0 0zm1.7 0c-.1 0-.2 0-.3-.1s-.1-.2-.2-.3-.1-.2-.1-.4c0-.1 0-.3.1-.4 0-.1.1-.2.2-.3s.2-.1.3-.1.2 0 .3.1c.1.1.1.2.2.3 0 .1.1.2.1.4 0 .1 0 .2-.1.4 0 .1-.1.2-.2.3s-.2.1-.3.1zm0-.2c.1 0 .2 0 .2-.1.1-.1.1-.2.1-.4s0-.3-.1-.4c-.1-.1-.1-.1-.2-.1s-.2.1-.2.2-.1.2-.1.4 0 .3.1.4c0-.1.1 0 .2 0z"/><path d="M170.8 18.5c-.2 0-.4-.1-.4-.3v-2.6c0-.2.2-.3.4-.3h6c.2 0 .4.1.4.3v.5h.5v1.5h-.5v.5c0 .2-.2.3-.4.3l-6 .1zm6.2-3h-6.2v2.8h6.2v-2.8zm-6 .3h4.5v2.3H171v-2.3z" fill="#f8f8f6"/></g><defs><path id="SVGID_15_" d="M164.9 399.5h-127c-14.4 0-26.1-11.7-26.1-26.1V36.1C11.7 21.7 23.4 10 37.8 10h127c14.4 0 26.1 11.7 26.1 26.1v337.3c.1 14.4-11.6 26.1-26 26.1z"/></defs><clipPath id="SVGID_16_"><use xlink:href="#SVGID_15_" overflow="visible"/></clipPath></svg>